<?xml version="1.0" encoding="UTF-8" standalone="no"?>
<!DOCTYPE svg PUBLIC "-//W3C//DTD SVG 1.1//EN"
 "http://www.w3.org/Graphics/SVG/1.1/DTD/svg11.dtd">
<!-- Generated by graphviz version 2.38.0 (20140413.2041)
 -->
<!-- Title: G Pages: 1 -->
<svg width="412pt" height="208pt"
 viewBox="0.00 0.00 412.00 208.00" xmlns="http://www.w3.org/2000/svg" xmlns:xlink="http://www.w3.org/1999/xlink">
<g id="graph0" class="graph" transform="scale(1 1) rotate(0) translate(4 204)">
<title>G</title>
<polygon fill="white" stroke="none" points="-4,4 -4,-204 408,-204 408,4 -4,4"/>
<!-- c11 -->
<g id="node1" class="node"><title>c11</title>
<g id="a_node1"><a xlink:href="./Tribunal.html" xlink:title="&lt;TABLE&gt;">
</a>
</g>
<g id="a_node1_0"><a xlink:href="./Tribunal.html" xlink:title="tp6.Tribunal">
<polygon fill="none" stroke="black" points="205.5,-176.5 205.5,-195.5 396.5,-195.5 396.5,-176.5 205.5,-176.5"/>
<text text-anchor="start" x="281" y="-183.5" font-family="arial" font-size="10.00"> Tribunal </text>
<polygon fill="none" stroke="black" points="205.5,-157.5 205.5,-176.5 396.5,-176.5 396.5,-157.5 205.5,-157.5"/>
<text text-anchor="start" x="209.5" y="-164.5" font-family="arial" font-size="10.00"> &#45; juge : Personne </text>
<polygon fill="none" stroke="black" points="205.5,-112.5 205.5,-157.5 396.5,-157.5 396.5,-112.5 205.5,-112.5"/>
<text text-anchor="start" x="209.5" y="-145.5" font-family="arial" font-size="10.00"> + Tribunal(nom : String, juge : Personne) </text>
<text text-anchor="start" x="209.5" y="-132.5" font-family="arial" font-size="10.00"> + getJuge() : Personne </text>
<text text-anchor="start" x="209.5" y="-119.5" font-family="arial" font-size="10.00"> + setJuge(juge : Personne) </text>
</a>
</g>
<g><a xlink:href="./Tribunal.html" xlink:title="&lt;TABLE&gt;">
</a>
</g>
</g>
<!-- c24 -->
<g id="node2" class="node"><title>c24</title>
<g id="a_node2"><a xlink:href="./Mairie.html" xlink:title="&lt;TABLE&gt;">
</a>
</g>
<g id="a_node2_1"><a xlink:href="./Mairie.html" xlink:title="tp6.Mairie">
<polygon fill="none" stroke="black" points="206.5,-67.5 206.5,-86.5 395.5,-86.5 395.5,-67.5 206.5,-67.5"/>
<text text-anchor="start" x="284.5" y="-74.5" font-family="arial" font-size="10.00"> Mairie </text>
<polygon fill="none" stroke="black" points="206.5,-48.5 206.5,-67.5 395.5,-67.5 395.5,-48.5 206.5,-48.5"/>
<text text-anchor="start" x="210.5" y="-55.5" font-family="arial" font-size="10.00"> &#45; maire : Personne </text>
<polygon fill="none" stroke="black" points="206.5,-3.5 206.5,-48.5 395.5,-48.5 395.5,-3.5 206.5,-3.5"/>
<text text-anchor="start" x="210.5" y="-36.5" font-family="arial" font-size="10.00"> + Mairie(nom : String, maire : Personne) </text>
<text text-anchor="start" x="210.5" y="-23.5" font-family="arial" font-size="10.00"> + getMaire() : Personne </text>
<text text-anchor="start" x="210.5" y="-10.5" font-family="arial" font-size="10.00"> + setMaire(maire : Personne) </text>
</a>
</g>
<g><a xlink:href="./Mairie.html" xlink:title="&lt;TABLE&gt;">
</a>
</g>
</g>
<!-- c26 -->
<g id="node3" class="node"><title>c26</title>
<g id="a_node3"><a xlink:href="./Administration.html" xlink:title="&lt;TABLE&gt;">
</a>
</g>
<g id="a_node3_2"><a xlink:href="./Administration.html" xlink:title="tp6.Administration">
<polygon fill="lemonChiffon" stroke="none" points="8,-58 8,-141 153,-141 153,-58 8,-58"/>
<polygon fill="none" stroke="black" points="8.5,-121.5 8.5,-140.5 153.5,-140.5 153.5,-121.5 8.5,-121.5"/>
<text text-anchor="start" x="46.5" y="-128.5" font-family="arial italic" font-size="10.00"> Administration </text>
<polygon fill="none" stroke="black" points="8.5,-102.5 8.5,-121.5 153.5,-121.5 153.5,-102.5 8.5,-102.5"/>
<text text-anchor="start" x="12.5" y="-109.5" font-family="arial" font-size="10.00"> &#45; nom : String </text>
<polygon fill="none" stroke="black" points="8.5,-57.5 8.5,-102.5 153.5,-102.5 153.5,-57.5 8.5,-57.5"/>
<text text-anchor="start" x="12.5" y="-90.5" font-family="arial" font-size="10.00"> + Administration(nom : String) </text>
<text text-anchor="start" x="12.5" y="-77.5" font-family="arial" font-size="10.00"> + getNom() : String </text>
<text text-anchor="start" x="12.5" y="-64.5" font-family="arial" font-size="10.00"> + setNom(nom : String) </text>
</a>
</g>
<g><a xlink:href="./Administration.html" xlink:title="&lt;TABLE&gt;">
</a>
</g>
</g>
<!-- c26&#45;&gt;c11 -->
<g id="edge1" class="edge"><title>c26:p&#45;&gt;c11:p</title>
<path fill="none" stroke="black" d="M162.99,-120.059C176.624,-123.499 190.873,-127.094 204.805,-130.609"/>
<polygon fill="none" stroke="black" points="163.736,-116.638 153.183,-117.585 162.023,-123.425 163.736,-116.638"/>
</g>
<!-- c26&#45;&gt;c24 -->
<g id="edge2" class="edge"><title>c26:p&#45;&gt;c24:p</title>
<path fill="none" stroke="black" d="M163.214,-79.259C177.163,-75.8038 191.749,-72.1906 205.976,-68.6665"/>
<polygon fill="none" stroke="black" points="162.048,-75.9418 153.183,-81.7436 163.732,-82.7364 162.048,-75.9418"/>
</g>
</g>
</svg>
