<?xml version="1.0" encoding="UTF-8" standalone="no"?>
<!DOCTYPE svg PUBLIC "-//W3C//DTD SVG 1.1//EN"
 "http://www.w3.org/Graphics/SVG/1.1/DTD/svg11.dtd">
<!-- Generated by graphviz version 2.38.0 (20140413.2041)
 -->
<!-- Title: G Pages: 1 -->
<svg width="629pt" height="329pt"
 viewBox="0.00 0.00 629.00 328.50" xmlns="http://www.w3.org/2000/svg" xmlns:xlink="http://www.w3.org/1999/xlink">
<g id="graph0" class="graph" transform="scale(1 1) rotate(0) translate(4 324.5)">
<title>G</title>
<polygon fill="white" stroke="none" points="-4,4 -4,-324.5 625,-324.5 625,4 -4,4"/>
<!-- c30 -->
<g id="node1" class="node"><title>c30</title>
<g id="a_node1"><a xlink:href="./Pacs.html" xlink:title="&lt;TABLE&gt;">
</a>
</g>
<g id="a_node1_0"><a xlink:href="./Pacs.html" xlink:title="tp6.Pacs">
<polygon fill="none" stroke="black" points="387.5,-280.5 387.5,-299.5 608.5,-299.5 608.5,-280.5 387.5,-280.5"/>
<text text-anchor="start" x="483.5" y="-287.5" font-family="arial" font-size="10.00"> Pacs </text>
<polygon fill="none" stroke="black" points="387.5,-261.5 387.5,-280.5 608.5,-280.5 608.5,-261.5 387.5,-261.5"/>
<text text-anchor="start" x="391.5" y="-268.5" font-family="arial" font-size="10.00"> &#160;</text>
<polygon fill="none" stroke="black" points="387.5,-216.5 387.5,-261.5 608.5,-261.5 608.5,-216.5 387.5,-216.5"/>
<text text-anchor="start" x="391.5" y="-249.5" font-family="arial" font-size="10.00"> «create» </text>
<text text-anchor="start" x="391.5" y="-236.5" font-family="arial" font-size="10.00"> + Pacs(t : Tribunal, a : Personne, b : Personne) </text>
<text text-anchor="start" x="391.5" y="-223.5" font-family="arial" font-size="10.00"> # contracter(a : Personne, b : Personne) </text>
</a>
</g>
<g><a xlink:href="./Pacs.html" xlink:title="&lt;TABLE&gt;">
</a>
</g>
</g>
<!-- c32 -->
<g id="node2" class="node"><title>c32</title>
<g id="a_node2"><a xlink:href="./Mariage.html" xlink:title="&lt;TABLE&gt;">
</a>
</g>
<g id="a_node2_1"><a xlink:href="./Mariage.html" xlink:title="tp6.Mariage">
<polygon fill="none" stroke="black" points="382.5,-171.5 382.5,-190.5 613.5,-190.5 613.5,-171.5 382.5,-171.5"/>
<text text-anchor="start" x="477.5" y="-178.5" font-family="arial" font-size="10.00"> Mariage </text>
<polygon fill="none" stroke="black" points="382.5,-126.5 382.5,-171.5 613.5,-171.5 613.5,-126.5 382.5,-126.5"/>
<text text-anchor="start" x="386.5" y="-159.5" font-family="arial" font-size="10.00"> &#45; typeContrat : String </text>
<text text-anchor="start" x="386.5" y="-146.5" font-family="arial" font-size="10.00"> &#45; mairie : String </text>
<text text-anchor="start" x="386.5" y="-133.5" font-family="arial" font-size="10.00"> &#45; nomMaire : String </text>
<polygon fill="none" stroke="black" points="382.5,-3.5 382.5,-126.5 613.5,-126.5 613.5,-3.5 382.5,-3.5"/>
<text text-anchor="start" x="386.5" y="-114.5" font-family="arial" font-size="10.00"> «create» </text>
<text text-anchor="start" x="386.5" y="-101.5" font-family="arial" font-size="10.00"> + Mariage(m : Mairie, a : Personne, b : Personne) </text>
<text text-anchor="start" x="386.5" y="-88.5" font-family="arial" font-size="10.00"> + getTypeContrat() : String </text>
<text text-anchor="start" x="386.5" y="-75.5" font-family="arial" font-size="10.00"> + setTypeContrat(typeContrat : String) </text>
<text text-anchor="start" x="386.5" y="-62.5" font-family="arial" font-size="10.00"> + getMairie() : String </text>
<text text-anchor="start" x="386.5" y="-49.5" font-family="arial" font-size="10.00"> + setMairie(mairie : String) </text>
<text text-anchor="start" x="386.5" y="-36.5" font-family="arial" font-size="10.00"> + getNomMaire() : String </text>
<text text-anchor="start" x="386.5" y="-23.5" font-family="arial" font-size="10.00"> + setNomMaire(nomMaire : String) </text>
<text text-anchor="start" x="386.5" y="-10.5" font-family="arial" font-size="10.00"> # contracter(a : Personne, b : Personne) </text>
</a>
</g>
<g><a xlink:href="./Mariage.html" xlink:title="&lt;TABLE&gt;">
</a>
</g>
</g>
<!-- c34 -->
<g id="node3" class="node"><title>c34</title>
<g id="a_node3"><a xlink:href="./ContratVieCommune.html" xlink:title="&lt;TABLE&gt;">
</a>
</g>
<g id="a_node3_2"><a xlink:href="./ContratVieCommune.html" xlink:title="tp6.ContratVieCommune">
<polygon fill="lemonChiffon" stroke="none" points="8,-38.5 8,-316.5 330,-316.5 330,-38.5 8,-38.5"/>
<polygon fill="none" stroke="black" points="8,-284.5 8,-316.5 330,-316.5 330,-284.5 8,-284.5"/>
<text text-anchor="start" x="143" y="-304.5" font-family="arial" font-size="10.00"> «abstract» </text>
<text text-anchor="start" x="120.5" y="-291.5" font-family="arial italic" font-size="10.00"> ContratVieCommune </text>
<polygon fill="none" stroke="black" points="8,-200.5 8,-284.5 330,-284.5 330,-200.5 8,-200.5"/>
<text text-anchor="start" x="12" y="-272.5" font-family="arial" font-size="10.00"> &#45; epoux : ArrayList&lt;Personne&gt; </text>
<text text-anchor="start" x="12" y="-259.5" font-family="arial" font-size="10.00"> &#45; numeroContrat : int </text>
<text text-anchor="start" x="12" y="-246.5" font-family="arial" font-size="10.00"> &#45; compteurNumeroContrat : int </text>
<text text-anchor="start" x="12" y="-233.5" font-family="arial" font-size="10.00"> &#45; dateDebut : int </text>
<text text-anchor="start" x="12" y="-220.5" font-family="arial" font-size="10.00"> &#45; dateFin : int </text>
<text text-anchor="start" x="12" y="-207.5" font-family="arial" font-size="10.00"> &#45; administration : Administration </text>
<polygon fill="none" stroke="black" points="8,-38.5 8,-200.5 330,-200.5 330,-38.5 8,-38.5"/>
<text text-anchor="start" x="12" y="-188.5" font-family="arial" font-size="10.00"> «create» </text>
<text text-anchor="start" x="12" y="-175.5" font-family="arial" font-size="10.00"> + ContratVieCommune(m : Administration, a : Personne, b : Personne) </text>
<text text-anchor="start" x="12" y="-162.5" font-family="arial" font-size="10.00"> + getAdministration() : Administration </text>
<text text-anchor="start" x="12" y="-149.5" font-family="arial" font-size="10.00"> + setAdministration(administration : Administration) </text>
<text text-anchor="start" x="12" y="-136.5" font-family="arial" font-size="10.00"> + getConjoint(p : Personne) : Personne </text>
<text text-anchor="start" x="12" y="-123.5" font-family="arial" font-size="10.00"> + getEpoux() : ArrayList&lt;Personne&gt; </text>
<text text-anchor="start" x="12" y="-110.5" font-family="arial" font-size="10.00"> + setEpoux(epoux : ArrayList&lt;Personne&gt;) </text>
<text text-anchor="start" x="12" y="-97.5" font-family="arial" font-size="10.00"> + getNumeroContrat() : int </text>
<text text-anchor="start" x="12" y="-84.5" font-family="arial" font-size="10.00"> + setNumeroContrat(numeroContrat : int) </text>
<text text-anchor="start" x="12" y="-71.5" font-family="arial" font-size="10.00"> + equals(obj : Object) : boolean </text>
<text text-anchor="start" x="12" y="-58.5" font-family="arial" font-size="10.00"> # initialiserContrat(a : Personne, b : Personne) </text>
<text text-anchor="start" x="12" y="-45.5" font-family="arial italic" font-size="10.00"> # contracter(a : Personne, b : Personne) </text>
</a>
</g>
<g><a xlink:href="./ContratVieCommune.html" xlink:title="&lt;TABLE&gt;">
</a>
</g>
</g>
<!-- c34&#45;&gt;c30 -->
<g id="edge1" class="edge"><title>c34:p&#45;&gt;c30:p</title>
<path fill="none" stroke="black" d="M340.192,-219.722C355.941,-223.629 371.603,-227.515 386.591,-231.233"/>
<polygon fill="none" stroke="black" points="340.929,-216.299 330.381,-217.288 339.244,-223.093 340.929,-216.299"/>
</g>
<!-- c34&#45;&gt;c32 -->
<g id="edge2" class="edge"><title>c34:p&#45;&gt;c32:p</title>
<path fill="none" stroke="black" d="M340.177,-135.803C354.319,-132.338 368.392,-128.889 381.969,-125.563"/>
<polygon fill="none" stroke="black" points="339.26,-132.424 330.381,-138.203 340.926,-139.223 339.26,-132.424"/>
</g>
</g>
</svg>
