<?xml version="1.0" encoding="UTF-8" standalone="no"?>
<!DOCTYPE svg PUBLIC "-//W3C//DTD SVG 1.1//EN"
 "http://www.w3.org/Graphics/SVG/1.1/DTD/svg11.dtd">
<!-- Generated by graphviz version 2.38.0 (20140413.2041)
 -->
<!-- Title: G Pages: 1 -->
<svg width="502pt" height="242pt"
 viewBox="0.00 0.00 502.00 242.00" xmlns="http://www.w3.org/2000/svg" xmlns:xlink="http://www.w3.org/1999/xlink">
<g id="graph0" class="graph" transform="scale(1 1) rotate(0) translate(4 238)">
<title>G</title>
<polygon fill="white" stroke="none" points="-4,4 -4,-238 498,-238 498,4 -4,4"/>
<!-- c9 -->
<g id="node1" class="node"><title>c9</title>
<g id="a_node1"><a xlink:href="./Pacs.html" xlink:title="&lt;TABLE&gt;">
</a>
</g>
<g id="a_node1_0"><a xlink:href="./Pacs.html" xlink:title="tp6.Pacs">
<polygon fill="none" stroke="black" points="297.5,-181 297.5,-200 486.5,-200 486.5,-181 297.5,-181"/>
<text text-anchor="start" x="377.5" y="-188" font-family="arial" font-size="10.00"> Pacs </text>
<polygon fill="none" stroke="black" points="297.5,-162 297.5,-181 486.5,-181 486.5,-162 297.5,-162"/>
<text text-anchor="start" x="301.5" y="-169" font-family="arial" font-size="10.00"> &#160;</text>
<polygon fill="none" stroke="black" points="297.5,-130 297.5,-162 486.5,-162 486.5,-130 297.5,-130"/>
<text text-anchor="start" x="301.5" y="-150" font-family="arial" font-size="10.00"> + Pacs(a : Personne, b : Personne) </text>
<text text-anchor="start" x="301.5" y="-137" font-family="arial" font-size="10.00"> # contracter(a : Personne, b : Personne) </text>
</a>
</g>
<g><a xlink:href="./Pacs.html" xlink:title="&lt;TABLE&gt;">
</a>
</g>
</g>
<!-- c13 -->
<g id="node2" class="node"><title>c13</title>
<g id="a_node2"><a xlink:href="./Mariage.html" xlink:title="&lt;TABLE&gt;">
</a>
</g>
<g id="a_node2_1"><a xlink:href="./Mariage.html" xlink:title="tp6.Mariage">
<polygon fill="none" stroke="black" points="297.5,-85 297.5,-104 486.5,-104 486.5,-85 297.5,-85"/>
<text text-anchor="start" x="371.5" y="-92" font-family="arial" font-size="10.00"> Mariage </text>
<polygon fill="none" stroke="black" points="297.5,-66 297.5,-85 486.5,-85 486.5,-66 297.5,-66"/>
<text text-anchor="start" x="301.5" y="-73" font-family="arial" font-size="10.00"> &#160;</text>
<polygon fill="none" stroke="black" points="297.5,-34 297.5,-66 486.5,-66 486.5,-34 297.5,-34"/>
<text text-anchor="start" x="301.5" y="-54" font-family="arial" font-size="10.00"> + Mariage(a : Personne, b : Personne) </text>
<text text-anchor="start" x="301.5" y="-41" font-family="arial" font-size="10.00"> # contracter(a : Personne, b : Personne) </text>
</a>
</g>
<g><a xlink:href="./Mariage.html" xlink:title="&lt;TABLE&gt;">
</a>
</g>
</g>
<!-- c14 -->
<g id="node3" class="node"><title>c14</title>
<g id="a_node3"><a xlink:href="./ContratVieCommune.html" xlink:title="&lt;TABLE&gt;">
</a>
</g>
<g id="a_node3_2"><a xlink:href="./ContratVieCommune.html" xlink:title="tp6.ContratVieCommune">
<polygon fill="lemonChiffon" stroke="none" points="8,-4 8,-230 245,-230 245,-4 8,-4"/>
<polygon fill="none" stroke="black" points="8.5,-198 8.5,-230 245.5,-230 245.5,-198 8.5,-198"/>
<text text-anchor="start" x="101" y="-218" font-family="arial" font-size="10.00"> «abstract» </text>
<text text-anchor="start" x="78.5" y="-205" font-family="arial italic" font-size="10.00"> ContratVieCommune </text>
<polygon fill="none" stroke="black" points="8.5,-127 8.5,-198 245.5,-198 245.5,-127 8.5,-127"/>
<text text-anchor="start" x="12.5" y="-186" font-family="arial" font-size="10.00"> &#45; epoux : ArrayList&lt;Personne&gt; </text>
<text text-anchor="start" x="12.5" y="-173" font-family="arial" font-size="10.00"> &#45; numeroContrat : int </text>
<text text-anchor="start" x="12.5" y="-160" font-family="arial" font-size="10.00"> &#45; compteurNumeroContrat : int </text>
<text text-anchor="start" x="12.5" y="-147" font-family="arial" font-size="10.00"> &#45; dateDebut : int </text>
<text text-anchor="start" x="12.5" y="-134" font-family="arial" font-size="10.00"> &#45; dateFin : int </text>
<polygon fill="none" stroke="black" points="8.5,-4 8.5,-127 245.5,-127 245.5,-4 8.5,-4"/>
<text text-anchor="start" x="12.5" y="-115" font-family="arial" font-size="10.00"> + ContratVieCommune(a : Personne, b : Personne) </text>
<text text-anchor="start" x="12.5" y="-102" font-family="arial" font-size="10.00"> + getConjoint(p : Personne) : Personne </text>
<text text-anchor="start" x="12.5" y="-89" font-family="arial" font-size="10.00"> + getEpoux() : ArrayList&lt;Personne&gt; </text>
<text text-anchor="start" x="12.5" y="-76" font-family="arial" font-size="10.00"> + setEpoux(epoux : ArrayList&lt;Personne&gt;) </text>
<text text-anchor="start" x="12.5" y="-63" font-family="arial" font-size="10.00"> + getNumeroContrat() : int </text>
<text text-anchor="start" x="12.5" y="-50" font-family="arial" font-size="10.00"> + setNumeroContrat(numeroContrat : int) </text>
<text text-anchor="start" x="12.5" y="-37" font-family="arial" font-size="10.00"> + equals(obj : Object) : boolean </text>
<text text-anchor="start" x="12.5" y="-24" font-family="arial" font-size="10.00"> # initialiserContrat(a : Personne, b : Personne) </text>
<text text-anchor="start" x="12.5" y="-11" font-family="arial italic" font-size="10.00"> # contracter(a : Personne, b : Personne) </text>
</a>
</g>
<g><a xlink:href="./ContratVieCommune.html" xlink:title="&lt;TABLE&gt;">
</a>
</g>
</g>
<!-- c14&#45;&gt;c9 -->
<g id="edge1" class="edge"><title>c14:p&#45;&gt;c9:p</title>
<path fill="none" stroke="black" d="M255.279,-140.321C269.21,-142.863 283.196,-145.416 296.613,-147.865"/>
<polygon fill="none" stroke="black" points="255.62,-136.825 245.154,-138.473 254.363,-143.712 255.62,-136.825"/>
</g>
<!-- c14&#45;&gt;c13 -->
<g id="edge2" class="edge"><title>c14:p&#45;&gt;c13:p</title>
<path fill="none" stroke="black" d="M255.279,-93.6792C269.21,-91.1366 283.196,-88.5839 296.613,-86.1353"/>
<polygon fill="none" stroke="black" points="254.363,-90.2884 245.154,-95.5271 255.62,-97.1747 254.363,-90.2884"/>
</g>
</g>
</svg>
