<?xml version="1.0" encoding="UTF-8" standalone="no"?>
<!DOCTYPE svg PUBLIC "-//W3C//DTD SVG 1.1//EN"
 "http://www.w3.org/Graphics/SVG/1.1/DTD/svg11.dtd">
<!-- Generated by graphviz version 2.38.0 (20140413.2041)
 -->
<!-- Title: G Pages: 1 -->
<svg width="650pt" height="442pt"
 viewBox="0.00 0.00 650.00 442.00" xmlns="http://www.w3.org/2000/svg" xmlns:xlink="http://www.w3.org/1999/xlink">
<g id="graph0" class="graph" transform="scale(1 1) rotate(0) translate(4 438)">
<title>G</title>
<polygon fill="white" stroke="none" points="-4,4 -4,-438 646,-438 646,4 -4,4"/>
<!-- c0 -->
<g id="node1" class="node"><title>c0</title>
<g id="a_node1"><a xlink:href="./Personne.html" xlink:title="&lt;TABLE&gt;">
</a>
</g>
<g id="a_node1_0"><a xlink:href="./Personne.html" xlink:title="tp6.Personne">
<polygon fill="none" stroke="black" points="8.5,-159 8.5,-178 393.5,-178 393.5,-159 8.5,-159"/>
<text text-anchor="start" x="177" y="-166" font-family="arial" font-size="10.00"> Personne </text>
<polygon fill="none" stroke="black" points="8.5,-101 8.5,-159 393.5,-159 393.5,-101 8.5,-101"/>
<text text-anchor="start" x="12.5" y="-147" font-family="arial" font-size="10.00"> &#45; nom : String </text>
<text text-anchor="start" x="12.5" y="-134" font-family="arial" font-size="10.00"> &#45; prenom : String </text>
<text text-anchor="start" x="12.5" y="-121" font-family="arial" font-size="10.00"> &#45; contratsArchives : ArrayList&lt;ContratVieCommune&gt; </text>
<text text-anchor="start" x="12.5" y="-108" font-family="arial" font-size="10.00"> &#45; contratCourant : ContratVieCommune </text>
<polygon fill="none" stroke="black" points="8.5,-4 8.5,-101 393.5,-101 393.5,-4 8.5,-4"/>
<text text-anchor="start" x="12.5" y="-89" font-family="arial" font-size="10.00"> + Personne(nom : String, prenom : String) </text>
<text text-anchor="start" x="12.5" y="-76" font-family="arial" font-size="10.00"> + resilier(c : ContratVieCommune) </text>
<text text-anchor="start" x="12.5" y="-63" font-family="arial" font-size="10.00"> &#45; verifierDateContrats(contrat1 : ContratVieCommune, contrat2 : ContratVieCommune) </text>
<text text-anchor="start" x="12.5" y="-50" font-family="arial" font-size="10.00"> + verifierDateContrat() </text>
<text text-anchor="start" x="12.5" y="-37" font-family="arial" font-size="10.00"> + archiver(c : ContratVieCommune) </text>
<text text-anchor="start" x="12.5" y="-24" font-family="arial" font-size="10.00"> + getContratsArchives() : ArrayList&lt;ContratVieCommune&gt; </text>
<text text-anchor="start" x="12.5" y="-11" font-family="arial" font-size="10.00"> + getContratCourant() : ContratVieCommune </text>
</a>
</g>
<g><a xlink:href="./Personne.html" xlink:title="&lt;TABLE&gt;">
</a>
</g>
</g>
<!-- c1 -->
<g id="node2" class="node"><title>c1</title>
<g id="a_node2"><a xlink:href="./Pacs.html" xlink:title="&lt;TABLE&gt;">
</a>
</g>
<g id="a_node2_1"><a xlink:href="./Pacs.html" xlink:title="tp6.Pacs">
<polygon fill="none" stroke="black" points="445.5,-381 445.5,-400 634.5,-400 634.5,-381 445.5,-381"/>
<text text-anchor="start" x="525.5" y="-388" font-family="arial" font-size="10.00"> Pacs </text>
<polygon fill="none" stroke="black" points="445.5,-362 445.5,-381 634.5,-381 634.5,-362 445.5,-362"/>
<text text-anchor="start" x="449.5" y="-369" font-family="arial" font-size="10.00"> &#160;</text>
<polygon fill="none" stroke="black" points="445.5,-330 445.5,-362 634.5,-362 634.5,-330 445.5,-330"/>
<text text-anchor="start" x="449.5" y="-350" font-family="arial" font-size="10.00"> + Pacs(a : Personne, b : Personne) </text>
<text text-anchor="start" x="449.5" y="-337" font-family="arial" font-size="10.00"> # contracter(a : Personne, b : Personne) </text>
</a>
</g>
<g><a xlink:href="./Pacs.html" xlink:title="&lt;TABLE&gt;">
</a>
</g>
</g>
<!-- c3 -->
<g id="node3" class="node"><title>c3</title>
<g id="a_node3"><a xlink:href="./Mariage.html" xlink:title="&lt;TABLE&gt;">
</a>
</g>
<g id="a_node3_2"><a xlink:href="./Mariage.html" xlink:title="tp6.Mariage">
<polygon fill="none" stroke="black" points="445.5,-285 445.5,-304 634.5,-304 634.5,-285 445.5,-285"/>
<text text-anchor="start" x="519.5" y="-292" font-family="arial" font-size="10.00"> Mariage </text>
<polygon fill="none" stroke="black" points="445.5,-266 445.5,-285 634.5,-285 634.5,-266 445.5,-266"/>
<text text-anchor="start" x="449.5" y="-273" font-family="arial" font-size="10.00"> &#160;</text>
<polygon fill="none" stroke="black" points="445.5,-234 445.5,-266 634.5,-266 634.5,-234 445.5,-234"/>
<text text-anchor="start" x="449.5" y="-254" font-family="arial" font-size="10.00"> + Mariage(a : Personne, b : Personne) </text>
<text text-anchor="start" x="449.5" y="-241" font-family="arial" font-size="10.00"> # contracter(a : Personne, b : Personne) </text>
</a>
</g>
<g><a xlink:href="./Mariage.html" xlink:title="&lt;TABLE&gt;">
</a>
</g>
</g>
<!-- c4 -->
<g id="node4" class="node"><title>c4</title>
<g id="a_node4"><a xlink:href="./ContratVieCommune.html" xlink:title="&lt;TABLE&gt;">
</a>
</g>
<g id="a_node4_3"><a xlink:href="./ContratVieCommune.html" xlink:title="tp6.ContratVieCommune">
<polygon fill="none" stroke="black" points="82.5,-398 82.5,-430 319.5,-430 319.5,-398 82.5,-398"/>
<text text-anchor="start" x="175" y="-418" font-family="arial" font-size="10.00"> «abstract» </text>
<text text-anchor="start" x="152.5" y="-405" font-family="arial italic" font-size="10.00"> ContratVieCommune </text>
<polygon fill="none" stroke="black" points="82.5,-327 82.5,-398 319.5,-398 319.5,-327 82.5,-327"/>
<text text-anchor="start" x="86.5" y="-386" font-family="arial" font-size="10.00"> &#45; epoux : ArrayList&lt;Personne&gt; </text>
<text text-anchor="start" x="86.5" y="-373" font-family="arial" font-size="10.00"> &#45; numeroContrat : int </text>
<text text-anchor="start" x="86.5" y="-360" font-family="arial" font-size="10.00"> &#45; compteurNumeroContrat : int </text>
<text text-anchor="start" x="86.5" y="-347" font-family="arial" font-size="10.00"> &#45; dateDebut : int </text>
<text text-anchor="start" x="86.5" y="-334" font-family="arial" font-size="10.00"> &#45; dateFin : int </text>
<polygon fill="none" stroke="black" points="82.5,-204 82.5,-327 319.5,-327 319.5,-204 82.5,-204"/>
<text text-anchor="start" x="86.5" y="-315" font-family="arial" font-size="10.00"> + ContratVieCommune(a : Personne, b : Personne) </text>
<text text-anchor="start" x="86.5" y="-302" font-family="arial" font-size="10.00"> + getConjoint(p : Personne) : Personne </text>
<text text-anchor="start" x="86.5" y="-289" font-family="arial" font-size="10.00"> + getEpoux() : ArrayList&lt;Personne&gt; </text>
<text text-anchor="start" x="86.5" y="-276" font-family="arial" font-size="10.00"> + setEpoux(epoux : ArrayList&lt;Personne&gt;) </text>
<text text-anchor="start" x="86.5" y="-263" font-family="arial" font-size="10.00"> + getNumeroContrat() : int </text>
<text text-anchor="start" x="86.5" y="-250" font-family="arial" font-size="10.00"> + setNumeroContrat(numeroContrat : int) </text>
<text text-anchor="start" x="86.5" y="-237" font-family="arial" font-size="10.00"> + equals(obj : Object) : boolean </text>
<text text-anchor="start" x="86.5" y="-224" font-family="arial" font-size="10.00"> # initialiserContrat(a : Personne, b : Personne) </text>
<text text-anchor="start" x="86.5" y="-211" font-family="arial italic" font-size="10.00"> # contracter(a : Personne, b : Personne) </text>
</a>
</g>
<g><a xlink:href="./ContratVieCommune.html" xlink:title="&lt;TABLE&gt;">
</a>
</g>
</g>
<!-- c4&#45;&gt;c1 -->
<g id="edge1" class="edge"><title>c4:p&#45;&gt;c1:p</title>
<path fill="none" stroke="black" d="M329.562,-335.24C367.883,-340.698 409.169,-346.579 444.84,-351.66"/>
<polygon fill="none" stroke="black" points="329.76,-331.733 319.366,-333.788 328.773,-338.663 329.76,-331.733"/>
</g>
<!-- c4&#45;&gt;c3 -->
<g id="edge2" class="edge"><title>c4:p&#45;&gt;c3:p</title>
<path fill="none" stroke="black" d="M329.562,-298.76C367.883,-293.302 409.169,-287.421 444.84,-282.34"/>
<polygon fill="none" stroke="black" points="328.773,-295.337 319.366,-300.212 329.76,-302.267 328.773,-295.337"/>
</g>
</g>
</svg>
