<?xml version="1.0" encoding="UTF-8" standalone="no"?>
<!DOCTYPE svg PUBLIC "-//W3C//DTD SVG 1.1//EN"
 "http://www.w3.org/Graphics/SVG/1.1/DTD/svg11.dtd">
<!-- Generated by graphviz version 2.38.0 (20140413.2041)
 -->
<!-- Title: G Pages: 1 -->
<svg width="179pt" height="138pt"
 viewBox="0.00 0.00 179.00 138.00" xmlns="http://www.w3.org/2000/svg" xmlns:xlink="http://www.w3.org/1999/xlink">
<g id="graph0" class="graph" transform="scale(1 1) rotate(0) translate(4 134)">
<title>G</title>
<polygon fill="white" stroke="none" points="-4,4 -4,-134 175,-134 175,4 -4,4"/>
<!-- c26 -->
<g id="node1" class="node"><title>c26</title>
<g id="a_node1"><a xlink:href="./TestScanner.html" xlink:title="&lt;TABLE&gt;">
</a>
</g>
<g id="a_node1_0"><a xlink:href="./TestScanner.html" xlink:title="tp1.TestScanner">
<polygon fill="lemonChiffon" stroke="none" points="8,-4 8,-126 163,-126 163,-4 8,-4"/>
<polygon fill="none" stroke="black" points="8.5,-107 8.5,-126 163.5,-126 163.5,-107 8.5,-107"/>
<text text-anchor="start" x="55.5" y="-114" font-family="arial" font-size="10.00"> TestScanner </text>
<polygon fill="none" stroke="black" points="8.5,-88 8.5,-107 163.5,-107 163.5,-88 8.5,-88"/>
<text text-anchor="start" x="12.5" y="-95" font-family="arial" font-size="10.00"> &#160;</text>
<polygon fill="none" stroke="black" points="8.5,-4 8.5,-88 163.5,-88 163.5,-4 8.5,-4"/>
<text text-anchor="start" x="12.5" y="-76" font-family="arial" font-size="10.00"> + TestScanner() </text>
<text text-anchor="start" x="12.5" y="-63" font-family="arial" font-size="10.00"> + main(args : String[]) </text>
<text text-anchor="start" x="12.5" y="-50" font-family="arial" font-size="10.00"> + saisieSansGestionException() </text>
<text text-anchor="start" x="12.5" y="-37" font-family="arial" font-size="10.00"> + saisieAvecGestionException() </text>
<text text-anchor="start" x="12.5" y="-24" font-family="arial" font-size="10.00"> + saisieEntier() </text>
<text text-anchor="start" x="12.5" y="-11" font-family="arial" font-size="10.00"> + saisieFloat() </text>
</a>
</g>
<g><a xlink:href="./TestScanner.html" xlink:title="&lt;TABLE&gt;">
</a>
</g>
</g>
</g>
</svg>
