<?xml version="1.0" encoding="UTF-8" standalone="no"?>
<!DOCTYPE svg PUBLIC "-//W3C//DTD SVG 1.1//EN"
 "http://www.w3.org/Graphics/SVG/1.1/DTD/svg11.dtd">
<!-- Generated by graphviz version 2.38.0 (20140413.2041)
 -->
<!-- Title: G Pages: 1 -->
<svg width="426pt" height="777pt"
 viewBox="0.00 0.00 426.00 776.50" xmlns="http://www.w3.org/2000/svg" xmlns:xlink="http://www.w3.org/1999/xlink">
<g id="graph0" class="graph" transform="scale(1 1) rotate(0) translate(4 772.5)">
<title>G</title>
<polygon fill="white" stroke="none" points="-4,4 -4,-772.5 422,-772.5 422,4 -4,4"/>
<!-- c0 -->
<g id="node1" class="node"><title>c0</title>
<g id="a_node1"><a xlink:href="./Tortue.html" xlink:title="&lt;TABLE&gt;">
</a>
</g>
<g id="a_node1_0"><a xlink:href="./Tortue.html" xlink:title="tp1.Tortue">
<polygon fill="none" stroke="black" points="91,-159 91,-178 327,-178 327,-159 91,-159"/>
<text text-anchor="start" x="192" y="-166" font-family="arial" font-size="10.00"> Tortue </text>
<polygon fill="none" stroke="black" points="91,-49 91,-159 327,-159 327,-49 91,-49"/>
<text text-anchor="start" x="95" y="-147" font-family="arial" font-size="10.00"> &#45; age : int </text>
<text text-anchor="start" x="95" y="-134" font-family="arial" font-size="10.00"> &#45; esperanceDeVie : int </text>
<text text-anchor="start" x="95" y="-121" font-family="arial" font-size="10.00"> &#45; nom : String </text>
<text text-anchor="start" x="95" y="-108" font-family="arial" font-size="10.00"> &#45; hiberne : boolean </text>
<text text-anchor="start" x="95" y="-95" font-family="arial" font-size="10.00"> &#45; typeNourriture : String </text>
<text text-anchor="start" x="95" y="-82" font-family="arial" font-size="10.00"> &#45; habitat : String </text>
<text text-anchor="start" x="95" y="-69" font-family="arial" font-size="10.00"> &#45; sexe : String </text>
<text text-anchor="start" x="95" y="-56" font-family="arial" font-size="10.00"> &#45; espece : Espece </text>
<polygon fill="none" stroke="black" points="91,-4 91,-49 327,-49 327,-4 91,-4"/>
<text text-anchor="start" x="95" y="-37" font-family="arial" font-size="10.00"> + miseEnHibernation(miseEnHibernation : boolean) </text>
<text text-anchor="start" x="95" y="-24" font-family="arial" font-size="10.00"> + mange() </text>
<text text-anchor="start" x="95" y="-11" font-family="arial" font-size="10.00"> + ponte() : boolean </text>
</a>
</g>
<g><a xlink:href="./Tortue.html" xlink:title="&lt;TABLE&gt;">
</a>
</g>
</g>
<!-- c1 -->
<g id="node2" class="node"><title>c1</title>
<g id="a_node2"><a xlink:href="./TestScanner.html" xlink:title="&lt;TABLE&gt;">
</a>
</g>
<g id="a_node2_1"><a xlink:href="./TestScanner.html" xlink:title="tp1.TestScanner">
<polygon fill="none" stroke="black" points="132,-307 132,-326 287,-326 287,-307 132,-307"/>
<text text-anchor="start" x="179" y="-314" font-family="arial" font-size="10.00"> TestScanner </text>
<polygon fill="none" stroke="black" points="132,-288 132,-307 287,-307 287,-288 132,-288"/>
<text text-anchor="start" x="136" y="-295" font-family="arial" font-size="10.00"> &#160;</text>
<polygon fill="none" stroke="black" points="132,-204 132,-288 287,-288 287,-204 132,-204"/>
<text text-anchor="start" x="136" y="-276" font-family="arial" font-size="10.00"> + TestScanner() </text>
<text text-anchor="start" x="136" y="-263" font-family="arial" font-size="10.00"> + main(args : String[]) </text>
<text text-anchor="start" x="136" y="-250" font-family="arial" font-size="10.00"> + saisieSansGestionException() </text>
<text text-anchor="start" x="136" y="-237" font-family="arial" font-size="10.00"> + saisieAvecGestionException() </text>
<text text-anchor="start" x="136" y="-224" font-family="arial" font-size="10.00"> + saisieEntier() </text>
<text text-anchor="start" x="136" y="-211" font-family="arial" font-size="10.00"> + saisieFloat() </text>
</a>
</g>
<g><a xlink:href="./TestScanner.html" xlink:title="&lt;TABLE&gt;">
</a>
</g>
</g>
<!-- c2 -->
<g id="node3" class="node"><title>c2</title>
<g id="a_node3"><a xlink:href="./SommeEtProduit.html" xlink:title="&lt;TABLE&gt;">
</a>
</g>
<g id="a_node3_2"><a xlink:href="./SommeEtProduit.html" xlink:title="tp1.SommeEtProduit">
<polygon fill="none" stroke="black" points="147,-429 147,-448 271,-448 271,-429 147,-429"/>
<text text-anchor="start" x="168.5" y="-436" font-family="arial" font-size="10.00"> SommeEtProduit </text>
<polygon fill="none" stroke="black" points="147,-410 147,-429 271,-429 271,-410 147,-410"/>
<text text-anchor="start" x="151" y="-417" font-family="arial" font-size="10.00"> &#160;</text>
<polygon fill="none" stroke="black" points="147,-352 147,-410 271,-410 271,-352 147,-352"/>
<text text-anchor="start" x="151" y="-398" font-family="arial" font-size="10.00"> + SommeEtProduit() </text>
<text text-anchor="start" x="151" y="-385" font-family="arial" font-size="10.00"> + main(args : String[]) </text>
<text text-anchor="start" x="151" y="-372" font-family="arial" font-size="10.00"> + saisieUtilisateur() </text>
<text text-anchor="start" x="151" y="-359" font-family="arial" font-size="10.00"> &#45; variante1(args : String[]) </text>
</a>
</g>
<g><a xlink:href="./SommeEtProduit.html" xlink:title="&lt;TABLE&gt;">
</a>
</g>
</g>
<!-- c3 -->
<g id="node4" class="node"><title>c3</title>
<g id="a_node4"><a xlink:href="./Rectangle.html" xlink:title="&lt;TABLE&gt;">
</a>
</g>
<g id="a_node4_3"><a xlink:href="./Rectangle.html" xlink:title="tp1.Rectangle">
<polygon fill="none" stroke="black" points="8,-668 8,-687 410,-687 410,-668 8,-668"/>
<text text-anchor="start" x="184" y="-675" font-family="arial" font-size="10.00"> Rectangle </text>
<polygon fill="none" stroke="black" points="8,-532 8,-668 410,-668 410,-532 8,-532"/>
<text text-anchor="start" x="12" y="-656" font-family="arial" font-size="10.00"> &#45; longueur : float </text>
<text text-anchor="start" x="12" y="-643" font-family="arial" font-size="10.00"> &#45; largeur : float </text>
<text text-anchor="start" x="12" y="-630" font-family="arial" font-size="10.00"> &#45; couleur : String </text>
<text text-anchor="start" x="12" y="-617" font-family="arial" font-size="10.00"> &#45; positionX : int </text>
<text text-anchor="start" x="12" y="-604" font-family="arial" font-size="10.00"> &#45; positionY : int </text>
<text text-anchor="start" x="12" y="-591" font-family="arial" font-size="10.00"> &#45; aire : float </text>
<text text-anchor="start" x="12" y="-578" font-family="arial" font-size="10.00"> &#45; perimetre : float </text>
<text text-anchor="start" x="12" y="-565" font-family="arial" font-size="10.00"> &#45; plusGrandRectangle : Rectangle </text>
<text text-anchor="start" x="12" y="-552" font-family="arial" font-size="10.00"> + angle : int </text>
<text text-anchor="start" x="12" y="-539" font-family="arial" font-size="10.00"> + nbCotes : int </text>
<polygon fill="none" stroke="black" points="8,-474 8,-532 410,-532 410,-474 8,-474"/>
<text text-anchor="start" x="12" y="-520" font-family="arial" font-size="10.00"> «create» </text>
<text text-anchor="start" x="12" y="-507" font-family="arial" font-size="10.00"> + Rectangle(longueur : float, largeur : float, couleur : String, positionX : int, positionY : int) </text>
<text text-anchor="start" x="12" y="-494" font-family="arial" font-size="10.00"> + calculPlusGrandRectangle(rect1 : Rectangle, rect2 : Rectangle) : Rectangle </text>
<text text-anchor="start" x="12" y="-481" font-family="arial" font-size="10.00"> + main(args : String[]) </text>
</a>
</g>
<g><a xlink:href="./Rectangle.html" xlink:title="&lt;TABLE&gt;">
</a>
</g>
</g>
<!-- c4 -->
<g id="node5" class="node"><title>c4</title>
<g id="a_node5"><a xlink:href="./Espece.html" xlink:title="&lt;TABLE&gt;">
</a>
</g>
<g id="a_node5_4"><a xlink:href="./Espece.html" xlink:title="tp1.Espece">
<polygon fill="none" stroke="black" points="170,-732 170,-764 248,-764 248,-732 170,-732"/>
<text text-anchor="start" x="174" y="-752" font-family="arial" font-size="10.00"> «enumeration» </text>
<text text-anchor="start" x="189" y="-739" font-family="arial" font-size="10.00"> Espece </text>
<polygon fill="none" stroke="black" points="170,-713 170,-732 248,-732 248,-713 170,-713"/>
<text text-anchor="start" x="174" y="-720" font-family="arial" font-size="10.00"> &#160;</text>
</a>
</g>
<g><a xlink:href="./Espece.html" xlink:title="&lt;TABLE&gt;">
</a>
</g>
</g>
</g>
</svg>
