<?xml version="1.0" encoding="UTF-8" standalone="no"?>
<!DOCTYPE svg PUBLIC "-//W3C//DTD SVG 1.1//EN"
 "http://www.w3.org/Graphics/SVG/1.1/DTD/svg11.dtd">
<!-- Generated by graphviz version 2.38.0 (20140413.2041)
 -->
<!-- Title: G Pages: 1 -->
<svg width="507pt" height="190pt"
 viewBox="0.00 0.00 507.00 190.00" xmlns="http://www.w3.org/2000/svg" xmlns:xlink="http://www.w3.org/1999/xlink">
<g id="graph0" class="graph" transform="scale(1 1) rotate(0) translate(4 186)">
<title>G</title>
<polygon fill="white" stroke="none" points="-4,4 -4,-186 503,-186 503,4 -4,4"/>
<!-- c8 -->
<g id="node1" class="node"><title>c8</title>
<g id="a_node1"><a xlink:href="./IFileAttente.html" xlink:title="&lt;TABLE&gt;">
</a>
</g>
<g id="a_node1_0"><a xlink:href="./IFileAttente.html" xlink:title="tp7.IFileAttente">
<polygon fill="none" stroke="black" points="8.5,-120 8.5,-152 115.5,-152 115.5,-120 8.5,-120"/>
<text text-anchor="start" x="35" y="-140" font-family="arial" font-size="10.00"> «interface» </text>
<text text-anchor="start" x="34" y="-127" font-family="arial" font-size="10.00"> IFileAttente </text>
<polygon fill="none" stroke="black" points="8.5,-101 8.5,-120 115.5,-120 115.5,-101 8.5,-101"/>
<text text-anchor="start" x="12.5" y="-108" font-family="arial" font-size="10.00"> &#160;</text>
<polygon fill="none" stroke="black" points="8.5,-30 8.5,-101 115.5,-101 115.5,-30 8.5,-30"/>
<text text-anchor="start" x="12.5" y="-89" font-family="arial italic" font-size="10.00"> + entre(p : Personne) </text>
<text text-anchor="start" x="12.5" y="-76" font-family="arial italic" font-size="10.00"> + sort() : Personne </text>
<text text-anchor="start" x="12.5" y="-63" font-family="arial italic" font-size="10.00"> + taille() : int </text>
<text text-anchor="start" x="12.5" y="-50" font-family="arial italic" font-size="10.00"> + estVide() : boolean </text>
<text text-anchor="start" x="12.5" y="-37" font-family="arial italic" font-size="10.00"> + vider() </text>
</a>
</g>
<g><a xlink:href="./IFileAttente.html" xlink:title="&lt;TABLE&gt;">
</a>
</g>
</g>
<!-- c11 -->
<g id="node3" class="node"><title>c11</title>
<g id="a_node3"><a xlink:href="./FileAttente.html" xlink:title="&lt;TABLE&gt;">
</a>
</g>
<g id="a_node3_1"><a xlink:href="./FileAttente.html" xlink:title="tp7.FileAttente">
<polygon fill="lemonChiffon" stroke="none" points="167,-4 167,-178 323,-178 323,-4 167,-4"/>
<polygon fill="none" stroke="black" points="167,-159 167,-178 323,-178 323,-159 167,-159"/>
<text text-anchor="start" x="218" y="-166" font-family="arial" font-size="10.00"> FileAttente </text>
<polygon fill="none" stroke="black" points="167,-114 167,-159 323,-159 323,-114 167,-114"/>
<text text-anchor="start" x="171" y="-147" font-family="arial" font-size="10.00"> &#45; nomFile : String </text>
<text text-anchor="start" x="171" y="-134" font-family="arial" font-size="10.00"> &#45; reglementationFile : String </text>
<text text-anchor="start" x="171" y="-121" font-family="arial" font-size="10.00"> &#45; contenu : ArrayList&lt;Personne&gt; </text>
<polygon fill="none" stroke="black" points="167,-4 167,-114 323,-114 323,-4 167,-4"/>
<text text-anchor="start" x="171" y="-102" font-family="arial" font-size="10.00"> + FileAttente() </text>
<text text-anchor="start" x="171" y="-89" font-family="arial" font-size="10.00"> + entre(p : Personne) </text>
<text text-anchor="start" x="171" y="-76" font-family="arial" font-size="10.00"> + sort() : Personne </text>
<text text-anchor="start" x="171" y="-63" font-family="arial" font-size="10.00"> + estVide() : boolean </text>
<text text-anchor="start" x="171" y="-50" font-family="arial" font-size="10.00"> + taille() : int </text>
<text text-anchor="start" x="171" y="-37" font-family="arial" font-size="10.00"> + toString() : String </text>
<text text-anchor="start" x="171" y="-24" font-family="arial" font-size="10.00"> &#45; descriptionContenu() : String </text>
<text text-anchor="start" x="171" y="-11" font-family="arial" font-size="10.00"> + vider() </text>
</a>
</g>
<g><a xlink:href="./FileAttente.html" xlink:title="&lt;TABLE&gt;">
</a>
</g>
</g>
<!-- c8&#45;&gt;c11 -->
<g id="edge2" class="edge"><title>c8:p&#45;&gt;c11:p</title>
<path fill="none" stroke="black" stroke-dasharray="5,2" d="M125.846,-91C139.023,-91 153.051,-91 166.667,-91"/>
<polygon fill="none" stroke="black" points="125.485,-87.5001 115.485,-91 125.485,-94.5001 125.485,-87.5001"/>
</g>
<!-- c10 -->
<g id="node2" class="node"><title>c10</title>
<g id="a_node2"><a xlink:href="./FileAttenteAvecStat.html" xlink:title="&lt;TABLE&gt;">
</a>
</g>
<g id="a_node2_2"><a xlink:href="./FileAttenteAvecStat.html" xlink:title="tp7.FileAttenteAvecStat">
<polygon fill="none" stroke="black" points="375,-133 375,-152 491,-152 491,-133 375,-133"/>
<text text-anchor="start" x="386.5" y="-140" font-family="arial" font-size="10.00"> FileAttenteAvecStat </text>
<polygon fill="none" stroke="black" points="375,-101 375,-133 491,-133 491,-101 375,-101"/>
<text text-anchor="start" x="379" y="-121" font-family="arial" font-size="10.00"> &#45; compteurEntrant : int </text>
<text text-anchor="start" x="379" y="-108" font-family="arial" font-size="10.00"> &#45; compteurSortant : int </text>
<polygon fill="none" stroke="black" points="375,-30 375,-101 491,-101 491,-30 375,-30"/>
<text text-anchor="start" x="379" y="-89" font-family="arial" font-size="10.00"> + FileAttenteAvecStat() </text>
<text text-anchor="start" x="379" y="-76" font-family="arial" font-size="10.00"> + entre(p : Personne) </text>
<text text-anchor="start" x="379" y="-63" font-family="arial" font-size="10.00"> + sort() : Personne </text>
<text text-anchor="start" x="379" y="-50" font-family="arial" font-size="10.00"> + entrants() : int </text>
<text text-anchor="start" x="379" y="-37" font-family="arial" font-size="10.00"> + sortants() : int </text>
</a>
</g>
<g><a xlink:href="./FileAttenteAvecStat.html" xlink:title="&lt;TABLE&gt;">
</a>
</g>
</g>
<!-- c11&#45;&gt;c10 -->
<g id="edge1" class="edge"><title>c11:p&#45;&gt;c10:p</title>
<path fill="none" stroke="black" d="M333.449,-91C347.502,-91 361.725,-91 374.828,-91"/>
<polygon fill="none" stroke="black" points="333.265,-87.5001 323.265,-91 333.265,-94.5001 333.265,-87.5001"/>
</g>
</g>
</svg>
