<?xml version="1.0" encoding="UTF-8" standalone="no"?>
<!DOCTYPE svg PUBLIC "-//W3C//DTD SVG 1.1//EN"
 "http://www.w3.org/Graphics/SVG/1.1/DTD/svg11.dtd">
<!-- Generated by graphviz version 2.38.0 (20140413.2041)
 -->
<!-- Title: G Pages: 1 -->
<svg width="339pt" height="190pt"
 viewBox="0.00 0.00 339.00 190.00" xmlns="http://www.w3.org/2000/svg" xmlns:xlink="http://www.w3.org/1999/xlink">
<g id="graph0" class="graph" transform="scale(1 1) rotate(0) translate(4 186)">
<title>G</title>
<polygon fill="white" stroke="none" points="-4,4 -4,-186 335,-186 335,4 -4,4"/>
<!-- c17 -->
<g id="node1" class="node"><title>c17</title>
<g id="a_node1"><a xlink:href="./IFileAttente.html" xlink:title="&lt;TABLE&gt;">
</a>
</g>
<g id="a_node1_0"><a xlink:href="./IFileAttente.html" xlink:title="tp7.IFileAttente">
<polygon fill="lemonChiffon" stroke="none" points="8,-30 8,-152 115,-152 115,-30 8,-30"/>
<polygon fill="none" stroke="black" points="8.5,-120 8.5,-152 115.5,-152 115.5,-120 8.5,-120"/>
<text text-anchor="start" x="35" y="-140" font-family="arial" font-size="10.00"> «interface» </text>
<text text-anchor="start" x="34" y="-127" font-family="arial" font-size="10.00"> IFileAttente </text>
<polygon fill="none" stroke="black" points="8.5,-101 8.5,-120 115.5,-120 115.5,-101 8.5,-101"/>
<text text-anchor="start" x="12.5" y="-108" font-family="arial" font-size="10.00"> &#160;</text>
<polygon fill="none" stroke="black" points="8.5,-30 8.5,-101 115.5,-101 115.5,-30 8.5,-30"/>
<text text-anchor="start" x="12.5" y="-89" font-family="arial italic" font-size="10.00"> + entre(p : Personne) </text>
<text text-anchor="start" x="12.5" y="-76" font-family="arial italic" font-size="10.00"> + sort() : Personne </text>
<text text-anchor="start" x="12.5" y="-63" font-family="arial italic" font-size="10.00"> + taille() : int </text>
<text text-anchor="start" x="12.5" y="-50" font-family="arial italic" font-size="10.00"> + estVide() : boolean </text>
<text text-anchor="start" x="12.5" y="-37" font-family="arial italic" font-size="10.00"> + vider() </text>
</a>
</g>
<g><a xlink:href="./IFileAttente.html" xlink:title="&lt;TABLE&gt;">
</a>
</g>
</g>
<!-- c19 -->
<g id="node2" class="node"><title>c19</title>
<g id="a_node2"><a xlink:href="./FileAttente.html" xlink:title="&lt;TABLE&gt;">
</a>
</g>
<g id="a_node2_1"><a xlink:href="./FileAttente.html" xlink:title="tp7.FileAttente">
<polygon fill="none" stroke="black" points="167,-159 167,-178 323,-178 323,-159 167,-159"/>
<text text-anchor="start" x="218" y="-166" font-family="arial" font-size="10.00"> FileAttente </text>
<polygon fill="none" stroke="black" points="167,-114 167,-159 323,-159 323,-114 167,-114"/>
<text text-anchor="start" x="171" y="-147" font-family="arial" font-size="10.00"> &#45; nomFile : String </text>
<text text-anchor="start" x="171" y="-134" font-family="arial" font-size="10.00"> &#45; reglementationFile : String </text>
<text text-anchor="start" x="171" y="-121" font-family="arial" font-size="10.00"> &#45; contenu : ArrayList&lt;Personne&gt; </text>
<polygon fill="none" stroke="black" points="167,-4 167,-114 323,-114 323,-4 167,-4"/>
<text text-anchor="start" x="171" y="-102" font-family="arial" font-size="10.00"> + FileAttente() </text>
<text text-anchor="start" x="171" y="-89" font-family="arial" font-size="10.00"> + entre(p : Personne) </text>
<text text-anchor="start" x="171" y="-76" font-family="arial" font-size="10.00"> + sort() : Personne </text>
<text text-anchor="start" x="171" y="-63" font-family="arial" font-size="10.00"> + estVide() : boolean </text>
<text text-anchor="start" x="171" y="-50" font-family="arial" font-size="10.00"> + taille() : int </text>
<text text-anchor="start" x="171" y="-37" font-family="arial" font-size="10.00"> + toString() : String </text>
<text text-anchor="start" x="171" y="-24" font-family="arial" font-size="10.00"> &#45; descriptionContenu() : String </text>
<text text-anchor="start" x="171" y="-11" font-family="arial" font-size="10.00"> + vider() </text>
</a>
</g>
<g><a xlink:href="./FileAttente.html" xlink:title="&lt;TABLE&gt;">
</a>
</g>
</g>
<!-- c17&#45;&gt;c19 -->
<g id="edge1" class="edge"><title>c17:p&#45;&gt;c19:p</title>
<path fill="none" stroke="black" stroke-dasharray="5,2" d="M125.846,-91C139.023,-91 153.051,-91 166.667,-91"/>
<polygon fill="none" stroke="black" points="125.485,-87.5001 115.485,-91 125.485,-94.5001 125.485,-87.5001"/>
</g>
</g>
</svg>
