<?xml version="1.0" encoding="UTF-8" standalone="no"?>
<!DOCTYPE svg PUBLIC "-//W3C//DTD SVG 1.1//EN"
 "http://www.w3.org/Graphics/SVG/1.1/DTD/svg11.dtd">
<!-- Generated by graphviz version 2.38.0 (20140413.2041)
 -->
<!-- Title: G Pages: 1 -->
<svg width="276pt" height="138pt"
 viewBox="0.00 0.00 276.00 138.00" xmlns="http://www.w3.org/2000/svg" xmlns:xlink="http://www.w3.org/1999/xlink">
<g id="graph0" class="graph" transform="scale(1 1) rotate(0) translate(4 134)">
<title>G</title>
<polygon fill="white" stroke="none" points="-4,4 -4,-134 272,-134 272,4 -4,4"/>
<!-- c20 -->
<g id="node1" class="node"><title>c20</title>
<g id="a_node1"><a xlink:href="./IStat.html" xlink:title="&lt;TABLE&gt;">
</a>
</g>
<g id="a_node1_0"><a xlink:href="./IStat.html" xlink:title="tp7.IStat">
<polygon fill="lemonChiffon" stroke="none" points="8,-23.5 8,-106.5 92,-106.5 92,-23.5 8,-23.5"/>
<polygon fill="none" stroke="black" points="8,-74 8,-106 92,-106 92,-74 8,-74"/>
<text text-anchor="start" x="23" y="-94" font-family="arial" font-size="10.00"> «interface» </text>
<text text-anchor="start" x="36.5" y="-81" font-family="arial" font-size="10.00"> IStat </text>
<polygon fill="none" stroke="black" points="8,-55 8,-74 92,-74 92,-55 8,-55"/>
<text text-anchor="start" x="12" y="-62" font-family="arial" font-size="10.00"> &#160;</text>
<polygon fill="none" stroke="black" points="8,-23 8,-55 92,-55 92,-23 8,-23"/>
<text text-anchor="start" x="12" y="-43" font-family="arial italic" font-size="10.00"> + entrants() : int </text>
<text text-anchor="start" x="12" y="-30" font-family="arial italic" font-size="10.00"> + sortants() : int </text>
</a>
</g>
<g><a xlink:href="./IStat.html" xlink:title="&lt;TABLE&gt;">
</a>
</g>
</g>
<!-- c22 -->
<g id="node2" class="node"><title>c22</title>
<g id="a_node2"><a xlink:href="./FileAttenteAvecStat.html" xlink:title="&lt;TABLE&gt;">
</a>
</g>
<g id="a_node2_1"><a xlink:href="./FileAttenteAvecStat.html" xlink:title="tp7.FileAttenteAvecStat">
<polygon fill="none" stroke="black" points="144,-107 144,-126 260,-126 260,-107 144,-107"/>
<text text-anchor="start" x="155.5" y="-114" font-family="arial" font-size="10.00"> FileAttenteAvecStat </text>
<polygon fill="none" stroke="black" points="144,-75 144,-107 260,-107 260,-75 144,-75"/>
<text text-anchor="start" x="148" y="-95" font-family="arial" font-size="10.00"> &#45; compteurEntrant : int </text>
<text text-anchor="start" x="148" y="-82" font-family="arial" font-size="10.00"> &#45; compteurSortant : int </text>
<polygon fill="none" stroke="black" points="144,-4 144,-75 260,-75 260,-4 144,-4"/>
<text text-anchor="start" x="148" y="-63" font-family="arial" font-size="10.00"> + FileAttenteAvecStat() </text>
<text text-anchor="start" x="148" y="-50" font-family="arial" font-size="10.00"> + entre(p : Personne) </text>
<text text-anchor="start" x="148" y="-37" font-family="arial" font-size="10.00"> + sort() : Personne </text>
<text text-anchor="start" x="148" y="-24" font-family="arial" font-size="10.00"> + entrants() : int </text>
<text text-anchor="start" x="148" y="-11" font-family="arial" font-size="10.00"> + sortants() : int </text>
</a>
</g>
<g><a xlink:href="./FileAttenteAvecStat.html" xlink:title="&lt;TABLE&gt;">
</a>
</g>
</g>
<!-- c20&#45;&gt;c22 -->
<g id="edge1" class="edge"><title>c20:p&#45;&gt;c22:p</title>
<path fill="none" stroke="black" stroke-dasharray="5,2" d="M102.729,-65C115.959,-65 130.261,-65 143.751,-65"/>
<polygon fill="none" stroke="black" points="102.385,-61.5001 92.3852,-65 102.385,-68.5001 102.385,-61.5001"/>
</g>
</g>
</svg>
