<?xml version="1.0" encoding="UTF-8" standalone="no"?>
<!DOCTYPE svg PUBLIC "-//W3C//DTD SVG 1.1//EN"
 "http://www.w3.org/Graphics/SVG/1.1/DTD/svg11.dtd">
<!-- Generated by graphviz version 2.38.0 (20140413.2041)
 -->
<!-- Title: G Pages: 1 -->
<svg width="705pt" height="502pt"
 viewBox="0.00 0.00 705.00 502.00" xmlns="http://www.w3.org/2000/svg" xmlns:xlink="http://www.w3.org/1999/xlink">
<g id="graph0" class="graph" transform="scale(1 1) rotate(0) translate(4 498)">
<title>G</title>
<polygon fill="white" stroke="none" points="-4,4 -4,-498 701,-498 701,4 -4,4"/>
<!-- c15 -->
<g id="node1" class="node"><title>c15</title>
<g id="a_node1"><a xlink:href="./Etudiant.html" xlink:title="&lt;TABLE&gt;">
</a>
</g>
<g id="a_node1_0"><a xlink:href="./Etudiant.html" xlink:title="tp2.Etudiant">
<polygon fill="lemonChiffon" stroke="none" points="192,-4 192,-490 689,-490 689,-4 192,-4"/>
<polygon fill="none" stroke="black" points="192.5,-471 192.5,-490 689.5,-490 689.5,-471 192.5,-471"/>
<text text-anchor="start" x="419.5" y="-478" font-family="arial" font-size="10.00"> Etudiant </text>
<polygon fill="none" stroke="black" points="192.5,-387 192.5,-471 689.5,-471 689.5,-387 192.5,-387"/>
<text text-anchor="start" x="196.5" y="-459" font-family="arial" font-size="10.00"> &#45; nom : String </text>
<text text-anchor="start" x="196.5" y="-446" font-family="arial" font-size="10.00"> &#45; codePays : String </text>
<text text-anchor="start" x="196.5" y="-433" font-family="arial" font-size="10.00"> &#45; age : int </text>
<text text-anchor="start" x="196.5" y="-420" font-family="arial" font-size="10.00"> &#45; dateNaissance : Date </text>
<text text-anchor="start" x="196.5" y="-407" font-family="arial" font-size="10.00"> &#45; codeIns : boolean </text>
<text text-anchor="start" x="196.5" y="-394" font-family="arial" font-size="10.00"> &#45; notes : Note[] </text>
<polygon fill="none" stroke="black" points="192.5,-4 192.5,-387 689.5,-387 689.5,-4 192.5,-4"/>
<text text-anchor="start" x="196.5" y="-375" font-family="arial" font-size="10.00"> «create» </text>
<text text-anchor="start" x="196.5" y="-362" font-family="arial" font-size="10.00"> + Etudiant(nom : String, age : int) </text>
<text text-anchor="start" x="196.5" y="-349" font-family="arial" font-size="10.00"> «create» </text>
<text text-anchor="start" x="196.5" y="-336" font-family="arial" font-size="10.00"> + Etudiant(nom : String, codePays : String, dateNaissance : String, codeIns : boolean, notes : Note[]) </text>
<text text-anchor="start" x="196.5" y="-323" font-family="arial" font-size="10.00"> «create» </text>
<text text-anchor="start" x="196.5" y="-310" font-family="arial" font-size="10.00"> + Etudiant(nom : String, codePays : String, age : int, dateNaissance : String, codeIns : boolean, notes : Note[]) </text>
<text text-anchor="start" x="196.5" y="-297" font-family="arial" font-size="10.00"> «create» </text>
<text text-anchor="start" x="196.5" y="-284" font-family="arial" font-size="10.00"> + Etudiant() </text>
<text text-anchor="start" x="196.5" y="-271" font-family="arial" font-size="10.00"> + getNom() : String </text>
<text text-anchor="start" x="196.5" y="-258" font-family="arial" font-size="10.00"> + setNom(nom : String) </text>
<text text-anchor="start" x="196.5" y="-245" font-family="arial" font-size="10.00"> + estFrancophone() : boolean </text>
<text text-anchor="start" x="196.5" y="-232" font-family="arial" font-size="10.00"> + getCodePays() : String </text>
<text text-anchor="start" x="196.5" y="-219" font-family="arial" font-size="10.00"> + setCodePays(codePays : String) </text>
<text text-anchor="start" x="196.5" y="-206" font-family="arial" font-size="10.00"> + getAge() : int </text>
<text text-anchor="start" x="196.5" y="-193" font-family="arial" font-size="10.00"> + setAge(age : int) </text>
<text text-anchor="start" x="196.5" y="-180" font-family="arial" font-size="10.00"> + getDateNaissance() : Date </text>
<text text-anchor="start" x="196.5" y="-167" font-family="arial" font-size="10.00"> + setDateNaissance(dateNaissance : Date) </text>
<text text-anchor="start" x="196.5" y="-154" font-family="arial" font-size="10.00"> + getCodeIns() : boolean </text>
<text text-anchor="start" x="196.5" y="-141" font-family="arial" font-size="10.00"> + setCodeIns(codeIns : boolean) </text>
<text text-anchor="start" x="196.5" y="-128" font-family="arial" font-size="10.00"> + getNotes() : Note[] </text>
<text text-anchor="start" x="196.5" y="-115" font-family="arial" font-size="10.00"> + setNotes(notes : Note[]) </text>
<text text-anchor="start" x="196.5" y="-102" font-family="arial" font-size="10.00"> + moyenne() : float </text>
<text text-anchor="start" x="196.5" y="-89" font-family="arial" font-size="10.00"> + calculeMention() : String </text>
<text text-anchor="start" x="196.5" y="-76" font-family="arial" font-size="10.00"> &#45; getModulesObtenus() : String </text>
<text text-anchor="start" x="196.5" y="-63" font-family="arial" font-size="10.00"> + ligneResultats() : String </text>
<text text-anchor="start" x="196.5" y="-50" font-family="arial" font-size="10.00"> + toString() : String </text>
<text text-anchor="start" x="196.5" y="-37" font-family="arial" font-size="10.00"> + calculerAge() : int </text>
<text text-anchor="start" x="196.5" y="-24" font-family="arial" font-size="10.00"> &#45; creerDate(date : String) : Date </text>
<text text-anchor="start" x="196.5" y="-11" font-family="arial" font-size="10.00"> + compareTo(o : Etudiant) : int </text>
</a>
</g>
<g><a xlink:href="./Etudiant.html" xlink:title="&lt;TABLE&gt;">
</a>
</g>
</g>
<!-- c16 -->
<g id="node2" class="node"><title>c16</title>
<g id="a_node2"><a xlink:href="http://java.sun.com/j2se/1.4.2/docs/api/java/lang/Comparable.html" xlink:title="&lt;TABLE&gt;">
</a>
</g>
<g id="a_node2_1"><a xlink:href="http://java.sun.com/j2se/1.4.2/docs/api/java/lang/Comparable.html" xlink:title="java.lang.Comparable">
<polygon fill="none" stroke="black" points="8,-250 8,-282 140,-282 140,-250 8,-250"/>
<text text-anchor="start" x="47" y="-270" font-family="arial" font-size="10.00"> «interface» </text>
<text text-anchor="start" x="16" y="-257" font-family="arial" font-size="10.00"> java.lang.Comparable&lt;T&gt; </text>
<polygon fill="none" stroke="black" points="8,-231 8,-250 140,-250 140,-231 8,-231"/>
<text text-anchor="start" x="12" y="-238" font-family="arial" font-size="10.00"> &#160;</text>
<polygon fill="none" stroke="black" points="8,-212 8,-231 140,-231 140,-212 8,-212"/>
<text text-anchor="start" x="12" y="-219" font-family="arial italic" font-size="10.00"> + compareTo(arg0 : T) : int </text>
</a>
</g>
<g><a xlink:href="http://java.sun.com/j2se/1.4.2/docs/api/java/lang/Comparable.html" xlink:title="&lt;TABLE&gt;">
</a>
</g>
</g>
<!-- c16&#45;&gt;c15 -->
<g id="edge1" class="edge"><title>c16:p&#45;&gt;c15:p</title>
<path fill="none" stroke="black" stroke-dasharray="5,2" d="M150.268,-247C163.173,-247 177.186,-247 191.85,-247"/>
<polygon fill="none" stroke="black" points="150.165,-243.5 140.165,-247 150.165,-250.5 150.165,-243.5"/>
</g>
</g>
</svg>
