<?xml version="1.0" encoding="UTF-8" standalone="no"?>
<!DOCTYPE svg PUBLIC "-//W3C//DTD SVG 1.1//EN"
 "http://www.w3.org/Graphics/SVG/1.1/DTD/svg11.dtd">
<!-- Generated by graphviz version 2.38.0 (20140413.2041)
 -->
<!-- Title: G Pages: 1 -->
<svg width="705pt" height="333pt"
 viewBox="0.00 0.00 705.00 333.00" xmlns="http://www.w3.org/2000/svg" xmlns:xlink="http://www.w3.org/1999/xlink">
<g id="graph0" class="graph" transform="scale(1 1) rotate(0) translate(4 329)">
<title>G</title>
<polygon fill="white" stroke="none" points="-4,4 -4,-329 701,-329 701,4 -4,4"/>
<!-- c15 -->
<g id="node1" class="node"><title>c15</title>
<g id="a_node1"><a xlink:href="./Etudiant.html" xlink:title="&lt;TABLE&gt;">
</a>
</g>
<g id="a_node1_0"><a xlink:href="./Etudiant.html" xlink:title="tp2.Etudiant">
<polygon fill="lemonChiffon" stroke="none" points="192,-4 192,-321 689,-321 689,-4 192,-4"/>
<polygon fill="none" stroke="black" points="192.5,-301.5 192.5,-320.5 689.5,-320.5 689.5,-301.5 192.5,-301.5"/>
<text text-anchor="start" x="419.5" y="-308.5" font-family="arial" font-size="10.00"> Etudiant </text>
<polygon fill="none" stroke="black" points="192.5,-217.5 192.5,-301.5 689.5,-301.5 689.5,-217.5 192.5,-217.5"/>
<text text-anchor="start" x="196.5" y="-289.5" font-family="arial" font-size="10.00"> &#45; nom : String </text>
<text text-anchor="start" x="196.5" y="-276.5" font-family="arial" font-size="10.00"> &#45; codePays : String </text>
<text text-anchor="start" x="196.5" y="-263.5" font-family="arial" font-size="10.00"> &#45; age : int </text>
<text text-anchor="start" x="196.5" y="-250.5" font-family="arial" font-size="10.00"> &#45; dateNaissance : Date </text>
<text text-anchor="start" x="196.5" y="-237.5" font-family="arial" font-size="10.00"> &#45; codeIns : boolean </text>
<text text-anchor="start" x="196.5" y="-224.5" font-family="arial" font-size="10.00"> &#45; notes : Note[] </text>
<polygon fill="none" stroke="black" points="192.5,-3.5 192.5,-217.5 689.5,-217.5 689.5,-3.5 192.5,-3.5"/>
<text text-anchor="start" x="196.5" y="-205.5" font-family="arial" font-size="10.00"> «create» </text>
<text text-anchor="start" x="196.5" y="-192.5" font-family="arial" font-size="10.00"> + Etudiant(nom : String, age : int) </text>
<text text-anchor="start" x="196.5" y="-179.5" font-family="arial" font-size="10.00"> «create» </text>
<text text-anchor="start" x="196.5" y="-166.5" font-family="arial" font-size="10.00"> + Etudiant(nom : String, codePays : String, dateNaissance : String, codeIns : boolean, notes : Note[]) </text>
<text text-anchor="start" x="196.5" y="-153.5" font-family="arial" font-size="10.00"> «create» </text>
<text text-anchor="start" x="196.5" y="-140.5" font-family="arial" font-size="10.00"> + Etudiant(nom : String, codePays : String, age : int, dateNaissance : String, codeIns : boolean, notes : Note[]) </text>
<text text-anchor="start" x="196.5" y="-127.5" font-family="arial" font-size="10.00"> «create» </text>
<text text-anchor="start" x="196.5" y="-114.5" font-family="arial" font-size="10.00"> + Etudiant() </text>
<text text-anchor="start" x="196.5" y="-101.5" font-family="arial" font-size="10.00"> + moyenne() : float </text>
<text text-anchor="start" x="196.5" y="-88.5" font-family="arial" font-size="10.00"> + calculeMention() : String </text>
<text text-anchor="start" x="196.5" y="-75.5" font-family="arial" font-size="10.00"> &#45; getModulesObtenus() : String </text>
<text text-anchor="start" x="196.5" y="-62.5" font-family="arial" font-size="10.00"> + ligneResultats() : String </text>
<text text-anchor="start" x="196.5" y="-49.5" font-family="arial" font-size="10.00"> + toString() : String </text>
<text text-anchor="start" x="196.5" y="-36.5" font-family="arial" font-size="10.00"> + calculerAge() : int </text>
<text text-anchor="start" x="196.5" y="-23.5" font-family="arial" font-size="10.00"> &#45; creerDate(date : String) : Date </text>
<text text-anchor="start" x="196.5" y="-10.5" font-family="arial" font-size="10.00"> + compareTo(o : Etudiant) : int </text>
</a>
</g>
<g><a xlink:href="./Etudiant.html" xlink:title="&lt;TABLE&gt;">
</a>
</g>
</g>
<!-- c16 -->
<g id="node2" class="node"><title>c16</title>
<g id="a_node2"><a xlink:href="http://java.sun.com/j2se/1.4.2/docs/api/java/lang/Comparable.html" xlink:title="&lt;TABLE&gt;">
</a>
</g>
<g id="a_node2_1"><a xlink:href="http://java.sun.com/j2se/1.4.2/docs/api/java/lang/Comparable.html" xlink:title="java.lang.Comparable">
<polygon fill="none" stroke="black" points="8,-165.5 8,-197.5 140,-197.5 140,-165.5 8,-165.5"/>
<text text-anchor="start" x="47" y="-185.5" font-family="arial" font-size="10.00"> «interface» </text>
<text text-anchor="start" x="16" y="-172.5" font-family="arial" font-size="10.00"> java.lang.Comparable&lt;T&gt; </text>
<polygon fill="none" stroke="black" points="8,-146.5 8,-165.5 140,-165.5 140,-146.5 8,-146.5"/>
<text text-anchor="start" x="12" y="-153.5" font-family="arial" font-size="10.00"> &#160;</text>
<polygon fill="none" stroke="black" points="8,-127.5 8,-146.5 140,-146.5 140,-127.5 8,-127.5"/>
<text text-anchor="start" x="12" y="-134.5" font-family="arial italic" font-size="10.00"> + compareTo(arg0 : T) : int </text>
</a>
</g>
<g><a xlink:href="http://java.sun.com/j2se/1.4.2/docs/api/java/lang/Comparable.html" xlink:title="&lt;TABLE&gt;">
</a>
</g>
</g>
<!-- c16&#45;&gt;c15 -->
<g id="edge1" class="edge"><title>c16:p&#45;&gt;c15:p</title>
<path fill="none" stroke="black" stroke-dasharray="5,2" d="M150.268,-162.5C163.173,-162.5 177.186,-162.5 191.85,-162.5"/>
<polygon fill="none" stroke="black" points="150.165,-159 140.165,-162.5 150.165,-166 150.165,-159"/>
</g>
</g>
</svg>
