<?xml version="1.0" encoding="UTF-8" standalone="no"?>
<!DOCTYPE svg PUBLIC "-//W3C//DTD SVG 1.1//EN"
 "http://www.w3.org/Graphics/SVG/1.1/DTD/svg11.dtd">
<!-- Generated by graphviz version 2.38.0 (20140413.2041)
 -->
<!-- Title: G Pages: 1 -->
<svg width="426pt" height="151pt"
 viewBox="0.00 0.00 426.00 151.00" xmlns="http://www.w3.org/2000/svg" xmlns:xlink="http://www.w3.org/1999/xlink">
<g id="graph0" class="graph" transform="scale(1 1) rotate(0) translate(4 147)">
<title>G</title>
<polygon fill="white" stroke="none" points="-4,4 -4,-147 422,-147 422,4 -4,4"/>
<!-- c18 -->
<g id="node1" class="node"><title>c18</title>
<g id="a_node1"><a xlink:href="./Rectangle.html" xlink:title="&lt;TABLE&gt;">
</a>
</g>
<g id="a_node1_0"><a xlink:href="./Rectangle.html" xlink:title="tp1.Rectangle">
<polygon fill="lemonChiffon" stroke="none" points="8,-4 8,-139 410,-139 410,-4 8,-4"/>
<polygon fill="none" stroke="black" points="8,-119.5 8,-138.5 410,-138.5 410,-119.5 8,-119.5"/>
<text text-anchor="start" x="184" y="-126.5" font-family="arial" font-size="10.00"> Rectangle </text>
<polygon fill="none" stroke="black" points="8,-87.5 8,-119.5 410,-119.5 410,-87.5 8,-87.5"/>
<text text-anchor="start" x="12" y="-107.5" font-family="arial" font-size="10.00"> &#45; longueur : float </text>
<text text-anchor="start" x="12" y="-94.5" font-family="arial" font-size="10.00"> &#45; largeur : float </text>
<polygon fill="none" stroke="black" points="8,-3.5 8,-87.5 410,-87.5 410,-3.5 8,-3.5"/>
<text text-anchor="start" x="12" y="-75.5" font-family="arial" font-size="10.00"> «create» </text>
<text text-anchor="start" x="12" y="-62.5" font-family="arial" font-size="10.00"> + Rectangle(longueur : float, largeur : float, couleur : String, positionX : int, positionY : int) </text>
<text text-anchor="start" x="12" y="-49.5" font-family="arial" font-size="10.00"> + getLongueur() : float </text>
<text text-anchor="start" x="12" y="-36.5" font-family="arial" font-size="10.00"> + setLongueur(longueur : float) </text>
<text text-anchor="start" x="12" y="-23.5" font-family="arial" font-size="10.00"> + getLargeur() : float </text>
<text text-anchor="start" x="12" y="-10.5" font-family="arial" font-size="10.00"> + setLargeur(largeur : float) </text>
</a>
</g>
<g><a xlink:href="./Rectangle.html" xlink:title="&lt;TABLE&gt;">
</a>
</g>
</g>
</g>
</svg>
