<?xml version="1.0" encoding="UTF-8" standalone="no"?>
<!DOCTYPE svg PUBLIC "-//W3C//DTD SVG 1.1//EN"
 "http://www.w3.org/Graphics/SVG/1.1/DTD/svg11.dtd">
<!-- Generated by graphviz version 2.38.0 (20140413.2041)
 -->
<!-- Title: G Pages: 1 -->
<svg width="499pt" height="268pt"
 viewBox="0.00 0.00 499.00 268.00" xmlns="http://www.w3.org/2000/svg" xmlns:xlink="http://www.w3.org/1999/xlink">
<g id="graph0" class="graph" transform="scale(1 1) rotate(0) translate(4 264)">
<title>G</title>
<polygon fill="white" stroke="none" points="-4,4 -4,-264 495,-264 495,4 -4,4"/>
<!-- c75 -->
<g id="node1" class="node"><title>c75</title>
<g id="a_node1"><a xlink:href="./PieceMontee.html" xlink:title="&lt;TABLE&gt;">
</a>
</g>
<g id="a_node1_0"><a xlink:href="./PieceMontee.html" xlink:title="tp8.PieceMontee">
<polygon fill="lemonChiffon" stroke="none" points="296,-43 296,-217 483,-217 483,-43 296,-43"/>
<polygon fill="none" stroke="black" points="296.5,-198 296.5,-217 483.5,-217 483.5,-198 296.5,-198"/>
<text text-anchor="start" x="358" y="-205" font-family="arial" font-size="10.00"> PieceMontee </text>
<polygon fill="none" stroke="black" points="296.5,-166 296.5,-198 483.5,-198 483.5,-166 296.5,-166"/>
<text text-anchor="start" x="300.5" y="-186" font-family="arial" font-size="10.00"> &#45; prixMontage : int </text>
<text text-anchor="start" x="300.5" y="-173" font-family="arial" font-size="10.00"> &#45; dureeMontage : int </text>
<polygon fill="none" stroke="black" points="296.5,-43 296.5,-166 483.5,-166 483.5,-43 296.5,-43"/>
<text text-anchor="start" x="300.5" y="-154" font-family="arial" font-size="10.00"> + getDureeMontage() : int </text>
<text text-anchor="start" x="300.5" y="-141" font-family="arial" font-size="10.00"> + setDureeMontage(dureeMontage : int) </text>
<text text-anchor="start" x="300.5" y="-128" font-family="arial" font-size="10.00"> + dureeGarantie() : int </text>
<text text-anchor="start" x="300.5" y="-115" font-family="arial" font-size="10.00"> + dureeFabrication() : int </text>
<text text-anchor="start" x="300.5" y="-102" font-family="arial" font-size="10.00"> + prix() : int </text>
<text text-anchor="start" x="300.5" y="-89" font-family="arial" font-size="10.00"> + afficheInfoSupplementaires() </text>
<text text-anchor="start" x="300.5" y="-76" font-family="arial" font-size="10.00"> # getPrefixe() : String </text>
<text text-anchor="start" x="300.5" y="-63" font-family="arial" font-size="10.00"> + getPrixMontage() : int </text>
<text text-anchor="start" x="300.5" y="-50" font-family="arial" font-size="10.00"> + setPrixMontage(prixMontage : int) </text>
</a>
</g>
<g><a xlink:href="./PieceMontee.html" xlink:title="&lt;TABLE&gt;">
</a>
</g>
</g>
<!-- c77 -->
<g id="node2" class="node"><title>c77</title>
<g id="a_node2"><a xlink:href="./PieceComposite.html" xlink:title="&lt;TABLE&gt;">
</a>
</g>
<g id="a_node2_1"><a xlink:href="./PieceComposite.html" xlink:title="tp8.PieceComposite">
<polygon fill="none" stroke="black" points="8,-224 8,-256 244,-256 244,-224 8,-224"/>
<text text-anchor="start" x="100" y="-244" font-family="arial" font-size="10.00"> «abstract» </text>
<text text-anchor="start" x="87" y="-231" font-family="arial italic" font-size="10.00"> PieceComposite </text>
<polygon fill="none" stroke="black" points="8,-192 8,-224 244,-224 244,-192 8,-192"/>
<text text-anchor="start" x="12" y="-212" font-family="arial" font-size="10.00"> &#45; composants : ArrayList&lt;Piece&gt; </text>
<text text-anchor="start" x="12" y="-199" font-family="arial" font-size="10.00"> &#45; dureeMontage : int </text>
<polygon fill="none" stroke="black" points="8,-4 8,-192 244,-192 244,-4 8,-4"/>
<text text-anchor="start" x="12" y="-180" font-family="arial" font-size="10.00"> + getComposants() : ArrayList&lt;Piece&gt; </text>
<text text-anchor="start" x="12" y="-167" font-family="arial" font-size="10.00"> + setComposants(composants : ArrayList&lt;Piece&gt;) </text>
<text text-anchor="start" x="12" y="-154" font-family="arial" font-size="10.00"> + getDureeMontage() : int </text>
<text text-anchor="start" x="12" y="-141" font-family="arial" font-size="10.00"> + setDureeMontage(dureeMontage : int) </text>
<text text-anchor="start" x="12" y="-128" font-family="arial" font-size="10.00"> + ajoute(p : Piece) </text>
<text text-anchor="start" x="12" y="-115" font-family="arial" font-size="10.00"> + toString(i : int) : String </text>
<text text-anchor="start" x="12" y="-102" font-family="arial" font-size="10.00"> + toString() : String </text>
<text text-anchor="start" x="12" y="-89" font-family="arial" font-size="10.00"> «abstract» </text>
<text text-anchor="start" x="12" y="-76" font-family="arial italic" font-size="10.00"> + afficheInfoSupplementaires() </text>
<text text-anchor="start" x="12" y="-63" font-family="arial" font-size="10.00"> # plusFaibleGarantie() : Piece </text>
<text text-anchor="start" x="12" y="-50" font-family="arial" font-size="10.00"> # plusGrandeDureeFabrication() : Piece </text>
<text text-anchor="start" x="12" y="-37" font-family="arial" font-size="10.00"> + affiche() </text>
<text text-anchor="start" x="12" y="-24" font-family="arial" font-size="10.00"> + prix() : int </text>
<text text-anchor="start" x="12" y="-11" font-family="arial" font-size="10.00"> + main(args : String[]) </text>
</a>
</g>
<g><a xlink:href="./PieceComposite.html" xlink:title="&lt;TABLE&gt;">
</a>
</g>
</g>
<!-- c77&#45;&gt;c75 -->
<g id="edge1" class="edge"><title>c77:p&#45;&gt;c75:p</title>
<path fill="none" stroke="black" d="M254.494,-130C268.431,-130 282.418,-130 295.82,-130"/>
<polygon fill="none" stroke="black" points="254.364,-126.5 244.364,-130 254.364,-133.5 254.364,-126.5"/>
</g>
</g>
</svg>
