<?xml version="1.0" encoding="UTF-8" standalone="no"?>
<!DOCTYPE svg PUBLIC "-//W3C//DTD SVG 1.1//EN"
 "http://www.w3.org/Graphics/SVG/1.1/DTD/svg11.dtd">
<!-- Generated by graphviz version 2.38.0 (20140413.2041)
 -->
<!-- Title: G Pages: 1 -->
<svg width="732pt" height="651pt"
 viewBox="0.00 0.00 732.00 650.50" xmlns="http://www.w3.org/2000/svg" xmlns:xlink="http://www.w3.org/1999/xlink">
<g id="graph0" class="graph" transform="scale(1 1) rotate(0) translate(4 646.5)">
<title>G</title>
<polygon fill="white" stroke="none" points="-4,4 -4,-646.5 728,-646.5 728,4 -4,4"/>
<!-- c0 -->
<g id="node1" class="node"><title>c0</title>
<g id="a_node1"><a xlink:href="./PieceMontee.html" xlink:title="&lt;TABLE&gt;">
</a>
</g>
<g id="a_node1_0"><a xlink:href="./PieceMontee.html" xlink:title="tp8.PieceMontee">
<polygon fill="none" stroke="black" points="529.5,-515 529.5,-534 716.5,-534 716.5,-515 529.5,-515"/>
<text text-anchor="start" x="591" y="-522" font-family="arial" font-size="10.00"> PieceMontee </text>
<polygon fill="none" stroke="black" points="529.5,-483 529.5,-515 716.5,-515 716.5,-483 529.5,-483"/>
<text text-anchor="start" x="533.5" y="-503" font-family="arial" font-size="10.00"> &#45; prixMontage : int </text>
<text text-anchor="start" x="533.5" y="-490" font-family="arial" font-size="10.00"> &#45; dureeMontage : int </text>
<polygon fill="none" stroke="black" points="529.5,-360 529.5,-483 716.5,-483 716.5,-360 529.5,-360"/>
<text text-anchor="start" x="533.5" y="-471" font-family="arial" font-size="10.00"> + getDureeMontage() : int </text>
<text text-anchor="start" x="533.5" y="-458" font-family="arial" font-size="10.00"> + setDureeMontage(dureeMontage : int) </text>
<text text-anchor="start" x="533.5" y="-445" font-family="arial" font-size="10.00"> + dureeGarantie() : int </text>
<text text-anchor="start" x="533.5" y="-432" font-family="arial" font-size="10.00"> + dureeFabrication() : int </text>
<text text-anchor="start" x="533.5" y="-419" font-family="arial" font-size="10.00"> + prix() : int </text>
<text text-anchor="start" x="533.5" y="-406" font-family="arial" font-size="10.00"> + afficheInfoSupplementaires() </text>
<text text-anchor="start" x="533.5" y="-393" font-family="arial" font-size="10.00"> # getPrefixe() : String </text>
<text text-anchor="start" x="533.5" y="-380" font-family="arial" font-size="10.00"> + getPrixMontage() : int </text>
<text text-anchor="start" x="533.5" y="-367" font-family="arial" font-size="10.00"> + setPrixMontage(prixMontage : int) </text>
</a>
</g>
<g><a xlink:href="./PieceMontee.html" xlink:title="&lt;TABLE&gt;">
</a>
</g>
</g>
<!-- c1 -->
<g id="node2" class="node"><title>c1</title>
<g id="a_node2"><a xlink:href="./PieceEnKit.html" xlink:title="&lt;TABLE&gt;">
</a>
</g>
<g id="a_node2_1"><a xlink:href="./PieceEnKit.html" xlink:title="tp8.PieceEnKit">
<polygon fill="none" stroke="black" points="537.5,-314 537.5,-333 708.5,-333 708.5,-314 537.5,-314"/>
<text text-anchor="start" x="595.5" y="-321" font-family="arial" font-size="10.00"> PieceEnKit </text>
<polygon fill="none" stroke="black" points="537.5,-295 537.5,-314 708.5,-314 708.5,-295 537.5,-295"/>
<text text-anchor="start" x="541.5" y="-302" font-family="arial" font-size="10.00"> &#45; notice : NoticeMontage </text>
<polygon fill="none" stroke="black" points="537.5,-198 537.5,-295 708.5,-295 708.5,-198 537.5,-198"/>
<text text-anchor="start" x="541.5" y="-283" font-family="arial" font-size="10.00"> + getNotice() : NoticeMontage </text>
<text text-anchor="start" x="541.5" y="-270" font-family="arial" font-size="10.00"> + setNotice(notice : NoticeMontage) </text>
<text text-anchor="start" x="541.5" y="-257" font-family="arial" font-size="10.00"> + dureeGarantie() : int </text>
<text text-anchor="start" x="541.5" y="-244" font-family="arial" font-size="10.00"> + dureeFabrication() : int </text>
<text text-anchor="start" x="541.5" y="-231" font-family="arial" font-size="10.00"> + afficheInfoSupplementaires() </text>
<text text-anchor="start" x="541.5" y="-218" font-family="arial" font-size="10.00"> &#45; dureeMontage() : String </text>
<text text-anchor="start" x="541.5" y="-205" font-family="arial" font-size="10.00"> # getPrefixe() : String </text>
</a>
</g>
<g><a xlink:href="./PieceEnKit.html" xlink:title="&lt;TABLE&gt;">
</a>
</g>
</g>
<!-- c2 -->
<g id="node3" class="node"><title>c2</title>
<g id="a_node3"><a xlink:href="./PieceComposite.html" xlink:title="&lt;TABLE&gt;">
</a>
</g>
<g id="a_node3_2"><a xlink:href="./PieceComposite.html" xlink:title="tp8.PieceComposite">
<polygon fill="none" stroke="black" points="241,-450 241,-482 477,-482 477,-450 241,-450"/>
<text text-anchor="start" x="333" y="-470" font-family="arial" font-size="10.00"> «abstract» </text>
<text text-anchor="start" x="320" y="-457" font-family="arial italic" font-size="10.00"> PieceComposite </text>
<polygon fill="none" stroke="black" points="241,-418 241,-450 477,-450 477,-418 241,-418"/>
<text text-anchor="start" x="245" y="-438" font-family="arial" font-size="10.00"> &#45; composants : ArrayList&lt;Piece&gt; </text>
<text text-anchor="start" x="245" y="-425" font-family="arial" font-size="10.00"> &#45; dureeMontage : int </text>
<polygon fill="none" stroke="black" points="241,-230 241,-418 477,-418 477,-230 241,-230"/>
<text text-anchor="start" x="245" y="-406" font-family="arial" font-size="10.00"> + getComposants() : ArrayList&lt;Piece&gt; </text>
<text text-anchor="start" x="245" y="-393" font-family="arial" font-size="10.00"> + setComposants(composants : ArrayList&lt;Piece&gt;) </text>
<text text-anchor="start" x="245" y="-380" font-family="arial" font-size="10.00"> + getDureeMontage() : int </text>
<text text-anchor="start" x="245" y="-367" font-family="arial" font-size="10.00"> + setDureeMontage(dureeMontage : int) </text>
<text text-anchor="start" x="245" y="-354" font-family="arial" font-size="10.00"> + ajoute(p : Piece) </text>
<text text-anchor="start" x="245" y="-341" font-family="arial" font-size="10.00"> + toString(i : int) : String </text>
<text text-anchor="start" x="245" y="-328" font-family="arial" font-size="10.00"> + toString() : String </text>
<text text-anchor="start" x="245" y="-315" font-family="arial" font-size="10.00"> «abstract» </text>
<text text-anchor="start" x="245" y="-302" font-family="arial italic" font-size="10.00"> + afficheInfoSupplementaires() </text>
<text text-anchor="start" x="245" y="-289" font-family="arial" font-size="10.00"> # plusFaibleGarantie() : Piece </text>
<text text-anchor="start" x="245" y="-276" font-family="arial" font-size="10.00"> # plusGrandeDureeFabrication() : Piece </text>
<text text-anchor="start" x="245" y="-263" font-family="arial" font-size="10.00"> + affiche() </text>
<text text-anchor="start" x="245" y="-250" font-family="arial" font-size="10.00"> + prix() : int </text>
<text text-anchor="start" x="245" y="-237" font-family="arial" font-size="10.00"> + main(args : String[]) </text>
</a>
</g>
<g><a xlink:href="./PieceComposite.html" xlink:title="&lt;TABLE&gt;">
</a>
</g>
</g>
<!-- c2&#45;&gt;c0 -->
<g id="edge1" class="edge"><title>c2:p&#45;&gt;c0:p</title>
<path fill="none" stroke="black" d="M487.089,-400.226C501.16,-405.123 515.288,-410.039 528.82,-414.748"/>
<polygon fill="none" stroke="black" points="487.959,-396.823 477.364,-396.842 485.658,-403.434 487.959,-396.823"/>
</g>
<!-- c2&#45;&gt;c1 -->
<g id="edge2" class="edge"><title>c2:p&#45;&gt;c1:p</title>
<path fill="none" stroke="black" d="M487.213,-312.217C503.971,-306.45 520.806,-300.656 536.616,-295.214"/>
<polygon fill="none" stroke="black" points="485.681,-309.043 477.364,-315.607 487.959,-315.662 485.681,-309.043"/>
</g>
<!-- c3 -->
<g id="node4" class="node"><title>c3</title>
<g id="a_node4"><a xlink:href="./PieceBasique.html" xlink:title="&lt;TABLE&gt;">
</a>
</g>
<g id="a_node4_3"><a xlink:href="./PieceBasique.html" xlink:title="tp8.PieceBasique">
<polygon fill="none" stroke="black" points="255,-185 255,-204 463,-204 463,-185 255,-185"/>
<text text-anchor="start" x="325.5" y="-192" font-family="arial" font-size="10.00"> PieceBasique </text>
<polygon fill="none" stroke="black" points="255,-140 255,-185 463,-185 463,-140 255,-140"/>
<text text-anchor="start" x="259" y="-173" font-family="arial" font-size="10.00"> &#45; dureeGarantie : int </text>
<text text-anchor="start" x="259" y="-160" font-family="arial" font-size="10.00"> &#45; prix : int </text>
<text text-anchor="start" x="259" y="-147" font-family="arial" font-size="10.00"> &#45; dureeFabrication : int </text>
<polygon fill="none" stroke="black" points="255,-4 255,-140 463,-140 463,-4 255,-4"/>
<text text-anchor="start" x="259" y="-128" font-family="arial" font-size="10.00"> + dureeFabrication() : int </text>
<text text-anchor="start" x="259" y="-115" font-family="arial" font-size="10.00"> + getPrix() : int </text>
<text text-anchor="start" x="259" y="-102" font-family="arial" font-size="10.00"> + setPrix(prix : int) </text>
<text text-anchor="start" x="259" y="-89" font-family="arial" font-size="10.00"> + dureeGarantie() : int </text>
<text text-anchor="start" x="259" y="-76" font-family="arial" font-size="10.00"> + prix() : int </text>
<text text-anchor="start" x="259" y="-63" font-family="arial" font-size="10.00"> # getPrefixe() : String </text>
<text text-anchor="start" x="259" y="-50" font-family="arial" font-size="10.00"> + getDureeGarantie() : int </text>
<text text-anchor="start" x="259" y="-37" font-family="arial" font-size="10.00"> + setDureeGarantie(dureeGarantie : int) </text>
<text text-anchor="start" x="259" y="-24" font-family="arial" font-size="10.00"> + getDureeFabrication() : int </text>
<text text-anchor="start" x="259" y="-11" font-family="arial" font-size="10.00"> + setDureeFabrication(dureeFabrication : int) </text>
</a>
</g>
<g><a xlink:href="./PieceBasique.html" xlink:title="&lt;TABLE&gt;">
</a>
</g>
</g>
<!-- c4 -->
<g id="node5" class="node"><title>c4</title>
<g id="a_node5"><a xlink:href="./Piece.html" xlink:title="&lt;TABLE&gt;">
</a>
</g>
<g id="a_node5_4"><a xlink:href="./Piece.html" xlink:title="tp8.Piece">
<polygon fill="none" stroke="black" points="18.5,-343 18.5,-375 179.5,-375 179.5,-343 18.5,-343"/>
<text text-anchor="start" x="73" y="-363" font-family="arial" font-size="10.00"> «abstract» </text>
<text text-anchor="start" x="83.5" y="-350" font-family="arial italic" font-size="10.00"> Piece </text>
<polygon fill="none" stroke="black" points="18.5,-311 18.5,-343 179.5,-343 179.5,-311 18.5,-311"/>
<text text-anchor="start" x="22.5" y="-331" font-family="arial" font-size="10.00"> &#45; nom : String </text>
<text text-anchor="start" x="22.5" y="-318" font-family="arial" font-size="10.00"> &#45; reference : String </text>
<polygon fill="none" stroke="black" points="18.5,-84 18.5,-311 179.5,-311 179.5,-84 18.5,-84"/>
<text text-anchor="start" x="22.5" y="-299" font-family="arial" font-size="10.00"> «abstract» </text>
<text text-anchor="start" x="22.5" y="-286" font-family="arial italic" font-size="10.00"> + prix() : int </text>
<text text-anchor="start" x="22.5" y="-273" font-family="arial" font-size="10.00"> «abstract» </text>
<text text-anchor="start" x="22.5" y="-260" font-family="arial italic" font-size="10.00"> + dureeGarantie() : int </text>
<text text-anchor="start" x="22.5" y="-247" font-family="arial" font-size="10.00"> «abstract» </text>
<text text-anchor="start" x="22.5" y="-234" font-family="arial italic" font-size="10.00"> + dureeFabrication() : int </text>
<text text-anchor="start" x="22.5" y="-221" font-family="arial" font-size="10.00"> «abstract» </text>
<text text-anchor="start" x="22.5" y="-208" font-family="arial italic" font-size="10.00"> # getPrefixe() : String </text>
<text text-anchor="start" x="22.5" y="-195" font-family="arial" font-size="10.00"> + affiche() </text>
<text text-anchor="start" x="22.5" y="-182" font-family="arial" font-size="10.00"> + toString(i : int) : String </text>
<text text-anchor="start" x="22.5" y="-169" font-family="arial" font-size="10.00"> + toString() : String </text>
<text text-anchor="start" x="22.5" y="-156" font-family="arial" font-size="10.00"> # indentation(i : int) : String </text>
<text text-anchor="start" x="22.5" y="-143" font-family="arial" font-size="10.00"> + nouvelleReference() : String </text>
<text text-anchor="start" x="22.5" y="-130" font-family="arial" font-size="10.00"> + getReference() : String </text>
<text text-anchor="start" x="22.5" y="-117" font-family="arial" font-size="10.00"> + setReference(reference : String) </text>
<text text-anchor="start" x="22.5" y="-104" font-family="arial" font-size="10.00"> + getNom() : String </text>
<text text-anchor="start" x="22.5" y="-91" font-family="arial" font-size="10.00"> + setNom(nom : String) </text>
</a>
</g>
<g><a xlink:href="./Piece.html" xlink:title="&lt;TABLE&gt;">
</a>
</g>
</g>
<!-- c4&#45;&gt;c2 -->
<g id="edge3" class="edge"><title>c4:p&#45;&gt;c2:p</title>
<path fill="none" stroke="black" d="M188.398,-273.331C205.215,-281.528 223.045,-290.219 240.582,-298.767"/>
<polygon fill="none" stroke="black" points="189.69,-270.068 179.168,-268.832 186.623,-276.36 189.69,-270.068"/>
</g>
<!-- c4&#45;&gt;c3 -->
<g id="edge4" class="edge"><title>c4:p&#45;&gt;c3:p</title>
<path fill="none" stroke="black" d="M188.241,-186.745C209.667,-176.302 232.744,-165.053 254.77,-154.317"/>
<polygon fill="none" stroke="black" points="186.623,-183.64 179.168,-191.168 189.69,-189.932 186.623,-183.64"/>
</g>
<!-- c5 -->
<g id="node6" class="node"><title>c5</title>
<g id="a_node6"><a xlink:href="./NoticeMontage.html" xlink:title="&lt;TABLE&gt;">
</a>
</g>
<g id="a_node6_5"><a xlink:href="./NoticeMontage.html" xlink:title="tp8.NoticeMontage">
<polygon fill="none" stroke="black" points="9.5,-453 9.5,-472 187.5,-472 187.5,-453 9.5,-453"/>
<text text-anchor="start" x="62.5" y="-460" font-family="arial" font-size="10.00"> NoticeMontage </text>
<polygon fill="none" stroke="black" points="9.5,-434 9.5,-453 187.5,-453 187.5,-434 9.5,-434"/>
<text text-anchor="start" x="13.5" y="-441" font-family="arial" font-size="10.00"> ~ instructions : String </text>
<polygon fill="none" stroke="black" points="9.5,-402 9.5,-434 187.5,-434 187.5,-402 9.5,-402"/>
<text text-anchor="start" x="13.5" y="-422" font-family="arial" font-size="10.00"> + getInstructions() : String </text>
<text text-anchor="start" x="13.5" y="-409" font-family="arial" font-size="10.00"> + setInstructions(instructions : String) </text>
</a>
</g>
<g><a xlink:href="./NoticeMontage.html" xlink:title="&lt;TABLE&gt;">
</a>
</g>
</g>
<!-- c6 -->
<g id="node7" class="node"><title>c6</title>
<g id="a_node7"><a xlink:href="./ComparateurGarantie.html" xlink:title="&lt;TABLE&gt;">
</a>
</g>
<g id="a_node7_6"><a xlink:href="./ComparateurGarantie.html" xlink:title="tp8.ComparateurGarantie">
<polygon fill="none" stroke="black" points="8.5,-536 8.5,-555 189.5,-555 189.5,-536 8.5,-536"/>
<text text-anchor="start" x="49.5" y="-543" font-family="arial" font-size="10.00"> ComparateurGarantie </text>
<polygon fill="none" stroke="black" points="8.5,-517 8.5,-536 189.5,-536 189.5,-517 8.5,-517"/>
<text text-anchor="start" x="12.5" y="-524" font-family="arial" font-size="10.00"> &#160;</text>
<polygon fill="none" stroke="black" points="8.5,-498 8.5,-517 189.5,-517 189.5,-498 8.5,-498"/>
<text text-anchor="start" x="12.5" y="-505" font-family="arial" font-size="10.00"> + compare(o1 : Piece, o2 : Piece) : int </text>
</a>
</g>
<g><a xlink:href="./ComparateurGarantie.html" xlink:title="&lt;TABLE&gt;">
</a>
</g>
</g>
<!-- c7 -->
<g id="node8" class="node"><title>c7</title>
<g id="a_node8"><a xlink:href="./ComparateurDureeFabrication.html" xlink:title="&lt;TABLE&gt;">
</a>
</g>
<g id="a_node8_7"><a xlink:href="./ComparateurDureeFabrication.html" xlink:title="tp8.ComparateurDureeFabrication">
<polygon fill="none" stroke="black" points="8.5,-619 8.5,-638 189.5,-638 189.5,-619 8.5,-619"/>
<text text-anchor="start" x="31" y="-626" font-family="arial" font-size="10.00"> ComparateurDureeFabrication </text>
<polygon fill="none" stroke="black" points="8.5,-600 8.5,-619 189.5,-619 189.5,-600 8.5,-600"/>
<text text-anchor="start" x="12.5" y="-607" font-family="arial" font-size="10.00"> &#160;</text>
<polygon fill="none" stroke="black" points="8.5,-581 8.5,-600 189.5,-600 189.5,-581 8.5,-581"/>
<text text-anchor="start" x="12.5" y="-588" font-family="arial" font-size="10.00"> + compare(o1 : Piece, o2 : Piece) : int </text>
</a>
</g>
<g><a xlink:href="./ComparateurDureeFabrication.html" xlink:title="&lt;TABLE&gt;">
</a>
</g>
</g>
</g>
</svg>
