<?xml version="1.0" encoding="UTF-8" standalone="no"?>
<!DOCTYPE svg PUBLIC "-//W3C//DTD SVG 1.1//EN"
 "http://www.w3.org/Graphics/SVG/1.1/DTD/svg11.dtd">
<!-- Generated by graphviz version 2.38.0 (20140413.2041)
 -->
<!-- Title: G Pages: 1 -->
<svg width="431pt" height="463pt"
 viewBox="0.00 0.00 431.00 463.00" xmlns="http://www.w3.org/2000/svg" xmlns:xlink="http://www.w3.org/1999/xlink">
<g id="graph0" class="graph" transform="scale(1 1) rotate(0) translate(4 459)">
<title>G</title>
<polygon fill="white" stroke="none" points="-4,4 -4,-459 427,-459 427,4 -4,4"/>
<!-- c0 -->
<g id="node1" class="node"><title>c0</title>
<g id="a_node1"><a xlink:href="./TauxRecom.html" xlink:title="&lt;TABLE&gt;">
</a>
</g>
<g id="a_node1_0"><a xlink:href="./TauxRecom.html" xlink:title="tp3.TauxRecom">
<polygon fill="none" stroke="black" points="8,-419 8,-451 86,-451 86,-419 8,-419"/>
<text text-anchor="start" x="12" y="-439" font-family="arial" font-size="10.00"> «enumeration» </text>
<text text-anchor="start" x="18" y="-426" font-family="arial" font-size="10.00"> TauxRecom </text>
</a>
</g>
<g><a xlink:href="./TauxRecom.html" xlink:title="&lt;TABLE&gt;">
</a>
</g>
</g>
<!-- c1 -->
<g id="node2" class="node"><title>c1</title>
<g id="a_node2"><a xlink:href="./ProgrammePoste.html" xlink:title="&lt;TABLE&gt;">
</a>
</g>
<g id="a_node2_1"><a xlink:href="./ProgrammePoste.html" xlink:title="tp3.ProgrammePoste">
<polygon fill="none" stroke="black" points="120,-425 120,-444 210,-444 210,-425 120,-425"/>
<text text-anchor="start" x="124" y="-432" font-family="arial" font-size="10.00"> ProgrammePoste </text>
</a>
</g>
<g><a xlink:href="./ProgrammePoste.html" xlink:title="&lt;TABLE&gt;">
</a>
</g>
</g>
<!-- c2 -->
<g id="node3" class="node"><title>c2</title>
<g id="a_node3"><a xlink:href="./ObjetPostal.html" xlink:title="&lt;TABLE&gt;">
</a>
</g>
<g id="a_node3_2"><a xlink:href="./ObjetPostal.html" xlink:title="tp3.ObjetPostal">
<polygon fill="none" stroke="black" points="228,-343 228,-375 345,-375 345,-343 228,-343"/>
<text text-anchor="start" x="260.5" y="-363" font-family="arial" font-size="10.00"> «abstract» </text>
<text text-anchor="start" x="257.5" y="-350" font-family="arial italic" font-size="10.00"> ObjetPostal </text>
<polygon fill="none" stroke="black" points="228,-259 228,-343 345,-343 345,-259 228,-259"/>
<text text-anchor="start" x="232" y="-331" font-family="arial" font-size="10.00"> &#45; origine : String </text>
<text text-anchor="start" x="232" y="-318" font-family="arial" font-size="10.00"> &#45; destination : String </text>
<text text-anchor="start" x="232" y="-305" font-family="arial" font-size="10.00"> &#45; codePostal : String </text>
<text text-anchor="start" x="232" y="-292" font-family="arial" font-size="10.00"> &#45; poids : double </text>
<text text-anchor="start" x="232" y="-279" font-family="arial" font-size="10.00"> &#45; volume : double </text>
<text text-anchor="start" x="232" y="-266" font-family="arial" font-size="10.00"> &#45; tauxRec : TauxRecom </text>
</a>
</g>
<g><a xlink:href="./ObjetPostal.html" xlink:title="&lt;TABLE&gt;">
</a>
</g>
</g>
<!-- c3 -->
<g id="node5" class="node"><title>c3</title>
<g id="a_node5"><a xlink:href="./Lettre.html" xlink:title="&lt;TABLE&gt;">
</a>
</g>
<g id="a_node5_3"><a xlink:href="./Lettre.html" xlink:title="tp3.Lettre">
<polygon fill="none" stroke="black" points="170,-189 170,-208 266,-208 266,-189 170,-189"/>
<text text-anchor="start" x="202.5" y="-196" font-family="arial" font-size="10.00"> Lettre </text>
<polygon fill="none" stroke="black" points="170,-157 170,-189 266,-189 266,-157 170,-157"/>
<text text-anchor="start" x="174" y="-177" font-family="arial" font-size="10.00"> &#45; urgente : boolean </text>
<text text-anchor="start" x="174" y="-164" font-family="arial" font-size="10.00"> &#45; tarifBase : double </text>
</a>
</g>
<g><a xlink:href="./Lettre.html" xlink:title="&lt;TABLE&gt;">
</a>
</g>
</g>
<!-- c2&#45;&gt;c3 -->
<g id="edge2" class="edge"><title>c2:p&#45;&gt;c3:p</title>
<path fill="none" stroke="black" d="M251.88,-249.767C244.329,-235.108 236.785,-220.465 230.739,-208.729"/>
<polygon fill="none" stroke="black" points="248.879,-251.584 256.57,-258.871 255.101,-248.378 248.879,-251.584"/>
</g>
<!-- c5 -->
<g id="node7" class="node"><title>c5</title>
<g id="a_node7"><a xlink:href="./Colis.html" xlink:title="&lt;TABLE&gt;">
</a>
</g>
<g id="a_node7_4"><a xlink:href="./Colis.html" xlink:title="tp3.Colis">
<polygon fill="none" stroke="black" points="301,-196 301,-215 410,-215 410,-196 301,-196"/>
<text text-anchor="start" x="341.5" y="-203" font-family="arial" font-size="10.00"> Colis </text>
<polygon fill="none" stroke="black" points="301,-151 301,-196 410,-196 410,-151 301,-151"/>
<text text-anchor="start" x="305" y="-184" font-family="arial" font-size="10.00"> &#45; declContenu : String </text>
<text text-anchor="start" x="305" y="-171" font-family="arial" font-size="10.00"> &#45; valeurDecl : double </text>
<text text-anchor="start" x="305" y="-158" font-family="arial" font-size="10.00"> &#45; tarifBase : double </text>
</a>
</g>
<g><a xlink:href="./Colis.html" xlink:title="&lt;TABLE&gt;">
</a>
</g>
</g>
<!-- c2&#45;&gt;c5 -->
<g id="edge4" class="edge"><title>c2:p&#45;&gt;c5:p</title>
<path fill="none" stroke="black" d="M320.498,-250.004C326.88,-237.795 333.262,-225.586 338.771,-215.047"/>
<polygon fill="none" stroke="black" points="317.394,-248.387 315.863,-258.871 323.597,-251.63 317.394,-248.387"/>
</g>
<!-- n0cc2 -->
<g id="node4" class="node"><title>n0cc2</title>
<polygon fill="none" stroke="black" points="329.5,-453 236.5,-453 236.5,-417 335.5,-417 335.5,-447 329.5,-453"/>
<polyline fill="none" stroke="black" points="329.5,-453 329.5,-447 "/>
<polyline fill="none" stroke="black" points="335.5,-447 329.5,-447 "/>
<g id="a_node4_5"><a xlink:href="./ObjetPostal.html" xlink:title="tp3.ObjetPostal">
<text text-anchor="start" x="248" y="-432" font-family="arial" font-size="10.00"> Classe abstraite </text>
</a>
</g>
</g>
<!-- n0cc2&#45;&gt;c2 -->
<g id="edge1" class="edge"><title>n0cc2&#45;&gt;c2:p</title>
<path fill="none" stroke="black" d="M286,-416.884C286,-405.666 286,-390.296 286,-375.018"/>
</g>
<!-- c4 -->
<g id="node6" class="node"><title>c4</title>
<g id="a_node6"><a xlink:href="./ColisExpress.html" xlink:title="&lt;TABLE&gt;">
</a>
</g>
<g id="a_node6_6"><a xlink:href="./ColisExpress.html" xlink:title="tp3.ColisExpress">
<polygon fill="none" stroke="black" points="295,-87.5 295,-106.5 415,-106.5 415,-87.5 295,-87.5"/>
<text text-anchor="start" x="323" y="-94.5" font-family="arial" font-size="10.00"> ColisExpress </text>
<polygon fill="none" stroke="black" points="295,-3.5 295,-87.5 415,-87.5 415,-3.5 295,-3.5"/>
<text text-anchor="start" x="299" y="-75.5" font-family="arial" font-size="10.00"> &#45; dateEnvoi : Date </text>
<text text-anchor="start" x="299" y="-62.5" font-family="arial" font-size="10.00"> &#45; numeroSuivi : int </text>
<text text-anchor="start" x="299" y="-49.5" font-family="arial" font-size="10.00"> &#45; emballage : boolean </text>
<text text-anchor="start" x="299" y="-36.5" font-family="arial" font-size="10.00"> &#45; numeroCourant : int </text>
<text text-anchor="start" x="299" y="-23.5" font-family="arial" font-size="10.00"> &#45; tarifEmballage : double </text>
<text text-anchor="start" x="299" y="-10.5" font-family="arial" font-size="10.00"> &#45; tarifBase : double </text>
</a>
</g>
<g><a xlink:href="./ColisExpress.html" xlink:title="&lt;TABLE&gt;">
</a>
</g>
</g>
<!-- c5&#45;&gt;c4 -->
<g id="edge3" class="edge"><title>c5:p&#45;&gt;c4:p</title>
<path fill="none" stroke="black" d="M355,-140.646C355,-129.947 355,-118.304 355,-107.187"/>
<polygon fill="none" stroke="black" points="351.5,-140.977 355,-150.978 358.5,-140.978 351.5,-140.977"/>
</g>
</g>
</svg>
