<?xml version="1.0" encoding="UTF-8" standalone="no"?>
<!DOCTYPE svg PUBLIC "-//W3C//DTD SVG 1.1//EN"
 "http://www.w3.org/Graphics/SVG/1.1/DTD/svg11.dtd">
<!-- Generated by graphviz version 2.38.0 (20140413.2041)
 -->
<!-- Title: G Pages: 1 -->
<svg width="783pt" height="346pt"
 viewBox="0.00 0.00 783.00 346.00" xmlns="http://www.w3.org/2000/svg" xmlns:xlink="http://www.w3.org/1999/xlink">
<g id="graph0" class="graph" transform="scale(1 1) rotate(0) translate(4 342)">
<title>G</title>
<polygon fill="white" stroke="none" points="-4,4 -4,-342 779,-342 779,4 -4,4"/>
<!-- c75 -->
<g id="node1" class="node"><title>c75</title>
<g id="a_node1"><a xlink:href="./PieceMontee.html" xlink:title="&lt;TABLE&gt;">
</a>
</g>
<g id="a_node1_0"><a xlink:href="./PieceMontee.html" xlink:title="tp8.PieceMontee">
<polygon fill="lemonChiffon" stroke="none" points="381,-43 381,-295 767,-295 767,-43 381,-43"/>
<polygon fill="none" stroke="black" points="381,-276 381,-295 767,-295 767,-276 381,-276"/>
<text text-anchor="start" x="542" y="-283" font-family="arial" font-size="10.00"> PieceMontee </text>
<polygon fill="none" stroke="black" points="381,-244 381,-276 767,-276 767,-244 381,-244"/>
<text text-anchor="start" x="385" y="-264" font-family="arial" font-size="10.00"> &#45; prixMontage : int </text>
<text text-anchor="start" x="385" y="-251" font-family="arial" font-size="10.00"> &#45; dureeMontage : int </text>
<polygon fill="none" stroke="black" points="381,-43 381,-244 767,-244 767,-43 381,-43"/>
<text text-anchor="start" x="385" y="-232" font-family="arial" font-size="10.00"> «create» </text>
<text text-anchor="start" x="385" y="-219" font-family="arial" font-size="10.00"> + PieceMontee(nom : String) </text>
<text text-anchor="start" x="385" y="-206" font-family="arial" font-size="10.00"> «create» </text>
<text text-anchor="start" x="385" y="-193" font-family="arial" font-size="10.00"> + PieceMontee(nom : String, reference : String) </text>
<text text-anchor="start" x="385" y="-180" font-family="arial" font-size="10.00"> «create» </text>
<text text-anchor="start" x="385" y="-167" font-family="arial" font-size="10.00"> + PieceMontee(nom : String, reference : String, prixMontage : int, dureeMontage : int) </text>
<text text-anchor="start" x="385" y="-154" font-family="arial" font-size="10.00"> + getDureeMontage() : int </text>
<text text-anchor="start" x="385" y="-141" font-family="arial" font-size="10.00"> + setDureeMontage(dureeMontage : int) </text>
<text text-anchor="start" x="385" y="-128" font-family="arial" font-size="10.00"> + dureeGarantie() : int </text>
<text text-anchor="start" x="385" y="-115" font-family="arial" font-size="10.00"> + dureeFabrication() : int </text>
<text text-anchor="start" x="385" y="-102" font-family="arial" font-size="10.00"> + prix() : int </text>
<text text-anchor="start" x="385" y="-89" font-family="arial" font-size="10.00"> + afficheInfoSupplementaires() </text>
<text text-anchor="start" x="385" y="-76" font-family="arial" font-size="10.00"> # getPrefixe() : String </text>
<text text-anchor="start" x="385" y="-63" font-family="arial" font-size="10.00"> + getPrixMontage() : int </text>
<text text-anchor="start" x="385" y="-50" font-family="arial" font-size="10.00"> + setPrixMontage(prixMontage : int) </text>
</a>
</g>
<g><a xlink:href="./PieceMontee.html" xlink:title="&lt;TABLE&gt;">
</a>
</g>
</g>
<!-- c77 -->
<g id="node2" class="node"><title>c77</title>
<g id="a_node2"><a xlink:href="./PieceComposite.html" xlink:title="&lt;TABLE&gt;">
</a>
</g>
<g id="a_node2_1"><a xlink:href="./PieceComposite.html" xlink:title="tp8.PieceComposite">
<polygon fill="none" stroke="black" points="8.5,-302 8.5,-334 329.5,-334 329.5,-302 8.5,-302"/>
<text text-anchor="start" x="143" y="-322" font-family="arial" font-size="10.00"> «abstract» </text>
<text text-anchor="start" x="130" y="-309" font-family="arial italic" font-size="10.00"> PieceComposite </text>
<polygon fill="none" stroke="black" points="8.5,-270 8.5,-302 329.5,-302 329.5,-270 8.5,-270"/>
<text text-anchor="start" x="12.5" y="-290" font-family="arial" font-size="10.00"> &#45; composants : ArrayList&lt;Piece&gt; </text>
<text text-anchor="start" x="12.5" y="-277" font-family="arial" font-size="10.00"> &#45; dureeMontage : int </text>
<polygon fill="none" stroke="black" points="8.5,-4 8.5,-270 329.5,-270 329.5,-4 8.5,-4"/>
<text text-anchor="start" x="12.5" y="-258" font-family="arial" font-size="10.00"> «create» </text>
<text text-anchor="start" x="12.5" y="-245" font-family="arial" font-size="10.00"> + PieceComposite(nom : String) </text>
<text text-anchor="start" x="12.5" y="-232" font-family="arial" font-size="10.00"> «create» </text>
<text text-anchor="start" x="12.5" y="-219" font-family="arial" font-size="10.00"> + PieceComposite(nom : String, reference : String) </text>
<text text-anchor="start" x="12.5" y="-206" font-family="arial" font-size="10.00"> «create» </text>
<text text-anchor="start" x="12.5" y="-193" font-family="arial" font-size="10.00"> + PieceComposite(nom : String, reference : String, dureeMontage : int) </text>
<text text-anchor="start" x="12.5" y="-180" font-family="arial" font-size="10.00"> + getComposants() : ArrayList&lt;Piece&gt; </text>
<text text-anchor="start" x="12.5" y="-167" font-family="arial" font-size="10.00"> + setComposants(composants : ArrayList&lt;Piece&gt;) </text>
<text text-anchor="start" x="12.5" y="-154" font-family="arial" font-size="10.00"> + getDureeMontage() : int </text>
<text text-anchor="start" x="12.5" y="-141" font-family="arial" font-size="10.00"> + setDureeMontage(dureeMontage : int) </text>
<text text-anchor="start" x="12.5" y="-128" font-family="arial" font-size="10.00"> + ajoute(p : Piece) </text>
<text text-anchor="start" x="12.5" y="-115" font-family="arial" font-size="10.00"> + toString(i : int) : String </text>
<text text-anchor="start" x="12.5" y="-102" font-family="arial" font-size="10.00"> + toString() : String </text>
<text text-anchor="start" x="12.5" y="-89" font-family="arial" font-size="10.00"> «abstract» </text>
<text text-anchor="start" x="12.5" y="-76" font-family="arial italic" font-size="10.00"> + afficheInfoSupplementaires() </text>
<text text-anchor="start" x="12.5" y="-63" font-family="arial" font-size="10.00"> # plusFaibleGarantie() : Piece </text>
<text text-anchor="start" x="12.5" y="-50" font-family="arial" font-size="10.00"> # plusGrandeDureeFabrication() : Piece </text>
<text text-anchor="start" x="12.5" y="-37" font-family="arial" font-size="10.00"> + affiche() </text>
<text text-anchor="start" x="12.5" y="-24" font-family="arial" font-size="10.00"> + prix() : int </text>
<text text-anchor="start" x="12.5" y="-11" font-family="arial" font-size="10.00"> + main(args : String[]) </text>
</a>
</g>
<g><a xlink:href="./PieceComposite.html" xlink:title="&lt;TABLE&gt;">
</a>
</g>
</g>
<!-- c77&#45;&gt;c75 -->
<g id="edge1" class="edge"><title>c77:p&#45;&gt;c75:p</title>
<path fill="none" stroke="black" d="M339.641,-169C353.267,-169 367.09,-169 380.853,-169"/>
<polygon fill="none" stroke="black" points="339.264,-165.5 329.264,-169 339.264,-172.5 339.264,-165.5"/>
</g>
</g>
</svg>
