<?xml version="1.0" encoding="UTF-8" standalone="no"?>
<!DOCTYPE svg PUBLIC "-//W3C//DTD SVG 1.1//EN"
 "http://www.w3.org/Graphics/SVG/1.1/DTD/svg11.dtd">
<!-- Generated by graphviz version 2.38.0 (20140413.2041)
 -->
<!-- Title: G Pages: 1 -->
<svg width="1023pt" height="468pt"
 viewBox="0.00 0.00 1023.00 468.00" xmlns="http://www.w3.org/2000/svg" xmlns:xlink="http://www.w3.org/1999/xlink">
<g id="graph0" class="graph" transform="scale(1 1) rotate(0) translate(4 464)">
<title>G</title>
<polygon fill="white" stroke="none" points="-4,4 -4,-464 1019,-464 1019,4 -4,4"/>
<!-- c59 -->
<g id="node1" class="node"><title>c59</title>
<g id="a_node1"><a xlink:href="./PieceMontee.html" xlink:title="&lt;TABLE&gt;">
</a>
</g>
<g id="a_node1_0"><a xlink:href="./PieceMontee.html" xlink:title="tp8.PieceMontee">
<polygon fill="none" stroke="black" points="621,-437 621,-456 1007,-456 1007,-437 621,-437"/>
<text text-anchor="start" x="782" y="-444" font-family="arial" font-size="10.00"> PieceMontee </text>
<polygon fill="none" stroke="black" points="621,-405 621,-437 1007,-437 1007,-405 621,-405"/>
<text text-anchor="start" x="625" y="-425" font-family="arial" font-size="10.00"> &#45; prixMontage : int </text>
<text text-anchor="start" x="625" y="-412" font-family="arial" font-size="10.00"> &#45; dureeMontage : int </text>
<polygon fill="none" stroke="black" points="621,-204 621,-405 1007,-405 1007,-204 621,-204"/>
<text text-anchor="start" x="625" y="-393" font-family="arial" font-size="10.00"> «create» </text>
<text text-anchor="start" x="625" y="-380" font-family="arial" font-size="10.00"> + PieceMontee(nom : String) </text>
<text text-anchor="start" x="625" y="-367" font-family="arial" font-size="10.00"> «create» </text>
<text text-anchor="start" x="625" y="-354" font-family="arial" font-size="10.00"> + PieceMontee(nom : String, reference : String) </text>
<text text-anchor="start" x="625" y="-341" font-family="arial" font-size="10.00"> «create» </text>
<text text-anchor="start" x="625" y="-328" font-family="arial" font-size="10.00"> + PieceMontee(nom : String, reference : String, prixMontage : int, dureeMontage : int) </text>
<text text-anchor="start" x="625" y="-315" font-family="arial" font-size="10.00"> + getDureeMontage() : int </text>
<text text-anchor="start" x="625" y="-302" font-family="arial" font-size="10.00"> + setDureeMontage(dureeMontage : int) </text>
<text text-anchor="start" x="625" y="-289" font-family="arial" font-size="10.00"> + dureeGarantie() : int </text>
<text text-anchor="start" x="625" y="-276" font-family="arial" font-size="10.00"> + dureeFabrication() : int </text>
<text text-anchor="start" x="625" y="-263" font-family="arial" font-size="10.00"> + prix() : int </text>
<text text-anchor="start" x="625" y="-250" font-family="arial" font-size="10.00"> + afficheInfoSupplementaires() </text>
<text text-anchor="start" x="625" y="-237" font-family="arial" font-size="10.00"> # getPrefixe() : String </text>
<text text-anchor="start" x="625" y="-224" font-family="arial" font-size="10.00"> + getPrixMontage() : int </text>
<text text-anchor="start" x="625" y="-211" font-family="arial" font-size="10.00"> + setPrixMontage(prixMontage : int) </text>
</a>
</g>
<g><a xlink:href="./PieceMontee.html" xlink:title="&lt;TABLE&gt;">
</a>
</g>
</g>
<!-- c60 -->
<g id="node2" class="node"><title>c60</title>
<g id="a_node2"><a xlink:href="./PieceEnKit.html" xlink:title="&lt;TABLE&gt;">
</a>
</g>
<g id="a_node2_1"><a xlink:href="./PieceEnKit.html" xlink:title="tp8.PieceEnKit">
<polygon fill="none" stroke="black" points="708,-159 708,-178 920,-178 920,-159 708,-159"/>
<text text-anchor="start" x="786.5" y="-166" font-family="arial" font-size="10.00"> PieceEnKit </text>
<polygon fill="none" stroke="black" points="708,-140 708,-159 920,-159 920,-140 708,-140"/>
<text text-anchor="start" x="712" y="-147" font-family="arial" font-size="10.00"> &#45; notice : NoticeMontage </text>
<polygon fill="none" stroke="black" points="708,-4 708,-140 920,-140 920,-4 708,-4"/>
<text text-anchor="start" x="712" y="-128" font-family="arial" font-size="10.00"> «create» </text>
<text text-anchor="start" x="712" y="-115" font-family="arial" font-size="10.00"> + PieceEnKit(nom : String) </text>
<text text-anchor="start" x="712" y="-102" font-family="arial" font-size="10.00"> + PieceEnKit(nom : String, reference : String) </text>
<text text-anchor="start" x="712" y="-89" font-family="arial" font-size="10.00"> + getNotice() : NoticeMontage </text>
<text text-anchor="start" x="712" y="-76" font-family="arial" font-size="10.00"> + setNotice(notice : NoticeMontage) </text>
<text text-anchor="start" x="712" y="-63" font-family="arial" font-size="10.00"> + dureeGarantie() : int </text>
<text text-anchor="start" x="712" y="-50" font-family="arial" font-size="10.00"> + dureeFabrication() : int </text>
<text text-anchor="start" x="712" y="-37" font-family="arial" font-size="10.00"> + afficheInfoSupplementaires() </text>
<text text-anchor="start" x="712" y="-24" font-family="arial" font-size="10.00"> &#45; dureeMontage() : String </text>
<text text-anchor="start" x="712" y="-11" font-family="arial" font-size="10.00"> # getPrefixe() : String </text>
</a>
</g>
<g><a xlink:href="./PieceEnKit.html" xlink:title="&lt;TABLE&gt;">
</a>
</g>
</g>
<!-- c61 -->
<g id="node3" class="node"><title>c61</title>
<g id="a_node3"><a xlink:href="./PieceComposite.html" xlink:title="&lt;TABLE&gt;">
</a>
</g>
<g id="a_node3_2"><a xlink:href="./PieceComposite.html" xlink:title="tp8.PieceComposite">
<polygon fill="lemonChiffon" stroke="none" points="248,-45 248,-375 569,-375 569,-45 248,-45"/>
<polygon fill="none" stroke="black" points="248.5,-343 248.5,-375 569.5,-375 569.5,-343 248.5,-343"/>
<text text-anchor="start" x="383" y="-363" font-family="arial" font-size="10.00"> «abstract» </text>
<text text-anchor="start" x="370" y="-350" font-family="arial italic" font-size="10.00"> PieceComposite </text>
<polygon fill="none" stroke="black" points="248.5,-311 248.5,-343 569.5,-343 569.5,-311 248.5,-311"/>
<text text-anchor="start" x="252.5" y="-331" font-family="arial" font-size="10.00"> &#45; composants : ArrayList&lt;Piece&gt; </text>
<text text-anchor="start" x="252.5" y="-318" font-family="arial" font-size="10.00"> &#45; dureeMontage : int </text>
<polygon fill="none" stroke="black" points="248.5,-45 248.5,-311 569.5,-311 569.5,-45 248.5,-45"/>
<text text-anchor="start" x="252.5" y="-299" font-family="arial" font-size="10.00"> «create» </text>
<text text-anchor="start" x="252.5" y="-286" font-family="arial" font-size="10.00"> + PieceComposite(nom : String) </text>
<text text-anchor="start" x="252.5" y="-273" font-family="arial" font-size="10.00"> «create» </text>
<text text-anchor="start" x="252.5" y="-260" font-family="arial" font-size="10.00"> + PieceComposite(nom : String, reference : String) </text>
<text text-anchor="start" x="252.5" y="-247" font-family="arial" font-size="10.00"> «create» </text>
<text text-anchor="start" x="252.5" y="-234" font-family="arial" font-size="10.00"> + PieceComposite(nom : String, reference : String, dureeMontage : int) </text>
<text text-anchor="start" x="252.5" y="-221" font-family="arial" font-size="10.00"> + getComposants() : ArrayList&lt;Piece&gt; </text>
<text text-anchor="start" x="252.5" y="-208" font-family="arial" font-size="10.00"> + setComposants(composants : ArrayList&lt;Piece&gt;) </text>
<text text-anchor="start" x="252.5" y="-195" font-family="arial" font-size="10.00"> + getDureeMontage() : int </text>
<text text-anchor="start" x="252.5" y="-182" font-family="arial" font-size="10.00"> + setDureeMontage(dureeMontage : int) </text>
<text text-anchor="start" x="252.5" y="-169" font-family="arial" font-size="10.00"> + ajoute(p : Piece) </text>
<text text-anchor="start" x="252.5" y="-156" font-family="arial" font-size="10.00"> + toString(i : int) : String </text>
<text text-anchor="start" x="252.5" y="-143" font-family="arial" font-size="10.00"> + toString() : String </text>
<text text-anchor="start" x="252.5" y="-130" font-family="arial" font-size="10.00"> «abstract» </text>
<text text-anchor="start" x="252.5" y="-117" font-family="arial italic" font-size="10.00"> + afficheInfoSupplementaires() </text>
<text text-anchor="start" x="252.5" y="-104" font-family="arial" font-size="10.00"> # plusFaibleGarantie() : Piece </text>
<text text-anchor="start" x="252.5" y="-91" font-family="arial" font-size="10.00"> # plusGrandeDureeFabrication() : Piece </text>
<text text-anchor="start" x="252.5" y="-78" font-family="arial" font-size="10.00"> + affiche() </text>
<text text-anchor="start" x="252.5" y="-65" font-family="arial" font-size="10.00"> + prix() : int </text>
<text text-anchor="start" x="252.5" y="-52" font-family="arial" font-size="10.00"> + main(args : String[]) </text>
</a>
</g>
<g><a xlink:href="./PieceComposite.html" xlink:title="&lt;TABLE&gt;">
</a>
</g>
</g>
<!-- c61&#45;&gt;c59 -->
<g id="edge1" class="edge"><title>c61:p&#45;&gt;c59:p</title>
<path fill="none" stroke="black" d="M579.24,-260.48C592.996,-264.571 606.955,-268.723 620.853,-272.856"/>
<polygon fill="none" stroke="black" points="579.846,-257.009 569.264,-257.513 577.851,-263.719 579.846,-257.009"/>
</g>
<!-- c61&#45;&gt;c60 -->
<g id="edge2" class="edge"><title>c61:p&#45;&gt;c60:p</title>
<path fill="none" stroke="black" d="M579.128,-159.973C622.777,-147.1 668.485,-133.62 707.794,-122.027"/>
<polygon fill="none" stroke="black" points="577.865,-156.697 569.264,-162.883 579.845,-163.411 577.865,-156.697"/>
</g>
<!-- c63 -->
<g id="node4" class="node"><title>c63</title>
<g id="a_node4"><a xlink:href="./Piece.html" xlink:title="&lt;TABLE&gt;">
</a>
</g>
<g id="a_node4_3"><a xlink:href="./Piece.html" xlink:title="tp8.Piece">
<polygon fill="none" stroke="black" points="8,-349 8,-381 196,-381 196,-349 8,-349"/>
<text text-anchor="start" x="76" y="-369" font-family="arial" font-size="10.00"> «abstract» </text>
<text text-anchor="start" x="86.5" y="-356" font-family="arial italic" font-size="10.00"> Piece </text>
<polygon fill="none" stroke="black" points="8,-317 8,-349 196,-349 196,-317 8,-317"/>
<text text-anchor="start" x="12" y="-337" font-family="arial" font-size="10.00"> &#45; nom : String </text>
<text text-anchor="start" x="12" y="-324" font-family="arial" font-size="10.00"> &#45; reference : String </text>
<polygon fill="none" stroke="black" points="8,-38 8,-317 196,-317 196,-38 8,-38"/>
<text text-anchor="start" x="12" y="-305" font-family="arial" font-size="10.00"> «create» </text>
<text text-anchor="start" x="12" y="-292" font-family="arial" font-size="10.00"> + Piece(nom : String, reference : String) </text>
<text text-anchor="start" x="12" y="-279" font-family="arial" font-size="10.00"> «create» </text>
<text text-anchor="start" x="12" y="-266" font-family="arial" font-size="10.00"> + Piece(nom : String) </text>
<text text-anchor="start" x="12" y="-253" font-family="arial" font-size="10.00"> «abstract» </text>
<text text-anchor="start" x="12" y="-240" font-family="arial italic" font-size="10.00"> + prix() : int </text>
<text text-anchor="start" x="12" y="-227" font-family="arial" font-size="10.00"> «abstract» </text>
<text text-anchor="start" x="12" y="-214" font-family="arial italic" font-size="10.00"> + dureeGarantie() : int </text>
<text text-anchor="start" x="12" y="-201" font-family="arial" font-size="10.00"> «abstract» </text>
<text text-anchor="start" x="12" y="-188" font-family="arial italic" font-size="10.00"> + dureeFabrication() : int </text>
<text text-anchor="start" x="12" y="-175" font-family="arial" font-size="10.00"> «abstract» </text>
<text text-anchor="start" x="12" y="-162" font-family="arial italic" font-size="10.00"> # getPrefixe() : String </text>
<text text-anchor="start" x="12" y="-149" font-family="arial" font-size="10.00"> + affiche() </text>
<text text-anchor="start" x="12" y="-136" font-family="arial" font-size="10.00"> + toString(i : int) : String </text>
<text text-anchor="start" x="12" y="-123" font-family="arial" font-size="10.00"> + toString() : String </text>
<text text-anchor="start" x="12" y="-110" font-family="arial" font-size="10.00"> # indentation(i : int) : String </text>
<text text-anchor="start" x="12" y="-97" font-family="arial" font-size="10.00"> + nouvelleReference() : String </text>
<text text-anchor="start" x="12" y="-84" font-family="arial" font-size="10.00"> + getReference() : String </text>
<text text-anchor="start" x="12" y="-71" font-family="arial" font-size="10.00"> + setReference(reference : String) </text>
<text text-anchor="start" x="12" y="-58" font-family="arial" font-size="10.00"> + getNom() : String </text>
<text text-anchor="start" x="12" y="-45" font-family="arial" font-size="10.00"> + setNom(nom : String) </text>
</a>
</g>
<g><a xlink:href="./Piece.html" xlink:title="&lt;TABLE&gt;">
</a>
</g>
</g>
<!-- c63&#45;&gt;c61 -->
<g id="edge3" class="edge"><title>c63:p&#45;&gt;c61:p</title>
<path fill="none" stroke="black" d="M206.215,-210C219.711,-210 233.782,-210 247.938,-210"/>
<polygon fill="none" stroke="black" points="206.015,-206.5 196.015,-210 206.015,-213.5 206.015,-206.5"/>
</g>
</g>
</svg>
