<?xml version="1.0" encoding="UTF-8" standalone="no"?>
<!DOCTYPE svg PUBLIC "-//W3C//DTD SVG 1.1//EN"
 "http://www.w3.org/Graphics/SVG/1.1/DTD/svg11.dtd">
<!-- Generated by graphviz version 2.38.0 (20140413.2041)
 -->
<!-- Title: G Pages: 1 -->
<svg width="1150pt" height="773pt"
 viewBox="0.00 0.00 1150.00 773.00" xmlns="http://www.w3.org/2000/svg" xmlns:xlink="http://www.w3.org/1999/xlink">
<g id="graph0" class="graph" transform="scale(1 1) rotate(0) translate(4 769)">
<title>G</title>
<polygon fill="white" stroke="none" points="-4,4 -4,-769 1146,-769 1146,4 -4,4"/>
<!-- c0 -->
<g id="node1" class="node"><title>c0</title>
<g id="a_node1"><a xlink:href="./PieceMontee.html" xlink:title="&lt;TABLE&gt;">
</a>
</g>
<g id="a_node1_0"><a xlink:href="./PieceMontee.html" xlink:title="tp8.PieceMontee">
<polygon fill="none" stroke="black" points="748,-674 748,-693 1134,-693 1134,-674 748,-674"/>
<text text-anchor="start" x="909" y="-681" font-family="arial" font-size="10.00"> PieceMontee </text>
<polygon fill="none" stroke="black" points="748,-642 748,-674 1134,-674 1134,-642 748,-642"/>
<text text-anchor="start" x="752" y="-662" font-family="arial" font-size="10.00"> &#45; prixMontage : int </text>
<text text-anchor="start" x="752" y="-649" font-family="arial" font-size="10.00"> &#45; dureeMontage : int </text>
<polygon fill="none" stroke="black" points="748,-441 748,-642 1134,-642 1134,-441 748,-441"/>
<text text-anchor="start" x="752" y="-630" font-family="arial" font-size="10.00"> «create» </text>
<text text-anchor="start" x="752" y="-617" font-family="arial" font-size="10.00"> + PieceMontee(nom : String) </text>
<text text-anchor="start" x="752" y="-604" font-family="arial" font-size="10.00"> «create» </text>
<text text-anchor="start" x="752" y="-591" font-family="arial" font-size="10.00"> + PieceMontee(nom : String, reference : String) </text>
<text text-anchor="start" x="752" y="-578" font-family="arial" font-size="10.00"> «create» </text>
<text text-anchor="start" x="752" y="-565" font-family="arial" font-size="10.00"> + PieceMontee(nom : String, reference : String, prixMontage : int, dureeMontage : int) </text>
<text text-anchor="start" x="752" y="-552" font-family="arial" font-size="10.00"> + getDureeMontage() : int </text>
<text text-anchor="start" x="752" y="-539" font-family="arial" font-size="10.00"> + setDureeMontage(dureeMontage : int) </text>
<text text-anchor="start" x="752" y="-526" font-family="arial" font-size="10.00"> + dureeGarantie() : int </text>
<text text-anchor="start" x="752" y="-513" font-family="arial" font-size="10.00"> + dureeFabrication() : int </text>
<text text-anchor="start" x="752" y="-500" font-family="arial" font-size="10.00"> + prix() : int </text>
<text text-anchor="start" x="752" y="-487" font-family="arial" font-size="10.00"> + afficheInfoSupplementaires() </text>
<text text-anchor="start" x="752" y="-474" font-family="arial" font-size="10.00"> # getPrefixe() : String </text>
<text text-anchor="start" x="752" y="-461" font-family="arial" font-size="10.00"> + getPrixMontage() : int </text>
<text text-anchor="start" x="752" y="-448" font-family="arial" font-size="10.00"> + setPrixMontage(prixMontage : int) </text>
</a>
</g>
<g><a xlink:href="./PieceMontee.html" xlink:title="&lt;TABLE&gt;">
</a>
</g>
</g>
<!-- c1 -->
<g id="node2" class="node"><title>c1</title>
<g id="a_node2"><a xlink:href="./PieceEnKit.html" xlink:title="&lt;TABLE&gt;">
</a>
</g>
<g id="a_node2_1"><a xlink:href="./PieceEnKit.html" xlink:title="tp8.PieceEnKit">
<polygon fill="none" stroke="black" points="835,-396 835,-415 1047,-415 1047,-396 835,-396"/>
<text text-anchor="start" x="913.5" y="-403" font-family="arial" font-size="10.00"> PieceEnKit </text>
<polygon fill="none" stroke="black" points="835,-377 835,-396 1047,-396 1047,-377 835,-377"/>
<text text-anchor="start" x="839" y="-384" font-family="arial" font-size="10.00"> &#45; notice : NoticeMontage </text>
<polygon fill="none" stroke="black" points="835,-241 835,-377 1047,-377 1047,-241 835,-241"/>
<text text-anchor="start" x="839" y="-365" font-family="arial" font-size="10.00"> «create» </text>
<text text-anchor="start" x="839" y="-352" font-family="arial" font-size="10.00"> + PieceEnKit(nom : String) </text>
<text text-anchor="start" x="839" y="-339" font-family="arial" font-size="10.00"> + PieceEnKit(nom : String, reference : String) </text>
<text text-anchor="start" x="839" y="-326" font-family="arial" font-size="10.00"> + getNotice() : NoticeMontage </text>
<text text-anchor="start" x="839" y="-313" font-family="arial" font-size="10.00"> + setNotice(notice : NoticeMontage) </text>
<text text-anchor="start" x="839" y="-300" font-family="arial" font-size="10.00"> + dureeGarantie() : int </text>
<text text-anchor="start" x="839" y="-287" font-family="arial" font-size="10.00"> + dureeFabrication() : int </text>
<text text-anchor="start" x="839" y="-274" font-family="arial" font-size="10.00"> + afficheInfoSupplementaires() </text>
<text text-anchor="start" x="839" y="-261" font-family="arial" font-size="10.00"> &#45; dureeMontage() : String </text>
<text text-anchor="start" x="839" y="-248" font-family="arial" font-size="10.00"> # getPrefixe() : String </text>
</a>
</g>
<g><a xlink:href="./PieceEnKit.html" xlink:title="&lt;TABLE&gt;">
</a>
</g>
</g>
<!-- c2 -->
<g id="node3" class="node"><title>c2</title>
<g id="a_node3"><a xlink:href="./PieceComposite.html" xlink:title="&lt;TABLE&gt;">
</a>
</g>
<g id="a_node3_2"><a xlink:href="./PieceComposite.html" xlink:title="tp8.PieceComposite">
<polygon fill="none" stroke="black" points="312,-580 312,-612 633,-612 633,-580 312,-580"/>
<text text-anchor="start" x="446.5" y="-600" font-family="arial" font-size="10.00"> «abstract» </text>
<text text-anchor="start" x="433.5" y="-587" font-family="arial italic" font-size="10.00"> PieceComposite </text>
<polygon fill="none" stroke="black" points="312,-548 312,-580 633,-580 633,-548 312,-548"/>
<text text-anchor="start" x="316" y="-568" font-family="arial" font-size="10.00"> &#45; composants : ArrayList&lt;Piece&gt; </text>
<text text-anchor="start" x="316" y="-555" font-family="arial" font-size="10.00"> &#45; dureeMontage : int </text>
<polygon fill="none" stroke="black" points="312,-282 312,-548 633,-548 633,-282 312,-282"/>
<text text-anchor="start" x="316" y="-536" font-family="arial" font-size="10.00"> «create» </text>
<text text-anchor="start" x="316" y="-523" font-family="arial" font-size="10.00"> + PieceComposite(nom : String) </text>
<text text-anchor="start" x="316" y="-510" font-family="arial" font-size="10.00"> «create» </text>
<text text-anchor="start" x="316" y="-497" font-family="arial" font-size="10.00"> + PieceComposite(nom : String, reference : String) </text>
<text text-anchor="start" x="316" y="-484" font-family="arial" font-size="10.00"> «create» </text>
<text text-anchor="start" x="316" y="-471" font-family="arial" font-size="10.00"> + PieceComposite(nom : String, reference : String, dureeMontage : int) </text>
<text text-anchor="start" x="316" y="-458" font-family="arial" font-size="10.00"> + getComposants() : ArrayList&lt;Piece&gt; </text>
<text text-anchor="start" x="316" y="-445" font-family="arial" font-size="10.00"> + setComposants(composants : ArrayList&lt;Piece&gt;) </text>
<text text-anchor="start" x="316" y="-432" font-family="arial" font-size="10.00"> + getDureeMontage() : int </text>
<text text-anchor="start" x="316" y="-419" font-family="arial" font-size="10.00"> + setDureeMontage(dureeMontage : int) </text>
<text text-anchor="start" x="316" y="-406" font-family="arial" font-size="10.00"> + ajoute(p : Piece) </text>
<text text-anchor="start" x="316" y="-393" font-family="arial" font-size="10.00"> + toString(i : int) : String </text>
<text text-anchor="start" x="316" y="-380" font-family="arial" font-size="10.00"> + toString() : String </text>
<text text-anchor="start" x="316" y="-367" font-family="arial" font-size="10.00"> «abstract» </text>
<text text-anchor="start" x="316" y="-354" font-family="arial italic" font-size="10.00"> + afficheInfoSupplementaires() </text>
<text text-anchor="start" x="316" y="-341" font-family="arial" font-size="10.00"> # plusFaibleGarantie() : Piece </text>
<text text-anchor="start" x="316" y="-328" font-family="arial" font-size="10.00"> # plusGrandeDureeFabrication() : Piece </text>
<text text-anchor="start" x="316" y="-315" font-family="arial" font-size="10.00"> + affiche() </text>
<text text-anchor="start" x="316" y="-302" font-family="arial" font-size="10.00"> + prix() : int </text>
<text text-anchor="start" x="316" y="-289" font-family="arial" font-size="10.00"> + main(args : String[]) </text>
</a>
</g>
<g><a xlink:href="./PieceComposite.html" xlink:title="&lt;TABLE&gt;">
</a>
</g>
</g>
<!-- c2&#45;&gt;c0 -->
<g id="edge1" class="edge"><title>c2:p&#45;&gt;c0:p</title>
<path fill="none" stroke="black" d="M642.766,-490.623C676.841,-499.379 712.877,-508.639 747.655,-517.575"/>
<polygon fill="none" stroke="black" points="643.292,-487.144 632.735,-488.045 641.549,-493.924 643.292,-487.144"/>
</g>
<!-- c2&#45;&gt;c1 -->
<g id="edge2" class="edge"><title>c2:p&#45;&gt;c1:p</title>
<path fill="none" stroke="black" d="M642.585,-403.787C706.926,-387.392 778.281,-369.209 834.968,-354.764"/>
<polygon fill="none" stroke="black" points="641.561,-400.436 632.735,-406.297 643.29,-407.219 641.561,-400.436"/>
</g>
<!-- c3 -->
<g id="node4" class="node"><title>c3</title>
<g id="a_node4"><a xlink:href="./PieceBasique.html" xlink:title="&lt;TABLE&gt;">
</a>
</g>
<g id="a_node4_3"><a xlink:href="./PieceBasique.html" xlink:title="tp8.PieceBasique">
<polygon fill="none" stroke="black" points="248,-237 248,-256 696,-256 696,-237 248,-237"/>
<text text-anchor="start" x="438.5" y="-244" font-family="arial" font-size="10.00"> PieceBasique </text>
<polygon fill="none" stroke="black" points="248,-192 248,-237 696,-237 696,-192 248,-192"/>
<text text-anchor="start" x="252" y="-225" font-family="arial" font-size="10.00"> &#45; dureeGarantie : int </text>
<text text-anchor="start" x="252" y="-212" font-family="arial" font-size="10.00"> &#45; prix : int </text>
<text text-anchor="start" x="252" y="-199" font-family="arial" font-size="10.00"> &#45; dureeFabrication : int </text>
<polygon fill="none" stroke="black" points="248,-4 248,-192 696,-192 696,-4 248,-4"/>
<text text-anchor="start" x="252" y="-180" font-family="arial" font-size="10.00"> «create» </text>
<text text-anchor="start" x="252" y="-167" font-family="arial" font-size="10.00"> + PieceBasique(nom : String, reference : String, prix : int, dureeFabrication : int, dureeGarantie : int) </text>
<text text-anchor="start" x="252" y="-154" font-family="arial" font-size="10.00"> «create» </text>
<text text-anchor="start" x="252" y="-141" font-family="arial" font-size="10.00"> + PieceBasique(nom : String) </text>
<text text-anchor="start" x="252" y="-128" font-family="arial" font-size="10.00"> + dureeFabrication() : int </text>
<text text-anchor="start" x="252" y="-115" font-family="arial" font-size="10.00"> + getPrix() : int </text>
<text text-anchor="start" x="252" y="-102" font-family="arial" font-size="10.00"> + setPrix(prix : int) </text>
<text text-anchor="start" x="252" y="-89" font-family="arial" font-size="10.00"> + dureeGarantie() : int </text>
<text text-anchor="start" x="252" y="-76" font-family="arial" font-size="10.00"> + prix() : int </text>
<text text-anchor="start" x="252" y="-63" font-family="arial" font-size="10.00"> # getPrefixe() : String </text>
<text text-anchor="start" x="252" y="-50" font-family="arial" font-size="10.00"> + getDureeGarantie() : int </text>
<text text-anchor="start" x="252" y="-37" font-family="arial" font-size="10.00"> + setDureeGarantie(dureeGarantie : int) </text>
<text text-anchor="start" x="252" y="-24" font-family="arial" font-size="10.00"> + getDureeFabrication() : int </text>
<text text-anchor="start" x="252" y="-11" font-family="arial" font-size="10.00"> + setDureeFabrication(dureeFabrication : int) </text>
</a>
</g>
<g><a xlink:href="./PieceBasique.html" xlink:title="&lt;TABLE&gt;">
</a>
</g>
</g>
<!-- c4 -->
<g id="node5" class="node"><title>c4</title>
<g id="a_node5"><a xlink:href="./Piece.html" xlink:title="&lt;TABLE&gt;">
</a>
</g>
<g id="a_node5_4"><a xlink:href="./Piece.html" xlink:title="tp8.Piece">
<polygon fill="none" stroke="black" points="8,-427 8,-459 196,-459 196,-427 8,-427"/>
<text text-anchor="start" x="76" y="-447" font-family="arial" font-size="10.00"> «abstract» </text>
<text text-anchor="start" x="86.5" y="-434" font-family="arial italic" font-size="10.00"> Piece </text>
<polygon fill="none" stroke="black" points="8,-395 8,-427 196,-427 196,-395 8,-395"/>
<text text-anchor="start" x="12" y="-415" font-family="arial" font-size="10.00"> &#45; nom : String </text>
<text text-anchor="start" x="12" y="-402" font-family="arial" font-size="10.00"> &#45; reference : String </text>
<polygon fill="none" stroke="black" points="8,-116 8,-395 196,-395 196,-116 8,-116"/>
<text text-anchor="start" x="12" y="-383" font-family="arial" font-size="10.00"> «create» </text>
<text text-anchor="start" x="12" y="-370" font-family="arial" font-size="10.00"> + Piece(nom : String, reference : String) </text>
<text text-anchor="start" x="12" y="-357" font-family="arial" font-size="10.00"> «create» </text>
<text text-anchor="start" x="12" y="-344" font-family="arial" font-size="10.00"> + Piece(nom : String) </text>
<text text-anchor="start" x="12" y="-331" font-family="arial" font-size="10.00"> «abstract» </text>
<text text-anchor="start" x="12" y="-318" font-family="arial italic" font-size="10.00"> + prix() : int </text>
<text text-anchor="start" x="12" y="-305" font-family="arial" font-size="10.00"> «abstract» </text>
<text text-anchor="start" x="12" y="-292" font-family="arial italic" font-size="10.00"> + dureeGarantie() : int </text>
<text text-anchor="start" x="12" y="-279" font-family="arial" font-size="10.00"> «abstract» </text>
<text text-anchor="start" x="12" y="-266" font-family="arial italic" font-size="10.00"> + dureeFabrication() : int </text>
<text text-anchor="start" x="12" y="-253" font-family="arial" font-size="10.00"> «abstract» </text>
<text text-anchor="start" x="12" y="-240" font-family="arial italic" font-size="10.00"> # getPrefixe() : String </text>
<text text-anchor="start" x="12" y="-227" font-family="arial" font-size="10.00"> + affiche() </text>
<text text-anchor="start" x="12" y="-214" font-family="arial" font-size="10.00"> + toString(i : int) : String </text>
<text text-anchor="start" x="12" y="-201" font-family="arial" font-size="10.00"> + toString() : String </text>
<text text-anchor="start" x="12" y="-188" font-family="arial" font-size="10.00"> # indentation(i : int) : String </text>
<text text-anchor="start" x="12" y="-175" font-family="arial" font-size="10.00"> + nouvelleReference() : String </text>
<text text-anchor="start" x="12" y="-162" font-family="arial" font-size="10.00"> + getReference() : String </text>
<text text-anchor="start" x="12" y="-149" font-family="arial" font-size="10.00"> + setReference(reference : String) </text>
<text text-anchor="start" x="12" y="-136" font-family="arial" font-size="10.00"> + getNom() : String </text>
<text text-anchor="start" x="12" y="-123" font-family="arial" font-size="10.00"> + setNom(nom : String) </text>
</a>
</g>
<g><a xlink:href="./Piece.html" xlink:title="&lt;TABLE&gt;">
</a>
</g>
</g>
<!-- c4&#45;&gt;c2 -->
<g id="edge3" class="edge"><title>c4:p&#45;&gt;c2:p</title>
<path fill="none" stroke="black" d="M205.886,-332.453C238.566,-346.573 275.515,-362.538 311.225,-377.967"/>
<polygon fill="none" stroke="black" points="206.906,-329.081 196.338,-328.328 204.129,-335.507 206.906,-329.081"/>
</g>
<!-- c4&#45;&gt;c3 -->
<g id="edge4" class="edge"><title>c4:p&#45;&gt;c3:p</title>
<path fill="none" stroke="black" d="M205.567,-243.963C219.076,-238.163 233.317,-232.049 247.903,-225.786"/>
<polygon fill="none" stroke="black" points="204.146,-240.764 196.338,-247.926 206.907,-247.197 204.146,-240.764"/>
</g>
<!-- c5 -->
<g id="node6" class="node"><title>c5</title>
<g id="a_node6"><a xlink:href="./NoticeMontage.html" xlink:title="&lt;TABLE&gt;">
</a>
</g>
<g id="a_node6_5"><a xlink:href="./NoticeMontage.html" xlink:title="tp8.NoticeMontage">
<polygon fill="none" stroke="black" points="13,-549 13,-568 191,-568 191,-549 13,-549"/>
<text text-anchor="start" x="66" y="-556" font-family="arial" font-size="10.00"> NoticeMontage </text>
<polygon fill="none" stroke="black" points="13,-530 13,-549 191,-549 191,-530 13,-530"/>
<text text-anchor="start" x="17" y="-537" font-family="arial" font-size="10.00"> ~ instructions : String </text>
<polygon fill="none" stroke="black" points="13,-485 13,-530 191,-530 191,-485 13,-485"/>
<text text-anchor="start" x="17" y="-518" font-family="arial" font-size="10.00"> + NoticeMontage() </text>
<text text-anchor="start" x="17" y="-505" font-family="arial" font-size="10.00"> + getInstructions() : String </text>
<text text-anchor="start" x="17" y="-492" font-family="arial" font-size="10.00"> + setInstructions(instructions : String) </text>
</a>
</g>
<g><a xlink:href="./NoticeMontage.html" xlink:title="&lt;TABLE&gt;">
</a>
</g>
</g>
<!-- c6 -->
<g id="node7" class="node"><title>c6</title>
<g id="a_node7"><a xlink:href="./ComparateurGarantie.html" xlink:title="&lt;TABLE&gt;">
</a>
</g>
<g id="a_node7_6"><a xlink:href="./ComparateurGarantie.html" xlink:title="tp8.ComparateurGarantie">
<polygon fill="none" stroke="black" points="12,-646 12,-665 193,-665 193,-646 12,-646"/>
<text text-anchor="start" x="53" y="-653" font-family="arial" font-size="10.00"> ComparateurGarantie </text>
<polygon fill="none" stroke="black" points="12,-627 12,-646 193,-646 193,-627 12,-627"/>
<text text-anchor="start" x="16" y="-634" font-family="arial" font-size="10.00"> &#160;</text>
<polygon fill="none" stroke="black" points="12,-595 12,-627 193,-627 193,-595 12,-595"/>
<text text-anchor="start" x="16" y="-615" font-family="arial" font-size="10.00"> + ComparateurGarantie() </text>
<text text-anchor="start" x="16" y="-602" font-family="arial" font-size="10.00"> + compare(o1 : Piece, o2 : Piece) : int </text>
</a>
</g>
<g><a xlink:href="./ComparateurGarantie.html" xlink:title="&lt;TABLE&gt;">
</a>
</g>
</g>
<!-- c7 -->
<g id="node8" class="node"><title>c7</title>
<g id="a_node8"><a xlink:href="./ComparateurDureeFabrication.html" xlink:title="&lt;TABLE&gt;">
</a>
</g>
<g id="a_node8_7"><a xlink:href="./ComparateurDureeFabrication.html" xlink:title="tp8.ComparateurDureeFabrication">
<polygon fill="none" stroke="black" points="12,-742 12,-761 193,-761 193,-742 12,-742"/>
<text text-anchor="start" x="34.5" y="-749" font-family="arial" font-size="10.00"> ComparateurDureeFabrication </text>
<polygon fill="none" stroke="black" points="12,-723 12,-742 193,-742 193,-723 12,-723"/>
<text text-anchor="start" x="16" y="-730" font-family="arial" font-size="10.00"> &#160;</text>
<polygon fill="none" stroke="black" points="12,-691 12,-723 193,-723 193,-691 12,-691"/>
<text text-anchor="start" x="16" y="-711" font-family="arial" font-size="10.00"> + ComparateurDureeFabrication() </text>
<text text-anchor="start" x="16" y="-698" font-family="arial" font-size="10.00"> + compare(o1 : Piece, o2 : Piece) : int </text>
</a>
</g>
<g><a xlink:href="./ComparateurDureeFabrication.html" xlink:title="&lt;TABLE&gt;">
</a>
</g>
</g>
</g>
</svg>
