<?xml version="1.0" encoding="UTF-8" standalone="no"?>
<!DOCTYPE svg PUBLIC "-//W3C//DTD SVG 1.1//EN"
 "http://www.w3.org/Graphics/SVG/1.1/DTD/svg11.dtd">
<!-- Generated by graphviz version 2.38.0 (20140413.2041)
 -->
<!-- Title: G Pages: 1 -->
<svg width="260pt" height="177pt"
 viewBox="0.00 0.00 260.00 177.00" xmlns="http://www.w3.org/2000/svg" xmlns:xlink="http://www.w3.org/1999/xlink">
<g id="graph0" class="graph" transform="scale(1 1) rotate(0) translate(4 173)">
<title>G</title>
<polygon fill="white" stroke="none" points="-4,4 -4,-173 256,-173 256,4 -4,4"/>
<!-- c12 -->
<g id="node1" class="node"><title>c12</title>
<g id="a_node1"><a xlink:href="./Tortue.html" xlink:title="&lt;TABLE&gt;">
</a>
</g>
<g id="a_node1_0"><a xlink:href="./Tortue.html" xlink:title="tp1.Tortue">
<polygon fill="lemonChiffon" stroke="none" points="8,-4 8,-165 244,-165 244,-4 8,-4"/>
<polygon fill="none" stroke="black" points="8,-145.5 8,-164.5 244,-164.5 244,-145.5 8,-145.5"/>
<text text-anchor="start" x="109" y="-152.5" font-family="arial" font-size="10.00"> Tortue </text>
<polygon fill="none" stroke="black" points="8,-48.5 8,-145.5 244,-145.5 244,-48.5 8,-48.5"/>
<text text-anchor="start" x="12" y="-133.5" font-family="arial" font-size="10.00"> &#45; age : int </text>
<text text-anchor="start" x="12" y="-120.5" font-family="arial" font-size="10.00"> &#45; esperanceDeVie : int </text>
<text text-anchor="start" x="12" y="-107.5" font-family="arial" font-size="10.00"> &#45; nom : String </text>
<text text-anchor="start" x="12" y="-94.5" font-family="arial" font-size="10.00"> &#45; hiberne : boolean </text>
<text text-anchor="start" x="12" y="-81.5" font-family="arial" font-size="10.00"> &#45; typeNourriture : String </text>
<text text-anchor="start" x="12" y="-68.5" font-family="arial" font-size="10.00"> &#45; habitat : String </text>
<text text-anchor="start" x="12" y="-55.5" font-family="arial" font-size="10.00"> &#45; sexe : String </text>
<polygon fill="none" stroke="black" points="8,-3.5 8,-48.5 244,-48.5 244,-3.5 8,-3.5"/>
<text text-anchor="start" x="12" y="-36.5" font-family="arial" font-size="10.00"> + miseEnHibernation(miseEnHibernation : boolean) </text>
<text text-anchor="start" x="12" y="-23.5" font-family="arial" font-size="10.00"> + mange() </text>
<text text-anchor="start" x="12" y="-10.5" font-family="arial" font-size="10.00"> + ponte() : boolean </text>
</a>
</g>
<g><a xlink:href="./Tortue.html" xlink:title="&lt;TABLE&gt;">
</a>
</g>
</g>
</g>
</svg>
