<?xml version="1.0" encoding="UTF-8" standalone="no"?>
<!DOCTYPE svg PUBLIC "-//W3C//DTD SVG 1.1//EN"
 "http://www.w3.org/Graphics/SVG/1.1/DTD/svg11.dtd">
<!-- Generated by graphviz version 2.38.0 (20140413.2041)
 -->
<!-- Title: G Pages: 1 -->
<svg width="144pt" height="227pt"
 viewBox="0.00 0.00 144.00 227.00" xmlns="http://www.w3.org/2000/svg" xmlns:xlink="http://www.w3.org/1999/xlink">
<g id="graph0" class="graph" transform="scale(1 1) rotate(0) translate(4 223)">
<title>G</title>
<polygon fill="white" stroke="none" points="-4,4 -4,-223 140,-223 140,4 -4,4"/>
<!-- c22 -->
<g id="node1" class="node"><title>c22</title>
<g id="a_node1"><a xlink:href="./ColisExpress.html" xlink:title="&lt;TABLE&gt;">
</a>
</g>
<g id="a_node1_0"><a xlink:href="./ColisExpress.html" xlink:title="tp3.ColisExpress">
<polygon fill="lemonChiffon" stroke="none" points="8,-4 8,-107 128,-107 128,-4 8,-4"/>
<polygon fill="none" stroke="black" points="8,-87.5 8,-106.5 128,-106.5 128,-87.5 8,-87.5"/>
<text text-anchor="start" x="36" y="-94.5" font-family="arial" font-size="10.00"> ColisExpress </text>
<polygon fill="none" stroke="black" points="8,-3.5 8,-87.5 128,-87.5 128,-3.5 8,-3.5"/>
<text text-anchor="start" x="12" y="-75.5" font-family="arial" font-size="10.00"> &#45; dateEnvoi : Date </text>
<text text-anchor="start" x="12" y="-62.5" font-family="arial" font-size="10.00"> &#45; numeroSuivi : int </text>
<text text-anchor="start" x="12" y="-49.5" font-family="arial" font-size="10.00"> &#45; emballage : boolean </text>
<text text-anchor="start" x="12" y="-36.5" font-family="arial" font-size="10.00"> &#45; numeroCourant : int </text>
<text text-anchor="start" x="12" y="-23.5" font-family="arial" font-size="10.00"> &#45; tarifEmballage : double </text>
<text text-anchor="start" x="12" y="-10.5" font-family="arial" font-size="10.00"> &#45; tarifBase : double </text>
</a>
</g>
<g><a xlink:href="./ColisExpress.html" xlink:title="&lt;TABLE&gt;">
</a>
</g>
</g>
<!-- c23 -->
<g id="node2" class="node"><title>c23</title>
<g id="a_node2"><a xlink:href="./Colis.html" xlink:title="&lt;TABLE&gt;">
</a>
</g>
<g id="a_node2_1"><a xlink:href="./Colis.html" xlink:title="tp3.Colis">
<polygon fill="none" stroke="black" points="14,-196 14,-215 123,-215 123,-196 14,-196"/>
<text text-anchor="start" x="54.5" y="-203" font-family="arial" font-size="10.00"> Colis </text>
<polygon fill="none" stroke="black" points="14,-151 14,-196 123,-196 123,-151 14,-151"/>
<text text-anchor="start" x="18" y="-184" font-family="arial" font-size="10.00"> &#45; declContenu : String </text>
<text text-anchor="start" x="18" y="-171" font-family="arial" font-size="10.00"> &#45; valeurDecl : double </text>
<text text-anchor="start" x="18" y="-158" font-family="arial" font-size="10.00"> &#45; tarifBase : double </text>
</a>
</g>
<g><a xlink:href="./Colis.html" xlink:title="&lt;TABLE&gt;">
</a>
</g>
</g>
<!-- c23&#45;&gt;c22 -->
<g id="edge1" class="edge"><title>c23:p&#45;&gt;c22:p</title>
<path fill="none" stroke="black" d="M68,-140.646C68,-129.947 68,-118.304 68,-107.187"/>
<polygon fill="none" stroke="black" points="64.5001,-140.977 68,-150.978 71.5001,-140.978 64.5001,-140.977"/>
</g>
</g>
</svg>
