<?xml version="1.0" encoding="UTF-8" standalone="no"?>
<!DOCTYPE svg PUBLIC "-//W3C//DTD SVG 1.1//EN"
 "http://www.w3.org/Graphics/SVG/1.1/DTD/svg11.dtd">
<!-- Generated by graphviz version 2.38.0 (20140413.2041)
 -->
<!-- Title: G Pages: 1 -->
<svg width="141pt" height="299pt"
 viewBox="0.00 0.00 141.00 299.00" xmlns="http://www.w3.org/2000/svg" xmlns:xlink="http://www.w3.org/1999/xlink">
<g id="graph0" class="graph" transform="scale(1 1) rotate(0) translate(4 295)">
<title>G</title>
<polygon fill="white" stroke="none" points="-4,4 -4,-295 137,-295 137,4 -4,4"/>
<!-- c26 -->
<g id="node1" class="node"><title>c26</title>
<g id="a_node1"><a xlink:href="./ObjetPostal.html" xlink:title="&lt;TABLE&gt;">
</a>
</g>
<g id="a_node1_0"><a xlink:href="./ObjetPostal.html" xlink:title="tp3.ObjetPostal">
<polygon fill="none" stroke="black" points="8.5,-183 8.5,-215 125.5,-215 125.5,-183 8.5,-183"/>
<text text-anchor="start" x="41" y="-203" font-family="arial" font-size="10.00"> «abstract» </text>
<text text-anchor="start" x="38" y="-190" font-family="arial italic" font-size="10.00"> ObjetPostal </text>
<polygon fill="none" stroke="black" points="8.5,-99 8.5,-183 125.5,-183 125.5,-99 8.5,-99"/>
<text text-anchor="start" x="12.5" y="-171" font-family="arial" font-size="10.00"> &#45; origine : String </text>
<text text-anchor="start" x="12.5" y="-158" font-family="arial" font-size="10.00"> &#45; destination : String </text>
<text text-anchor="start" x="12.5" y="-145" font-family="arial" font-size="10.00"> &#45; codePostal : String </text>
<text text-anchor="start" x="12.5" y="-132" font-family="arial" font-size="10.00"> &#45; poids : double </text>
<text text-anchor="start" x="12.5" y="-119" font-family="arial" font-size="10.00"> &#45; volume : double </text>
<text text-anchor="start" x="12.5" y="-106" font-family="arial" font-size="10.00"> &#45; tauxRec : TauxRecom </text>
</a>
</g>
<g><a xlink:href="./ObjetPostal.html" xlink:title="&lt;TABLE&gt;">
</a>
</g>
</g>
<!-- c27 -->
<g id="node3" class="node"><title>c27</title>
<g id="a_node3"><a xlink:href="./Lettre.html" xlink:title="&lt;TABLE&gt;">
</a>
</g>
<g id="a_node3_1"><a xlink:href="./Lettre.html" xlink:title="tp3.Lettre">
<polygon fill="lemonChiffon" stroke="none" points="18.5,-4 18.5,-55 114.5,-55 114.5,-4 18.5,-4"/>
<polygon fill="none" stroke="black" points="18.5,-35.5 18.5,-54.5 114.5,-54.5 114.5,-35.5 18.5,-35.5"/>
<text text-anchor="start" x="51" y="-42.5" font-family="arial" font-size="10.00"> Lettre </text>
<polygon fill="none" stroke="black" points="18.5,-3.5 18.5,-35.5 114.5,-35.5 114.5,-3.5 18.5,-3.5"/>
<text text-anchor="start" x="22.5" y="-23.5" font-family="arial" font-size="10.00"> &#45; urgente : boolean </text>
<text text-anchor="start" x="22.5" y="-10.5" font-family="arial" font-size="10.00"> &#45; tarifBase : double </text>
</a>
</g>
<g><a xlink:href="./Lettre.html" xlink:title="&lt;TABLE&gt;">
</a>
</g>
</g>
<!-- c26&#45;&gt;c27 -->
<g id="edge2" class="edge"><title>c26:p&#45;&gt;c27:p</title>
<path fill="none" stroke="black" d="M66.5,-88.637C66.5,-76.6042 66.5,-64.799 66.5,-55.0038"/>
<polygon fill="none" stroke="black" points="63.0001,-88.7588 66.5,-98.7588 70.0001,-88.7589 63.0001,-88.7588"/>
</g>
<!-- n0cc26 -->
<g id="node2" class="node"><title>n0cc26</title>
<polygon fill="none" stroke="black" points="110,-291 17,-291 17,-255 116,-255 116,-285 110,-291"/>
<polyline fill="none" stroke="black" points="110,-291 110,-285 "/>
<polyline fill="none" stroke="black" points="116,-285 110,-285 "/>
<g id="a_node2_2"><a xlink:href="./ObjetPostal.html" xlink:title="tp3.ObjetPostal">
<text text-anchor="start" x="28.5" y="-270" font-family="arial" font-size="10.00"> Classe abstraite </text>
</a>
</g>
</g>
<!-- n0cc26&#45;&gt;c26 -->
<g id="edge1" class="edge"><title>n0cc26&#45;&gt;c26:p</title>
<path fill="none" stroke="black" d="M66.5,-254.686C66.5,-243.972 66.5,-229.546 66.5,-215.11"/>
</g>
</g>
</svg>
