<?xml version="1.0" encoding="UTF-8" standalone="no"?>
<!DOCTYPE svg PUBLIC "-//W3C//DTD SVG 1.1//EN"
 "http://www.w3.org/Graphics/SVG/1.1/DTD/svg11.dtd">
<!-- Generated by graphviz version 2.38.0 (20140413.2041)
 -->
<!-- Title: G Pages: 1 -->
<svg width="368pt" height="597pt"
 viewBox="0.00 0.00 367.50 597.00" xmlns="http://www.w3.org/2000/svg" xmlns:xlink="http://www.w3.org/1999/xlink">
<g id="graph0" class="graph" transform="scale(1 1) rotate(0) translate(4 593)">
<title>G</title>
<polygon fill="white" stroke="none" points="-4,4 -4,-593 363.5,-593 363.5,4 -4,4"/>
<!-- c32 -->
<g id="node1" class="node"><title>c32</title>
<g id="a_node1"><a xlink:href="./ObjetPostal.html" xlink:title="&lt;TABLE&gt;">
</a>
</g>
<g id="a_node1_0"><a xlink:href="./ObjetPostal.html" xlink:title="tp3.ObjetPostal">
<polygon fill="lemonChiffon" stroke="none" points="74,-222 74,-513 252,-513 252,-222 74,-222"/>
<polygon fill="none" stroke="black" points="74,-480.5 74,-512.5 252,-512.5 252,-480.5 74,-480.5"/>
<text text-anchor="start" x="137" y="-500.5" font-family="arial" font-size="10.00"> «abstract» </text>
<text text-anchor="start" x="134" y="-487.5" font-family="arial italic" font-size="10.00"> ObjetPostal </text>
<polygon fill="none" stroke="black" points="74,-461.5 74,-480.5 252,-480.5 252,-461.5 74,-461.5"/>
<text text-anchor="start" x="78" y="-468.5" font-family="arial" font-size="10.00"> &#160;</text>
<polygon fill="none" stroke="black" points="74,-221.5 74,-461.5 252,-461.5 252,-221.5 74,-221.5"/>
<text text-anchor="start" x="78" y="-449.5" font-family="arial" font-size="10.00"> + getOrigine() : String </text>
<text text-anchor="start" x="78" y="-436.5" font-family="arial" font-size="10.00"> + setOrigine(origine : String) </text>
<text text-anchor="start" x="78" y="-423.5" font-family="arial" font-size="10.00"> + getDestination() : String </text>
<text text-anchor="start" x="78" y="-410.5" font-family="arial" font-size="10.00"> + setDestination(destination : String) </text>
<text text-anchor="start" x="78" y="-397.5" font-family="arial" font-size="10.00"> + getCodePostal() : String </text>
<text text-anchor="start" x="78" y="-384.5" font-family="arial" font-size="10.00"> + setCodePostal(codePostal : String) </text>
<text text-anchor="start" x="78" y="-371.5" font-family="arial" font-size="10.00"> + getPoids() : double </text>
<text text-anchor="start" x="78" y="-358.5" font-family="arial" font-size="10.00"> + setPoids(poids : double) </text>
<text text-anchor="start" x="78" y="-345.5" font-family="arial" font-size="10.00"> + getVolume() : double </text>
<text text-anchor="start" x="78" y="-332.5" font-family="arial" font-size="10.00"> + setVolume(volume : double) </text>
<text text-anchor="start" x="78" y="-319.5" font-family="arial" font-size="10.00"> + getTauxRec() : TauxRecom </text>
<text text-anchor="start" x="78" y="-306.5" font-family="arial" font-size="10.00"> + setTauxRec(tauxRec : TauxRecom) </text>
<text text-anchor="start" x="78" y="-293.5" font-family="arial italic" font-size="10.00"> + getTarifBase() : double </text>
<text text-anchor="start" x="78" y="-280.5" font-family="arial" font-size="10.00"> + tarifAff() : double </text>
<text text-anchor="start" x="78" y="-267.5" font-family="arial italic" font-size="10.00"> + tarifRemb() : double </text>
<text text-anchor="start" x="78" y="-254.5" font-family="arial italic" font-size="10.00"> + getTypeObjet() : String </text>
<text text-anchor="start" x="78" y="-241.5" font-family="arial" font-size="10.00"> + toString() : String </text>
<text text-anchor="start" x="78" y="-228.5" font-family="arial" font-size="10.00"> + affiche() </text>
</a>
</g>
<g><a xlink:href="./ObjetPostal.html" xlink:title="&lt;TABLE&gt;">
</a>
</g>
</g>
<!-- c33 -->
<g id="node3" class="node"><title>c33</title>
<g id="a_node3"><a xlink:href="./Lettre.html" xlink:title="&lt;TABLE&gt;">
</a>
</g>
<g id="a_node3_1"><a xlink:href="./Lettre.html" xlink:title="tp3.Lettre">
<polygon fill="none" stroke="black" points="8,-126 8,-145 130,-145 130,-126 8,-126"/>
<text text-anchor="start" x="53.5" y="-133" font-family="arial" font-size="10.00"> Lettre </text>
<polygon fill="none" stroke="black" points="8,-107 8,-126 130,-126 130,-107 8,-107"/>
<text text-anchor="start" x="12" y="-114" font-family="arial" font-size="10.00"> &#160;</text>
<polygon fill="none" stroke="black" points="8,-36 8,-107 130,-107 130,-36 8,-36"/>
<text text-anchor="start" x="12" y="-95" font-family="arial" font-size="10.00"> + getTarifBase() : double </text>
<text text-anchor="start" x="12" y="-82" font-family="arial" font-size="10.00"> + tarifAff() : double </text>
<text text-anchor="start" x="12" y="-69" font-family="arial" font-size="10.00"> + tarifRemb() : double </text>
<text text-anchor="start" x="12" y="-56" font-family="arial" font-size="10.00"> + getTypeObjet() : String </text>
<text text-anchor="start" x="12" y="-43" font-family="arial" font-size="10.00"> + toString() : String </text>
</a>
</g>
<g><a xlink:href="./Lettre.html" xlink:title="&lt;TABLE&gt;">
</a>
</g>
</g>
<!-- c32&#45;&gt;c33 -->
<g id="edge2" class="edge"><title>c32:p&#45;&gt;c33:p</title>
<path fill="none" stroke="black" d="M110.119,-212.077C101.944,-188.204 94.0106,-165.036 87.3283,-145.523"/>
<polygon fill="none" stroke="black" points="106.834,-213.287 113.385,-221.614 113.456,-211.019 106.834,-213.287"/>
</g>
<!-- c35 -->
<g id="node4" class="node"><title>c35</title>
<g id="a_node4"><a xlink:href="./Colis.html" xlink:title="&lt;TABLE&gt;">
</a>
</g>
<g id="a_node4_2"><a xlink:href="./Colis.html" xlink:title="tp3.Colis">
<polygon fill="none" stroke="black" points="165,-159 165,-178 352,-178 352,-159 165,-159"/>
<text text-anchor="start" x="244.5" y="-166" font-family="arial" font-size="10.00"> Colis </text>
<polygon fill="none" stroke="black" points="165,-140 165,-159 352,-159 352,-140 165,-140"/>
<text text-anchor="start" x="169" y="-147" font-family="arial" font-size="10.00"> &#160;</text>
<polygon fill="none" stroke="black" points="165,-4 165,-140 352,-140 352,-4 165,-4"/>
<text text-anchor="start" x="169" y="-128" font-family="arial" font-size="10.00"> + getDeclContenu() : String </text>
<text text-anchor="start" x="169" y="-115" font-family="arial" font-size="10.00"> + setDeclContenu(declContenu : String) </text>
<text text-anchor="start" x="169" y="-102" font-family="arial" font-size="10.00"> + getValeurDecl() : double </text>
<text text-anchor="start" x="169" y="-89" font-family="arial" font-size="10.00"> + setValeurDecl(valeurDecl : double) </text>
<text text-anchor="start" x="169" y="-76" font-family="arial" font-size="10.00"> + setTarifBase(tarifBase : double) </text>
<text text-anchor="start" x="169" y="-63" font-family="arial" font-size="10.00"> + getTarifBase() : double </text>
<text text-anchor="start" x="169" y="-50" font-family="arial" font-size="10.00"> + tarifAff() : double </text>
<text text-anchor="start" x="169" y="-37" font-family="arial" font-size="10.00"> + tarifRemb() : double </text>
<text text-anchor="start" x="169" y="-24" font-family="arial" font-size="10.00"> + getTypeObjet() : String </text>
<text text-anchor="start" x="169" y="-11" font-family="arial" font-size="10.00"> + toString() : String </text>
</a>
</g>
<g><a xlink:href="./Colis.html" xlink:title="&lt;TABLE&gt;">
</a>
</g>
</g>
<!-- c32&#45;&gt;c35 -->
<g id="edge3" class="edge"><title>c32:p&#45;&gt;c35:p</title>
<path fill="none" stroke="black" d="M216.501,-211.911C220.485,-200.399 224.412,-189.052 228.167,-178.201"/>
<polygon fill="none" stroke="black" points="213.106,-211.019 213.143,-221.614 219.721,-213.308 213.106,-211.019"/>
</g>
<!-- n0cc32 -->
<g id="node2" class="node"><title>n0cc32</title>
<polygon fill="none" stroke="black" points="206.5,-589 113.5,-589 113.5,-553 212.5,-553 212.5,-583 206.5,-589"/>
<polyline fill="none" stroke="black" points="206.5,-589 206.5,-583 "/>
<polyline fill="none" stroke="black" points="212.5,-583 206.5,-583 "/>
<g id="a_node2_3"><a xlink:href="./ObjetPostal.html" xlink:title="tp3.ObjetPostal">
<text text-anchor="start" x="125" y="-568" font-family="arial" font-size="10.00"> Classe abstraite </text>
</a>
</g>
</g>
<!-- n0cc32&#45;&gt;c32 -->
<g id="edge1" class="edge"><title>n0cc32&#45;&gt;c32:p</title>
<path fill="none" stroke="black" d="M163,-552.82C163,-542.732 163,-528.921 163,-513.36"/>
</g>
</g>
</svg>
