<?xml version="1.0" encoding="UTF-8" standalone="no"?>
<!DOCTYPE svg PUBLIC "-//W3C//DTD SVG 1.1//EN"
 "http://www.w3.org/Graphics/SVG/1.1/DTD/svg11.dtd">
<!-- Generated by graphviz version 2.38.0 (20140413.2041)
 -->
<!-- Title: G Pages: 1 -->
<svg width="469pt" height="242pt"
 viewBox="0.00 0.00 469.00 242.00" xmlns="http://www.w3.org/2000/svg" xmlns:xlink="http://www.w3.org/1999/xlink">
<g id="graph0" class="graph" transform="scale(1 1) rotate(0) translate(4 238)">
<title>G</title>
<polygon fill="white" stroke="none" points="-4,4 -4,-238 465,-238 465,4 -4,4"/>
<!-- c22 -->
<g id="node1" class="node"><title>c22</title>
<g id="a_node1"><a xlink:href="./ColisExpress.html" xlink:title="&lt;TABLE&gt;">
</a>
</g>
<g id="a_node1_0"><a xlink:href="./ColisExpress.html" xlink:title="tp3.ColisExpress">
<polygon fill="lemonChiffon" stroke="none" points="247,-4 247,-230 453,-230 453,-4 247,-4"/>
<polygon fill="none" stroke="black" points="247,-211 247,-230 453,-230 453,-211 247,-211"/>
<text text-anchor="start" x="318" y="-218" font-family="arial" font-size="10.00"> ColisExpress </text>
<polygon fill="none" stroke="black" points="247,-192 247,-211 453,-211 453,-192 247,-192"/>
<text text-anchor="start" x="251" y="-199" font-family="arial" font-size="10.00"> &#160;</text>
<polygon fill="none" stroke="black" points="247,-4 247,-192 453,-192 453,-4 247,-4"/>
<text text-anchor="start" x="251" y="-180" font-family="arial" font-size="10.00"> + getDateEnvoi() : Date </text>
<text text-anchor="start" x="251" y="-167" font-family="arial" font-size="10.00"> + setDateEnvoi(dateEnvoi : Date) </text>
<text text-anchor="start" x="251" y="-154" font-family="arial" font-size="10.00"> + getNumeroSuivi() : int </text>
<text text-anchor="start" x="251" y="-141" font-family="arial" font-size="10.00"> + isEmballage() : boolean </text>
<text text-anchor="start" x="251" y="-128" font-family="arial" font-size="10.00"> + setEmballage(emballage : boolean) </text>
<text text-anchor="start" x="251" y="-115" font-family="arial" font-size="10.00"> + getNumeroCourant() : int </text>
<text text-anchor="start" x="251" y="-102" font-family="arial" font-size="10.00"> + setNumeroCourant(numeroCourant : int) </text>
<text text-anchor="start" x="251" y="-89" font-family="arial" font-size="10.00"> + getTarifEmballage() : double </text>
<text text-anchor="start" x="251" y="-76" font-family="arial" font-size="10.00"> + setTarifEmballage(tarifEmballage : double) </text>
<text text-anchor="start" x="251" y="-63" font-family="arial" font-size="10.00"> + getTarifBase() : double </text>
<text text-anchor="start" x="251" y="-50" font-family="arial" font-size="10.00"> + tarifAff() : double </text>
<text text-anchor="start" x="251" y="-37" font-family="arial" font-size="10.00"> + getTypeObjet() : String </text>
<text text-anchor="start" x="251" y="-24" font-family="arial" font-size="10.00"> + toString() : String </text>
<text text-anchor="start" x="251" y="-11" font-family="arial" font-size="10.00"> + setPoids(poids : double) </text>
</a>
</g>
<g><a xlink:href="./ColisExpress.html" xlink:title="&lt;TABLE&gt;">
</a>
</g>
</g>
<!-- c23 -->
<g id="node2" class="node"><title>c23</title>
<g id="a_node2"><a xlink:href="./Colis.html" xlink:title="&lt;TABLE&gt;">
</a>
</g>
<g id="a_node2_1"><a xlink:href="./Colis.html" xlink:title="tp3.Colis">
<polygon fill="none" stroke="black" points="8.5,-185 8.5,-204 195.5,-204 195.5,-185 8.5,-185"/>
<text text-anchor="start" x="88" y="-192" font-family="arial" font-size="10.00"> Colis </text>
<polygon fill="none" stroke="black" points="8.5,-166 8.5,-185 195.5,-185 195.5,-166 8.5,-166"/>
<text text-anchor="start" x="12.5" y="-173" font-family="arial" font-size="10.00"> &#160;</text>
<polygon fill="none" stroke="black" points="8.5,-30 8.5,-166 195.5,-166 195.5,-30 8.5,-30"/>
<text text-anchor="start" x="12.5" y="-154" font-family="arial" font-size="10.00"> + getDeclContenu() : String </text>
<text text-anchor="start" x="12.5" y="-141" font-family="arial" font-size="10.00"> + setDeclContenu(declContenu : String) </text>
<text text-anchor="start" x="12.5" y="-128" font-family="arial" font-size="10.00"> + getValeurDecl() : double </text>
<text text-anchor="start" x="12.5" y="-115" font-family="arial" font-size="10.00"> + setValeurDecl(valeurDecl : double) </text>
<text text-anchor="start" x="12.5" y="-102" font-family="arial" font-size="10.00"> + setTarifBase(tarifBase : double) </text>
<text text-anchor="start" x="12.5" y="-89" font-family="arial" font-size="10.00"> + getTarifBase() : double </text>
<text text-anchor="start" x="12.5" y="-76" font-family="arial" font-size="10.00"> + tarifAff() : double </text>
<text text-anchor="start" x="12.5" y="-63" font-family="arial" font-size="10.00"> + tarifRemb() : double </text>
<text text-anchor="start" x="12.5" y="-50" font-family="arial" font-size="10.00"> + getTypeObjet() : String </text>
<text text-anchor="start" x="12.5" y="-37" font-family="arial" font-size="10.00"> + toString() : String </text>
</a>
</g>
<g><a xlink:href="./Colis.html" xlink:title="&lt;TABLE&gt;">
</a>
</g>
</g>
<!-- c23&#45;&gt;c22 -->
<g id="edge1" class="edge"><title>c23:p&#45;&gt;c22:p</title>
<path fill="none" stroke="black" d="M205.657,-117C219.249,-117 233.176,-117 246.753,-117"/>
<polygon fill="none" stroke="black" points="205.34,-113.5 195.34,-117 205.34,-120.5 205.34,-113.5"/>
</g>
</g>
</svg>
