<?xml version="1.0" encoding="UTF-8" standalone="no"?>
<!DOCTYPE svg PUBLIC "-//W3C//DTD SVG 1.1//EN"
 "http://www.w3.org/Graphics/SVG/1.1/DTD/svg11.dtd">
<!-- Generated by graphviz version 2.38.0 (20140413.2041)
 -->
<!-- Title: G Pages: 1 -->
<svg width="511pt" height="307pt"
 viewBox="0.00 0.00 511.00 307.00" xmlns="http://www.w3.org/2000/svg" xmlns:xlink="http://www.w3.org/1999/xlink">
<g id="graph0" class="graph" transform="scale(1 1) rotate(0) translate(4 303)">
<title>G</title>
<polygon fill="white" stroke="none" points="-4,4 -4,-303 507,-303 507,4 -4,4"/>
<!-- c26 -->
<g id="node1" class="node"><title>c26</title>
<g id="a_node1"><a xlink:href="./ObjetPostal.html" xlink:title="&lt;TABLE&gt;">
</a>
</g>
<g id="a_node1_0"><a xlink:href="./ObjetPostal.html" xlink:title="tp3.ObjetPostal">
<polygon fill="none" stroke="black" points="143,-262.5 143,-294.5 321,-294.5 321,-262.5 143,-262.5"/>
<text text-anchor="start" x="206" y="-282.5" font-family="arial" font-size="10.00"> «abstract» </text>
<text text-anchor="start" x="203" y="-269.5" font-family="arial italic" font-size="10.00"> ObjetPostal </text>
<polygon fill="none" stroke="black" points="143,-243.5 143,-262.5 321,-262.5 321,-243.5 143,-243.5"/>
<text text-anchor="start" x="147" y="-250.5" font-family="arial" font-size="10.00"> &#160;</text>
<polygon fill="none" stroke="black" points="143,-3.5 143,-243.5 321,-243.5 321,-3.5 143,-3.5"/>
<text text-anchor="start" x="147" y="-231.5" font-family="arial" font-size="10.00"> + getOrigine() : String </text>
<text text-anchor="start" x="147" y="-218.5" font-family="arial" font-size="10.00"> + setOrigine(origine : String) </text>
<text text-anchor="start" x="147" y="-205.5" font-family="arial" font-size="10.00"> + getDestination() : String </text>
<text text-anchor="start" x="147" y="-192.5" font-family="arial" font-size="10.00"> + setDestination(destination : String) </text>
<text text-anchor="start" x="147" y="-179.5" font-family="arial" font-size="10.00"> + getCodePostal() : String </text>
<text text-anchor="start" x="147" y="-166.5" font-family="arial" font-size="10.00"> + setCodePostal(codePostal : String) </text>
<text text-anchor="start" x="147" y="-153.5" font-family="arial" font-size="10.00"> + getPoids() : double </text>
<text text-anchor="start" x="147" y="-140.5" font-family="arial" font-size="10.00"> + setPoids(poids : double) </text>
<text text-anchor="start" x="147" y="-127.5" font-family="arial" font-size="10.00"> + getVolume() : double </text>
<text text-anchor="start" x="147" y="-114.5" font-family="arial" font-size="10.00"> + setVolume(volume : double) </text>
<text text-anchor="start" x="147" y="-101.5" font-family="arial" font-size="10.00"> + getTauxRec() : TauxRecom </text>
<text text-anchor="start" x="147" y="-88.5" font-family="arial" font-size="10.00"> + setTauxRec(tauxRec : TauxRecom) </text>
<text text-anchor="start" x="147" y="-75.5" font-family="arial italic" font-size="10.00"> + getTarifBase() : double </text>
<text text-anchor="start" x="147" y="-62.5" font-family="arial" font-size="10.00"> + tarifAff() : double </text>
<text text-anchor="start" x="147" y="-49.5" font-family="arial italic" font-size="10.00"> + tarifRemb() : double </text>
<text text-anchor="start" x="147" y="-36.5" font-family="arial italic" font-size="10.00"> + getTypeObjet() : String </text>
<text text-anchor="start" x="147" y="-23.5" font-family="arial" font-size="10.00"> + toString() : String </text>
<text text-anchor="start" x="147" y="-10.5" font-family="arial" font-size="10.00"> + affiche() </text>
</a>
</g>
<g><a xlink:href="./ObjetPostal.html" xlink:title="&lt;TABLE&gt;">
</a>
</g>
</g>
<!-- c27 -->
<g id="node3" class="node"><title>c27</title>
<g id="a_node3"><a xlink:href="./Lettre.html" xlink:title="&lt;TABLE&gt;">
</a>
</g>
<g id="a_node3_1"><a xlink:href="./Lettre.html" xlink:title="tp3.Lettre">
<polygon fill="lemonChiffon" stroke="none" points="373,-95 373,-204 495,-204 495,-95 373,-95"/>
<polygon fill="none" stroke="black" points="373,-184.5 373,-203.5 495,-203.5 495,-184.5 373,-184.5"/>
<text text-anchor="start" x="418.5" y="-191.5" font-family="arial" font-size="10.00"> Lettre </text>
<polygon fill="none" stroke="black" points="373,-165.5 373,-184.5 495,-184.5 495,-165.5 373,-165.5"/>
<text text-anchor="start" x="377" y="-172.5" font-family="arial" font-size="10.00"> &#160;</text>
<polygon fill="none" stroke="black" points="373,-94.5 373,-165.5 495,-165.5 495,-94.5 373,-94.5"/>
<text text-anchor="start" x="377" y="-153.5" font-family="arial" font-size="10.00"> + getTarifBase() : double </text>
<text text-anchor="start" x="377" y="-140.5" font-family="arial" font-size="10.00"> + tarifAff() : double </text>
<text text-anchor="start" x="377" y="-127.5" font-family="arial" font-size="10.00"> + tarifRemb() : double </text>
<text text-anchor="start" x="377" y="-114.5" font-family="arial" font-size="10.00"> + getTypeObjet() : String </text>
<text text-anchor="start" x="377" y="-101.5" font-family="arial" font-size="10.00"> + toString() : String </text>
</a>
</g>
<g><a xlink:href="./Lettre.html" xlink:title="&lt;TABLE&gt;">
</a>
</g>
</g>
<!-- c26&#45;&gt;c27 -->
<g id="edge2" class="edge"><title>c26:p&#45;&gt;c27:p</title>
<path fill="none" stroke="black" d="M331.309,-149.5C345.482,-149.5 359.699,-149.5 372.823,-149.5"/>
<polygon fill="none" stroke="black" points="331.014,-146 321.014,-149.5 331.014,-153 331.014,-146"/>
</g>
<!-- n0cc26 -->
<g id="node2" class="node"><title>n0cc26</title>
<polygon fill="none" stroke="black" points="93,-167.5 0,-167.5 0,-131.5 99,-131.5 99,-161.5 93,-167.5"/>
<polyline fill="none" stroke="black" points="93,-167.5 93,-161.5 "/>
<polyline fill="none" stroke="black" points="99,-161.5 93,-161.5 "/>
<g id="a_node2_2"><a xlink:href="./ObjetPostal.html" xlink:title="tp3.ObjetPostal">
<text text-anchor="start" x="11.5" y="-146.5" font-family="arial" font-size="10.00"> Classe abstraite </text>
</a>
</g>
</g>
<!-- n0cc26&#45;&gt;c26 -->
<g id="edge1" class="edge"><title>n0cc26&#45;&gt;c26:p</title>
<path fill="none" stroke="black" d="M99.3459,-149.5C112.814,-149.5 127.853,-149.5 142.817,-149.5"/>
</g>
</g>
</svg>
