<?xml version="1.0" encoding="UTF-8" standalone="no"?>
<!DOCTYPE svg PUBLIC "-//W3C//DTD SVG 1.1//EN"
 "http://www.w3.org/Graphics/SVG/1.1/DTD/svg11.dtd">
<!-- Generated by graphviz version 2.38.0 (20140413.2041)
 -->
<!-- Title: G Pages: 1 -->
<svg width="576pt" height="333pt"
 viewBox="0.00 0.00 576.00 332.50" xmlns="http://www.w3.org/2000/svg" xmlns:xlink="http://www.w3.org/1999/xlink">
<g id="graph0" class="graph" transform="scale(1 1) rotate(0) translate(4 328.5)">
<title>G</title>
<polygon fill="white" stroke="none" points="-4,4 -4,-328.5 572,-328.5 572,4 -4,4"/>
<!-- c32 -->
<g id="node1" class="node"><title>c32</title>
<g id="a_node1"><a xlink:href="./ObjetPostal.html" xlink:title="&lt;TABLE&gt;">
</a>
</g>
<g id="a_node1_0"><a xlink:href="./ObjetPostal.html" xlink:title="tp3.ObjetPostal">
<polygon fill="lemonChiffon" stroke="none" points="143,-29.5 143,-320.5 321,-320.5 321,-29.5 143,-29.5"/>
<polygon fill="none" stroke="black" points="143,-288 143,-320 321,-320 321,-288 143,-288"/>
<text text-anchor="start" x="206" y="-308" font-family="arial" font-size="10.00"> «abstract» </text>
<text text-anchor="start" x="203" y="-295" font-family="arial italic" font-size="10.00"> ObjetPostal </text>
<polygon fill="none" stroke="black" points="143,-269 143,-288 321,-288 321,-269 143,-269"/>
<text text-anchor="start" x="147" y="-276" font-family="arial" font-size="10.00"> &#160;</text>
<polygon fill="none" stroke="black" points="143,-29 143,-269 321,-269 321,-29 143,-29"/>
<text text-anchor="start" x="147" y="-257" font-family="arial" font-size="10.00"> + getOrigine() : String </text>
<text text-anchor="start" x="147" y="-244" font-family="arial" font-size="10.00"> + setOrigine(origine : String) </text>
<text text-anchor="start" x="147" y="-231" font-family="arial" font-size="10.00"> + getDestination() : String </text>
<text text-anchor="start" x="147" y="-218" font-family="arial" font-size="10.00"> + setDestination(destination : String) </text>
<text text-anchor="start" x="147" y="-205" font-family="arial" font-size="10.00"> + getCodePostal() : String </text>
<text text-anchor="start" x="147" y="-192" font-family="arial" font-size="10.00"> + setCodePostal(codePostal : String) </text>
<text text-anchor="start" x="147" y="-179" font-family="arial" font-size="10.00"> + getPoids() : double </text>
<text text-anchor="start" x="147" y="-166" font-family="arial" font-size="10.00"> + setPoids(poids : double) </text>
<text text-anchor="start" x="147" y="-153" font-family="arial" font-size="10.00"> + getVolume() : double </text>
<text text-anchor="start" x="147" y="-140" font-family="arial" font-size="10.00"> + setVolume(volume : double) </text>
<text text-anchor="start" x="147" y="-127" font-family="arial" font-size="10.00"> + getTauxRec() : TauxRecom </text>
<text text-anchor="start" x="147" y="-114" font-family="arial" font-size="10.00"> + setTauxRec(tauxRec : TauxRecom) </text>
<text text-anchor="start" x="147" y="-101" font-family="arial italic" font-size="10.00"> + getTarifBase() : double </text>
<text text-anchor="start" x="147" y="-88" font-family="arial" font-size="10.00"> + tarifAff() : double </text>
<text text-anchor="start" x="147" y="-75" font-family="arial italic" font-size="10.00"> + tarifRemb() : double </text>
<text text-anchor="start" x="147" y="-62" font-family="arial italic" font-size="10.00"> + getTypeObjet() : String </text>
<text text-anchor="start" x="147" y="-49" font-family="arial" font-size="10.00"> + toString() : String </text>
<text text-anchor="start" x="147" y="-36" font-family="arial" font-size="10.00"> + affiche() </text>
</a>
</g>
<g><a xlink:href="./ObjetPostal.html" xlink:title="&lt;TABLE&gt;">
</a>
</g>
</g>
<!-- c33 -->
<g id="node3" class="node"><title>c33</title>
<g id="a_node3"><a xlink:href="./Lettre.html" xlink:title="&lt;TABLE&gt;">
</a>
</g>
<g id="a_node3_1"><a xlink:href="./Lettre.html" xlink:title="tp3.Lettre">
<polygon fill="none" stroke="black" points="405.5,-294 405.5,-313 527.5,-313 527.5,-294 405.5,-294"/>
<text text-anchor="start" x="451" y="-301" font-family="arial" font-size="10.00"> Lettre </text>
<polygon fill="none" stroke="black" points="405.5,-275 405.5,-294 527.5,-294 527.5,-275 405.5,-275"/>
<text text-anchor="start" x="409.5" y="-282" font-family="arial" font-size="10.00"> &#160;</text>
<polygon fill="none" stroke="black" points="405.5,-204 405.5,-275 527.5,-275 527.5,-204 405.5,-204"/>
<text text-anchor="start" x="409.5" y="-263" font-family="arial" font-size="10.00"> + getTarifBase() : double </text>
<text text-anchor="start" x="409.5" y="-250" font-family="arial" font-size="10.00"> + tarifAff() : double </text>
<text text-anchor="start" x="409.5" y="-237" font-family="arial" font-size="10.00"> + tarifRemb() : double </text>
<text text-anchor="start" x="409.5" y="-224" font-family="arial" font-size="10.00"> + getTypeObjet() : String </text>
<text text-anchor="start" x="409.5" y="-211" font-family="arial" font-size="10.00"> + toString() : String </text>
</a>
</g>
<g><a xlink:href="./Lettre.html" xlink:title="&lt;TABLE&gt;">
</a>
</g>
</g>
<!-- c32&#45;&gt;c33 -->
<g id="edge2" class="edge"><title>c32:p&#45;&gt;c33:p</title>
<path fill="none" stroke="black" d="M330.87,-210.359C356.203,-219.512 382.73,-229.096 405.475,-237.314"/>
<polygon fill="none" stroke="black" points="331.824,-206.983 321.23,-206.877 329.446,-213.566 331.824,-206.983"/>
</g>
<!-- c35 -->
<g id="node4" class="node"><title>c35</title>
<g id="a_node4"><a xlink:href="./Colis.html" xlink:title="&lt;TABLE&gt;">
</a>
</g>
<g id="a_node4_2"><a xlink:href="./Colis.html" xlink:title="tp3.Colis">
<polygon fill="none" stroke="black" points="373.5,-159 373.5,-178 560.5,-178 560.5,-159 373.5,-159"/>
<text text-anchor="start" x="453" y="-166" font-family="arial" font-size="10.00"> Colis </text>
<polygon fill="none" stroke="black" points="373.5,-140 373.5,-159 560.5,-159 560.5,-140 373.5,-140"/>
<text text-anchor="start" x="377.5" y="-147" font-family="arial" font-size="10.00"> &#160;</text>
<polygon fill="none" stroke="black" points="373.5,-4 373.5,-140 560.5,-140 560.5,-4 373.5,-4"/>
<text text-anchor="start" x="377.5" y="-128" font-family="arial" font-size="10.00"> + getDeclContenu() : String </text>
<text text-anchor="start" x="377.5" y="-115" font-family="arial" font-size="10.00"> + setDeclContenu(declContenu : String) </text>
<text text-anchor="start" x="377.5" y="-102" font-family="arial" font-size="10.00"> + getValeurDecl() : double </text>
<text text-anchor="start" x="377.5" y="-89" font-family="arial" font-size="10.00"> + setValeurDecl(valeurDecl : double) </text>
<text text-anchor="start" x="377.5" y="-76" font-family="arial" font-size="10.00"> + setTarifBase(tarifBase : double) </text>
<text text-anchor="start" x="377.5" y="-63" font-family="arial" font-size="10.00"> + getTarifBase() : double </text>
<text text-anchor="start" x="377.5" y="-50" font-family="arial" font-size="10.00"> + tarifAff() : double </text>
<text text-anchor="start" x="377.5" y="-37" font-family="arial" font-size="10.00"> + tarifRemb() : double </text>
<text text-anchor="start" x="377.5" y="-24" font-family="arial" font-size="10.00"> + getTypeObjet() : String </text>
<text text-anchor="start" x="377.5" y="-11" font-family="arial" font-size="10.00"> + toString() : String </text>
</a>
</g>
<g><a xlink:href="./Colis.html" xlink:title="&lt;TABLE&gt;">
</a>
</g>
</g>
<!-- c32&#45;&gt;c35 -->
<g id="edge3" class="edge"><title>c32:p&#45;&gt;c35:p</title>
<path fill="none" stroke="black" d="M330.774,-139.675C344.657,-134.659 358.901,-129.513 372.687,-124.533"/>
<polygon fill="none" stroke="black" points="329.446,-136.434 321.23,-143.123 331.824,-143.017 329.446,-136.434"/>
</g>
<!-- n0cc32 -->
<g id="node2" class="node"><title>n0cc32</title>
<polygon fill="none" stroke="black" points="93,-193 0,-193 0,-157 99,-157 99,-187 93,-193"/>
<polyline fill="none" stroke="black" points="93,-193 93,-187 "/>
<polyline fill="none" stroke="black" points="99,-187 93,-187 "/>
<g id="a_node2_3"><a xlink:href="./ObjetPostal.html" xlink:title="tp3.ObjetPostal">
<text text-anchor="start" x="11.5" y="-172" font-family="arial" font-size="10.00"> Classe abstraite </text>
</a>
</g>
</g>
<!-- n0cc32&#45;&gt;c32 -->
<g id="edge1" class="edge"><title>n0cc32&#45;&gt;c32:p</title>
<path fill="none" stroke="black" d="M99.3459,-175C112.814,-175 127.853,-175 142.817,-175"/>
</g>
</g>
</svg>
