<?xml version="1.0" encoding="UTF-8" standalone="no"?>
<!DOCTYPE svg PUBLIC "-//W3C//DTD SVG 1.1//EN"
 "http://www.w3.org/Graphics/SVG/1.1/DTD/svg11.dtd">
<!-- Generated by graphviz version 2.38.0 (20140413.2041)
 -->
<!-- Title: G Pages: 1 -->
<svg width="1566pt" height="354pt"
 viewBox="0.00 0.00 783.00 177.00" xmlns="http://www.w3.org/2000/svg" xmlns:xlink="http://www.w3.org/1999/xlink">
<g id="graph0" class="graph" transform="scale(1 1) rotate(0) translate(4 173)">
<title>G</title>
<polygon fill="white" stroke="none" points="-4,4 -4,-173 779,-173 779,4 -4,4"/>
<!-- c126 -->
<g id="node1" class="node"><title>c126</title>
<g id="a_node1"><a xlink:href="./PieceMontee.html" xlink:title="&lt;TABLE&gt;">
</a>
</g>
<g id="a_node1_0"><a xlink:href="./PieceMontee.html" xlink:title="tp8.PieceMontee">
<polygon fill="lemonChiffon" stroke="none" points="381,-4 381,-165 767,-165 767,-4 381,-4"/>
<polygon fill="none" stroke="black" points="381,-145.5 381,-164.5 767,-164.5 767,-145.5 381,-145.5"/>
<text text-anchor="start" x="542" y="-152.5" font-family="arial" font-size="10.00"> PieceMontee </text>
<polygon fill="none" stroke="black" points="381,-113.5 381,-145.5 767,-145.5 767,-113.5 381,-113.5"/>
<text text-anchor="start" x="385" y="-133.5" font-family="arial" font-size="10.00"> &#45; prixMontage : int </text>
<text text-anchor="start" x="385" y="-120.5" font-family="arial" font-size="10.00"> &#45; dureeMontage : int </text>
<polygon fill="none" stroke="black" points="381,-3.5 381,-113.5 767,-113.5 767,-3.5 381,-3.5"/>
<text text-anchor="start" x="385" y="-101.5" font-family="arial" font-size="10.00"> «create» </text>
<text text-anchor="start" x="385" y="-88.5" font-family="arial" font-size="10.00"> + PieceMontee(nom : String, reference : String, prixMontage : int, dureeMontage : int) </text>
<text text-anchor="start" x="385" y="-75.5" font-family="arial" font-size="10.00"> + getDureeMontage() : int </text>
<text text-anchor="start" x="385" y="-62.5" font-family="arial" font-size="10.00"> + dureeGarantie() : int </text>
<text text-anchor="start" x="385" y="-49.5" font-family="arial" font-size="10.00"> + dureeFabrication() : int </text>
<text text-anchor="start" x="385" y="-36.5" font-family="arial" font-size="10.00"> + prix() : int </text>
<text text-anchor="start" x="385" y="-23.5" font-family="arial" font-size="10.00"> + afficheInfoSupplementaires() </text>
<text text-anchor="start" x="385" y="-10.5" font-family="arial" font-size="10.00"> + getPrefixe() : String </text>
</a>
</g>
<g><a xlink:href="./PieceMontee.html" xlink:title="&lt;TABLE&gt;">
</a>
</g>
</g>
<!-- c128 -->
<g id="node2" class="node"><title>c128</title>
<g id="a_node2"><a xlink:href="./PieceComposite.html" xlink:title="&lt;TABLE&gt;">
</a>
</g>
<g id="a_node2_1"><a xlink:href="./PieceComposite.html" xlink:title="tp8.PieceComposite">
<polygon fill="none" stroke="black" points="8.5,-126.5 8.5,-158.5 329.5,-158.5 329.5,-126.5 8.5,-126.5"/>
<text text-anchor="start" x="143" y="-146.5" font-family="arial" font-size="10.00"> «abstract» </text>
<text text-anchor="start" x="130" y="-133.5" font-family="arial italic" font-size="10.00"> PieceComposite </text>
<polygon fill="none" stroke="black" points="8.5,-94.5 8.5,-126.5 329.5,-126.5 329.5,-94.5 8.5,-94.5"/>
<text text-anchor="start" x="12.5" y="-114.5" font-family="arial" font-size="10.00"> &#45; composants : ArrayList&lt;Piece&gt; </text>
<text text-anchor="start" x="12.5" y="-101.5" font-family="arial" font-size="10.00"> &#45; dureeMontage : int </text>
<polygon fill="none" stroke="black" points="8.5,-10.5 8.5,-94.5 329.5,-94.5 329.5,-10.5 8.5,-10.5"/>
<text text-anchor="start" x="12.5" y="-82.5" font-family="arial" font-size="10.00"> «create» </text>
<text text-anchor="start" x="12.5" y="-69.5" font-family="arial" font-size="10.00"> + PieceComposite(nom : String, reference : String, dureeMontage : int) </text>
<text text-anchor="start" x="12.5" y="-56.5" font-family="arial" font-size="10.00"> + ajoute(p : Piece) </text>
<text text-anchor="start" x="12.5" y="-43.5" font-family="arial" font-size="10.00"> + toString() : String </text>
<text text-anchor="start" x="12.5" y="-30.5" font-family="arial" font-size="10.00"> + affiche() </text>
<text text-anchor="start" x="12.5" y="-17.5" font-family="arial" font-size="10.00"> + prix() : int </text>
</a>
</g>
<g><a xlink:href="./PieceComposite.html" xlink:title="&lt;TABLE&gt;">
</a>
</g>
</g>
<!-- c128&#45;&gt;c126 -->
<g id="edge1" class="edge"><title>c128:p&#45;&gt;c126:p</title>
<path fill="none" stroke="black" d="M339.641,-84.5C353.267,-84.5 367.09,-84.5 380.853,-84.5"/>
<polygon fill="none" stroke="black" points="339.264,-81.0001 329.264,-84.5 339.264,-88.0001 339.264,-81.0001"/>
</g>
</g>
</svg>
