<?xml version="1.0" encoding="UTF-8" standalone="no"?>
<!DOCTYPE svg PUBLIC "-//W3C//DTD SVG 1.1//EN"
 "http://www.w3.org/Graphics/SVG/1.1/DTD/svg11.dtd">
<!-- Generated by graphviz version 2.38.0 (20140413.2041)
 -->
<!-- Title: G Pages: 1 -->
<svg width="712pt" height="242pt"
 viewBox="0.00 0.00 712.00 242.00" xmlns="http://www.w3.org/2000/svg" xmlns:xlink="http://www.w3.org/1999/xlink">
<g id="graph0" class="graph" transform="scale(1 1) rotate(0) translate(4 238)">
<title>G</title>
<polygon fill="white" stroke="none" points="-4,4 -4,-238 708,-238 708,4 -4,4"/>
<!-- c96 -->
<g id="node1" class="node"><title>c96</title>
<g id="a_node1"><a xlink:href="./PieceBasique.html" xlink:title="&lt;TABLE&gt;">
</a>
</g>
<g id="a_node1_0"><a xlink:href="./PieceBasique.html" xlink:title="tp8.PieceBasique">
<polygon fill="lemonChiffon" stroke="none" points="248,-56 248,-178 696,-178 696,-56 248,-56"/>
<polygon fill="none" stroke="black" points="248,-159 248,-178 696,-178 696,-159 248,-159"/>
<text text-anchor="start" x="438.5" y="-166" font-family="arial" font-size="10.00"> PieceBasique </text>
<polygon fill="none" stroke="black" points="248,-114 248,-159 696,-159 696,-114 248,-114"/>
<text text-anchor="start" x="252" y="-147" font-family="arial" font-size="10.00"> &#45; dureeGarantie : int </text>
<text text-anchor="start" x="252" y="-134" font-family="arial" font-size="10.00"> &#45; prix : int </text>
<text text-anchor="start" x="252" y="-121" font-family="arial" font-size="10.00"> &#45; dureeFabrication : int </text>
<polygon fill="none" stroke="black" points="248,-56 248,-114 696,-114 696,-56 248,-56"/>
<text text-anchor="start" x="252" y="-102" font-family="arial" font-size="10.00"> «create» </text>
<text text-anchor="start" x="252" y="-89" font-family="arial" font-size="10.00"> + PieceBasique(nom : String, reference : String, prix : int, dureeFabrication : int, dureeGarantie : int) </text>
<text text-anchor="start" x="252" y="-76" font-family="arial" font-size="10.00"> + dureeFabrication() : int </text>
<text text-anchor="start" x="252" y="-63" font-family="arial" font-size="10.00"> + dureeGarantie() : int </text>
</a>
</g>
<g><a xlink:href="./PieceBasique.html" xlink:title="&lt;TABLE&gt;">
</a>
</g>
</g>
<!-- c97 -->
<g id="node2" class="node"><title>c97</title>
<g id="a_node2"><a xlink:href="./Piece.html" xlink:title="&lt;TABLE&gt;">
</a>
</g>
<g id="a_node2_1"><a xlink:href="./Piece.html" xlink:title="tp8.Piece">
<polygon fill="none" stroke="black" points="8,-198 8,-230 196,-230 196,-198 8,-198"/>
<text text-anchor="start" x="76" y="-218" font-family="arial" font-size="10.00"> «abstract» </text>
<text text-anchor="start" x="86.5" y="-205" font-family="arial italic" font-size="10.00"> Piece </text>
<polygon fill="none" stroke="black" points="8,-166 8,-198 196,-198 196,-166 8,-166"/>
<text text-anchor="start" x="12" y="-186" font-family="arial" font-size="10.00"> &#45; nom : String </text>
<text text-anchor="start" x="12" y="-173" font-family="arial" font-size="10.00"> &#45; reference : String </text>
<polygon fill="none" stroke="black" points="8,-4 8,-166 196,-166 196,-4 8,-4"/>
<text text-anchor="start" x="12" y="-154" font-family="arial" font-size="10.00"> «create» </text>
<text text-anchor="start" x="12" y="-141" font-family="arial" font-size="10.00"> + Piece(nom : String, reference : String) </text>
<text text-anchor="start" x="12" y="-128" font-family="arial" font-size="10.00"> «abstract» </text>
<text text-anchor="start" x="12" y="-115" font-family="arial italic" font-size="10.00"> + prix() : int </text>
<text text-anchor="start" x="12" y="-102" font-family="arial" font-size="10.00"> «abstract» </text>
<text text-anchor="start" x="12" y="-89" font-family="arial italic" font-size="10.00"> + dureeGarantie() : int </text>
<text text-anchor="start" x="12" y="-76" font-family="arial" font-size="10.00"> «abstract» </text>
<text text-anchor="start" x="12" y="-63" font-family="arial italic" font-size="10.00"> + dureeFabrication() : int </text>
<text text-anchor="start" x="12" y="-50" font-family="arial" font-size="10.00"> «abstract» </text>
<text text-anchor="start" x="12" y="-37" font-family="arial italic" font-size="10.00"> + getPrefixe() : String </text>
<text text-anchor="start" x="12" y="-24" font-family="arial" font-size="10.00"> + affiche() </text>
<text text-anchor="start" x="12" y="-11" font-family="arial" font-size="10.00"> + toString() : String </text>
</a>
</g>
<g><a xlink:href="./Piece.html" xlink:title="&lt;TABLE&gt;">
</a>
</g>
</g>
<!-- c97&#45;&gt;c96 -->
<g id="edge1" class="edge"><title>c97:p&#45;&gt;c96:p</title>
<path fill="none" stroke="black" d="M206.348,-117C219.624,-117 233.598,-117 247.903,-117"/>
<polygon fill="none" stroke="black" points="206.338,-113.5 196.338,-117 206.338,-120.5 206.338,-113.5"/>
</g>
</g>
</svg>
