<?xml version="1.0" encoding="UTF-8" standalone="no"?>
<!DOCTYPE svg PUBLIC "-//W3C//DTD SVG 1.1//EN"
 "http://www.w3.org/Graphics/SVG/1.1/DTD/svg11.dtd">
<!-- Generated by graphviz version 2.38.0 (20140413.2041)
 -->
<!-- Title: G Pages: 1 -->
<svg width="609pt" height="190pt"
 viewBox="0.00 0.00 609.00 190.00" xmlns="http://www.w3.org/2000/svg" xmlns:xlink="http://www.w3.org/1999/xlink">
<g id="graph0" class="graph" transform="scale(1 1) rotate(0) translate(4 186)">
<title>G</title>
<polygon fill="white" stroke="none" points="-4,4 -4,-186 605,-186 605,4 -4,4"/>
<!-- c116 -->
<g id="node1" class="node"><title>c116</title>
<g id="a_node1"><a xlink:href="./PieceEnKit.html" xlink:title="&lt;TABLE&gt;">
</a>
</g>
<g id="a_node1_0"><a xlink:href="./PieceEnKit.html" xlink:title="tp8.PieceEnKit">
<polygon fill="lemonChiffon" stroke="none" points="381,-4 381,-178 593,-178 593,-4 381,-4"/>
<polygon fill="none" stroke="black" points="381,-159 381,-178 593,-178 593,-159 381,-159"/>
<text text-anchor="start" x="459.5" y="-166" font-family="arial" font-size="10.00"> PieceEnKit </text>
<polygon fill="none" stroke="black" points="381,-140 381,-159 593,-159 593,-140 381,-140"/>
<text text-anchor="start" x="385" y="-147" font-family="arial" font-size="10.00"> &#45; notice : NoticeMontage </text>
<polygon fill="none" stroke="black" points="381,-4 381,-140 593,-140 593,-4 381,-4"/>
<text text-anchor="start" x="385" y="-128" font-family="arial" font-size="10.00"> «create» </text>
<text text-anchor="start" x="385" y="-115" font-family="arial" font-size="10.00"> + PieceEnKit(nom : String) </text>
<text text-anchor="start" x="385" y="-102" font-family="arial" font-size="10.00"> + PieceEnKit(nom : String, reference : String) </text>
<text text-anchor="start" x="385" y="-89" font-family="arial" font-size="10.00"> + getNotice() : NoticeMontage </text>
<text text-anchor="start" x="385" y="-76" font-family="arial" font-size="10.00"> + setNotice(notice : NoticeMontage) </text>
<text text-anchor="start" x="385" y="-63" font-family="arial" font-size="10.00"> + dureeGarantie() : int </text>
<text text-anchor="start" x="385" y="-50" font-family="arial" font-size="10.00"> + dureeFabrication() : int </text>
<text text-anchor="start" x="385" y="-37" font-family="arial" font-size="10.00"> + afficheInfoSupplementaires() </text>
<text text-anchor="start" x="385" y="-24" font-family="arial" font-size="10.00"> &#45; dureeMontage() : String </text>
<text text-anchor="start" x="385" y="-11" font-family="arial" font-size="10.00"> + getPrefixe() : String </text>
</a>
</g>
<g><a xlink:href="./PieceEnKit.html" xlink:title="&lt;TABLE&gt;">
</a>
</g>
</g>
<!-- c117 -->
<g id="node2" class="node"><title>c117</title>
<g id="a_node2"><a xlink:href="./PieceComposite.html" xlink:title="&lt;TABLE&gt;">
</a>
</g>
<g id="a_node2_1"><a xlink:href="./PieceComposite.html" xlink:title="tp8.PieceComposite">
<polygon fill="none" stroke="black" points="8.5,-133 8.5,-165 329.5,-165 329.5,-133 8.5,-133"/>
<text text-anchor="start" x="143" y="-153" font-family="arial" font-size="10.00"> «abstract» </text>
<text text-anchor="start" x="130" y="-140" font-family="arial italic" font-size="10.00"> PieceComposite </text>
<polygon fill="none" stroke="black" points="8.5,-101 8.5,-133 329.5,-133 329.5,-101 8.5,-101"/>
<text text-anchor="start" x="12.5" y="-121" font-family="arial" font-size="10.00"> &#45; composants : ArrayList&lt;Piece&gt; </text>
<text text-anchor="start" x="12.5" y="-108" font-family="arial" font-size="10.00"> &#45; dureeMontage : int </text>
<polygon fill="none" stroke="black" points="8.5,-17 8.5,-101 329.5,-101 329.5,-17 8.5,-17"/>
<text text-anchor="start" x="12.5" y="-89" font-family="arial" font-size="10.00"> «create» </text>
<text text-anchor="start" x="12.5" y="-76" font-family="arial" font-size="10.00"> + PieceComposite(nom : String, reference : String, dureeMontage : int) </text>
<text text-anchor="start" x="12.5" y="-63" font-family="arial" font-size="10.00"> + ajoute(p : Piece) </text>
<text text-anchor="start" x="12.5" y="-50" font-family="arial" font-size="10.00"> + toString() : String </text>
<text text-anchor="start" x="12.5" y="-37" font-family="arial" font-size="10.00"> + affiche() </text>
<text text-anchor="start" x="12.5" y="-24" font-family="arial" font-size="10.00"> + prix() : int </text>
</a>
</g>
<g><a xlink:href="./PieceComposite.html" xlink:title="&lt;TABLE&gt;">
</a>
</g>
</g>
<!-- c117&#45;&gt;c116 -->
<g id="edge1" class="edge"><title>c117:p&#45;&gt;c116:p</title>
<path fill="none" stroke="black" d="M339.394,-91C353.454,-91 367.39,-91 380.756,-91"/>
<polygon fill="none" stroke="black" points="339.141,-87.5001 329.141,-91 339.141,-94.5001 339.141,-87.5001"/>
</g>
</g>
</svg>
