<?xml version="1.0" encoding="UTF-8" standalone="no"?>
<!DOCTYPE svg PUBLIC "-//W3C//DTD SVG 1.1//EN"
 "http://www.w3.org/Graphics/SVG/1.1/DTD/svg11.dtd">
<!-- Generated by graphviz version 2.38.0 (20140413.2041)
 -->
<!-- Title: G Pages: 1 -->
<svg width="1220pt" height="976pt"
 viewBox="0.00 0.00 1220.00 975.50" xmlns="http://www.w3.org/2000/svg" xmlns:xlink="http://www.w3.org/1999/xlink">
<g id="graph0" class="graph" transform="scale(1 1) rotate(0) translate(4 971.5)">
<title>G</title>
<polygon fill="white" stroke="none" points="-4,4 -4,-971.5 1216,-971.5 1216,4 -4,4"/>
<!-- c0 -->
<g id="node1" class="node"><title>c0</title>
<g id="a_node1"><a xlink:href="./TestPiece.html" xlink:title="&lt;TABLE&gt;">
</a>
</g>
<g id="a_node1_0"><a xlink:href="./TestPiece.html" xlink:title="tp8.TestPiece">
<polygon fill="none" stroke="black" points="82,-55 82,-74 192,-74 192,-55 82,-55"/>
<text text-anchor="start" x="112" y="-62" font-family="arial" font-size="10.00"> TestPiece </text>
<polygon fill="none" stroke="black" points="82,-36 82,-55 192,-55 192,-36 82,-36"/>
<text text-anchor="start" x="86" y="-43" font-family="arial" font-size="10.00"> &#160;</text>
<polygon fill="none" stroke="black" points="82,-4 82,-36 192,-36 192,-4 82,-4"/>
<text text-anchor="start" x="86" y="-24" font-family="arial" font-size="10.00"> + TestPiece() </text>
<text text-anchor="start" x="86" y="-11" font-family="arial" font-size="10.00"> + main(args : String[]) </text>
</a>
</g>
<g><a xlink:href="./TestPiece.html" xlink:title="&lt;TABLE&gt;">
</a>
</g>
</g>
<!-- c1 -->
<g id="node2" class="node"><title>c1</title>
<g id="a_node2"><a xlink:href="./PieceMontee.html" xlink:title="&lt;TABLE&gt;">
</a>
</g>
<g id="a_node2_1"><a xlink:href="./PieceMontee.html" xlink:title="tp8.PieceMontee">
<polygon fill="none" stroke="black" points="818,-451 818,-470 1204,-470 1204,-451 818,-451"/>
<text text-anchor="start" x="979" y="-458" font-family="arial" font-size="10.00"> PieceMontee </text>
<polygon fill="none" stroke="black" points="818,-419 818,-451 1204,-451 1204,-419 818,-419"/>
<text text-anchor="start" x="822" y="-439" font-family="arial" font-size="10.00"> &#45; prixMontage : int </text>
<text text-anchor="start" x="822" y="-426" font-family="arial" font-size="10.00"> &#45; dureeMontage : int </text>
<polygon fill="none" stroke="black" points="818,-309 818,-419 1204,-419 1204,-309 818,-309"/>
<text text-anchor="start" x="822" y="-407" font-family="arial" font-size="10.00"> «create» </text>
<text text-anchor="start" x="822" y="-394" font-family="arial" font-size="10.00"> + PieceMontee(nom : String, reference : String, prixMontage : int, dureeMontage : int) </text>
<text text-anchor="start" x="822" y="-381" font-family="arial" font-size="10.00"> + getDureeMontage() : int </text>
<text text-anchor="start" x="822" y="-368" font-family="arial" font-size="10.00"> + dureeGarantie() : int </text>
<text text-anchor="start" x="822" y="-355" font-family="arial" font-size="10.00"> + dureeFabrication() : int </text>
<text text-anchor="start" x="822" y="-342" font-family="arial" font-size="10.00"> + prix() : int </text>
<text text-anchor="start" x="822" y="-329" font-family="arial" font-size="10.00"> + afficheInfoSupplementaires() </text>
<text text-anchor="start" x="822" y="-316" font-family="arial" font-size="10.00"> + getPrefixe() : String </text>
</a>
</g>
<g><a xlink:href="./PieceMontee.html" xlink:title="&lt;TABLE&gt;">
</a>
</g>
</g>
<!-- c2 -->
<g id="node3" class="node"><title>c2</title>
<g id="a_node3"><a xlink:href="./PieceEnKit.html" xlink:title="&lt;TABLE&gt;">
</a>
</g>
<g id="a_node3_2"><a xlink:href="./PieceEnKit.html" xlink:title="tp8.PieceEnKit">
<polygon fill="none" stroke="black" points="905,-264 905,-283 1117,-283 1117,-264 905,-264"/>
<text text-anchor="start" x="983.5" y="-271" font-family="arial" font-size="10.00"> PieceEnKit </text>
<polygon fill="none" stroke="black" points="905,-245 905,-264 1117,-264 1117,-245 905,-245"/>
<text text-anchor="start" x="909" y="-252" font-family="arial" font-size="10.00"> &#45; notice : NoticeMontage </text>
<polygon fill="none" stroke="black" points="905,-109 905,-245 1117,-245 1117,-109 905,-109"/>
<text text-anchor="start" x="909" y="-233" font-family="arial" font-size="10.00"> «create» </text>
<text text-anchor="start" x="909" y="-220" font-family="arial" font-size="10.00"> + PieceEnKit(nom : String) </text>
<text text-anchor="start" x="909" y="-207" font-family="arial" font-size="10.00"> + PieceEnKit(nom : String, reference : String) </text>
<text text-anchor="start" x="909" y="-194" font-family="arial" font-size="10.00"> + getNotice() : NoticeMontage </text>
<text text-anchor="start" x="909" y="-181" font-family="arial" font-size="10.00"> + setNotice(notice : NoticeMontage) </text>
<text text-anchor="start" x="909" y="-168" font-family="arial" font-size="10.00"> + dureeGarantie() : int </text>
<text text-anchor="start" x="909" y="-155" font-family="arial" font-size="10.00"> + dureeFabrication() : int </text>
<text text-anchor="start" x="909" y="-142" font-family="arial" font-size="10.00"> + afficheInfoSupplementaires() </text>
<text text-anchor="start" x="909" y="-129" font-family="arial" font-size="10.00"> &#45; dureeMontage() : String </text>
<text text-anchor="start" x="909" y="-116" font-family="arial" font-size="10.00"> + getPrefixe() : String </text>
</a>
</g>
<g><a xlink:href="./PieceEnKit.html" xlink:title="&lt;TABLE&gt;">
</a>
</g>
</g>
<!-- c3 -->
<g id="node4" class="node"><title>c3</title>
<g id="a_node4"><a xlink:href="./PieceComposite.html" xlink:title="&lt;TABLE&gt;">
</a>
</g>
<g id="a_node4_3"><a xlink:href="./PieceComposite.html" xlink:title="tp8.PieceComposite">
<polygon fill="none" stroke="black" points="382,-335 382,-367 703,-367 703,-335 382,-335"/>
<text text-anchor="start" x="516.5" y="-355" font-family="arial" font-size="10.00"> «abstract» </text>
<text text-anchor="start" x="503.5" y="-342" font-family="arial italic" font-size="10.00"> PieceComposite </text>
<polygon fill="none" stroke="black" points="382,-303 382,-335 703,-335 703,-303 382,-303"/>
<text text-anchor="start" x="386" y="-323" font-family="arial" font-size="10.00"> &#45; composants : ArrayList&lt;Piece&gt; </text>
<text text-anchor="start" x="386" y="-310" font-family="arial" font-size="10.00"> &#45; dureeMontage : int </text>
<polygon fill="none" stroke="black" points="382,-219 382,-303 703,-303 703,-219 382,-219"/>
<text text-anchor="start" x="386" y="-291" font-family="arial" font-size="10.00"> «create» </text>
<text text-anchor="start" x="386" y="-278" font-family="arial" font-size="10.00"> + PieceComposite(nom : String, reference : String, dureeMontage : int) </text>
<text text-anchor="start" x="386" y="-265" font-family="arial" font-size="10.00"> + ajoute(p : Piece) </text>
<text text-anchor="start" x="386" y="-252" font-family="arial" font-size="10.00"> + toString() : String </text>
<text text-anchor="start" x="386" y="-239" font-family="arial" font-size="10.00"> + affiche() </text>
<text text-anchor="start" x="386" y="-226" font-family="arial" font-size="10.00"> + prix() : int </text>
</a>
</g>
<g><a xlink:href="./PieceComposite.html" xlink:title="&lt;TABLE&gt;">
</a>
</g>
</g>
<!-- c3&#45;&gt;c1 -->
<g id="edge1" class="edge"><title>c3:p&#45;&gt;c1:p</title>
<path fill="none" stroke="black" d="M712.766,-328.262C746.841,-335.339 782.877,-342.824 817.655,-350.048"/>
<polygon fill="none" stroke="black" points="713.238,-324.785 702.735,-326.178 711.814,-331.639 713.238,-324.785"/>
</g>
<!-- c3&#45;&gt;c2 -->
<g id="edge2" class="edge"><title>c3:p&#45;&gt;c2:p</title>
<path fill="none" stroke="black" d="M712.585,-257.776C776.926,-244.412 848.281,-229.591 904.968,-217.816"/>
<polygon fill="none" stroke="black" points="711.814,-254.361 702.735,-259.822 713.238,-261.215 711.814,-254.361"/>
</g>
<!-- c4 -->
<g id="node5" class="node"><title>c4</title>
<g id="a_node5"><a xlink:href="./PieceBasique.html" xlink:title="&lt;TABLE&gt;">
</a>
</g>
<g id="a_node5_4"><a xlink:href="./PieceBasique.html" xlink:title="tp8.PieceBasique">
<polygon fill="none" stroke="black" points="318,-174 318,-193 766,-193 766,-174 318,-174"/>
<text text-anchor="start" x="508.5" y="-181" font-family="arial" font-size="10.00"> PieceBasique </text>
<polygon fill="none" stroke="black" points="318,-129 318,-174 766,-174 766,-129 318,-129"/>
<text text-anchor="start" x="322" y="-162" font-family="arial" font-size="10.00"> &#45; dureeGarantie : int </text>
<text text-anchor="start" x="322" y="-149" font-family="arial" font-size="10.00"> &#45; prix : int </text>
<text text-anchor="start" x="322" y="-136" font-family="arial" font-size="10.00"> &#45; dureeFabrication : int </text>
<polygon fill="none" stroke="black" points="318,-71 318,-129 766,-129 766,-71 318,-71"/>
<text text-anchor="start" x="322" y="-117" font-family="arial" font-size="10.00"> «create» </text>
<text text-anchor="start" x="322" y="-104" font-family="arial" font-size="10.00"> + PieceBasique(nom : String, reference : String, prix : int, dureeFabrication : int, dureeGarantie : int) </text>
<text text-anchor="start" x="322" y="-91" font-family="arial" font-size="10.00"> + dureeFabrication() : int </text>
<text text-anchor="start" x="322" y="-78" font-family="arial" font-size="10.00"> + dureeGarantie() : int </text>
</a>
</g>
<g><a xlink:href="./PieceBasique.html" xlink:title="&lt;TABLE&gt;">
</a>
</g>
</g>
<!-- c5 -->
<g id="node6" class="node"><title>c5</title>
<g id="a_node6"><a xlink:href="./Piece.html" xlink:title="&lt;TABLE&gt;">
</a>
</g>
<g id="a_node6_5"><a xlink:href="./Piece.html" xlink:title="tp8.Piece">
<polygon fill="none" stroke="black" points="43,-294 43,-326 231,-326 231,-294 43,-294"/>
<text text-anchor="start" x="111" y="-314" font-family="arial" font-size="10.00"> «abstract» </text>
<text text-anchor="start" x="121.5" y="-301" font-family="arial italic" font-size="10.00"> Piece </text>
<polygon fill="none" stroke="black" points="43,-262 43,-294 231,-294 231,-262 43,-262"/>
<text text-anchor="start" x="47" y="-282" font-family="arial" font-size="10.00"> &#45; nom : String </text>
<text text-anchor="start" x="47" y="-269" font-family="arial" font-size="10.00"> &#45; reference : String </text>
<polygon fill="none" stroke="black" points="43,-100 43,-262 231,-262 231,-100 43,-100"/>
<text text-anchor="start" x="47" y="-250" font-family="arial" font-size="10.00"> «create» </text>
<text text-anchor="start" x="47" y="-237" font-family="arial" font-size="10.00"> + Piece(nom : String, reference : String) </text>
<text text-anchor="start" x="47" y="-224" font-family="arial" font-size="10.00"> «abstract» </text>
<text text-anchor="start" x="47" y="-211" font-family="arial italic" font-size="10.00"> + prix() : int </text>
<text text-anchor="start" x="47" y="-198" font-family="arial" font-size="10.00"> «abstract» </text>
<text text-anchor="start" x="47" y="-185" font-family="arial italic" font-size="10.00"> + dureeGarantie() : int </text>
<text text-anchor="start" x="47" y="-172" font-family="arial" font-size="10.00"> «abstract» </text>
<text text-anchor="start" x="47" y="-159" font-family="arial italic" font-size="10.00"> + dureeFabrication() : int </text>
<text text-anchor="start" x="47" y="-146" font-family="arial" font-size="10.00"> «abstract» </text>
<text text-anchor="start" x="47" y="-133" font-family="arial italic" font-size="10.00"> + getPrefixe() : String </text>
<text text-anchor="start" x="47" y="-120" font-family="arial" font-size="10.00"> + affiche() </text>
<text text-anchor="start" x="47" y="-107" font-family="arial" font-size="10.00"> + toString() : String </text>
</a>
</g>
<g><a xlink:href="./Piece.html" xlink:title="&lt;TABLE&gt;">
</a>
</g>
</g>
<!-- c5&#45;&gt;c3 -->
<g id="edge3" class="edge"><title>c5:p&#45;&gt;c3:p</title>
<path fill="none" stroke="black" d="M241.289,-233.504C283.814,-241.946 334.065,-251.921 381.145,-261.267"/>
<polygon fill="none" stroke="black" points="241.706,-230.019 231.216,-231.504 240.343,-236.885 241.706,-230.019"/>
</g>
<!-- c5&#45;&gt;c4 -->
<g id="edge4" class="edge"><title>c5:p&#45;&gt;c4:p</title>
<path fill="none" stroke="black" d="M241.226,-192.252C264.938,-187.486 291.056,-182.237 317.687,-176.884"/>
<polygon fill="none" stroke="black" points="240.33,-188.862 231.216,-194.264 241.709,-195.725 240.33,-188.862"/>
</g>
<!-- c6 -->
<g id="node7" class="node"><title>c6</title>
<g id="a_node7"><a xlink:href="./Panier.html" xlink:title="&lt;TABLE&gt;">
</a>
</g>
<g id="a_node7_6"><a xlink:href="./Panier.html" xlink:title="tp8.Panier">
<polygon fill="none" stroke="black" points="8,-494 8,-513 266,-513 266,-494 8,-494"/>
<text text-anchor="start" x="120" y="-501" font-family="arial" font-size="10.00"> Panier </text>
<polygon fill="none" stroke="black" points="8,-475 8,-494 266,-494 266,-475 8,-475"/>
<text text-anchor="start" x="12" y="-482" font-family="arial" font-size="10.00"> &#45; nbPieceParReference : HashMap&lt;String, Integer&gt; </text>
<polygon fill="none" stroke="black" points="8,-352 8,-475 266,-475 266,-352 8,-352"/>
<text text-anchor="start" x="12" y="-463" font-family="arial" font-size="10.00"> «create» </text>
<text text-anchor="start" x="12" y="-450" font-family="arial" font-size="10.00"> + Panier() </text>
<text text-anchor="start" x="12" y="-437" font-family="arial" font-size="10.00"> + ajouterPiece(p : Piece) </text>
<text text-anchor="start" x="12" y="-424" font-family="arial" font-size="10.00"> + ajouterPiece(p : Piece, nb : Integer) </text>
<text text-anchor="start" x="12" y="-411" font-family="arial" font-size="10.00"> + retirerPiece(p : Piece) </text>
<text text-anchor="start" x="12" y="-398" font-family="arial" font-size="10.00"> + retirerPiece(p : Piece, nb : Integer) </text>
<text text-anchor="start" x="12" y="-385" font-family="arial" font-size="10.00"> + afficher() </text>
<text text-anchor="start" x="12" y="-372" font-family="arial" font-size="10.00"> + trierParPrixDecroissant(listePiece : ArrayList&lt;Piece&gt;) </text>
<text text-anchor="start" x="12" y="-359" font-family="arial" font-size="10.00"> + trierParPrixCroissant(listePiece : ArrayList&lt;Piece&gt;) </text>
</a>
</g>
<g><a xlink:href="./Panier.html" xlink:title="&lt;TABLE&gt;">
</a>
</g>
</g>
<!-- c7 -->
<g id="node8" class="node"><title>c7</title>
<g id="a_node8"><a xlink:href="./NoticeMontage.html" xlink:title="&lt;TABLE&gt;">
</a>
</g>
<g id="a_node8_7"><a xlink:href="./NoticeMontage.html" xlink:title="tp8.NoticeMontage">
<polygon fill="none" stroke="black" points="48,-617 48,-636 226,-636 226,-617 48,-617"/>
<text text-anchor="start" x="101" y="-624" font-family="arial" font-size="10.00"> NoticeMontage </text>
<polygon fill="none" stroke="black" points="48,-598 48,-617 226,-617 226,-598 48,-598"/>
<text text-anchor="start" x="52" y="-605" font-family="arial" font-size="10.00"> &#45; instructions : String </text>
<polygon fill="none" stroke="black" points="48,-540 48,-598 226,-598 226,-540 48,-540"/>
<text text-anchor="start" x="52" y="-586" font-family="arial" font-size="10.00"> «create» </text>
<text text-anchor="start" x="52" y="-573" font-family="arial" font-size="10.00"> + NoticeMontage() </text>
<text text-anchor="start" x="52" y="-560" font-family="arial" font-size="10.00"> + getInstructions() : String </text>
<text text-anchor="start" x="52" y="-547" font-family="arial" font-size="10.00"> + setInstructions(instructions : String) </text>
</a>
</g>
<g><a xlink:href="./NoticeMontage.html" xlink:title="&lt;TABLE&gt;">
</a>
</g>
</g>
<!-- c8 -->
<g id="node9" class="node"><title>c8</title>
<g id="a_node9"><a xlink:href="./ComparateurPrix.html" xlink:title="&lt;TABLE&gt;">
</a>
</g>
<g id="a_node9_8"><a xlink:href="./ComparateurPrix.html" xlink:title="tp8.ComparateurPrix">
<polygon fill="none" stroke="black" points="38,-726 38,-745 236,-745 236,-726 38,-726"/>
<text text-anchor="start" x="97.5" y="-733" font-family="arial" font-size="10.00"> ComparateurPrix </text>
<polygon fill="none" stroke="black" points="38,-707 38,-726 236,-726 236,-707 38,-707"/>
<text text-anchor="start" x="42" y="-714" font-family="arial" font-size="10.00"> &#45; decroissant : boolean </text>
<polygon fill="none" stroke="black" points="38,-662 38,-707 236,-707 236,-662 38,-662"/>
<text text-anchor="start" x="42" y="-695" font-family="arial" font-size="10.00"> «create» </text>
<text text-anchor="start" x="42" y="-682" font-family="arial" font-size="10.00"> + ComparateurPrix(decroissant : boolean) </text>
<text text-anchor="start" x="42" y="-669" font-family="arial" font-size="10.00"> + compare(arg0 : Piece, arg1 : Piece) : int </text>
</a>
</g>
<g><a xlink:href="./ComparateurPrix.html" xlink:title="&lt;TABLE&gt;">
</a>
</g>
</g>
<!-- c9 -->
<g id="node10" class="node"><title>c9</title>
<g id="a_node10"><a xlink:href="./ComparateurGarantie.html" xlink:title="&lt;TABLE&gt;">
</a>
</g>
<g id="a_node10_9"><a xlink:href="./ComparateurGarantie.html" xlink:title="tp8.ComparateurGarantie">
<polygon fill="none" stroke="black" points="47,-835 47,-854 228,-854 228,-835 47,-835"/>
<text text-anchor="start" x="88" y="-842" font-family="arial" font-size="10.00"> ComparateurGarantie </text>
<polygon fill="none" stroke="black" points="47,-816 47,-835 228,-835 228,-816 47,-816"/>
<text text-anchor="start" x="51" y="-823" font-family="arial" font-size="10.00"> &#160;</text>
<polygon fill="none" stroke="black" points="47,-771 47,-816 228,-816 228,-771 47,-771"/>
<text text-anchor="start" x="51" y="-804" font-family="arial" font-size="10.00"> «create» </text>
<text text-anchor="start" x="51" y="-791" font-family="arial" font-size="10.00"> + ComparateurGarantie() </text>
<text text-anchor="start" x="51" y="-778" font-family="arial" font-size="10.00"> + compare(o1 : Piece, o2 : Piece) : int </text>
</a>
</g>
<g><a xlink:href="./ComparateurGarantie.html" xlink:title="&lt;TABLE&gt;">
</a>
</g>
</g>
<!-- c10 -->
<g id="node11" class="node"><title>c10</title>
<g id="a_node11"><a xlink:href="./ComparateurDureeFabrication.html" xlink:title="&lt;TABLE&gt;">
</a>
</g>
<g id="a_node11_10"><a xlink:href="./ComparateurDureeFabrication.html" xlink:title="tp8.ComparateurDureeFabrication">
<polygon fill="none" stroke="black" points="47,-944 47,-963 228,-963 228,-944 47,-944"/>
<text text-anchor="start" x="69.5" y="-951" font-family="arial" font-size="10.00"> ComparateurDureeFabrication </text>
<polygon fill="none" stroke="black" points="47,-925 47,-944 228,-944 228,-925 47,-925"/>
<text text-anchor="start" x="51" y="-932" font-family="arial" font-size="10.00"> &#160;</text>
<polygon fill="none" stroke="black" points="47,-880 47,-925 228,-925 228,-880 47,-880"/>
<text text-anchor="start" x="51" y="-913" font-family="arial" font-size="10.00"> «create» </text>
<text text-anchor="start" x="51" y="-900" font-family="arial" font-size="10.00"> + ComparateurDureeFabrication() </text>
<text text-anchor="start" x="51" y="-887" font-family="arial" font-size="10.00"> + compare(o1 : Piece, o2 : Piece) : int </text>
</a>
</g>
<g><a xlink:href="./ComparateurDureeFabrication.html" xlink:title="&lt;TABLE&gt;">
</a>
</g>
</g>
</g>
</svg>
