<?xml version="1.0" encoding="UTF-8" standalone="no"?>
<!DOCTYPE svg PUBLIC "-//W3C//DTD SVG 1.1//EN"
 "http://www.w3.org/Graphics/SVG/1.1/DTD/svg11.dtd">
<!-- Generated by graphviz version 2.38.0 (20140413.2041)
 -->
<!-- Title: G Pages: 1 -->
<svg width="141pt" height="112pt"
 viewBox="0.00 0.00 141.00 112.00" xmlns="http://www.w3.org/2000/svg" xmlns:xlink="http://www.w3.org/1999/xlink">
<g id="graph0" class="graph" transform="scale(1 1) rotate(0) translate(4 108)">
<title>G</title>
<polygon fill="white" stroke="none" points="-4,4 -4,-108 137,-108 137,4 -4,4"/>
<!-- c24 -->
<g id="node1" class="node"><title>c24</title>
<g id="a_node1"><a xlink:href="./Module.html" xlink:title="&lt;TABLE&gt;">
</a>
</g>
<g id="a_node1_0"><a xlink:href="./Module.html" xlink:title="tp2.Module">
<polygon fill="lemonChiffon" stroke="none" points="8,-4 8,-100 125,-100 125,-4 8,-4"/>
<polygon fill="none" stroke="black" points="8.5,-81 8.5,-100 125.5,-100 125.5,-81 8.5,-81"/>
<text text-anchor="start" x="48" y="-88" font-family="arial" font-size="10.00"> Module </text>
<polygon fill="none" stroke="black" points="8.5,-62 8.5,-81 125.5,-81 125.5,-62 8.5,-62"/>
<text text-anchor="start" x="12.5" y="-69" font-family="arial" font-size="10.00"> &#45; nom : String </text>
<polygon fill="none" stroke="black" points="8.5,-4 8.5,-62 125.5,-62 125.5,-4 8.5,-4"/>
<text text-anchor="start" x="12.5" y="-50" font-family="arial" font-size="10.00"> + Module(nom : String) </text>
<text text-anchor="start" x="12.5" y="-37" font-family="arial" font-size="10.00"> + getNom() : String </text>
<text text-anchor="start" x="12.5" y="-24" font-family="arial" font-size="10.00"> + setNom(nom : String) </text>
<text text-anchor="start" x="12.5" y="-11" font-family="arial" font-size="10.00"> + toString() : String </text>
</a>
</g>
<g><a xlink:href="./Module.html" xlink:title="&lt;TABLE&gt;">
</a>
</g>
</g>
</g>
</svg>
