<?xml version="1.0" encoding="UTF-8" standalone="no"?>
<!DOCTYPE svg PUBLIC "-//W3C//DTD SVG 1.1//EN"
 "http://www.w3.org/Graphics/SVG/1.1/DTD/svg11.dtd">
<!-- Generated by graphviz version 2.38.0 (20140413.2041)
 -->
<!-- Title: G Pages: 1 -->
<svg width="204pt" height="151pt"
 viewBox="0.00 0.00 204.00 151.00" xmlns="http://www.w3.org/2000/svg" xmlns:xlink="http://www.w3.org/1999/xlink">
<g id="graph0" class="graph" transform="scale(1 1) rotate(0) translate(4 147)">
<title>G</title>
<polygon fill="white" stroke="none" points="-4,4 -4,-147 200,-147 200,4 -4,4"/>
<!-- c28 -->
<g id="node1" class="node"><title>c28</title>
<g id="a_node1"><a xlink:href="./Note.html" xlink:title="&lt;TABLE&gt;">
</a>
</g>
<g id="a_node1_0"><a xlink:href="./Note.html" xlink:title="tp2.Note">
<polygon fill="lemonChiffon" stroke="none" points="8,-4 8,-139 188,-139 188,-4 8,-4"/>
<polygon fill="none" stroke="black" points="8,-119.5 8,-138.5 188,-138.5 188,-119.5 8,-119.5"/>
<text text-anchor="start" x="84.5" y="-126.5" font-family="arial" font-size="10.00"> Note </text>
<polygon fill="none" stroke="black" points="8,-87.5 8,-119.5 188,-119.5 188,-87.5 8,-87.5"/>
<text text-anchor="start" x="12" y="-107.5" font-family="arial" font-size="10.00"> &#45; valeur : float </text>
<text text-anchor="start" x="12" y="-94.5" font-family="arial" font-size="10.00"> &#45; module : Module </text>
<polygon fill="none" stroke="black" points="8,-3.5 8,-87.5 188,-87.5 188,-3.5 8,-3.5"/>
<text text-anchor="start" x="12" y="-75.5" font-family="arial" font-size="10.00"> + Note(valeur : float, module : Module) </text>
<text text-anchor="start" x="12" y="-62.5" font-family="arial" font-size="10.00"> + getModule() : Module </text>
<text text-anchor="start" x="12" y="-49.5" font-family="arial" font-size="10.00"> + setModule(module : Module) </text>
<text text-anchor="start" x="12" y="-36.5" font-family="arial" font-size="10.00"> + getValeur() : float </text>
<text text-anchor="start" x="12" y="-23.5" font-family="arial" font-size="10.00"> + setValeur(valeur : float) </text>
<text text-anchor="start" x="12" y="-10.5" font-family="arial" font-size="10.00"> + toString() : String </text>
</a>
</g>
<g><a xlink:href="./Note.html" xlink:title="&lt;TABLE&gt;">
</a>
</g>
</g>
</g>
</svg>
