<?xml version="1.0" encoding="UTF-8" standalone="no"?>
<!DOCTYPE svg PUBLIC "-//W3C//DTD SVG 1.1//EN"
 "http://www.w3.org/Graphics/SVG/1.1/DTD/svg11.dtd">
<!-- Generated by graphviz version 2.38.0 (20140413.2041)
 -->
<!-- Title: G Pages: 1 -->
<svg width="224pt" height="1023pt"
 viewBox="0.00 0.00 224.00 1023.00" xmlns="http://www.w3.org/2000/svg" xmlns:xlink="http://www.w3.org/1999/xlink">
<g id="graph0" class="graph" transform="scale(1 1) rotate(0) translate(4 1019)">
<title>G</title>
<polygon fill="white" stroke="none" points="-4,4 -4,-1019 220,-1019 220,4 -4,4"/>
<!-- c12 -->
<g id="node1" class="node"><title>c12</title>
<g id="a_node1"><a xlink:href="./ObjetPostal.html" xlink:title="&lt;TABLE&gt;">
</a>
</g>
<g id="a_node1_0"><a xlink:href="./ObjetPostal.html" xlink:title="tp3.ObjetPostal">
<polygon fill="none" stroke="black" points="22,-907 22,-939 194,-939 194,-907 22,-907"/>
<text text-anchor="start" x="82" y="-927" font-family="arial" font-size="10.00"> «abstract» </text>
<text text-anchor="start" x="79" y="-914" font-family="arial italic" font-size="10.00"> ObjetPostal </text>
<polygon fill="none" stroke="black" points="22,-823 22,-907 194,-907 194,-823 22,-823"/>
<text text-anchor="start" x="26" y="-895" font-family="arial" font-size="10.00"> &#160;origine : String </text>
<text text-anchor="start" x="26" y="-882" font-family="arial" font-size="10.00"> &#160;destination : String </text>
<text text-anchor="start" x="26" y="-869" font-family="arial" font-size="10.00"> &#160;codePostal : String </text>
<text text-anchor="start" x="26" y="-856" font-family="arial" font-size="10.00"> &#160;poids : double </text>
<text text-anchor="start" x="26" y="-843" font-family="arial" font-size="10.00"> &#160;volume : double </text>
<text text-anchor="start" x="26" y="-830" font-family="arial" font-size="10.00"> &#160;tauxRec : TauxRecom </text>
<polygon fill="none" stroke="black" points="22,-583 22,-823 194,-823 194,-583 22,-583"/>
<text text-anchor="start" x="26" y="-811" font-family="arial" font-size="10.00"> &#160;getOrigine() : String </text>
<text text-anchor="start" x="26" y="-798" font-family="arial" font-size="10.00"> &#160;setOrigine(origine : String) </text>
<text text-anchor="start" x="26" y="-785" font-family="arial" font-size="10.00"> &#160;getDestination() : String </text>
<text text-anchor="start" x="26" y="-772" font-family="arial" font-size="10.00"> &#160;setDestination(destination : String) </text>
<text text-anchor="start" x="26" y="-759" font-family="arial" font-size="10.00"> &#160;getCodePostal() : String </text>
<text text-anchor="start" x="26" y="-746" font-family="arial" font-size="10.00"> &#160;setCodePostal(codePostal : String) </text>
<text text-anchor="start" x="26" y="-733" font-family="arial" font-size="10.00"> &#160;getPoids() : double </text>
<text text-anchor="start" x="26" y="-720" font-family="arial" font-size="10.00"> &#160;setPoids(poids : double) </text>
<text text-anchor="start" x="26" y="-707" font-family="arial" font-size="10.00"> &#160;getVolume() : double </text>
<text text-anchor="start" x="26" y="-694" font-family="arial" font-size="10.00"> &#160;setVolume(volume : double) </text>
<text text-anchor="start" x="26" y="-681" font-family="arial" font-size="10.00"> &#160;getTauxRec() : TauxRecom </text>
<text text-anchor="start" x="26" y="-668" font-family="arial" font-size="10.00"> &#160;setTauxRec(tauxRec : TauxRecom) </text>
<text text-anchor="start" x="26" y="-655" font-family="arial italic" font-size="10.00"> &#160;getTarifBase() : double </text>
<text text-anchor="start" x="26" y="-642" font-family="arial" font-size="10.00"> &#160;tarifAff() : double </text>
<text text-anchor="start" x="26" y="-629" font-family="arial italic" font-size="10.00"> &#160;tarifRemb() : double </text>
<text text-anchor="start" x="26" y="-616" font-family="arial italic" font-size="10.00"> &#160;getTypeObjet() : String </text>
<text text-anchor="start" x="26" y="-603" font-family="arial" font-size="10.00"> &#160;toString() : String </text>
<text text-anchor="start" x="26" y="-590" font-family="arial" font-size="10.00"> &#160;affiche() </text>
</a>
</g>
<g><a xlink:href="./ObjetPostal.html" xlink:title="&lt;TABLE&gt;">
</a>
</g>
</g>
<!-- c17 -->
<g id="node4" class="node"><title>c17</title>
<g id="a_node4"><a xlink:href="./Colis.html" xlink:title="&lt;TABLE&gt;">
</a>
</g>
<g id="a_node4_1"><a xlink:href="./Colis.html" xlink:title="tp3.Colis">
<polygon fill="lemonChiffon" stroke="none" points="17.5,-339 17.5,-539 198.5,-539 198.5,-339 17.5,-339"/>
<polygon fill="none" stroke="black" points="18,-520 18,-539 199,-539 199,-520 18,-520"/>
<text text-anchor="start" x="94.5" y="-527" font-family="arial" font-size="10.00"> Colis </text>
<polygon fill="none" stroke="black" points="18,-475 18,-520 199,-520 199,-475 18,-475"/>
<text text-anchor="start" x="22" y="-508" font-family="arial" font-size="10.00"> &#160;declContenu : String </text>
<text text-anchor="start" x="22" y="-495" font-family="arial" font-size="10.00"> &#160;valeurDecl : double </text>
<text text-anchor="start" x="22" y="-482" font-family="arial" font-size="10.00"> &#160;tarifBase : double </text>
<polygon fill="none" stroke="black" points="18,-339 18,-475 199,-475 199,-339 18,-339"/>
<text text-anchor="start" x="22" y="-463" font-family="arial" font-size="10.00"> &#160;getDeclContenu() : String </text>
<text text-anchor="start" x="22" y="-450" font-family="arial" font-size="10.00"> &#160;setDeclContenu(declContenu : String) </text>
<text text-anchor="start" x="22" y="-437" font-family="arial" font-size="10.00"> &#160;getValeurDecl() : double </text>
<text text-anchor="start" x="22" y="-424" font-family="arial" font-size="10.00"> &#160;setValeurDecl(valeurDecl : double) </text>
<text text-anchor="start" x="22" y="-411" font-family="arial" font-size="10.00"> &#160;setTarifBase(tarifBase : double) </text>
<text text-anchor="start" x="22" y="-398" font-family="arial" font-size="10.00"> &#160;getTarifBase() : double </text>
<text text-anchor="start" x="22" y="-385" font-family="arial" font-size="10.00"> &#160;tarifAff() : double </text>
<text text-anchor="start" x="22" y="-372" font-family="arial" font-size="10.00"> &#160;tarifRemb() : double </text>
<text text-anchor="start" x="22" y="-359" font-family="arial" font-size="10.00"> &#160;getTypeObjet() : String </text>
<text text-anchor="start" x="22" y="-346" font-family="arial" font-size="10.00"> &#160;toString() : String </text>
</a>
</g>
<g><a xlink:href="./Colis.html" xlink:title="&lt;TABLE&gt;">
</a>
</g>
</g>
<!-- c12&#45;&gt;c17 -->
<g id="edge3" class="edge"><title>c12:p&#45;&gt;c17:p</title>
<path fill="none" stroke="black" d="M108,-572.628C108,-561.232 108,-550.026 108,-539.252"/>
<polygon fill="none" stroke="black" points="104.5,-572.686 108,-582.686 111.5,-572.686 104.5,-572.686"/>
</g>
<!-- n0cc12 -->
<g id="node2" class="node"><title>n0cc12</title>
<polygon fill="none" stroke="black" points="151.5,-1015 58.5,-1015 58.5,-979 157.5,-979 157.5,-1009 151.5,-1015"/>
<polyline fill="none" stroke="black" points="151.5,-1015 151.5,-1009 "/>
<polyline fill="none" stroke="black" points="157.5,-1009 151.5,-1009 "/>
<g id="a_node2_2"><a xlink:href="./ObjetPostal.html" xlink:title="tp3.ObjetPostal">
<text text-anchor="start" x="70" y="-994" font-family="arial" font-size="10.00"> Classe abstraite </text>
</a>
</g>
</g>
<!-- n0cc12&#45;&gt;c12 -->
<g id="edge1" class="edge"><title>n0cc12&#45;&gt;c12:p</title>
<path fill="none" stroke="black" d="M108,-978.793C108,-968.767 108,-954.997 108,-939.219"/>
</g>
<!-- c16 -->
<g id="node3" class="node"><title>c16</title>
<g id="a_node3"><a xlink:href="./ColisExpress.html" xlink:title="&lt;TABLE&gt;">
</a>
</g>
<g id="a_node3_3"><a xlink:href="./ColisExpress.html" xlink:title="tp3.ColisExpress">
<polygon fill="none" stroke="black" points="8,-275.5 8,-294.5 208,-294.5 208,-275.5 8,-275.5"/>
<text text-anchor="start" x="76" y="-282.5" font-family="arial" font-size="10.00"> ColisExpress </text>
<polygon fill="none" stroke="black" points="8,-191.5 8,-275.5 208,-275.5 208,-191.5 8,-191.5"/>
<text text-anchor="start" x="12" y="-263.5" font-family="arial" font-size="10.00"> &#160;dateEnvoi : Date </text>
<text text-anchor="start" x="12" y="-250.5" font-family="arial" font-size="10.00"> &#160;numeroSuivi : int </text>
<text text-anchor="start" x="12" y="-237.5" font-family="arial" font-size="10.00"> &#160;emballage : boolean </text>
<text text-anchor="start" x="12" y="-224.5" font-family="arial" font-size="10.00"> &#160;numeroCourant : int </text>
<text text-anchor="start" x="12" y="-211.5" font-family="arial" font-size="10.00"> &#160;tarifEmballage : double </text>
<text text-anchor="start" x="12" y="-198.5" font-family="arial" font-size="10.00"> &#160;tarifBase : double </text>
<polygon fill="none" stroke="black" points="8,-3.5 8,-191.5 208,-191.5 208,-3.5 8,-3.5"/>
<text text-anchor="start" x="12" y="-179.5" font-family="arial" font-size="10.00"> &#160;getDateEnvoi() : Date </text>
<text text-anchor="start" x="12" y="-166.5" font-family="arial" font-size="10.00"> &#160;setDateEnvoi(dateEnvoi : Date) </text>
<text text-anchor="start" x="12" y="-153.5" font-family="arial" font-size="10.00"> &#160;getNumeroSuivi() : int </text>
<text text-anchor="start" x="12" y="-140.5" font-family="arial" font-size="10.00"> &#160;isEmballage() : boolean </text>
<text text-anchor="start" x="12" y="-127.5" font-family="arial" font-size="10.00"> &#160;setEmballage(emballage : boolean) </text>
<text text-anchor="start" x="12" y="-114.5" font-family="arial" font-size="10.00"> &#160;getNumeroCourant() : int </text>
<text text-anchor="start" x="12" y="-101.5" font-family="arial" font-size="10.00"> &#160;setNumeroCourant(numeroCourant : int) </text>
<text text-anchor="start" x="12" y="-88.5" font-family="arial" font-size="10.00"> &#160;getTarifEmballage() : double </text>
<text text-anchor="start" x="12" y="-75.5" font-family="arial" font-size="10.00"> &#160;setTarifEmballage(tarifEmballage : double) </text>
<text text-anchor="start" x="12" y="-62.5" font-family="arial" font-size="10.00"> &#160;getTarifBase() : double </text>
<text text-anchor="start" x="12" y="-49.5" font-family="arial" font-size="10.00"> &#160;tarifAff() : double </text>
<text text-anchor="start" x="12" y="-36.5" font-family="arial" font-size="10.00"> &#160;getTypeObjet() : String </text>
<text text-anchor="start" x="12" y="-23.5" font-family="arial" font-size="10.00"> &#160;toString() : String </text>
<text text-anchor="start" x="12" y="-10.5" font-family="arial" font-size="10.00"> &#160;setPoids(poids : double) </text>
</a>
</g>
<g><a xlink:href="./ColisExpress.html" xlink:title="&lt;TABLE&gt;">
</a>
</g>
</g>
<!-- c17&#45;&gt;c16 -->
<g id="edge2" class="edge"><title>c17:p&#45;&gt;c16:p</title>
<path fill="none" stroke="black" d="M108,-328.631C108,-317.619 108,-306.32 108,-295.016"/>
<polygon fill="none" stroke="black" points="104.5,-328.656 108,-338.656 111.5,-328.656 104.5,-328.656"/>
</g>
</g>
</svg>
