<?xml version="1.0" encoding="UTF-8" standalone="no"?>
<!DOCTYPE svg PUBLIC "-//W3C//DTD SVG 1.1//EN"
 "http://www.w3.org/Graphics/SVG/1.1/DTD/svg11.dtd">
<!-- Generated by graphviz version 2.38.0 (20140413.2041)
 -->
<!-- Title: G Pages: 1 -->
<svg width="356pt" height="688pt"
 viewBox="0.00 0.00 355.50 688.00" xmlns="http://www.w3.org/2000/svg" xmlns:xlink="http://www.w3.org/1999/xlink">
<g id="graph0" class="graph" transform="scale(1 1) rotate(0) translate(4 684)">
<title>G</title>
<polygon fill="white" stroke="none" points="-4,4 -4,-684 351.5,-684 351.5,4 -4,4"/>
<!-- c32 -->
<g id="node1" class="node"><title>c32</title>
<g id="a_node1"><a xlink:href="./ObjetPostal.html" xlink:title="&lt;TABLE&gt;">
</a>
</g>
<g id="a_node1_0"><a xlink:href="./ObjetPostal.html" xlink:title="tp3.ObjetPostal">
<polygon fill="lemonChiffon" stroke="none" points="71,-248 71,-604 243,-604 243,-248 71,-248"/>
<polygon fill="none" stroke="black" points="71,-572 71,-604 243,-604 243,-572 71,-572"/>
<text text-anchor="start" x="131" y="-592" font-family="arial" font-size="10.00"> «abstract» </text>
<text text-anchor="start" x="128" y="-579" font-family="arial italic" font-size="10.00"> ObjetPostal </text>
<polygon fill="none" stroke="black" points="71,-488 71,-572 243,-572 243,-488 71,-488"/>
<text text-anchor="start" x="75" y="-560" font-family="arial" font-size="10.00"> &#160;origine : String </text>
<text text-anchor="start" x="75" y="-547" font-family="arial" font-size="10.00"> &#160;destination : String </text>
<text text-anchor="start" x="75" y="-534" font-family="arial" font-size="10.00"> &#160;codePostal : String </text>
<text text-anchor="start" x="75" y="-521" font-family="arial" font-size="10.00"> &#160;poids : double </text>
<text text-anchor="start" x="75" y="-508" font-family="arial" font-size="10.00"> &#160;volume : double </text>
<text text-anchor="start" x="75" y="-495" font-family="arial" font-size="10.00"> &#160;tauxRec : TauxRecom </text>
<polygon fill="none" stroke="black" points="71,-248 71,-488 243,-488 243,-248 71,-248"/>
<text text-anchor="start" x="75" y="-476" font-family="arial" font-size="10.00"> &#160;getOrigine() : String </text>
<text text-anchor="start" x="75" y="-463" font-family="arial" font-size="10.00"> &#160;setOrigine(origine : String) </text>
<text text-anchor="start" x="75" y="-450" font-family="arial" font-size="10.00"> &#160;getDestination() : String </text>
<text text-anchor="start" x="75" y="-437" font-family="arial" font-size="10.00"> &#160;setDestination(destination : String) </text>
<text text-anchor="start" x="75" y="-424" font-family="arial" font-size="10.00"> &#160;getCodePostal() : String </text>
<text text-anchor="start" x="75" y="-411" font-family="arial" font-size="10.00"> &#160;setCodePostal(codePostal : String) </text>
<text text-anchor="start" x="75" y="-398" font-family="arial" font-size="10.00"> &#160;getPoids() : double </text>
<text text-anchor="start" x="75" y="-385" font-family="arial" font-size="10.00"> &#160;setPoids(poids : double) </text>
<text text-anchor="start" x="75" y="-372" font-family="arial" font-size="10.00"> &#160;getVolume() : double </text>
<text text-anchor="start" x="75" y="-359" font-family="arial" font-size="10.00"> &#160;setVolume(volume : double) </text>
<text text-anchor="start" x="75" y="-346" font-family="arial" font-size="10.00"> &#160;getTauxRec() : TauxRecom </text>
<text text-anchor="start" x="75" y="-333" font-family="arial" font-size="10.00"> &#160;setTauxRec(tauxRec : TauxRecom) </text>
<text text-anchor="start" x="75" y="-320" font-family="arial italic" font-size="10.00"> &#160;getTarifBase() : double </text>
<text text-anchor="start" x="75" y="-307" font-family="arial" font-size="10.00"> &#160;tarifAff() : double </text>
<text text-anchor="start" x="75" y="-294" font-family="arial italic" font-size="10.00"> &#160;tarifRemb() : double </text>
<text text-anchor="start" x="75" y="-281" font-family="arial italic" font-size="10.00"> &#160;getTypeObjet() : String </text>
<text text-anchor="start" x="75" y="-268" font-family="arial" font-size="10.00"> &#160;toString() : String </text>
<text text-anchor="start" x="75" y="-255" font-family="arial" font-size="10.00"> &#160;affiche() </text>
</a>
</g>
<g><a xlink:href="./ObjetPostal.html" xlink:title="&lt;TABLE&gt;">
</a>
</g>
</g>
<!-- c33 -->
<g id="node3" class="node"><title>c33</title>
<g id="a_node3"><a xlink:href="./Lettre.html" xlink:title="&lt;TABLE&gt;">
</a>
</g>
<g id="a_node3_1"><a xlink:href="./Lettre.html" xlink:title="tp3.Lettre">
<polygon fill="none" stroke="black" points="8,-146 8,-165 124,-165 124,-146 8,-146"/>
<text text-anchor="start" x="50.5" y="-153" font-family="arial" font-size="10.00"> Lettre </text>
<polygon fill="none" stroke="black" points="8,-114 8,-146 124,-146 124,-114 8,-114"/>
<text text-anchor="start" x="12" y="-134" font-family="arial" font-size="10.00"> &#160;urgente : boolean </text>
<text text-anchor="start" x="12" y="-121" font-family="arial" font-size="10.00"> &#160;tarifBase : double </text>
<polygon fill="none" stroke="black" points="8,-43 8,-114 124,-114 124,-43 8,-43"/>
<text text-anchor="start" x="12" y="-102" font-family="arial" font-size="10.00"> &#160;getTarifBase() : double </text>
<text text-anchor="start" x="12" y="-89" font-family="arial" font-size="10.00"> &#160;tarifAff() : double </text>
<text text-anchor="start" x="12" y="-76" font-family="arial" font-size="10.00"> &#160;tarifRemb() : double </text>
<text text-anchor="start" x="12" y="-63" font-family="arial" font-size="10.00"> &#160;getTypeObjet() : String </text>
<text text-anchor="start" x="12" y="-50" font-family="arial" font-size="10.00"> &#160;toString() : String </text>
</a>
</g>
<g><a xlink:href="./Lettre.html" xlink:title="&lt;TABLE&gt;">
</a>
</g>
</g>
<!-- c32&#45;&gt;c33 -->
<g id="edge2" class="edge"><title>c32:p&#45;&gt;c33:p</title>
<path fill="none" stroke="black" d="M103.814,-237.974C96.3481,-211.718 89.1661,-186.463 83.1043,-165.147"/>
<polygon fill="none" stroke="black" points="100.475,-239.025 106.576,-247.686 107.208,-237.11 100.475,-239.025"/>
</g>
<!-- c35 -->
<g id="node4" class="node"><title>c35</title>
<g id="a_node4"><a xlink:href="./Colis.html" xlink:title="&lt;TABLE&gt;">
</a>
</g>
<g id="a_node4_2"><a xlink:href="./Colis.html" xlink:title="tp3.Colis">
<polygon fill="none" stroke="black" points="159,-185 159,-204 340,-204 340,-185 159,-185"/>
<text text-anchor="start" x="235.5" y="-192" font-family="arial" font-size="10.00"> Colis </text>
<polygon fill="none" stroke="black" points="159,-140 159,-185 340,-185 340,-140 159,-140"/>
<text text-anchor="start" x="163" y="-173" font-family="arial" font-size="10.00"> &#160;declContenu : String </text>
<text text-anchor="start" x="163" y="-160" font-family="arial" font-size="10.00"> &#160;valeurDecl : double </text>
<text text-anchor="start" x="163" y="-147" font-family="arial" font-size="10.00"> &#160;tarifBase : double </text>
<polygon fill="none" stroke="black" points="159,-4 159,-140 340,-140 340,-4 159,-4"/>
<text text-anchor="start" x="163" y="-128" font-family="arial" font-size="10.00"> &#160;getDeclContenu() : String </text>
<text text-anchor="start" x="163" y="-115" font-family="arial" font-size="10.00"> &#160;setDeclContenu(declContenu : String) </text>
<text text-anchor="start" x="163" y="-102" font-family="arial" font-size="10.00"> &#160;getValeurDecl() : double </text>
<text text-anchor="start" x="163" y="-89" font-family="arial" font-size="10.00"> &#160;setValeurDecl(valeurDecl : double) </text>
<text text-anchor="start" x="163" y="-76" font-family="arial" font-size="10.00"> &#160;setTarifBase(tarifBase : double) </text>
<text text-anchor="start" x="163" y="-63" font-family="arial" font-size="10.00"> &#160;getTarifBase() : double </text>
<text text-anchor="start" x="163" y="-50" font-family="arial" font-size="10.00"> &#160;tarifAff() : double </text>
<text text-anchor="start" x="163" y="-37" font-family="arial" font-size="10.00"> &#160;tarifRemb() : double </text>
<text text-anchor="start" x="163" y="-24" font-family="arial" font-size="10.00"> &#160;getTypeObjet() : String </text>
<text text-anchor="start" x="163" y="-11" font-family="arial" font-size="10.00"> &#160;toString() : String </text>
</a>
</g>
<g><a xlink:href="./Colis.html" xlink:title="&lt;TABLE&gt;">
</a>
</g>
</g>
<!-- c32&#45;&gt;c35 -->
<g id="edge3" class="edge"><title>c32:p&#45;&gt;c35:p</title>
<path fill="none" stroke="black" d="M210.77,-237.974C214.081,-226.458 217.336,-215.135 220.465,-204.252"/>
<polygon fill="none" stroke="black" points="207.377,-237.109 207.978,-247.686 214.105,-239.043 207.377,-237.109"/>
</g>
<!-- n0cc32 -->
<g id="node2" class="node"><title>n0cc32</title>
<polygon fill="none" stroke="black" points="200.5,-680 107.5,-680 107.5,-644 206.5,-644 206.5,-674 200.5,-680"/>
<polyline fill="none" stroke="black" points="200.5,-680 200.5,-674 "/>
<polyline fill="none" stroke="black" points="206.5,-674 200.5,-674 "/>
<g id="a_node2_3"><a xlink:href="./ObjetPostal.html" xlink:title="tp3.ObjetPostal">
<text text-anchor="start" x="119" y="-659" font-family="arial" font-size="10.00"> Classe abstraite </text>
</a>
</g>
</g>
<!-- n0cc32&#45;&gt;c32 -->
<g id="edge1" class="edge"><title>n0cc32&#45;&gt;c32:p</title>
<path fill="none" stroke="black" d="M157,-643.793C157,-633.767 157,-619.997 157,-604.219"/>
</g>
</g>
</svg>
