<?xml version="1.0" encoding="UTF-8" standalone="no"?>
<!DOCTYPE svg PUBLIC "-//W3C//DTD SVG 1.1//EN"
 "http://www.w3.org/Graphics/SVG/1.1/DTD/svg11.dtd">
<!-- Generated by graphviz version 2.38.0 (20140413.2041)
 -->
<!-- Title: G Pages: 1 -->
<svg width="126pt" height="73pt"
 viewBox="0.00 0.00 126.00 73.00" xmlns="http://www.w3.org/2000/svg" xmlns:xlink="http://www.w3.org/1999/xlink">
<g id="graph0" class="graph" transform="scale(1 1) rotate(0) translate(4 69)">
<title>G</title>
<polygon fill="white" stroke="none" points="-4,4 -4,-69 122,-69 122,4 -4,4"/>
<!-- c37 -->
<g id="node1" class="node"><title>c37</title>
<g id="a_node1"><a xlink:href="./ProgrammePoste.html" xlink:title="&lt;TABLE&gt;">
</a>
</g>
<g id="a_node1_0"><a xlink:href="./ProgrammePoste.html" xlink:title="tp3.ProgrammePoste">
<polygon fill="lemonChiffon" stroke="none" points="8,-4 8,-61 110,-61 110,-4 8,-4"/>
<polygon fill="none" stroke="black" points="8,-41.5 8,-60.5 110,-60.5 110,-41.5 8,-41.5"/>
<text text-anchor="start" x="18" y="-48.5" font-family="arial" font-size="10.00"> ProgrammePoste </text>
<polygon fill="none" stroke="black" points="8,-22.5 8,-41.5 110,-41.5 110,-22.5 8,-22.5"/>
<text text-anchor="start" x="12" y="-29.5" font-family="arial" font-size="10.00"> &#160;</text>
<polygon fill="none" stroke="black" points="8,-3.5 8,-22.5 110,-22.5 110,-3.5 8,-3.5"/>
<text text-anchor="start" x="12" y="-10.5" font-family="arial" font-size="10.00"> &#160;main(argv : String[]) </text>
</a>
</g>
<g><a xlink:href="./ProgrammePoste.html" xlink:title="&lt;TABLE&gt;">
</a>
</g>
</g>
</g>
</svg>
