<?xml version="1.0" encoding="UTF-8" standalone="no"?>
<!DOCTYPE svg PUBLIC "-//W3C//DTD SVG 1.1//EN"
 "http://www.w3.org/Graphics/SVG/1.1/DTD/svg11.dtd">
<!-- Generated by graphviz version 2.38.0 (20140413.2041)
 -->
<!-- Title: G Pages: 1 -->
<svg width="506pt" height="1052pt"
 viewBox="0.00 0.00 506.00 1052.00" xmlns="http://www.w3.org/2000/svg" xmlns:xlink="http://www.w3.org/1999/xlink">
<g id="graph0" class="graph" transform="scale(1 1) rotate(0) translate(4 1048)">
<title>G</title>
<polygon fill="white" stroke="none" points="-4,4 -4,-1048 502,-1048 502,4 -4,4"/>
<!-- c0 -->
<g id="node1" class="node"><title>c0</title>
<g id="a_node1"><a xlink:href="./TauxRecom.html" xlink:title="&lt;TABLE&gt;">
</a>
</g>
<g id="a_node1_0"><a xlink:href="./TauxRecom.html" xlink:title="tp3.TauxRecom">
<polygon fill="none" stroke="black" points="8,-1004.5 8,-1036.5 86,-1036.5 86,-1004.5 8,-1004.5"/>
<text text-anchor="start" x="12" y="-1024.5" font-family="arial" font-size="10.00"> «enumeration» </text>
<text text-anchor="start" x="18" y="-1011.5" font-family="arial" font-size="10.00"> TauxRecom </text>
<polygon fill="none" stroke="black" points="8,-985.5 8,-1004.5 86,-1004.5 86,-985.5 8,-985.5"/>
<text text-anchor="start" x="12" y="-992.5" font-family="arial" font-size="10.00"> &#160;</text>
</a>
</g>
<g><a xlink:href="./TauxRecom.html" xlink:title="&lt;TABLE&gt;">
</a>
</g>
</g>
<!-- c1 -->
<g id="node2" class="node"><title>c1</title>
<g id="a_node2"><a xlink:href="./ProgrammePoste.html" xlink:title="&lt;TABLE&gt;">
</a>
</g>
<g id="a_node2_1"><a xlink:href="./ProgrammePoste.html" xlink:title="tp3.ProgrammePoste">
<polygon fill="none" stroke="black" points="120,-1020.5 120,-1039.5 222,-1039.5 222,-1020.5 120,-1020.5"/>
<text text-anchor="start" x="130" y="-1027.5" font-family="arial" font-size="10.00"> ProgrammePoste </text>
<polygon fill="none" stroke="black" points="120,-1001.5 120,-1020.5 222,-1020.5 222,-1001.5 120,-1001.5"/>
<text text-anchor="start" x="124" y="-1008.5" font-family="arial" font-size="10.00"> &#160;</text>
<polygon fill="none" stroke="black" points="120,-982.5 120,-1001.5 222,-1001.5 222,-982.5 120,-982.5"/>
<text text-anchor="start" x="124" y="-989.5" font-family="arial" font-size="10.00"> &#160;main(argv : String[]) </text>
</a>
</g>
<g><a xlink:href="./ProgrammePoste.html" xlink:title="&lt;TABLE&gt;">
</a>
</g>
</g>
<!-- c2 -->
<g id="node3" class="node"><title>c2</title>
<g id="a_node3"><a xlink:href="./ObjetPostal.html" xlink:title="&lt;TABLE&gt;">
</a>
</g>
<g id="a_node3_2"><a xlink:href="./ObjetPostal.html" xlink:title="tp3.ObjetPostal">
<polygon fill="none" stroke="black" points="212,-907 212,-939 384,-939 384,-907 212,-907"/>
<text text-anchor="start" x="272" y="-927" font-family="arial" font-size="10.00"> «abstract» </text>
<text text-anchor="start" x="269" y="-914" font-family="arial italic" font-size="10.00"> ObjetPostal </text>
<polygon fill="none" stroke="black" points="212,-823 212,-907 384,-907 384,-823 212,-823"/>
<text text-anchor="start" x="216" y="-895" font-family="arial" font-size="10.00"> &#160;origine : String </text>
<text text-anchor="start" x="216" y="-882" font-family="arial" font-size="10.00"> &#160;destination : String </text>
<text text-anchor="start" x="216" y="-869" font-family="arial" font-size="10.00"> &#160;codePostal : String </text>
<text text-anchor="start" x="216" y="-856" font-family="arial" font-size="10.00"> &#160;poids : double </text>
<text text-anchor="start" x="216" y="-843" font-family="arial" font-size="10.00"> &#160;volume : double </text>
<text text-anchor="start" x="216" y="-830" font-family="arial" font-size="10.00"> &#160;tauxRec : TauxRecom </text>
<polygon fill="none" stroke="black" points="212,-583 212,-823 384,-823 384,-583 212,-583"/>
<text text-anchor="start" x="216" y="-811" font-family="arial" font-size="10.00"> &#160;getOrigine() : String </text>
<text text-anchor="start" x="216" y="-798" font-family="arial" font-size="10.00"> &#160;setOrigine(origine : String) </text>
<text text-anchor="start" x="216" y="-785" font-family="arial" font-size="10.00"> &#160;getDestination() : String </text>
<text text-anchor="start" x="216" y="-772" font-family="arial" font-size="10.00"> &#160;setDestination(destination : String) </text>
<text text-anchor="start" x="216" y="-759" font-family="arial" font-size="10.00"> &#160;getCodePostal() : String </text>
<text text-anchor="start" x="216" y="-746" font-family="arial" font-size="10.00"> &#160;setCodePostal(codePostal : String) </text>
<text text-anchor="start" x="216" y="-733" font-family="arial" font-size="10.00"> &#160;getPoids() : double </text>
<text text-anchor="start" x="216" y="-720" font-family="arial" font-size="10.00"> &#160;setPoids(poids : double) </text>
<text text-anchor="start" x="216" y="-707" font-family="arial" font-size="10.00"> &#160;getVolume() : double </text>
<text text-anchor="start" x="216" y="-694" font-family="arial" font-size="10.00"> &#160;setVolume(volume : double) </text>
<text text-anchor="start" x="216" y="-681" font-family="arial" font-size="10.00"> &#160;getTauxRec() : TauxRecom </text>
<text text-anchor="start" x="216" y="-668" font-family="arial" font-size="10.00"> &#160;setTauxRec(tauxRec : TauxRecom) </text>
<text text-anchor="start" x="216" y="-655" font-family="arial italic" font-size="10.00"> &#160;getTarifBase() : double </text>
<text text-anchor="start" x="216" y="-642" font-family="arial" font-size="10.00"> &#160;tarifAff() : double </text>
<text text-anchor="start" x="216" y="-629" font-family="arial italic" font-size="10.00"> &#160;tarifRemb() : double </text>
<text text-anchor="start" x="216" y="-616" font-family="arial italic" font-size="10.00"> &#160;getTypeObjet() : String </text>
<text text-anchor="start" x="216" y="-603" font-family="arial" font-size="10.00"> &#160;toString() : String </text>
<text text-anchor="start" x="216" y="-590" font-family="arial" font-size="10.00"> &#160;affiche() </text>
</a>
</g>
<g><a xlink:href="./ObjetPostal.html" xlink:title="&lt;TABLE&gt;">
</a>
</g>
</g>
<!-- c3 -->
<g id="node5" class="node"><title>c3</title>
<g id="a_node5"><a xlink:href="./Lettre.html" xlink:title="&lt;TABLE&gt;">
</a>
</g>
<g id="a_node5_3"><a xlink:href="./Lettre.html" xlink:title="tp3.Lettre">
<polygon fill="none" stroke="black" points="149,-481 149,-500 265,-500 265,-481 149,-481"/>
<text text-anchor="start" x="191.5" y="-488" font-family="arial" font-size="10.00"> Lettre </text>
<polygon fill="none" stroke="black" points="149,-449 149,-481 265,-481 265,-449 149,-449"/>
<text text-anchor="start" x="153" y="-469" font-family="arial" font-size="10.00"> &#160;urgente : boolean </text>
<text text-anchor="start" x="153" y="-456" font-family="arial" font-size="10.00"> &#160;tarifBase : double </text>
<polygon fill="none" stroke="black" points="149,-378 149,-449 265,-449 265,-378 149,-378"/>
<text text-anchor="start" x="153" y="-437" font-family="arial" font-size="10.00"> &#160;getTarifBase() : double </text>
<text text-anchor="start" x="153" y="-424" font-family="arial" font-size="10.00"> &#160;tarifAff() : double </text>
<text text-anchor="start" x="153" y="-411" font-family="arial" font-size="10.00"> &#160;tarifRemb() : double </text>
<text text-anchor="start" x="153" y="-398" font-family="arial" font-size="10.00"> &#160;getTypeObjet() : String </text>
<text text-anchor="start" x="153" y="-385" font-family="arial" font-size="10.00"> &#160;toString() : String </text>
</a>
</g>
<g><a xlink:href="./Lettre.html" xlink:title="&lt;TABLE&gt;">
</a>
</g>
</g>
<!-- c2&#45;&gt;c3 -->
<g id="edge2" class="edge"><title>c2:p&#45;&gt;c3:p</title>
<path fill="none" stroke="black" d="M244.814,-572.974C237.348,-546.718 230.166,-521.463 224.104,-500.147"/>
<polygon fill="none" stroke="black" points="241.475,-574.025 247.576,-582.686 248.208,-572.11 241.475,-574.025"/>
</g>
<!-- c5 -->
<g id="node7" class="node"><title>c5</title>
<g id="a_node7"><a xlink:href="./Colis.html" xlink:title="&lt;TABLE&gt;">
</a>
</g>
<g id="a_node7_4"><a xlink:href="./Colis.html" xlink:title="tp3.Colis">
<polygon fill="none" stroke="black" points="300,-520 300,-539 481,-539 481,-520 300,-520"/>
<text text-anchor="start" x="376.5" y="-527" font-family="arial" font-size="10.00"> Colis </text>
<polygon fill="none" stroke="black" points="300,-475 300,-520 481,-520 481,-475 300,-475"/>
<text text-anchor="start" x="304" y="-508" font-family="arial" font-size="10.00"> &#160;declContenu : String </text>
<text text-anchor="start" x="304" y="-495" font-family="arial" font-size="10.00"> &#160;valeurDecl : double </text>
<text text-anchor="start" x="304" y="-482" font-family="arial" font-size="10.00"> &#160;tarifBase : double </text>
<polygon fill="none" stroke="black" points="300,-339 300,-475 481,-475 481,-339 300,-339"/>
<text text-anchor="start" x="304" y="-463" font-family="arial" font-size="10.00"> &#160;getDeclContenu() : String </text>
<text text-anchor="start" x="304" y="-450" font-family="arial" font-size="10.00"> &#160;setDeclContenu(declContenu : String) </text>
<text text-anchor="start" x="304" y="-437" font-family="arial" font-size="10.00"> &#160;getValeurDecl() : double </text>
<text text-anchor="start" x="304" y="-424" font-family="arial" font-size="10.00"> &#160;setValeurDecl(valeurDecl : double) </text>
<text text-anchor="start" x="304" y="-411" font-family="arial" font-size="10.00"> &#160;setTarifBase(tarifBase : double) </text>
<text text-anchor="start" x="304" y="-398" font-family="arial" font-size="10.00"> &#160;getTarifBase() : double </text>
<text text-anchor="start" x="304" y="-385" font-family="arial" font-size="10.00"> &#160;tarifAff() : double </text>
<text text-anchor="start" x="304" y="-372" font-family="arial" font-size="10.00"> &#160;tarifRemb() : double </text>
<text text-anchor="start" x="304" y="-359" font-family="arial" font-size="10.00"> &#160;getTypeObjet() : String </text>
<text text-anchor="start" x="304" y="-346" font-family="arial" font-size="10.00"> &#160;toString() : String </text>
</a>
</g>
<g><a xlink:href="./Colis.html" xlink:title="&lt;TABLE&gt;">
</a>
</g>
</g>
<!-- c2&#45;&gt;c5 -->
<g id="edge4" class="edge"><title>c2:p&#45;&gt;c5:p</title>
<path fill="none" stroke="black" d="M351.77,-572.974C355.081,-561.458 358.336,-550.135 361.465,-539.252"/>
<polygon fill="none" stroke="black" points="348.377,-572.109 348.978,-582.686 355.105,-574.043 348.377,-572.109"/>
</g>
<!-- n0cc2 -->
<g id="node4" class="node"><title>n0cc2</title>
<polygon fill="none" stroke="black" points="341.5,-1029.5 248.5,-1029.5 248.5,-993.5 347.5,-993.5 347.5,-1023.5 341.5,-1029.5"/>
<polyline fill="none" stroke="black" points="341.5,-1029.5 341.5,-1023.5 "/>
<polyline fill="none" stroke="black" points="347.5,-1023.5 341.5,-1023.5 "/>
<g id="a_node4_5"><a xlink:href="./ObjetPostal.html" xlink:title="tp3.ObjetPostal">
<text text-anchor="start" x="260" y="-1008.5" font-family="arial" font-size="10.00"> Classe abstraite </text>
</a>
</g>
</g>
<!-- n0cc2&#45;&gt;c2 -->
<g id="edge1" class="edge"><title>n0cc2&#45;&gt;c2:p</title>
<path fill="none" stroke="black" d="M298,-993.42C298,-980.48 298,-961.213 298,-939.222"/>
</g>
<!-- c4 -->
<g id="node6" class="node"><title>c4</title>
<g id="a_node6"><a xlink:href="./ColisExpress.html" xlink:title="&lt;TABLE&gt;">
</a>
</g>
<g id="a_node6_6"><a xlink:href="./ColisExpress.html" xlink:title="tp3.ColisExpress">
<polygon fill="none" stroke="black" points="290,-275.5 290,-294.5 490,-294.5 490,-275.5 290,-275.5"/>
<text text-anchor="start" x="358" y="-282.5" font-family="arial" font-size="10.00"> ColisExpress </text>
<polygon fill="none" stroke="black" points="290,-191.5 290,-275.5 490,-275.5 490,-191.5 290,-191.5"/>
<text text-anchor="start" x="294" y="-263.5" font-family="arial" font-size="10.00"> &#160;dateEnvoi : Date </text>
<text text-anchor="start" x="294" y="-250.5" font-family="arial" font-size="10.00"> &#160;numeroSuivi : int </text>
<text text-anchor="start" x="294" y="-237.5" font-family="arial" font-size="10.00"> &#160;emballage : boolean </text>
<text text-anchor="start" x="294" y="-224.5" font-family="arial" font-size="10.00"> &#160;numeroCourant : int </text>
<text text-anchor="start" x="294" y="-211.5" font-family="arial" font-size="10.00"> &#160;tarifEmballage : double </text>
<text text-anchor="start" x="294" y="-198.5" font-family="arial" font-size="10.00"> &#160;tarifBase : double </text>
<polygon fill="none" stroke="black" points="290,-3.5 290,-191.5 490,-191.5 490,-3.5 290,-3.5"/>
<text text-anchor="start" x="294" y="-179.5" font-family="arial" font-size="10.00"> &#160;getDateEnvoi() : Date </text>
<text text-anchor="start" x="294" y="-166.5" font-family="arial" font-size="10.00"> &#160;setDateEnvoi(dateEnvoi : Date) </text>
<text text-anchor="start" x="294" y="-153.5" font-family="arial" font-size="10.00"> &#160;getNumeroSuivi() : int </text>
<text text-anchor="start" x="294" y="-140.5" font-family="arial" font-size="10.00"> &#160;isEmballage() : boolean </text>
<text text-anchor="start" x="294" y="-127.5" font-family="arial" font-size="10.00"> &#160;setEmballage(emballage : boolean) </text>
<text text-anchor="start" x="294" y="-114.5" font-family="arial" font-size="10.00"> &#160;getNumeroCourant() : int </text>
<text text-anchor="start" x="294" y="-101.5" font-family="arial" font-size="10.00"> &#160;setNumeroCourant(numeroCourant : int) </text>
<text text-anchor="start" x="294" y="-88.5" font-family="arial" font-size="10.00"> &#160;getTarifEmballage() : double </text>
<text text-anchor="start" x="294" y="-75.5" font-family="arial" font-size="10.00"> &#160;setTarifEmballage(tarifEmballage : double) </text>
<text text-anchor="start" x="294" y="-62.5" font-family="arial" font-size="10.00"> &#160;getTarifBase() : double </text>
<text text-anchor="start" x="294" y="-49.5" font-family="arial" font-size="10.00"> &#160;tarifAff() : double </text>
<text text-anchor="start" x="294" y="-36.5" font-family="arial" font-size="10.00"> &#160;getTypeObjet() : String </text>
<text text-anchor="start" x="294" y="-23.5" font-family="arial" font-size="10.00"> &#160;toString() : String </text>
<text text-anchor="start" x="294" y="-10.5" font-family="arial" font-size="10.00"> &#160;setPoids(poids : double) </text>
</a>
</g>
<g><a xlink:href="./ColisExpress.html" xlink:title="&lt;TABLE&gt;">
</a>
</g>
</g>
<!-- c5&#45;&gt;c4 -->
<g id="edge3" class="edge"><title>c5:p&#45;&gt;c4:p</title>
<path fill="none" stroke="black" d="M390,-328.631C390,-317.619 390,-306.32 390,-295.016"/>
<polygon fill="none" stroke="black" points="386.5,-328.656 390,-338.656 393.5,-328.656 386.5,-328.656"/>
</g>
</g>
</svg>
