<?xml version="1.0" encoding="UTF-8" standalone="no"?>
<!DOCTYPE svg PUBLIC "-//W3C//DTD SVG 1.1//EN"
 "http://www.w3.org/Graphics/SVG/1.1/DTD/svg11.dtd">
<!-- Generated by graphviz version 2.38.0 (20140413.2041)
 -->
<!-- Title: G Pages: 1 -->
<svg width="984pt" height="449pt"
 viewBox="0.00 0.00 984.00 449.00" xmlns="http://www.w3.org/2000/svg" xmlns:xlink="http://www.w3.org/1999/xlink">
<g id="graph0" class="graph" transform="scale(1 1) rotate(0) translate(4 445)">
<title>G</title>
<polygon fill="white" stroke="none" points="-4,4 -4,-445 980,-445 980,4 -4,4"/>
<!-- c84 -->
<g id="node1" class="node"><title>c84</title>
<g id="a_node1"><a xlink:href="./SacPostal.html" xlink:title="&lt;TABLE&gt;">
</a>
</g>
<g id="a_node1_0"><a xlink:href="./SacPostal.html" xlink:title="tp3.SacPostal">
<polygon fill="lemonChiffon" stroke="none" points="8,-159 8,-437 289,-437 289,-159 8,-159"/>
<polygon fill="none" stroke="black" points="8.5,-418 8.5,-437 289.5,-437 289.5,-418 8.5,-418"/>
<text text-anchor="start" x="123" y="-425" font-family="arial" font-size="10.00"> SacPostal </text>
<polygon fill="none" stroke="black" points="8.5,-373 8.5,-418 289.5,-418 289.5,-373 8.5,-373"/>
<text text-anchor="start" x="12.5" y="-406" font-family="arial" font-size="10.00"> &#45; CAPACITE_MAX : double </text>
<text text-anchor="start" x="12.5" y="-393" font-family="arial" font-size="10.00"> &#45; VOLUME_SAC : double </text>
<text text-anchor="start" x="12.5" y="-380" font-family="arial" font-size="10.00"> &#45; capacite : double </text>
<polygon fill="none" stroke="black" points="8.5,-159 8.5,-373 289.5,-373 289.5,-159 8.5,-159"/>
<text text-anchor="start" x="12.5" y="-361" font-family="arial" font-size="10.00"> «create» </text>
<text text-anchor="start" x="12.5" y="-348" font-family="arial" font-size="10.00"> + SacPostal() </text>
<text text-anchor="start" x="12.5" y="-335" font-family="arial" font-size="10.00"> «create» </text>
<text text-anchor="start" x="12.5" y="-322" font-family="arial" font-size="10.00"> + SacPostal(capacite : float) </text>
<text text-anchor="start" x="12.5" y="-309" font-family="arial" font-size="10.00"> + init(s : SacPostal, codePostal : String) </text>
<text text-anchor="start" x="12.5" y="-296" font-family="arial" font-size="10.00"> + ajouterObjet(o : ObjetPostal) </text>
<text text-anchor="start" x="12.5" y="-283" font-family="arial" font-size="10.00"> «query» </text>
<text text-anchor="start" x="12.5" y="-270" font-family="arial" font-size="10.00"> + getVolumeOccupe() : double </text>
<text text-anchor="start" x="12.5" y="-257" font-family="arial" font-size="10.00"> &#45; arrondi(precision : int, valeur : double) : double </text>
<text text-anchor="start" x="12.5" y="-244" font-family="arial" font-size="10.00"> «query» </text>
<text text-anchor="start" x="12.5" y="-231" font-family="arial" font-size="10.00"> + getValeurRemboursement() : double </text>
<text text-anchor="start" x="12.5" y="-218" font-family="arial" font-size="10.00"> + getObjetsPostaux() : ArrayList&lt;ObjetPostal&gt; </text>
<text text-anchor="start" x="12.5" y="-205" font-family="arial" font-size="10.00"> + setObjetsPostaux(objetsPostaux : ArrayList&lt;ObjetPostal&gt;) </text>
<text text-anchor="start" x="12.5" y="-192" font-family="arial" font-size="10.00"> + getCapacite() : double </text>
<text text-anchor="start" x="12.5" y="-179" font-family="arial" font-size="10.00"> + setCapacite(capacite : double) </text>
<text text-anchor="start" x="12.5" y="-166" font-family="arial" font-size="10.00"> + main(args : String[]) </text>
</a>
</g>
<g><a xlink:href="./SacPostal.html" xlink:title="&lt;TABLE&gt;">
</a>
</g>
</g>
<!-- c86 -->
<g id="node2" class="node"><title>c86</title>
<g id="a_node2"><a xlink:href="./ObjetPostal.html" xlink:title="&lt;TABLE&gt;">
</a>
</g>
<g id="a_node2_1"><a xlink:href="./ObjetPostal.html" xlink:title="tp3.ObjetPostal">
<polygon fill="none" stroke="black" points="404,-380 404,-412 968,-412 968,-380 404,-380"/>
<text text-anchor="start" x="660" y="-400" font-family="arial" font-size="10.00"> «abstract» </text>
<text text-anchor="start" x="657" y="-387" font-family="arial italic" font-size="10.00"> ObjetPostal </text>
<polygon fill="none" stroke="black" points="404,-296 404,-380 968,-380 968,-296 404,-296"/>
<text text-anchor="start" x="408" y="-368" font-family="arial" font-size="10.00"> &#45; origine : String </text>
<text text-anchor="start" x="408" y="-355" font-family="arial" font-size="10.00"> &#45; destination : String </text>
<text text-anchor="start" x="408" y="-342" font-family="arial" font-size="10.00"> &#45; codePostal : String </text>
<text text-anchor="start" x="408" y="-329" font-family="arial" font-size="10.00"> &#45; poids : double </text>
<text text-anchor="start" x="408" y="-316" font-family="arial" font-size="10.00"> &#45; volume : double </text>
<text text-anchor="start" x="408" y="-303" font-family="arial" font-size="10.00"> &#45; tauxRec : TauxRecom </text>
<polygon fill="none" stroke="black" points="404,-4 404,-296 968,-296 968,-4 404,-4"/>
<text text-anchor="start" x="408" y="-284" font-family="arial" font-size="10.00"> «create» </text>
<text text-anchor="start" x="408" y="-271" font-family="arial" font-size="10.00"> + ObjetPostal() </text>
<text text-anchor="start" x="408" y="-258" font-family="arial" font-size="10.00"> «create» </text>
<text text-anchor="start" x="408" y="-245" font-family="arial" font-size="10.00"> + ObjetPostal(origine : String, destination : String, codePostal : String, poids : double, volume : double, tauxRec : TauxRecom) </text>
<text text-anchor="start" x="408" y="-232" font-family="arial" font-size="10.00"> + getOrigine() : String </text>
<text text-anchor="start" x="408" y="-219" font-family="arial" font-size="10.00"> + setOrigine(origine : String) </text>
<text text-anchor="start" x="408" y="-206" font-family="arial" font-size="10.00"> + getDestination() : String </text>
<text text-anchor="start" x="408" y="-193" font-family="arial" font-size="10.00"> + setDestination(destination : String) </text>
<text text-anchor="start" x="408" y="-180" font-family="arial" font-size="10.00"> + getCodePostal() : String </text>
<text text-anchor="start" x="408" y="-167" font-family="arial" font-size="10.00"> + setCodePostal(codePostal : String) </text>
<text text-anchor="start" x="408" y="-154" font-family="arial" font-size="10.00"> + getPoids() : double </text>
<text text-anchor="start" x="408" y="-141" font-family="arial" font-size="10.00"> + setPoids(poids : double) </text>
<text text-anchor="start" x="408" y="-128" font-family="arial" font-size="10.00"> + getVolume() : double </text>
<text text-anchor="start" x="408" y="-115" font-family="arial" font-size="10.00"> + setVolume(volume : double) </text>
<text text-anchor="start" x="408" y="-102" font-family="arial" font-size="10.00"> + getTauxRec() : TauxRecom </text>
<text text-anchor="start" x="408" y="-89" font-family="arial" font-size="10.00"> + setTauxRec(tauxRec : TauxRecom) </text>
<text text-anchor="start" x="408" y="-76" font-family="arial italic" font-size="10.00"> + getTarifBase() : double </text>
<text text-anchor="start" x="408" y="-63" font-family="arial" font-size="10.00"> + tarifAff() : double </text>
<text text-anchor="start" x="408" y="-50" font-family="arial italic" font-size="10.00"> + tarifRemb() : double </text>
<text text-anchor="start" x="408" y="-37" font-family="arial italic" font-size="10.00"> + getTypeObjet() : String </text>
<text text-anchor="start" x="408" y="-24" font-family="arial" font-size="10.00"> + toString() : String </text>
<text text-anchor="start" x="408" y="-11" font-family="arial" font-size="10.00"> + affiche() </text>
</a>
</g>
<g><a xlink:href="./ObjetPostal.html" xlink:title="&lt;TABLE&gt;">
</a>
</g>
</g>
<!-- c84&#45;&gt;c86 -->
<g id="edge2" class="edge"><title>c84:p&#45;&gt;c86:p</title>
<path fill="none" stroke="black" d="M301.352,-272.479C333.564,-267.065 368.549,-261.185 403.846,-255.253"/>
<polygon fill="none" stroke="black" points="300.982,-272.541 295.728,-277.48 289.148,-274.53 294.402,-269.591 300.982,-272.541"/>
<text text-anchor="middle" x="346.5" y="-271" font-family="arial" font-size="10.00">objetsPostaux</text>
<text text-anchor="middle" x="401.846" y="-247.253" font-family="arial" font-size="10.00">*</text>
<text text-anchor="middle" x="286.148" y="-266.53" font-family="arial" font-size="10.00">1</text>
</g>
<!-- n0cc86 -->
<g id="node3" class="node"><title>n0cc86</title>
<polygon fill="none" stroke="black" points="192,-137 99,-137 99,-101 198,-101 198,-131 192,-137"/>
<polyline fill="none" stroke="black" points="192,-137 192,-131 "/>
<polyline fill="none" stroke="black" points="198,-131 192,-131 "/>
<g id="a_node3_2"><a xlink:href="./ObjetPostal.html" xlink:title="tp3.ObjetPostal">
<text text-anchor="start" x="110.5" y="-116" font-family="arial" font-size="10.00"> Classe abstraite </text>
</a>
</g>
</g>
<!-- n0cc86&#45;&gt;c86 -->
<g id="edge1" class="edge"><title>n0cc86&#45;&gt;c86:p</title>
<path fill="none" stroke="black" d="M198.442,-127.134C246.659,-135.148 324.434,-148.074 403.789,-161.263"/>
</g>
</g>
</svg>
