<?xml version="1.0" encoding="UTF-8" standalone="no"?>
<!DOCTYPE svg PUBLIC "-//W3C//DTD SVG 1.1//EN"
 "http://www.w3.org/Graphics/SVG/1.1/DTD/svg11.dtd">
<!-- Generated by graphviz version 2.38.0 (20140413.2041)
 -->
<!-- Title: G Pages: 1 -->
<svg width="202pt" height="86pt"
 viewBox="0.00 0.00 202.00 86.00" xmlns="http://www.w3.org/2000/svg" xmlns:xlink="http://www.w3.org/1999/xlink">
<g id="graph0" class="graph" transform="scale(1 1) rotate(0) translate(4 82)">
<title>G</title>
<polygon fill="white" stroke="none" points="-4,4 -4,-82 198,-82 198,4 -4,4"/>
<!-- c40 -->
<g id="node1" class="node"><title>c40</title>
<g id="a_node1"><a xlink:href="./NoticeMontage.html" xlink:title="&lt;TABLE&gt;">
</a>
</g>
<g id="a_node1_0"><a xlink:href="./NoticeMontage.html" xlink:title="tp8.NoticeMontage">
<polygon fill="lemonChiffon" stroke="none" points="8,-4 8,-74 186,-74 186,-4 8,-4"/>
<polygon fill="none" stroke="black" points="8,-55 8,-74 186,-74 186,-55 8,-55"/>
<text text-anchor="start" x="61" y="-62" font-family="arial" font-size="10.00"> NoticeMontage </text>
<polygon fill="none" stroke="black" points="8,-36 8,-55 186,-55 186,-36 8,-36"/>
<text text-anchor="start" x="12" y="-43" font-family="arial" font-size="10.00"> &#160;</text>
<polygon fill="none" stroke="black" points="8,-4 8,-36 186,-36 186,-4 8,-4"/>
<text text-anchor="start" x="12" y="-24" font-family="arial" font-size="10.00"> + getInstructions() : String </text>
<text text-anchor="start" x="12" y="-11" font-family="arial" font-size="10.00"> + setInstructions(instructions : String) </text>
</a>
</g>
<g><a xlink:href="./NoticeMontage.html" xlink:title="&lt;TABLE&gt;">
</a>
</g>
</g>
</g>
</svg>
