<?xml version="1.0" encoding="UTF-8" standalone="no"?>
<!DOCTYPE svg PUBLIC "-//W3C//DTD SVG 1.1//EN"
 "http://www.w3.org/Graphics/SVG/1.1/DTD/svg11.dtd">
<!-- Generated by graphviz version 2.38.0 (20140413.2041)
 -->
<!-- Title: G Pages: 1 -->
<svg width="712pt" height="338pt"
 viewBox="0.00 0.00 712.00 338.00" xmlns="http://www.w3.org/2000/svg" xmlns:xlink="http://www.w3.org/1999/xlink">
<g id="graph0" class="graph" transform="scale(1 1) rotate(0) translate(4 334)">
<title>G</title>
<polygon fill="white" stroke="none" points="-4,4 -4,-334 708,-334 708,4 -4,4"/>
<!-- c59 -->
<g id="node1" class="node"><title>c59</title>
<g id="a_node1"><a xlink:href="./PieceMontee.html" xlink:title="&lt;TABLE&gt;">
</a>
</g>
<g id="a_node1_0"><a xlink:href="./PieceMontee.html" xlink:title="tp8.PieceMontee">
<polygon fill="none" stroke="black" points="509.5,-306.5 509.5,-325.5 696.5,-325.5 696.5,-306.5 509.5,-306.5"/>
<text text-anchor="start" x="571" y="-313.5" font-family="arial" font-size="10.00"> PieceMontee </text>
<polygon fill="none" stroke="black" points="509.5,-287.5 509.5,-306.5 696.5,-306.5 696.5,-287.5 509.5,-287.5"/>
<text text-anchor="start" x="513.5" y="-294.5" font-family="arial" font-size="10.00"> &#160;</text>
<polygon fill="none" stroke="black" points="509.5,-164.5 509.5,-287.5 696.5,-287.5 696.5,-164.5 509.5,-164.5"/>
<text text-anchor="start" x="513.5" y="-275.5" font-family="arial" font-size="10.00"> + getDureeMontage() : int </text>
<text text-anchor="start" x="513.5" y="-262.5" font-family="arial" font-size="10.00"> + setDureeMontage(dureeMontage : int) </text>
<text text-anchor="start" x="513.5" y="-249.5" font-family="arial" font-size="10.00"> + dureeGarantie() : int </text>
<text text-anchor="start" x="513.5" y="-236.5" font-family="arial" font-size="10.00"> + dureeFabrication() : int </text>
<text text-anchor="start" x="513.5" y="-223.5" font-family="arial" font-size="10.00"> + prix() : int </text>
<text text-anchor="start" x="513.5" y="-210.5" font-family="arial" font-size="10.00"> + afficheInfoSupplementaires() </text>
<text text-anchor="start" x="513.5" y="-197.5" font-family="arial" font-size="10.00"> # getPrefixe() : String </text>
<text text-anchor="start" x="513.5" y="-184.5" font-family="arial" font-size="10.00"> + getPrixMontage() : int </text>
<text text-anchor="start" x="513.5" y="-171.5" font-family="arial" font-size="10.00"> + setPrixMontage(prixMontage : int) </text>
</a>
</g>
<g><a xlink:href="./PieceMontee.html" xlink:title="&lt;TABLE&gt;">
</a>
</g>
</g>
<!-- c60 -->
<g id="node2" class="node"><title>c60</title>
<g id="a_node2"><a xlink:href="./PieceEnKit.html" xlink:title="&lt;TABLE&gt;">
</a>
</g>
<g id="a_node2_1"><a xlink:href="./PieceEnKit.html" xlink:title="tp8.PieceEnKit">
<polygon fill="none" stroke="black" points="517.5,-119.5 517.5,-138.5 688.5,-138.5 688.5,-119.5 517.5,-119.5"/>
<text text-anchor="start" x="575.5" y="-126.5" font-family="arial" font-size="10.00"> PieceEnKit </text>
<polygon fill="none" stroke="black" points="517.5,-100.5 517.5,-119.5 688.5,-119.5 688.5,-100.5 517.5,-100.5"/>
<text text-anchor="start" x="521.5" y="-107.5" font-family="arial" font-size="10.00"> &#160;</text>
<polygon fill="none" stroke="black" points="517.5,-3.5 517.5,-100.5 688.5,-100.5 688.5,-3.5 517.5,-3.5"/>
<text text-anchor="start" x="521.5" y="-88.5" font-family="arial" font-size="10.00"> + getNotice() : NoticeMontage </text>
<text text-anchor="start" x="521.5" y="-75.5" font-family="arial" font-size="10.00"> + setNotice(notice : NoticeMontage) </text>
<text text-anchor="start" x="521.5" y="-62.5" font-family="arial" font-size="10.00"> + dureeGarantie() : int </text>
<text text-anchor="start" x="521.5" y="-49.5" font-family="arial" font-size="10.00"> + dureeFabrication() : int </text>
<text text-anchor="start" x="521.5" y="-36.5" font-family="arial" font-size="10.00"> + afficheInfoSupplementaires() </text>
<text text-anchor="start" x="521.5" y="-23.5" font-family="arial" font-size="10.00"> &#45; dureeMontage() : String </text>
<text text-anchor="start" x="521.5" y="-10.5" font-family="arial" font-size="10.00"> # getPrefixe() : String </text>
</a>
</g>
<g><a xlink:href="./PieceEnKit.html" xlink:title="&lt;TABLE&gt;">
</a>
</g>
</g>
<!-- c61 -->
<g id="node3" class="node"><title>c61</title>
<g id="a_node3"><a xlink:href="./PieceComposite.html" xlink:title="&lt;TABLE&gt;">
</a>
</g>
<g id="a_node3_2"><a xlink:href="./PieceComposite.html" xlink:title="tp8.PieceComposite">
<polygon fill="lemonChiffon" stroke="none" points="221,-39 221,-278 457,-278 457,-39 221,-39"/>
<polygon fill="none" stroke="black" points="221,-245.5 221,-277.5 457,-277.5 457,-245.5 221,-245.5"/>
<text text-anchor="start" x="313" y="-265.5" font-family="arial" font-size="10.00"> «abstract» </text>
<text text-anchor="start" x="300" y="-252.5" font-family="arial italic" font-size="10.00"> PieceComposite </text>
<polygon fill="none" stroke="black" points="221,-226.5 221,-245.5 457,-245.5 457,-226.5 221,-226.5"/>
<text text-anchor="start" x="225" y="-233.5" font-family="arial" font-size="10.00"> &#160;</text>
<polygon fill="none" stroke="black" points="221,-38.5 221,-226.5 457,-226.5 457,-38.5 221,-38.5"/>
<text text-anchor="start" x="225" y="-214.5" font-family="arial" font-size="10.00"> + getComposants() : ArrayList&lt;Piece&gt; </text>
<text text-anchor="start" x="225" y="-201.5" font-family="arial" font-size="10.00"> + setComposants(composants : ArrayList&lt;Piece&gt;) </text>
<text text-anchor="start" x="225" y="-188.5" font-family="arial" font-size="10.00"> + getDureeMontage() : int </text>
<text text-anchor="start" x="225" y="-175.5" font-family="arial" font-size="10.00"> + setDureeMontage(dureeMontage : int) </text>
<text text-anchor="start" x="225" y="-162.5" font-family="arial" font-size="10.00"> + ajoute(p : Piece) </text>
<text text-anchor="start" x="225" y="-149.5" font-family="arial" font-size="10.00"> + toString(i : int) : String </text>
<text text-anchor="start" x="225" y="-136.5" font-family="arial" font-size="10.00"> + toString() : String </text>
<text text-anchor="start" x="225" y="-123.5" font-family="arial" font-size="10.00"> «abstract» </text>
<text text-anchor="start" x="225" y="-110.5" font-family="arial italic" font-size="10.00"> + afficheInfoSupplementaires() </text>
<text text-anchor="start" x="225" y="-97.5" font-family="arial" font-size="10.00"> # plusFaibleGarantie() : Piece </text>
<text text-anchor="start" x="225" y="-84.5" font-family="arial" font-size="10.00"> # plusGrandeDureeFabrication() : Piece </text>
<text text-anchor="start" x="225" y="-71.5" font-family="arial" font-size="10.00"> + affiche() </text>
<text text-anchor="start" x="225" y="-58.5" font-family="arial" font-size="10.00"> + prix() : int </text>
<text text-anchor="start" x="225" y="-45.5" font-family="arial" font-size="10.00"> + main(args : String[]) </text>
</a>
</g>
<g><a xlink:href="./PieceComposite.html" xlink:title="&lt;TABLE&gt;">
</a>
</g>
</g>
<!-- c61&#45;&gt;c59 -->
<g id="edge1" class="edge"><title>c61:p&#45;&gt;c59:p</title>
<path fill="none" stroke="black" d="M467.089,-200.782C481.16,-205.463 495.288,-210.164 508.82,-214.666"/>
<polygon fill="none" stroke="black" points="467.957,-197.382 457.364,-197.546 465.748,-204.024 467.957,-197.382"/>
</g>
<!-- c61&#45;&gt;c60 -->
<g id="edge2" class="edge"><title>c61:p&#45;&gt;c60:p</title>
<path fill="none" stroke="black" d="M467.213,-116.177C483.971,-110.602 500.806,-105.001 516.616,-99.7405"/>
<polygon fill="none" stroke="black" points="465.748,-112.976 457.364,-119.454 467.957,-119.618 465.748,-112.976"/>
</g>
<!-- c63 -->
<g id="node4" class="node"><title>c63</title>
<g id="a_node4"><a xlink:href="./Piece.html" xlink:title="&lt;TABLE&gt;">
</a>
</g>
<g id="a_node4_3"><a xlink:href="./Piece.html" xlink:title="tp8.Piece">
<polygon fill="none" stroke="black" points="8.5,-265.5 8.5,-297.5 169.5,-297.5 169.5,-265.5 8.5,-265.5"/>
<text text-anchor="start" x="63" y="-285.5" font-family="arial" font-size="10.00"> «abstract» </text>
<text text-anchor="start" x="73.5" y="-272.5" font-family="arial italic" font-size="10.00"> Piece </text>
<polygon fill="none" stroke="black" points="8.5,-246.5 8.5,-265.5 169.5,-265.5 169.5,-246.5 8.5,-246.5"/>
<text text-anchor="start" x="12.5" y="-253.5" font-family="arial" font-size="10.00"> &#160;</text>
<polygon fill="none" stroke="black" points="8.5,-19.5 8.5,-246.5 169.5,-246.5 169.5,-19.5 8.5,-19.5"/>
<text text-anchor="start" x="12.5" y="-234.5" font-family="arial" font-size="10.00"> «abstract» </text>
<text text-anchor="start" x="12.5" y="-221.5" font-family="arial italic" font-size="10.00"> + prix() : int </text>
<text text-anchor="start" x="12.5" y="-208.5" font-family="arial" font-size="10.00"> «abstract» </text>
<text text-anchor="start" x="12.5" y="-195.5" font-family="arial italic" font-size="10.00"> + dureeGarantie() : int </text>
<text text-anchor="start" x="12.5" y="-182.5" font-family="arial" font-size="10.00"> «abstract» </text>
<text text-anchor="start" x="12.5" y="-169.5" font-family="arial italic" font-size="10.00"> + dureeFabrication() : int </text>
<text text-anchor="start" x="12.5" y="-156.5" font-family="arial" font-size="10.00"> «abstract» </text>
<text text-anchor="start" x="12.5" y="-143.5" font-family="arial italic" font-size="10.00"> # getPrefixe() : String </text>
<text text-anchor="start" x="12.5" y="-130.5" font-family="arial" font-size="10.00"> + affiche() </text>
<text text-anchor="start" x="12.5" y="-117.5" font-family="arial" font-size="10.00"> + toString(i : int) : String </text>
<text text-anchor="start" x="12.5" y="-104.5" font-family="arial" font-size="10.00"> + toString() : String </text>
<text text-anchor="start" x="12.5" y="-91.5" font-family="arial" font-size="10.00"> # indentation(i : int) : String </text>
<text text-anchor="start" x="12.5" y="-78.5" font-family="arial" font-size="10.00"> + nouvelleReference() : String </text>
<text text-anchor="start" x="12.5" y="-65.5" font-family="arial" font-size="10.00"> + getReference() : String </text>
<text text-anchor="start" x="12.5" y="-52.5" font-family="arial" font-size="10.00"> + setReference(reference : String) </text>
<text text-anchor="start" x="12.5" y="-39.5" font-family="arial" font-size="10.00"> + getNom() : String </text>
<text text-anchor="start" x="12.5" y="-26.5" font-family="arial" font-size="10.00"> + setNom(nom : String) </text>
</a>
</g>
<g><a xlink:href="./Piece.html" xlink:title="&lt;TABLE&gt;">
</a>
</g>
</g>
<!-- c63&#45;&gt;c61 -->
<g id="edge3" class="edge"><title>c63:p&#45;&gt;c61:p</title>
<path fill="none" stroke="black" d="M179.325,-158.5C192.792,-158.5 206.845,-158.5 220.78,-158.5"/>
<polygon fill="none" stroke="black" points="179.152,-155 169.152,-158.5 179.152,-162 179.152,-155"/>
</g>
</g>
</svg>
