<?xml version="1.0" encoding="UTF-8" standalone="no"?>
<!DOCTYPE svg PUBLIC "-//W3C//DTD SVG 1.1//EN"
 "http://www.w3.org/Graphics/SVG/1.1/DTD/svg11.dtd">
<!-- Generated by graphviz version 2.38.0 (20140413.2041)
 -->
<!-- Title: G Pages: 1 -->
<svg width="445pt" height="294pt"
 viewBox="0.00 0.00 445.00 294.00" xmlns="http://www.w3.org/2000/svg" xmlns:xlink="http://www.w3.org/1999/xlink">
<g id="graph0" class="graph" transform="scale(1 1) rotate(0) translate(4 290)">
<title>G</title>
<polygon fill="white" stroke="none" points="-4,4 -4,-290 441,-290 441,4 -4,4"/>
<!-- c54 -->
<g id="node1" class="node"><title>c54</title>
<g id="a_node1"><a xlink:href="./PieceBasique.html" xlink:title="&lt;TABLE&gt;">
</a>
</g>
<g id="a_node1_0"><a xlink:href="./PieceBasique.html" xlink:title="tp8.PieceBasique">
<polygon fill="lemonChiffon" stroke="none" points="221,-56 221,-230 429,-230 429,-56 221,-56"/>
<polygon fill="none" stroke="black" points="221,-211 221,-230 429,-230 429,-211 221,-211"/>
<text text-anchor="start" x="291.5" y="-218" font-family="arial" font-size="10.00"> PieceBasique </text>
<polygon fill="none" stroke="black" points="221,-192 221,-211 429,-211 429,-192 221,-192"/>
<text text-anchor="start" x="225" y="-199" font-family="arial" font-size="10.00"> &#160;</text>
<polygon fill="none" stroke="black" points="221,-56 221,-192 429,-192 429,-56 221,-56"/>
<text text-anchor="start" x="225" y="-180" font-family="arial" font-size="10.00"> + dureeFabrication() : int </text>
<text text-anchor="start" x="225" y="-167" font-family="arial" font-size="10.00"> + getPrix() : int </text>
<text text-anchor="start" x="225" y="-154" font-family="arial" font-size="10.00"> + setPrix(prix : int) </text>
<text text-anchor="start" x="225" y="-141" font-family="arial" font-size="10.00"> + dureeGarantie() : int </text>
<text text-anchor="start" x="225" y="-128" font-family="arial" font-size="10.00"> + prix() : int </text>
<text text-anchor="start" x="225" y="-115" font-family="arial" font-size="10.00"> # getPrefixe() : String </text>
<text text-anchor="start" x="225" y="-102" font-family="arial" font-size="10.00"> + getDureeGarantie() : int </text>
<text text-anchor="start" x="225" y="-89" font-family="arial" font-size="10.00"> + setDureeGarantie(dureeGarantie : int) </text>
<text text-anchor="start" x="225" y="-76" font-family="arial" font-size="10.00"> + getDureeFabrication() : int </text>
<text text-anchor="start" x="225" y="-63" font-family="arial" font-size="10.00"> + setDureeFabrication(dureeFabrication : int) </text>
</a>
</g>
<g><a xlink:href="./PieceBasique.html" xlink:title="&lt;TABLE&gt;">
</a>
</g>
</g>
<!-- c55 -->
<g id="node2" class="node"><title>c55</title>
<g id="a_node2"><a xlink:href="./Piece.html" xlink:title="&lt;TABLE&gt;">
</a>
</g>
<g id="a_node2_1"><a xlink:href="./Piece.html" xlink:title="tp8.Piece">
<polygon fill="none" stroke="black" points="8.5,-250 8.5,-282 169.5,-282 169.5,-250 8.5,-250"/>
<text text-anchor="start" x="63" y="-270" font-family="arial" font-size="10.00"> «abstract» </text>
<text text-anchor="start" x="73.5" y="-257" font-family="arial italic" font-size="10.00"> Piece </text>
<polygon fill="none" stroke="black" points="8.5,-231 8.5,-250 169.5,-250 169.5,-231 8.5,-231"/>
<text text-anchor="start" x="12.5" y="-238" font-family="arial" font-size="10.00"> &#160;</text>
<polygon fill="none" stroke="black" points="8.5,-4 8.5,-231 169.5,-231 169.5,-4 8.5,-4"/>
<text text-anchor="start" x="12.5" y="-219" font-family="arial" font-size="10.00"> «abstract» </text>
<text text-anchor="start" x="12.5" y="-206" font-family="arial italic" font-size="10.00"> + prix() : int </text>
<text text-anchor="start" x="12.5" y="-193" font-family="arial" font-size="10.00"> «abstract» </text>
<text text-anchor="start" x="12.5" y="-180" font-family="arial italic" font-size="10.00"> + dureeGarantie() : int </text>
<text text-anchor="start" x="12.5" y="-167" font-family="arial" font-size="10.00"> «abstract» </text>
<text text-anchor="start" x="12.5" y="-154" font-family="arial italic" font-size="10.00"> + dureeFabrication() : int </text>
<text text-anchor="start" x="12.5" y="-141" font-family="arial" font-size="10.00"> «abstract» </text>
<text text-anchor="start" x="12.5" y="-128" font-family="arial italic" font-size="10.00"> # getPrefixe() : String </text>
<text text-anchor="start" x="12.5" y="-115" font-family="arial" font-size="10.00"> + affiche() </text>
<text text-anchor="start" x="12.5" y="-102" font-family="arial" font-size="10.00"> + toString(i : int) : String </text>
<text text-anchor="start" x="12.5" y="-89" font-family="arial" font-size="10.00"> + toString() : String </text>
<text text-anchor="start" x="12.5" y="-76" font-family="arial" font-size="10.00"> # indentation(i : int) : String </text>
<text text-anchor="start" x="12.5" y="-63" font-family="arial" font-size="10.00"> + nouvelleReference() : String </text>
<text text-anchor="start" x="12.5" y="-50" font-family="arial" font-size="10.00"> + getReference() : String </text>
<text text-anchor="start" x="12.5" y="-37" font-family="arial" font-size="10.00"> + setReference(reference : String) </text>
<text text-anchor="start" x="12.5" y="-24" font-family="arial" font-size="10.00"> + getNom() : String </text>
<text text-anchor="start" x="12.5" y="-11" font-family="arial" font-size="10.00"> + setNom(nom : String) </text>
</a>
</g>
<g><a xlink:href="./Piece.html" xlink:title="&lt;TABLE&gt;">
</a>
</g>
</g>
<!-- c55&#45;&gt;c54 -->
<g id="edge1" class="edge"><title>c55:p&#45;&gt;c54:p</title>
<path fill="none" stroke="black" d="M179.458,-143C192.996,-143 207.049,-143 220.838,-143"/>
<polygon fill="none" stroke="black" points="179.218,-139.5 169.218,-143 179.218,-146.5 179.218,-139.5"/>
</g>
</g>
</svg>
