<?xml version="1.0" encoding="UTF-8" standalone="no"?>
<!DOCTYPE svg PUBLIC "-//W3C//DTD SVG 1.1//EN"
 "http://www.w3.org/Graphics/SVG/1.1/DTD/svg11.dtd">
<!-- Generated by graphviz version 2.38.0 (20140413.2041)
 -->
<!-- Title: G Pages: 1 -->
<svg width="732pt" height="621pt"
 viewBox="0.00 0.00 732.00 620.50" xmlns="http://www.w3.org/2000/svg" xmlns:xlink="http://www.w3.org/1999/xlink">
<g id="graph0" class="graph" transform="scale(1 1) rotate(0) translate(4 616.5)">
<title>G</title>
<polygon fill="white" stroke="none" points="-4,4 -4,-616.5 728,-616.5 728,4 -4,4"/>
<!-- c0 -->
<g id="node1" class="node"><title>c0</title>
<g id="a_node1"><a xlink:href="./PieceMontee.html" xlink:title="&lt;TABLE&gt;">
</a>
</g>
<g id="a_node1_0"><a xlink:href="./PieceMontee.html" xlink:title="tp8.PieceMontee">
<polygon fill="none" stroke="black" points="529.5,-472 529.5,-491 716.5,-491 716.5,-472 529.5,-472"/>
<text text-anchor="start" x="591" y="-479" font-family="arial" font-size="10.00"> PieceMontee </text>
<polygon fill="none" stroke="black" points="529.5,-453 529.5,-472 716.5,-472 716.5,-453 529.5,-453"/>
<text text-anchor="start" x="533.5" y="-460" font-family="arial" font-size="10.00"> &#160;</text>
<polygon fill="none" stroke="black" points="529.5,-330 529.5,-453 716.5,-453 716.5,-330 529.5,-330"/>
<text text-anchor="start" x="533.5" y="-441" font-family="arial" font-size="10.00"> + getDureeMontage() : int </text>
<text text-anchor="start" x="533.5" y="-428" font-family="arial" font-size="10.00"> + setDureeMontage(dureeMontage : int) </text>
<text text-anchor="start" x="533.5" y="-415" font-family="arial" font-size="10.00"> + dureeGarantie() : int </text>
<text text-anchor="start" x="533.5" y="-402" font-family="arial" font-size="10.00"> + dureeFabrication() : int </text>
<text text-anchor="start" x="533.5" y="-389" font-family="arial" font-size="10.00"> + prix() : int </text>
<text text-anchor="start" x="533.5" y="-376" font-family="arial" font-size="10.00"> + afficheInfoSupplementaires() </text>
<text text-anchor="start" x="533.5" y="-363" font-family="arial" font-size="10.00"> # getPrefixe() : String </text>
<text text-anchor="start" x="533.5" y="-350" font-family="arial" font-size="10.00"> + getPrixMontage() : int </text>
<text text-anchor="start" x="533.5" y="-337" font-family="arial" font-size="10.00"> + setPrixMontage(prixMontage : int) </text>
</a>
</g>
<g><a xlink:href="./PieceMontee.html" xlink:title="&lt;TABLE&gt;">
</a>
</g>
</g>
<!-- c1 -->
<g id="node2" class="node"><title>c1</title>
<g id="a_node2"><a xlink:href="./PieceEnKit.html" xlink:title="&lt;TABLE&gt;">
</a>
</g>
<g id="a_node2_1"><a xlink:href="./PieceEnKit.html" xlink:title="tp8.PieceEnKit">
<polygon fill="none" stroke="black" points="537.5,-285 537.5,-304 708.5,-304 708.5,-285 537.5,-285"/>
<text text-anchor="start" x="595.5" y="-292" font-family="arial" font-size="10.00"> PieceEnKit </text>
<polygon fill="none" stroke="black" points="537.5,-266 537.5,-285 708.5,-285 708.5,-266 537.5,-266"/>
<text text-anchor="start" x="541.5" y="-273" font-family="arial" font-size="10.00"> &#160;</text>
<polygon fill="none" stroke="black" points="537.5,-169 537.5,-266 708.5,-266 708.5,-169 537.5,-169"/>
<text text-anchor="start" x="541.5" y="-254" font-family="arial" font-size="10.00"> + getNotice() : NoticeMontage </text>
<text text-anchor="start" x="541.5" y="-241" font-family="arial" font-size="10.00"> + setNotice(notice : NoticeMontage) </text>
<text text-anchor="start" x="541.5" y="-228" font-family="arial" font-size="10.00"> + dureeGarantie() : int </text>
<text text-anchor="start" x="541.5" y="-215" font-family="arial" font-size="10.00"> + dureeFabrication() : int </text>
<text text-anchor="start" x="541.5" y="-202" font-family="arial" font-size="10.00"> + afficheInfoSupplementaires() </text>
<text text-anchor="start" x="541.5" y="-189" font-family="arial" font-size="10.00"> &#45; dureeMontage() : String </text>
<text text-anchor="start" x="541.5" y="-176" font-family="arial" font-size="10.00"> # getPrefixe() : String </text>
</a>
</g>
<g><a xlink:href="./PieceEnKit.html" xlink:title="&lt;TABLE&gt;">
</a>
</g>
</g>
<!-- c2 -->
<g id="node3" class="node"><title>c2</title>
<g id="a_node3"><a xlink:href="./PieceComposite.html" xlink:title="&lt;TABLE&gt;">
</a>
</g>
<g id="a_node3_2"><a xlink:href="./PieceComposite.html" xlink:title="tp8.PieceComposite">
<polygon fill="none" stroke="black" points="241,-411 241,-443 477,-443 477,-411 241,-411"/>
<text text-anchor="start" x="333" y="-431" font-family="arial" font-size="10.00"> «abstract» </text>
<text text-anchor="start" x="320" y="-418" font-family="arial italic" font-size="10.00"> PieceComposite </text>
<polygon fill="none" stroke="black" points="241,-392 241,-411 477,-411 477,-392 241,-392"/>
<text text-anchor="start" x="245" y="-399" font-family="arial" font-size="10.00"> &#160;</text>
<polygon fill="none" stroke="black" points="241,-204 241,-392 477,-392 477,-204 241,-204"/>
<text text-anchor="start" x="245" y="-380" font-family="arial" font-size="10.00"> + getComposants() : ArrayList&lt;Piece&gt; </text>
<text text-anchor="start" x="245" y="-367" font-family="arial" font-size="10.00"> + setComposants(composants : ArrayList&lt;Piece&gt;) </text>
<text text-anchor="start" x="245" y="-354" font-family="arial" font-size="10.00"> + getDureeMontage() : int </text>
<text text-anchor="start" x="245" y="-341" font-family="arial" font-size="10.00"> + setDureeMontage(dureeMontage : int) </text>
<text text-anchor="start" x="245" y="-328" font-family="arial" font-size="10.00"> + ajoute(p : Piece) </text>
<text text-anchor="start" x="245" y="-315" font-family="arial" font-size="10.00"> + toString(i : int) : String </text>
<text text-anchor="start" x="245" y="-302" font-family="arial" font-size="10.00"> + toString() : String </text>
<text text-anchor="start" x="245" y="-289" font-family="arial" font-size="10.00"> «abstract» </text>
<text text-anchor="start" x="245" y="-276" font-family="arial italic" font-size="10.00"> + afficheInfoSupplementaires() </text>
<text text-anchor="start" x="245" y="-263" font-family="arial" font-size="10.00"> # plusFaibleGarantie() : Piece </text>
<text text-anchor="start" x="245" y="-250" font-family="arial" font-size="10.00"> # plusGrandeDureeFabrication() : Piece </text>
<text text-anchor="start" x="245" y="-237" font-family="arial" font-size="10.00"> + affiche() </text>
<text text-anchor="start" x="245" y="-224" font-family="arial" font-size="10.00"> + prix() : int </text>
<text text-anchor="start" x="245" y="-211" font-family="arial" font-size="10.00"> + main(args : String[]) </text>
</a>
</g>
<g><a xlink:href="./PieceComposite.html" xlink:title="&lt;TABLE&gt;">
</a>
</g>
</g>
<!-- c2&#45;&gt;c0 -->
<g id="edge1" class="edge"><title>c2:p&#45;&gt;c0:p</title>
<path fill="none" stroke="black" d="M487.089,-366.282C501.16,-370.963 515.288,-375.664 528.82,-380.166"/>
<polygon fill="none" stroke="black" points="487.957,-362.882 477.364,-363.046 485.748,-369.524 487.957,-362.882"/>
</g>
<!-- c2&#45;&gt;c1 -->
<g id="edge2" class="edge"><title>c2:p&#45;&gt;c1:p</title>
<path fill="none" stroke="black" d="M487.213,-281.677C503.971,-276.102 520.806,-270.501 536.616,-265.241"/>
<polygon fill="none" stroke="black" points="485.748,-278.476 477.364,-284.954 487.957,-285.118 485.748,-278.476"/>
</g>
<!-- c3 -->
<g id="node4" class="node"><title>c3</title>
<g id="a_node4"><a xlink:href="./PieceBasique.html" xlink:title="&lt;TABLE&gt;">
</a>
</g>
<g id="a_node4_3"><a xlink:href="./PieceBasique.html" xlink:title="tp8.PieceBasique">
<polygon fill="none" stroke="black" points="255,-159 255,-178 463,-178 463,-159 255,-159"/>
<text text-anchor="start" x="325.5" y="-166" font-family="arial" font-size="10.00"> PieceBasique </text>
<polygon fill="none" stroke="black" points="255,-140 255,-159 463,-159 463,-140 255,-140"/>
<text text-anchor="start" x="259" y="-147" font-family="arial" font-size="10.00"> &#160;</text>
<polygon fill="none" stroke="black" points="255,-4 255,-140 463,-140 463,-4 255,-4"/>
<text text-anchor="start" x="259" y="-128" font-family="arial" font-size="10.00"> + dureeFabrication() : int </text>
<text text-anchor="start" x="259" y="-115" font-family="arial" font-size="10.00"> + getPrix() : int </text>
<text text-anchor="start" x="259" y="-102" font-family="arial" font-size="10.00"> + setPrix(prix : int) </text>
<text text-anchor="start" x="259" y="-89" font-family="arial" font-size="10.00"> + dureeGarantie() : int </text>
<text text-anchor="start" x="259" y="-76" font-family="arial" font-size="10.00"> + prix() : int </text>
<text text-anchor="start" x="259" y="-63" font-family="arial" font-size="10.00"> # getPrefixe() : String </text>
<text text-anchor="start" x="259" y="-50" font-family="arial" font-size="10.00"> + getDureeGarantie() : int </text>
<text text-anchor="start" x="259" y="-37" font-family="arial" font-size="10.00"> + setDureeGarantie(dureeGarantie : int) </text>
<text text-anchor="start" x="259" y="-24" font-family="arial" font-size="10.00"> + getDureeFabrication() : int </text>
<text text-anchor="start" x="259" y="-11" font-family="arial" font-size="10.00"> + setDureeFabrication(dureeFabrication : int) </text>
</a>
</g>
<g><a xlink:href="./PieceBasique.html" xlink:title="&lt;TABLE&gt;">
</a>
</g>
</g>
<!-- c4 -->
<g id="node5" class="node"><title>c4</title>
<g id="a_node5"><a xlink:href="./Piece.html" xlink:title="&lt;TABLE&gt;">
</a>
</g>
<g id="a_node5_4"><a xlink:href="./Piece.html" xlink:title="tp8.Piece">
<polygon fill="none" stroke="black" points="18.5,-314 18.5,-346 179.5,-346 179.5,-314 18.5,-314"/>
<text text-anchor="start" x="73" y="-334" font-family="arial" font-size="10.00"> «abstract» </text>
<text text-anchor="start" x="83.5" y="-321" font-family="arial italic" font-size="10.00"> Piece </text>
<polygon fill="none" stroke="black" points="18.5,-295 18.5,-314 179.5,-314 179.5,-295 18.5,-295"/>
<text text-anchor="start" x="22.5" y="-302" font-family="arial" font-size="10.00"> &#160;</text>
<polygon fill="none" stroke="black" points="18.5,-68 18.5,-295 179.5,-295 179.5,-68 18.5,-68"/>
<text text-anchor="start" x="22.5" y="-283" font-family="arial" font-size="10.00"> «abstract» </text>
<text text-anchor="start" x="22.5" y="-270" font-family="arial italic" font-size="10.00"> + prix() : int </text>
<text text-anchor="start" x="22.5" y="-257" font-family="arial" font-size="10.00"> «abstract» </text>
<text text-anchor="start" x="22.5" y="-244" font-family="arial italic" font-size="10.00"> + dureeGarantie() : int </text>
<text text-anchor="start" x="22.5" y="-231" font-family="arial" font-size="10.00"> «abstract» </text>
<text text-anchor="start" x="22.5" y="-218" font-family="arial italic" font-size="10.00"> + dureeFabrication() : int </text>
<text text-anchor="start" x="22.5" y="-205" font-family="arial" font-size="10.00"> «abstract» </text>
<text text-anchor="start" x="22.5" y="-192" font-family="arial italic" font-size="10.00"> # getPrefixe() : String </text>
<text text-anchor="start" x="22.5" y="-179" font-family="arial" font-size="10.00"> + affiche() </text>
<text text-anchor="start" x="22.5" y="-166" font-family="arial" font-size="10.00"> + toString(i : int) : String </text>
<text text-anchor="start" x="22.5" y="-153" font-family="arial" font-size="10.00"> + toString() : String </text>
<text text-anchor="start" x="22.5" y="-140" font-family="arial" font-size="10.00"> # indentation(i : int) : String </text>
<text text-anchor="start" x="22.5" y="-127" font-family="arial" font-size="10.00"> + nouvelleReference() : String </text>
<text text-anchor="start" x="22.5" y="-114" font-family="arial" font-size="10.00"> + getReference() : String </text>
<text text-anchor="start" x="22.5" y="-101" font-family="arial" font-size="10.00"> + setReference(reference : String) </text>
<text text-anchor="start" x="22.5" y="-88" font-family="arial" font-size="10.00"> + getNom() : String </text>
<text text-anchor="start" x="22.5" y="-75" font-family="arial" font-size="10.00"> + setNom(nom : String) </text>
</a>
</g>
<g><a xlink:href="./Piece.html" xlink:title="&lt;TABLE&gt;">
</a>
</g>
</g>
<!-- c4&#45;&gt;c2 -->
<g id="edge3" class="edge"><title>c4:p&#45;&gt;c2:p</title>
<path fill="none" stroke="black" d="M188.398,-247.236C205.215,-254.848 223.045,-262.918 240.582,-270.855"/>
<polygon fill="none" stroke="black" points="189.721,-243.993 179.168,-243.059 186.835,-250.371 189.721,-243.993"/>
</g>
<!-- c4&#45;&gt;c3 -->
<g id="edge4" class="edge"><title>c4:p&#45;&gt;c3:p</title>
<path fill="none" stroke="black" d="M188.528,-167.049C209.873,-157.471 232.843,-147.163 254.77,-137.324"/>
<polygon fill="none" stroke="black" points="186.858,-163.962 179.168,-171.25 189.724,-170.349 186.858,-163.962"/>
</g>
<!-- c5 -->
<g id="node6" class="node"><title>c5</title>
<g id="a_node6"><a xlink:href="./NoticeMontage.html" xlink:title="&lt;TABLE&gt;">
</a>
</g>
<g id="a_node6_5"><a xlink:href="./NoticeMontage.html" xlink:title="tp8.NoticeMontage">
<polygon fill="none" stroke="black" points="9.5,-423 9.5,-442 187.5,-442 187.5,-423 9.5,-423"/>
<text text-anchor="start" x="62.5" y="-430" font-family="arial" font-size="10.00"> NoticeMontage </text>
<polygon fill="none" stroke="black" points="9.5,-404 9.5,-423 187.5,-423 187.5,-404 9.5,-404"/>
<text text-anchor="start" x="13.5" y="-411" font-family="arial" font-size="10.00"> &#160;</text>
<polygon fill="none" stroke="black" points="9.5,-372 9.5,-404 187.5,-404 187.5,-372 9.5,-372"/>
<text text-anchor="start" x="13.5" y="-392" font-family="arial" font-size="10.00"> + getInstructions() : String </text>
<text text-anchor="start" x="13.5" y="-379" font-family="arial" font-size="10.00"> + setInstructions(instructions : String) </text>
</a>
</g>
<g><a xlink:href="./NoticeMontage.html" xlink:title="&lt;TABLE&gt;">
</a>
</g>
</g>
<!-- c6 -->
<g id="node7" class="node"><title>c6</title>
<g id="a_node7"><a xlink:href="./ComparateurGarantie.html" xlink:title="&lt;TABLE&gt;">
</a>
</g>
<g id="a_node7_6"><a xlink:href="./ComparateurGarantie.html" xlink:title="tp8.ComparateurGarantie">
<polygon fill="none" stroke="black" points="8.5,-506 8.5,-525 189.5,-525 189.5,-506 8.5,-506"/>
<text text-anchor="start" x="49.5" y="-513" font-family="arial" font-size="10.00"> ComparateurGarantie </text>
<polygon fill="none" stroke="black" points="8.5,-487 8.5,-506 189.5,-506 189.5,-487 8.5,-487"/>
<text text-anchor="start" x="12.5" y="-494" font-family="arial" font-size="10.00"> &#160;</text>
<polygon fill="none" stroke="black" points="8.5,-468 8.5,-487 189.5,-487 189.5,-468 8.5,-468"/>
<text text-anchor="start" x="12.5" y="-475" font-family="arial" font-size="10.00"> + compare(o1 : Piece, o2 : Piece) : int </text>
</a>
</g>
<g><a xlink:href="./ComparateurGarantie.html" xlink:title="&lt;TABLE&gt;">
</a>
</g>
</g>
<!-- c7 -->
<g id="node8" class="node"><title>c7</title>
<g id="a_node8"><a xlink:href="./ComparateurDureeFabrication.html" xlink:title="&lt;TABLE&gt;">
</a>
</g>
<g id="a_node8_7"><a xlink:href="./ComparateurDureeFabrication.html" xlink:title="tp8.ComparateurDureeFabrication">
<polygon fill="none" stroke="black" points="8.5,-589 8.5,-608 189.5,-608 189.5,-589 8.5,-589"/>
<text text-anchor="start" x="31" y="-596" font-family="arial" font-size="10.00"> ComparateurDureeFabrication </text>
<polygon fill="none" stroke="black" points="8.5,-570 8.5,-589 189.5,-589 189.5,-570 8.5,-570"/>
<text text-anchor="start" x="12.5" y="-577" font-family="arial" font-size="10.00"> &#160;</text>
<polygon fill="none" stroke="black" points="8.5,-551 8.5,-570 189.5,-570 189.5,-551 8.5,-551"/>
<text text-anchor="start" x="12.5" y="-558" font-family="arial" font-size="10.00"> + compare(o1 : Piece, o2 : Piece) : int </text>
</a>
</g>
<g><a xlink:href="./ComparateurDureeFabrication.html" xlink:title="&lt;TABLE&gt;">
</a>
</g>
</g>
</g>
</svg>
