<?xml version="1.0" encoding="UTF-8" standalone="no"?>
<!DOCTYPE svg PUBLIC "-//W3C//DTD SVG 1.1//EN"
 "http://www.w3.org/Graphics/SVG/1.1/DTD/svg11.dtd">
<!-- Generated by graphviz version 2.38.0 (20140413.2041)
 -->
<!-- Title: G Pages: 1 -->
<svg width="300pt" height="390pt"
 viewBox="0.00 0.00 300.00 390.00" xmlns="http://www.w3.org/2000/svg" xmlns:xlink="http://www.w3.org/1999/xlink">
<g id="graph0" class="graph" transform="scale(1 1) rotate(0) translate(4 386)">
<title>G</title>
<polygon fill="white" stroke="none" points="-4,4 -4,-386 296,-386 296,4 -4,4"/>
<!-- c0 -->
<g id="node1" class="node"><title>c0</title>
<g id="a_node1"><a xlink:href="./TestPromotion.html" xlink:title="&lt;TABLE&gt;">
</a>
</g>
<g id="a_node1_0"><a xlink:href="./TestPromotion.html" xlink:title="tp4.TestPromotion">
<polygon fill="none" stroke="black" points="91,-67.5 91,-86.5 201,-86.5 201,-67.5 91,-67.5"/>
<text text-anchor="start" x="111" y="-74.5" font-family="arial" font-size="10.00"> TestPromotion </text>
<polygon fill="none" stroke="black" points="91,-48.5 91,-67.5 201,-67.5 201,-48.5 91,-48.5"/>
<text text-anchor="start" x="95" y="-55.5" font-family="arial" font-size="10.00"> &#160;</text>
<polygon fill="none" stroke="black" points="91,-3.5 91,-48.5 201,-48.5 201,-3.5 91,-3.5"/>
<text text-anchor="start" x="95" y="-36.5" font-family="arial" font-size="10.00"> + TestPromotion() </text>
<text text-anchor="start" x="95" y="-23.5" font-family="arial" font-size="10.00"> + main(args : String[]) </text>
<text text-anchor="start" x="95" y="-10.5" font-family="arial" font-size="10.00"> + test() </text>
</a>
</g>
<g><a xlink:href="./TestPromotion.html" xlink:title="&lt;TABLE&gt;">
</a>
</g>
</g>
<!-- c1 -->
<g id="node2" class="node"><title>c1</title>
<g id="a_node2"><a xlink:href="./Promotion.html" xlink:title="&lt;TABLE&gt;">
</a>
</g>
<g id="a_node2_1"><a xlink:href="./Promotion.html" xlink:title="tp4.Promotion">
<polygon fill="none" stroke="black" points="8,-358.5 8,-377.5 284,-377.5 284,-358.5 8,-358.5"/>
<text text-anchor="start" x="120.5" y="-365.5" font-family="arial" font-size="10.00"> Promotion </text>
<polygon fill="none" stroke="black" points="8,-339.5 8,-358.5 284,-358.5 284,-339.5 8,-339.5"/>
<text text-anchor="start" x="12" y="-346.5" font-family="arial" font-size="10.00"> &#45; annee : Date </text>
<polygon fill="none" stroke="black" points="8,-112.5 8,-339.5 284,-339.5 284,-112.5 8,-112.5"/>
<text text-anchor="start" x="12" y="-327.5" font-family="arial" font-size="10.00"> «create» </text>
<text text-anchor="start" x="12" y="-314.5" font-family="arial" font-size="10.00"> + Promotion(annee : Date) </text>
<text text-anchor="start" x="12" y="-301.5" font-family="arial" font-size="10.00"> «create» </text>
<text text-anchor="start" x="12" y="-288.5" font-family="arial" font-size="10.00"> + Promotion() </text>
<text text-anchor="start" x="12" y="-275.5" font-family="arial" font-size="10.00"> + getEtudiants() : ArrayList&lt;Etudiant&gt; </text>
<text text-anchor="start" x="12" y="-262.5" font-family="arial" font-size="10.00"> + setEtudiants(etudiants : ArrayList&lt;Etudiant&gt;) </text>
<text text-anchor="start" x="12" y="-249.5" font-family="arial" font-size="10.00"> + getAnnee() : Date </text>
<text text-anchor="start" x="12" y="-236.5" font-family="arial" font-size="10.00"> + setAnnee(annee : Date) </text>
<text text-anchor="start" x="12" y="-223.5" font-family="arial" font-size="10.00"> + getEtudiant(i : int) : Etudiant </text>
<text text-anchor="start" x="12" y="-210.5" font-family="arial" font-size="10.00"> + getNbEtudiants() : int </text>
<text text-anchor="start" x="12" y="-197.5" font-family="arial" font-size="10.00"> + inscrire(a : Etudiant) </text>
<text text-anchor="start" x="12" y="-184.5" font-family="arial" font-size="10.00"> + moyenneGenerale() : float </text>
<text text-anchor="start" x="12" y="-171.5" font-family="arial" font-size="10.00"> + afficheResultat() </text>
<text text-anchor="start" x="12" y="-158.5" font-family="arial" font-size="10.00"> + recherche(nom : String) : Etudiant </text>
<text text-anchor="start" x="12" y="-145.5" font-family="arial" font-size="10.00"> + admis() : ArrayList&lt;Etudiant&gt; </text>
<text text-anchor="start" x="12" y="-132.5" font-family="arial" font-size="10.00"> + nouveauxInscritsNonFrancophones() : ArrayList&lt;Etudiant&gt; </text>
<text text-anchor="start" x="12" y="-119.5" font-family="arial" font-size="10.00"> + majors() : ArrayList&lt;Etudiant&gt; </text>
</a>
</g>
<g><a xlink:href="./Promotion.html" xlink:title="&lt;TABLE&gt;">
</a>
</g>
</g>
</g>
</svg>
