<?xml version="1.0" encoding="UTF-8" standalone="no"?>
<!DOCTYPE svg PUBLIC "-//W3C//DTD SVG 1.1//EN"
 "http://www.w3.org/Graphics/SVG/1.1/DTD/svg11.dtd">
<!-- Generated by graphviz version 2.38.0 (20140413.2041)
 -->
<!-- Title: G Pages: 1 -->
<svg width="356pt" height="80pt"
 viewBox="0.00 0.00 356.00 80.00" xmlns="http://www.w3.org/2000/svg" xmlns:xlink="http://www.w3.org/1999/xlink">
<g id="graph0" class="graph" transform="scale(1 1) rotate(0) translate(4 76)">
<title>G</title>
<polygon fill="white" stroke="none" points="-4,4 -4,-76 352,-76 352,4 -4,4"/>
<!-- c68 -->
<g id="node1" class="node"><title>c68</title>
<g id="a_node1"><a xlink:href="./PieceEnKit.html" xlink:title="&lt;TABLE&gt;">
</a>
</g>
<g id="a_node1_0"><a xlink:href="./PieceEnKit.html" xlink:title="tp8.PieceEnKit">
<polygon fill="lemonChiffon" stroke="none" points="219,-17 219,-55 340,-55 340,-17 219,-17"/>
<polygon fill="none" stroke="black" points="219.5,-36 219.5,-55 340.5,-55 340.5,-36 219.5,-36"/>
<text text-anchor="start" x="252.5" y="-43" font-family="arial" font-size="10.00"> PieceEnKit </text>
<polygon fill="none" stroke="black" points="219.5,-17 219.5,-36 340.5,-36 340.5,-17 219.5,-17"/>
<text text-anchor="start" x="223.5" y="-24" font-family="arial" font-size="10.00"> &#45; notice : NoticeMontage </text>
</a>
</g>
<g><a xlink:href="./PieceEnKit.html" xlink:title="&lt;TABLE&gt;">
</a>
</g>
</g>
<!-- c69 -->
<g id="node2" class="node"><title>c69</title>
<g id="a_node2"><a xlink:href="./PieceComposite.html" xlink:title="&lt;TABLE&gt;">
</a>
</g>
<g id="a_node2_1"><a xlink:href="./PieceComposite.html" xlink:title="tp8.PieceComposite">
<polygon fill="none" stroke="black" points="8.5,-36 8.5,-68 167.5,-68 167.5,-36 8.5,-36"/>
<text text-anchor="start" x="62" y="-56" font-family="arial" font-size="10.00"> «abstract» </text>
<text text-anchor="start" x="49" y="-43" font-family="arial italic" font-size="10.00"> PieceComposite </text>
<polygon fill="none" stroke="black" points="8.5,-4 8.5,-36 167.5,-36 167.5,-4 8.5,-4"/>
<text text-anchor="start" x="12.5" y="-24" font-family="arial" font-size="10.00"> &#45; composants : ArrayList&lt;Piece&gt; </text>
<text text-anchor="start" x="12.5" y="-11" font-family="arial" font-size="10.00"> &#45; dureeMontage : int </text>
</a>
</g>
<g><a xlink:href="./PieceComposite.html" xlink:title="&lt;TABLE&gt;">
</a>
</g>
</g>
<!-- c69&#45;&gt;c68 -->
<g id="edge1" class="edge"><title>c69:p&#45;&gt;c68:p</title>
<path fill="none" stroke="black" d="M177.328,-36C191.372,-36 205.597,-36 218.767,-36"/>
<polygon fill="none" stroke="black" points="177.152,-32.5001 167.152,-36 177.152,-39.5001 177.152,-32.5001"/>
</g>
</g>
</svg>
