<?xml version="1.0" encoding="UTF-8" standalone="no"?>
<!DOCTYPE svg PUBLIC "-//W3C//DTD SVG 1.1//EN"
 "http://www.w3.org/Graphics/SVG/1.1/DTD/svg11.dtd">
<!-- Generated by graphviz version 2.38.0 (20140413.2041)
 -->
<!-- Title: G Pages: 1 -->
<svg width="156pt" height="296pt"
 viewBox="0.00 0.00 156.50 296.00" xmlns="http://www.w3.org/2000/svg" xmlns:xlink="http://www.w3.org/1999/xlink">
<g id="graph0" class="graph" transform="scale(1 1) rotate(0) translate(4 292)">
<title>G</title>
<polygon fill="white" stroke="none" points="-4,4 -4,-292 152.495,-292 152.495,4 -4,4"/>
<!-- c84 -->
<g id="node1" class="node"><title>c84</title>
<g id="a_node1"><a xlink:href="./PieceComposite.html" xlink:title="&lt;TABLE&gt;">
</a>
</g>
<g id="a_node1_0"><a xlink:href="./PieceComposite.html" xlink:title="tp8.PieceComposite">
<polygon fill="none" stroke="black" points="27.4951,-251.5 27.4951,-283.5 129.495,-283.5 129.495,-251.5 27.4951,-251.5"/>
<text text-anchor="start" x="52.4951" y="-271.5" font-family="arial" font-size="10.00"> «abstract» </text>
<text text-anchor="start" x="39.4951" y="-258.5" font-family="arial italic" font-size="10.00"> PieceComposite </text>
<polygon fill="none" stroke="black" points="27.4951,-232.5 27.4951,-251.5 129.495,-251.5 129.495,-232.5 27.4951,-232.5"/>
<text text-anchor="start" x="31.4951" y="-239.5" font-family="arial" font-size="10.00"> &#45; dureeMontage : int </text>
</a>
</g>
<g><a xlink:href="./PieceComposite.html" xlink:title="&lt;TABLE&gt;">
</a>
</g>
</g>
<!-- c86 -->
<g id="node3" class="node"><title>c86</title>
<g id="a_node3"><a xlink:href="./Piece.html" xlink:title="&lt;TABLE&gt;">
</a>
</g>
<g id="a_node3_1"><a xlink:href="./Piece.html" xlink:title="tp8.Piece">
<polygon fill="lemonChiffon" stroke="none" points="16.4951,-112 16.4951,-189 140.495,-189 140.495,-112 16.4951,-112"/>
<polygon fill="none" stroke="black" points="16.4951,-156.5 16.4951,-188.5 140.495,-188.5 140.495,-156.5 16.4951,-156.5"/>
<text text-anchor="start" x="52.4951" y="-176.5" font-family="arial" font-size="10.00"> «abstract» </text>
<text text-anchor="start" x="62.9951" y="-163.5" font-family="arial italic" font-size="10.00"> Piece </text>
<polygon fill="none" stroke="black" points="16.4951,-111.5 16.4951,-156.5 140.495,-156.5 140.495,-111.5 16.4951,-111.5"/>
<text text-anchor="start" x="20.4951" y="-144.5" font-family="arial" font-size="10.00"> &#45; compteurReference : int </text>
<text text-anchor="start" x="20.4951" y="-131.5" font-family="arial" font-size="10.00"> &#45; nom : String </text>
<text text-anchor="start" x="20.4951" y="-118.5" font-family="arial" font-size="10.00"> &#45; reference : String </text>
</a>
</g>
<g><a xlink:href="./Piece.html" xlink:title="&lt;TABLE&gt;">
</a>
</g>
</g>
<!-- c84&#45;&gt;c86 -->
<g id="edge2" class="edge"><title>c84:p&#45;&gt;c86:p</title>
<path fill="none" stroke="black" d="M72.0315,-220.644C71.6604,-210.485 71.6499,-199.452 72,-189.245"/>
<polygon fill="black" stroke="black" points="72.047,-220.933 76.3648,-226.708 72.6943,-232.915 68.3765,-227.14 72.047,-220.933"/>
<text text-anchor="middle" x="36" y="-192.245" font-family="arial" font-size="10.00">1..* composants</text>
<text text-anchor="middle" x="75.6943" y="-224.915" font-family="arial" font-size="10.00">1</text>
</g>
<!-- c85 -->
<g id="node2" class="node"><title>c85</title>
<g id="a_node2"><a xlink:href="./PieceBasique.html" xlink:title="&lt;TABLE&gt;">
</a>
</g>
<g id="a_node2_2"><a xlink:href="./PieceBasique.html" xlink:title="tp8.PieceBasique">
<polygon fill="none" stroke="black" points="22.4951,-49 22.4951,-68 134.495,-68 134.495,-49 22.4951,-49"/>
<text text-anchor="start" x="44.9951" y="-56" font-family="arial" font-size="10.00"> PieceBasique </text>
<polygon fill="none" stroke="black" points="22.4951,-4 22.4951,-49 134.495,-49 134.495,-4 22.4951,-4"/>
<text text-anchor="start" x="26.4951" y="-37" font-family="arial" font-size="10.00"> &#45; dureeGarantie : int </text>
<text text-anchor="start" x="26.4951" y="-24" font-family="arial" font-size="10.00"> &#45; prix : int </text>
<text text-anchor="start" x="26.4951" y="-11" font-family="arial" font-size="10.00"> &#45; dureeFabrication : int </text>
</a>
</g>
<g><a xlink:href="./PieceBasique.html" xlink:title="&lt;TABLE&gt;">
</a>
</g>
</g>
<!-- c86&#45;&gt;c84 -->
<g id="edge1" class="edge"><title>c86:p&#45;&gt;c84:p</title>
<path fill="none" stroke="black" d="M85.2163,-199.312C85.3457,-210.932 85.0389,-222.887 84.2959,-232.915"/>
<polygon fill="none" stroke="black" points="88.7139,-199.164 84.9902,-189.245 81.7157,-199.321 88.7139,-199.164"/>
</g>
<!-- c86&#45;&gt;c85 -->
<g id="edge3" class="edge"><title>c86:p&#45;&gt;c85:p</title>
<path fill="none" stroke="black" d="M78.4951,-101.526C78.4951,-90.2212 78.4951,-78.4603 78.4951,-68.124"/>
<polygon fill="none" stroke="black" points="74.9952,-101.726 78.4951,-111.726 81.9952,-101.726 74.9952,-101.726"/>
</g>
</g>
</svg>
