<?xml version="1.0" encoding="UTF-8" standalone="no"?>
<!DOCTYPE svg PUBLIC "-//W3C//DTD SVG 1.1//EN"
 "http://www.w3.org/Graphics/SVG/1.1/DTD/svg11.dtd">
<!-- Generated by graphviz version 2.38.0 (20140413.2041)
 -->
<!-- Title: G Pages: 1 -->
<svg width="337pt" height="80pt"
 viewBox="0.00 0.00 337.00 80.00" xmlns="http://www.w3.org/2000/svg" xmlns:xlink="http://www.w3.org/1999/xlink">
<g id="graph0" class="graph" transform="scale(1 1) rotate(0) translate(4 76)">
<title>G</title>
<polygon fill="white" stroke="none" points="-4,4 -4,-76 333,-76 333,4 -4,4"/>
<!-- c75 -->
<g id="node1" class="node"><title>c75</title>
<g id="a_node1"><a xlink:href="./PieceMontee.html" xlink:title="&lt;TABLE&gt;">
</a>
</g>
<g id="a_node1_0"><a xlink:href="./PieceMontee.html" xlink:title="tp8.PieceMontee">
<polygon fill="lemonChiffon" stroke="none" points="219,-10.5 219,-61.5 321,-61.5 321,-10.5 219,-10.5"/>
<polygon fill="none" stroke="black" points="219,-42 219,-61 321,-61 321,-42 219,-42"/>
<text text-anchor="start" x="238" y="-49" font-family="arial" font-size="10.00"> PieceMontee </text>
<polygon fill="none" stroke="black" points="219,-10 219,-42 321,-42 321,-10 219,-10"/>
<text text-anchor="start" x="223" y="-30" font-family="arial" font-size="10.00"> &#45; prixMontage : int </text>
<text text-anchor="start" x="223" y="-17" font-family="arial" font-size="10.00"> &#45; dureeMontage : int </text>
</a>
</g>
<g><a xlink:href="./PieceMontee.html" xlink:title="&lt;TABLE&gt;">
</a>
</g>
</g>
<!-- c77 -->
<g id="node2" class="node"><title>c77</title>
<g id="a_node2"><a xlink:href="./PieceComposite.html" xlink:title="&lt;TABLE&gt;">
</a>
</g>
<g id="a_node2_1"><a xlink:href="./PieceComposite.html" xlink:title="tp8.PieceComposite">
<polygon fill="none" stroke="black" points="8.5,-36 8.5,-68 167.5,-68 167.5,-36 8.5,-36"/>
<text text-anchor="start" x="62" y="-56" font-family="arial" font-size="10.00"> «abstract» </text>
<text text-anchor="start" x="49" y="-43" font-family="arial italic" font-size="10.00"> PieceComposite </text>
<polygon fill="none" stroke="black" points="8.5,-4 8.5,-36 167.5,-36 167.5,-4 8.5,-4"/>
<text text-anchor="start" x="12.5" y="-24" font-family="arial" font-size="10.00"> &#45; composants : ArrayList&lt;Piece&gt; </text>
<text text-anchor="start" x="12.5" y="-11" font-family="arial" font-size="10.00"> &#45; dureeMontage : int </text>
</a>
</g>
<g><a xlink:href="./PieceComposite.html" xlink:title="&lt;TABLE&gt;">
</a>
</g>
</g>
<!-- c77&#45;&gt;c75 -->
<g id="edge1" class="edge"><title>c77:p&#45;&gt;c75:p</title>
<path fill="none" stroke="black" d="M177.491,-36C191.738,-36 206.026,-36 218.936,-36"/>
<polygon fill="none" stroke="black" points="177.145,-32.5001 167.145,-36 177.145,-39.5001 177.145,-32.5001"/>
</g>
</g>
</svg>
