<?xml version="1.0" encoding="UTF-8" standalone="no"?>
<!DOCTYPE svg PUBLIC "-//W3C//DTD SVG 1.1//EN"
 "http://www.w3.org/Graphics/SVG/1.1/DTD/svg11.dtd">
<!-- Generated by graphviz version 2.38.0 (20140413.2041)
 -->
<!-- Title: G Pages: 1 -->
<svg width="283pt" height="80pt"
 viewBox="0.00 0.00 283.00 80.00" xmlns="http://www.w3.org/2000/svg" xmlns:xlink="http://www.w3.org/1999/xlink">
<g id="graph0" class="graph" transform="scale(1 1) rotate(0) translate(4 76)">
<title>G</title>
<polygon fill="white" stroke="none" points="-4,4 -4,-76 279,-76 279,4 -4,4"/>
<!-- c54 -->
<g id="node1" class="node"><title>c54</title>
<g id="a_node1"><a xlink:href="./PieceBasique.html" xlink:title="&lt;TABLE&gt;">
</a>
</g>
<g id="a_node1_0"><a xlink:href="./PieceBasique.html" xlink:title="tp8.PieceBasique">
<polygon fill="lemonChiffon" stroke="none" points="155,-4 155,-68 267,-68 267,-4 155,-4"/>
<polygon fill="none" stroke="black" points="155,-49 155,-68 267,-68 267,-49 155,-49"/>
<text text-anchor="start" x="177.5" y="-56" font-family="arial" font-size="10.00"> PieceBasique </text>
<polygon fill="none" stroke="black" points="155,-4 155,-49 267,-49 267,-4 155,-4"/>
<text text-anchor="start" x="159" y="-37" font-family="arial" font-size="10.00"> &#45; dureeGarantie : int </text>
<text text-anchor="start" x="159" y="-24" font-family="arial" font-size="10.00"> &#45; prix : int </text>
<text text-anchor="start" x="159" y="-11" font-family="arial" font-size="10.00"> &#45; dureeFabrication : int </text>
</a>
</g>
<g><a xlink:href="./PieceBasique.html" xlink:title="&lt;TABLE&gt;">
</a>
</g>
</g>
<!-- c55 -->
<g id="node2" class="node"><title>c55</title>
<g id="a_node2"><a xlink:href="./Piece.html" xlink:title="&lt;TABLE&gt;">
</a>
</g>
<g id="a_node2_1"><a xlink:href="./Piece.html" xlink:title="tp8.Piece">
<polygon fill="none" stroke="black" points="8.5,-36 8.5,-68 103.5,-68 103.5,-36 8.5,-36"/>
<text text-anchor="start" x="30" y="-56" font-family="arial" font-size="10.00"> «abstract» </text>
<text text-anchor="start" x="40.5" y="-43" font-family="arial italic" font-size="10.00"> Piece </text>
<polygon fill="none" stroke="black" points="8.5,-4 8.5,-36 103.5,-36 103.5,-4 8.5,-4"/>
<text text-anchor="start" x="12.5" y="-24" font-family="arial" font-size="10.00"> &#45; nom : String </text>
<text text-anchor="start" x="12.5" y="-11" font-family="arial" font-size="10.00"> &#45; reference : String </text>
</a>
</g>
<g><a xlink:href="./Piece.html" xlink:title="&lt;TABLE&gt;">
</a>
</g>
</g>
<!-- c55&#45;&gt;c54 -->
<g id="edge1" class="edge"><title>c55:p&#45;&gt;c54:p</title>
<path fill="none" stroke="black" d="M113.506,-36C126.997,-36 141.362,-36 154.773,-36"/>
<polygon fill="none" stroke="black" points="113.389,-32.5001 103.389,-36 113.389,-39.5001 113.389,-32.5001"/>
</g>
</g>
</svg>
