<?xml version="1.0" encoding="UTF-8" standalone="no"?>
<!DOCTYPE svg PUBLIC "-//W3C//DTD SVG 1.1//EN"
 "http://www.w3.org/Graphics/SVG/1.1/DTD/svg11.dtd">
<!-- Generated by graphviz version 2.38.0 (20140413.2041)
 -->
<!-- Title: G Pages: 1 -->
<svg width="469pt" height="222pt"
 viewBox="0.00 0.00 469.00 221.50" xmlns="http://www.w3.org/2000/svg" xmlns:xlink="http://www.w3.org/1999/xlink">
<g id="graph0" class="graph" transform="scale(1 1) rotate(0) translate(4 217.5)">
<title>G</title>
<polygon fill="white" stroke="none" points="-4,4 -4,-217.5 465,-217.5 465,4 -4,4"/>
<!-- c1 -->
<g id="node1" class="node"><title>c1</title>
<g id="a_node1"><a xlink:href="./PieceMontee.html" xlink:title="&lt;TABLE&gt;">
</a>
</g>
<g id="a_node1_0"><a xlink:href="./PieceMontee.html" xlink:title="tp8.PieceMontee">
<polygon fill="none" stroke="black" points="181,-190.5 181,-209.5 274,-209.5 274,-190.5 181,-190.5"/>
<text text-anchor="start" x="195.5" y="-197.5" font-family="arial" font-size="10.00"> PieceMontee </text>
<polygon fill="none" stroke="black" points="181,-171.5 181,-190.5 274,-190.5 274,-171.5 181,-171.5"/>
<text text-anchor="start" x="185" y="-178.5" font-family="arial" font-size="10.00"> &#45; prixMontage : int </text>
</a>
</g>
<g><a xlink:href="./PieceMontee.html" xlink:title="&lt;TABLE&gt;">
</a>
</g>
</g>
<!-- c2 -->
<g id="node2" class="node"><title>c2</title>
<g id="a_node2"><a xlink:href="./PieceEnKit.html" xlink:title="&lt;TABLE&gt;">
</a>
</g>
<g id="a_node2_1"><a xlink:href="./PieceEnKit.html" xlink:title="tp8.PieceEnKit">
<polygon fill="none" stroke="black" points="167,-126.5 167,-145.5 288,-145.5 288,-126.5 167,-126.5"/>
<text text-anchor="start" x="200" y="-133.5" font-family="arial" font-size="10.00"> PieceEnKit </text>
<polygon fill="none" stroke="black" points="167,-107.5 167,-126.5 288,-126.5 288,-107.5 167,-107.5"/>
<text text-anchor="start" x="171" y="-114.5" font-family="arial" font-size="10.00"> &#45; notice : NoticeMontage </text>
</a>
</g>
<g><a xlink:href="./PieceEnKit.html" xlink:title="&lt;TABLE&gt;">
</a>
</g>
</g>
<!-- c3 -->
<g id="node3" class="node"><title>c3</title>
<g id="a_node3"><a xlink:href="./PieceComposite.html" xlink:title="&lt;TABLE&gt;">
</a>
</g>
<g id="a_node3_2"><a xlink:href="./PieceComposite.html" xlink:title="tp8.PieceComposite">
<polygon fill="none" stroke="black" points="9.5,-77.5 9.5,-109.5 111.5,-109.5 111.5,-77.5 9.5,-77.5"/>
<text text-anchor="start" x="34.5" y="-97.5" font-family="arial" font-size="10.00"> «abstract» </text>
<text text-anchor="start" x="21.5" y="-84.5" font-family="arial italic" font-size="10.00"> PieceComposite </text>
<polygon fill="none" stroke="black" points="9.5,-58.5 9.5,-77.5 111.5,-77.5 111.5,-58.5 9.5,-58.5"/>
<text text-anchor="start" x="13.5" y="-65.5" font-family="arial" font-size="10.00"> &#45; dureeMontage : int </text>
</a>
</g>
<g><a xlink:href="./PieceComposite.html" xlink:title="&lt;TABLE&gt;">
</a>
</g>
</g>
<!-- c3&#45;&gt;c1 -->
<g id="edge1" class="edge"><title>c3:p&#45;&gt;c1:p</title>
<path fill="none" stroke="black" d="M111.278,-116.086C114.62,-118.523 117.891,-121.007 121,-123.5 138.411,-137.458 138.617,-145.849 157,-158.5 164.179,-163.441 172.243,-167.961 180.258,-171.949"/>
<polygon fill="none" stroke="black" points="113.06,-113.059 102.875,-110.143 109.018,-118.775 113.06,-113.059"/>
</g>
<!-- c3&#45;&gt;c2 -->
<g id="edge2" class="edge"><title>c3:p&#45;&gt;c2:p</title>
<path fill="none" stroke="black" d="M121.631,-99.8525C136.169,-103.565 151.704,-107.531 166.226,-111.239"/>
<polygon fill="none" stroke="black" points="122.304,-96.4123 111.749,-97.3296 120.573,-103.195 122.304,-96.4123"/>
</g>
<!-- c5 -->
<g id="node5" class="node"><title>c5</title>
<g id="a_node5"><a xlink:href="./Piece.html" xlink:title="&lt;TABLE&gt;">
</a>
</g>
<g id="a_node5_3"><a xlink:href="./Piece.html" xlink:title="tp8.Piece">
<polygon fill="none" stroke="black" points="165,-48.5 165,-80.5 289,-80.5 289,-48.5 165,-48.5"/>
<text text-anchor="start" x="201" y="-68.5" font-family="arial" font-size="10.00"> «abstract» </text>
<text text-anchor="start" x="211.5" y="-55.5" font-family="arial italic" font-size="10.00"> Piece </text>
<polygon fill="none" stroke="black" points="165,-3.5 165,-48.5 289,-48.5 289,-3.5 165,-3.5"/>
<text text-anchor="start" x="169" y="-36.5" font-family="arial" font-size="10.00"> &#45; compteurReference : int </text>
<text text-anchor="start" x="169" y="-23.5" font-family="arial" font-size="10.00"> &#45; nom : String </text>
<text text-anchor="start" x="169" y="-10.5" font-family="arial" font-size="10.00"> &#45; reference : String </text>
</a>
</g>
<g><a xlink:href="./Piece.html" xlink:title="&lt;TABLE&gt;">
</a>
</g>
</g>
<!-- c3&#45;&gt;c5 -->
<g id="edge4" class="edge"><title>c3:p&#45;&gt;c5:p</title>
<path fill="none" stroke="black" d="M123.398,-62.1333C136.929,-58.425 151.244,-54.7742 164.75,-51.5878"/>
<polygon fill="black" stroke="black" points="123.304,-62.1595 118.606,-67.6298 111.749,-65.3967 116.448,-59.9264 123.304,-62.1595"/>
<text text-anchor="middle" x="156.75" y="-43.5878" font-family="arial" font-size="10.00">1..*</text>
<text text-anchor="middle" x="108.749" y="-57.3967" font-family="arial" font-size="10.00">1</text>
</g>
<!-- c4 -->
<g id="node4" class="node"><title>c4</title>
<g id="a_node4"><a xlink:href="./PieceBasique.html" xlink:title="&lt;TABLE&gt;">
</a>
</g>
<g id="a_node4_4"><a xlink:href="./PieceBasique.html" xlink:title="tp8.PieceBasique">
<polygon fill="none" stroke="black" points="341,-55.5 341,-74.5 453,-74.5 453,-55.5 341,-55.5"/>
<text text-anchor="start" x="363.5" y="-62.5" font-family="arial" font-size="10.00"> PieceBasique </text>
<polygon fill="none" stroke="black" points="341,-10.5 341,-55.5 453,-55.5 453,-10.5 341,-10.5"/>
<text text-anchor="start" x="345" y="-43.5" font-family="arial" font-size="10.00"> &#45; dureeGarantie : int </text>
<text text-anchor="start" x="345" y="-30.5" font-family="arial" font-size="10.00"> &#45; prix : int </text>
<text text-anchor="start" x="345" y="-17.5" font-family="arial" font-size="10.00"> &#45; dureeFabrication : int </text>
</a>
</g>
<g><a xlink:href="./PieceBasique.html" xlink:title="&lt;TABLE&gt;">
</a>
</g>
</g>
<!-- c5&#45;&gt;c3 -->
<g id="edge3" class="edge"><title>c5:p&#45;&gt;c3:p</title>
<path fill="none" stroke="black" d="M154.808,-67.3722C140.306,-71.2185 125.337,-74.8998 111.749,-77.9441"/>
<polygon fill="none" stroke="black" points="156.007,-70.6738 164.75,-64.6888 154.183,-63.9156 156.007,-70.6738"/>
</g>
<!-- c5&#45;&gt;c4 -->
<g id="edge5" class="edge"><title>c5:p&#45;&gt;c4:p</title>
<path fill="none" stroke="black" d="M299.152,-42.5C313.068,-42.5 327.466,-42.5 340.769,-42.5"/>
<polygon fill="none" stroke="black" points="299.127,-39.0001 289.127,-42.5 299.127,-46.0001 299.127,-39.0001"/>
</g>
<!-- c7 -->
<g id="node6" class="node"><title>c7</title>
<g id="a_node6"><a xlink:href="./NoticeMontage.html" xlink:title="&lt;TABLE&gt;">
</a>
</g>
<g id="a_node6_5"><a xlink:href="./NoticeMontage.html" xlink:title="tp8.NoticeMontage">
<polygon fill="none" stroke="black" points="8.5,-155.5 8.5,-174.5 113.5,-174.5 113.5,-155.5 8.5,-155.5"/>
<text text-anchor="start" x="25" y="-162.5" font-family="arial" font-size="10.00"> NoticeMontage </text>
<polygon fill="none" stroke="black" points="8.5,-136.5 8.5,-155.5 113.5,-155.5 113.5,-136.5 8.5,-136.5"/>
<text text-anchor="start" x="12.5" y="-143.5" font-family="arial" font-size="10.00"> &#45; instructions : String </text>
</a>
</g>
<g><a xlink:href="./NoticeMontage.html" xlink:title="&lt;TABLE&gt;">
</a>
</g>
</g>
</g>
</svg>
