<?xml version="1.0" encoding="UTF-8" standalone="no"?>
<!DOCTYPE svg PUBLIC "-//W3C//DTD SVG 1.1//EN"
 "http://www.w3.org/Graphics/SVG/1.1/DTD/svg11.dtd">
<!-- Generated by graphviz version 2.38.0 (20140413.2041)
 -->
<!-- Title: G Pages: 1 -->
<svg width="144pt" height="459pt"
 viewBox="0.00 0.00 144.00 459.00" xmlns="http://www.w3.org/2000/svg" xmlns:xlink="http://www.w3.org/1999/xlink">
<g id="graph0" class="graph" transform="scale(1 1) rotate(0) translate(4 455)">
<title>G</title>
<polygon fill="white" stroke="none" points="-4,4 -4,-455 140,-455 140,4 -4,4"/>
<!-- c12 -->
<g id="node1" class="node"><title>c12</title>
<g id="a_node1"><a xlink:href="./ObjetPostal.html" xlink:title="&lt;TABLE&gt;">
</a>
</g>
<g id="a_node1_0"><a xlink:href="./ObjetPostal.html" xlink:title="tp3.ObjetPostal">
<polygon fill="none" stroke="black" points="10,-343 10,-375 127,-375 127,-343 10,-343"/>
<text text-anchor="start" x="42.5" y="-363" font-family="arial" font-size="10.00"> «abstract» </text>
<text text-anchor="start" x="39.5" y="-350" font-family="arial italic" font-size="10.00"> ObjetPostal </text>
<polygon fill="none" stroke="black" points="10,-259 10,-343 127,-343 127,-259 10,-259"/>
<text text-anchor="start" x="14" y="-331" font-family="arial" font-size="10.00"> &#45; origine : String </text>
<text text-anchor="start" x="14" y="-318" font-family="arial" font-size="10.00"> &#45; destination : String </text>
<text text-anchor="start" x="14" y="-305" font-family="arial" font-size="10.00"> &#45; codePostal : String </text>
<text text-anchor="start" x="14" y="-292" font-family="arial" font-size="10.00"> &#45; poids : double </text>
<text text-anchor="start" x="14" y="-279" font-family="arial" font-size="10.00"> &#45; volume : double </text>
<text text-anchor="start" x="14" y="-266" font-family="arial" font-size="10.00"> &#45; tauxRec : TauxRecom </text>
</a>
</g>
<g><a xlink:href="./ObjetPostal.html" xlink:title="&lt;TABLE&gt;">
</a>
</g>
</g>
<!-- c17 -->
<g id="node4" class="node"><title>c17</title>
<g id="a_node4"><a xlink:href="./Colis.html" xlink:title="&lt;TABLE&gt;">
</a>
</g>
<g id="a_node4_1"><a xlink:href="./Colis.html" xlink:title="tp3.Colis">
<polygon fill="lemonChiffon" stroke="none" points="13.5,-151 13.5,-215 122.5,-215 122.5,-151 13.5,-151"/>
<polygon fill="none" stroke="black" points="14,-196 14,-215 123,-215 123,-196 14,-196"/>
<text text-anchor="start" x="54.5" y="-203" font-family="arial" font-size="10.00"> Colis </text>
<polygon fill="none" stroke="black" points="14,-151 14,-196 123,-196 123,-151 14,-151"/>
<text text-anchor="start" x="18" y="-184" font-family="arial" font-size="10.00"> &#45; declContenu : String </text>
<text text-anchor="start" x="18" y="-171" font-family="arial" font-size="10.00"> &#45; valeurDecl : double </text>
<text text-anchor="start" x="18" y="-158" font-family="arial" font-size="10.00"> &#45; tarifBase : double </text>
</a>
</g>
<g><a xlink:href="./Colis.html" xlink:title="&lt;TABLE&gt;">
</a>
</g>
</g>
<!-- c12&#45;&gt;c17 -->
<g id="edge3" class="edge"><title>c12:p&#45;&gt;c17:p</title>
<path fill="none" stroke="black" d="M68,-248.582C68,-236.849 68,-225.176 68,-215.047"/>
<polygon fill="none" stroke="black" points="64.5001,-248.871 68,-258.871 71.5001,-248.871 64.5001,-248.871"/>
</g>
<!-- n0cc12 -->
<g id="node2" class="node"><title>n0cc12</title>
<polygon fill="none" stroke="black" points="111.5,-451 18.5,-451 18.5,-415 117.5,-415 117.5,-445 111.5,-451"/>
<polyline fill="none" stroke="black" points="111.5,-451 111.5,-445 "/>
<polyline fill="none" stroke="black" points="117.5,-445 111.5,-445 "/>
<g id="a_node2_2"><a xlink:href="./ObjetPostal.html" xlink:title="tp3.ObjetPostal">
<text text-anchor="start" x="30" y="-430" font-family="arial" font-size="10.00"> Classe abstraite </text>
</a>
</g>
</g>
<!-- n0cc12&#45;&gt;c12 -->
<g id="edge1" class="edge"><title>n0cc12&#45;&gt;c12:p</title>
<path fill="none" stroke="black" d="M68,-414.686C68,-403.972 68,-389.546 68,-375.11"/>
</g>
<!-- c16 -->
<g id="node3" class="node"><title>c16</title>
<g id="a_node3"><a xlink:href="./ColisExpress.html" xlink:title="&lt;TABLE&gt;">
</a>
</g>
<g id="a_node3_3"><a xlink:href="./ColisExpress.html" xlink:title="tp3.ColisExpress">
<polygon fill="none" stroke="black" points="8,-87.5 8,-106.5 128,-106.5 128,-87.5 8,-87.5"/>
<text text-anchor="start" x="36" y="-94.5" font-family="arial" font-size="10.00"> ColisExpress </text>
<polygon fill="none" stroke="black" points="8,-3.5 8,-87.5 128,-87.5 128,-3.5 8,-3.5"/>
<text text-anchor="start" x="12" y="-75.5" font-family="arial" font-size="10.00"> &#45; dateEnvoi : Date </text>
<text text-anchor="start" x="12" y="-62.5" font-family="arial" font-size="10.00"> &#45; numeroSuivi : int </text>
<text text-anchor="start" x="12" y="-49.5" font-family="arial" font-size="10.00"> &#45; emballage : boolean </text>
<text text-anchor="start" x="12" y="-36.5" font-family="arial" font-size="10.00"> &#45; numeroCourant : int </text>
<text text-anchor="start" x="12" y="-23.5" font-family="arial" font-size="10.00"> &#45; tarifEmballage : double </text>
<text text-anchor="start" x="12" y="-10.5" font-family="arial" font-size="10.00"> &#45; tarifBase : double </text>
</a>
</g>
<g><a xlink:href="./ColisExpress.html" xlink:title="&lt;TABLE&gt;">
</a>
</g>
</g>
<!-- c17&#45;&gt;c16 -->
<g id="edge2" class="edge"><title>c17:p&#45;&gt;c16:p</title>
<path fill="none" stroke="black" d="M68,-140.646C68,-129.947 68,-118.304 68,-107.187"/>
<polygon fill="none" stroke="black" points="64.5001,-140.977 68,-150.978 71.5001,-140.978 64.5001,-140.977"/>
</g>
</g>
</svg>
