<?xml version="1.0" encoding="UTF-8" standalone="no"?>
<!DOCTYPE svg PUBLIC "-//W3C//DTD SVG 1.1//EN"
 "http://www.w3.org/Graphics/SVG/1.1/DTD/svg11.dtd">
<!-- Generated by graphviz version 2.38.0 (20140413.2041)
 -->
<!-- Title: G Pages: 1 -->
<svg width="264pt" height="312pt"
 viewBox="0.00 0.00 263.50 312.00" xmlns="http://www.w3.org/2000/svg" xmlns:xlink="http://www.w3.org/1999/xlink">
<g id="graph0" class="graph" transform="scale(1 1) rotate(0) translate(4 308)">
<title>G</title>
<polygon fill="white" stroke="none" points="-4,4 -4,-308 259.5,-308 259.5,4 -4,4"/>
<!-- c32 -->
<g id="node1" class="node"><title>c32</title>
<g id="a_node1"><a xlink:href="./ObjetPostal.html" xlink:title="&lt;TABLE&gt;">
</a>
</g>
<g id="a_node1_0"><a xlink:href="./ObjetPostal.html" xlink:title="tp3.ObjetPostal">
<polygon fill="lemonChiffon" stroke="none" points="65.5,-112 65.5,-228 182.5,-228 182.5,-112 65.5,-112"/>
<polygon fill="none" stroke="black" points="66,-196 66,-228 183,-228 183,-196 66,-196"/>
<text text-anchor="start" x="98.5" y="-216" font-family="arial" font-size="10.00"> «abstract» </text>
<text text-anchor="start" x="95.5" y="-203" font-family="arial italic" font-size="10.00"> ObjetPostal </text>
<polygon fill="none" stroke="black" points="66,-112 66,-196 183,-196 183,-112 66,-112"/>
<text text-anchor="start" x="70" y="-184" font-family="arial" font-size="10.00"> &#45; origine : String </text>
<text text-anchor="start" x="70" y="-171" font-family="arial" font-size="10.00"> &#45; destination : String </text>
<text text-anchor="start" x="70" y="-158" font-family="arial" font-size="10.00"> &#45; codePostal : String </text>
<text text-anchor="start" x="70" y="-145" font-family="arial" font-size="10.00"> &#45; poids : double </text>
<text text-anchor="start" x="70" y="-132" font-family="arial" font-size="10.00"> &#45; volume : double </text>
<text text-anchor="start" x="70" y="-119" font-family="arial" font-size="10.00"> &#45; tauxRec : TauxRecom </text>
</a>
</g>
<g><a xlink:href="./ObjetPostal.html" xlink:title="&lt;TABLE&gt;">
</a>
</g>
</g>
<!-- c33 -->
<g id="node3" class="node"><title>c33</title>
<g id="a_node3"><a xlink:href="./Lettre.html" xlink:title="&lt;TABLE&gt;">
</a>
</g>
<g id="a_node3_1"><a xlink:href="./Lettre.html" xlink:title="tp3.Lettre">
<polygon fill="none" stroke="black" points="8,-42 8,-61 104,-61 104,-42 8,-42"/>
<text text-anchor="start" x="40.5" y="-49" font-family="arial" font-size="10.00"> Lettre </text>
<polygon fill="none" stroke="black" points="8,-10 8,-42 104,-42 104,-10 8,-10"/>
<text text-anchor="start" x="12" y="-30" font-family="arial" font-size="10.00"> &#45; urgente : boolean </text>
<text text-anchor="start" x="12" y="-17" font-family="arial" font-size="10.00"> &#45; tarifBase : double </text>
</a>
</g>
<g><a xlink:href="./Lettre.html" xlink:title="&lt;TABLE&gt;">
</a>
</g>
</g>
<!-- c32&#45;&gt;c33 -->
<g id="edge2" class="edge"><title>c32:p&#45;&gt;c33:p</title>
<path fill="none" stroke="black" d="M89.8801,-102.767C82.3285,-88.1083 74.7848,-73.4647 68.7392,-61.729"/>
<polygon fill="none" stroke="black" points="86.8787,-104.584 94.5697,-111.871 93.1015,-101.378 86.8787,-104.584"/>
</g>
<!-- c35 -->
<g id="node4" class="node"><title>c35</title>
<g id="a_node4"><a xlink:href="./Colis.html" xlink:title="&lt;TABLE&gt;">
</a>
</g>
<g id="a_node4_2"><a xlink:href="./Colis.html" xlink:title="tp3.Colis">
<polygon fill="none" stroke="black" points="139,-49 139,-68 248,-68 248,-49 139,-49"/>
<text text-anchor="start" x="179.5" y="-56" font-family="arial" font-size="10.00"> Colis </text>
<polygon fill="none" stroke="black" points="139,-4 139,-49 248,-49 248,-4 139,-4"/>
<text text-anchor="start" x="143" y="-37" font-family="arial" font-size="10.00"> &#45; declContenu : String </text>
<text text-anchor="start" x="143" y="-24" font-family="arial" font-size="10.00"> &#45; valeurDecl : double </text>
<text text-anchor="start" x="143" y="-11" font-family="arial" font-size="10.00"> &#45; tarifBase : double </text>
</a>
</g>
<g><a xlink:href="./Colis.html" xlink:title="&lt;TABLE&gt;">
</a>
</g>
</g>
<!-- c32&#45;&gt;c35 -->
<g id="edge3" class="edge"><title>c32:p&#45;&gt;c35:p</title>
<path fill="none" stroke="black" d="M158.498,-103.004C164.88,-90.795 171.262,-78.5856 176.771,-68.0472"/>
<polygon fill="none" stroke="black" points="155.394,-101.387 153.863,-111.871 161.597,-104.63 155.394,-101.387"/>
</g>
<!-- n0cc32 -->
<g id="node2" class="node"><title>n0cc32</title>
<polygon fill="none" stroke="black" points="167.5,-304 74.5,-304 74.5,-268 173.5,-268 173.5,-298 167.5,-304"/>
<polyline fill="none" stroke="black" points="167.5,-304 167.5,-298 "/>
<polyline fill="none" stroke="black" points="173.5,-298 167.5,-298 "/>
<g id="a_node2_3"><a xlink:href="./ObjetPostal.html" xlink:title="tp3.ObjetPostal">
<text text-anchor="start" x="86" y="-283" font-family="arial" font-size="10.00"> Classe abstraite </text>
</a>
</g>
</g>
<!-- n0cc32&#45;&gt;c32 -->
<g id="edge1" class="edge"><title>n0cc32&#45;&gt;c32:p</title>
<path fill="none" stroke="black" d="M124,-267.686C124,-256.972 124,-242.546 124,-228.11"/>
</g>
</g>
</svg>
