<?xml version="1.0" encoding="UTF-8" standalone="no"?>
<!DOCTYPE svg PUBLIC "-//W3C//DTD SVG 1.1//EN"
 "http://www.w3.org/Graphics/SVG/1.1/DTD/svg11.dtd">
<!-- Generated by graphviz version 2.38.0 (20140413.2041)
 -->
<!-- Title: G Pages: 1 -->
<svg width="211pt" height="48pt"
 viewBox="0.00 0.00 211.00 48.00" xmlns="http://www.w3.org/2000/svg" xmlns:xlink="http://www.w3.org/1999/xlink">
<g id="graph0" class="graph" transform="scale(1 1) rotate(0) translate(4 44)">
<title>G</title>
<polygon fill="white" stroke="none" points="-4,4 -4,-44 207,-44 207,4 -4,4"/>
<!-- c54 -->
<g id="node1" class="node"><title>c54</title>
<g id="a_node1"><a xlink:href="./PieceBasique.html" xlink:title="&lt;TABLE&gt;">
</a>
</g>
<g id="a_node1_0"><a xlink:href="./PieceBasique.html" xlink:title="tp8.PieceBasique">
<polygon fill="lemonChiffon" stroke="none" points="120,-10.5 120,-29.5 195,-29.5 195,-10.5 120,-10.5"/>
<polygon fill="none" stroke="black" points="120.5,-10 120.5,-29 195.5,-29 195.5,-10 120.5,-10"/>
<text text-anchor="start" x="124.5" y="-17" font-family="arial" font-size="10.00"> PieceBasique </text>
</a>
</g>
<g><a xlink:href="./PieceBasique.html" xlink:title="&lt;TABLE&gt;">
</a>
</g>
</g>
<!-- c55 -->
<g id="node2" class="node"><title>c55</title>
<g id="a_node2"><a xlink:href="./Piece.html" xlink:title="&lt;TABLE&gt;">
</a>
</g>
<g id="a_node2_1"><a xlink:href="./Piece.html" xlink:title="tp8.Piece">
<polygon fill="none" stroke="black" points="8,-4 8,-36 68,-36 68,-4 8,-4"/>
<text text-anchor="start" x="12" y="-24" font-family="arial" font-size="10.00"> «abstract» </text>
<text text-anchor="start" x="22.5" y="-11" font-family="arial italic" font-size="10.00"> Piece </text>
</a>
</g>
<g><a xlink:href="./Piece.html" xlink:title="&lt;TABLE&gt;">
</a>
</g>
</g>
<!-- c55&#45;&gt;c54 -->
<g id="edge1" class="edge"><title>c55:p&#45;&gt;c54:p</title>
<path fill="none" stroke="black" d="M78.3827,-20C91.7526,-20 106.629,-20 119.783,-20"/>
<polygon fill="none" stroke="black" points="78.045,-16.5001 68.045,-20 78.0449,-23.5001 78.045,-16.5001"/>
</g>
</g>
</svg>
