<?xml version="1.0" encoding="UTF-8" standalone="no"?>
<!DOCTYPE svg PUBLIC "-//W3C//DTD SVG 1.1//EN"
 "http://www.w3.org/Graphics/SVG/1.1/DTD/svg11.dtd">
<!-- Generated by graphviz version 2.38.0 (20140413.2041)
 -->
<!-- Title: G Pages: 1 -->
<svg width="225pt" height="48pt"
 viewBox="0.00 0.00 225.00 48.00" xmlns="http://www.w3.org/2000/svg" xmlns:xlink="http://www.w3.org/1999/xlink">
<g id="graph0" class="graph" transform="scale(1 1) rotate(0) translate(4 44)">
<title>G</title>
<polygon fill="white" stroke="none" points="-4,4 -4,-44 221,-44 221,4 -4,4"/>
<!-- c68 -->
<g id="node1" class="node"><title>c68</title>
<g id="a_node1"><a xlink:href="./PieceEnKit.html" xlink:title="&lt;TABLE&gt;">
</a>
</g>
<g id="a_node1_0"><a xlink:href="./PieceEnKit.html" xlink:title="tp8.PieceEnKit">
<polygon fill="lemonChiffon" stroke="none" points="146,-10.5 146,-29.5 209,-29.5 209,-10.5 146,-10.5"/>
<polygon fill="none" stroke="black" points="146.5,-10 146.5,-29 209.5,-29 209.5,-10 146.5,-10"/>
<text text-anchor="start" x="150.5" y="-17" font-family="arial" font-size="10.00"> PieceEnKit </text>
</a>
</g>
<g><a xlink:href="./PieceEnKit.html" xlink:title="&lt;TABLE&gt;">
</a>
</g>
</g>
<!-- c69 -->
<g id="node2" class="node"><title>c69</title>
<g id="a_node2"><a xlink:href="./PieceComposite.html" xlink:title="&lt;TABLE&gt;">
</a>
</g>
<g id="a_node2_1"><a xlink:href="./PieceComposite.html" xlink:title="tp8.PieceComposite">
<polygon fill="none" stroke="black" points="8,-4 8,-36 94,-36 94,-4 8,-4"/>
<text text-anchor="start" x="25" y="-24" font-family="arial" font-size="10.00"> «abstract» </text>
<text text-anchor="start" x="12" y="-11" font-family="arial italic" font-size="10.00"> PieceComposite </text>
</a>
</g>
<g><a xlink:href="./PieceComposite.html" xlink:title="&lt;TABLE&gt;">
</a>
</g>
</g>
<!-- c69&#45;&gt;c68 -->
<g id="edge1" class="edge"><title>c69:p&#45;&gt;c68:p</title>
<path fill="none" stroke="black" d="M104.281,-20C118.425,-20 133.274,-20 145.805,-20"/>
<polygon fill="none" stroke="black" points="104.15,-16.5001 94.15,-20 104.15,-23.5001 104.15,-16.5001"/>
</g>
</g>
</svg>
