<?xml version="1.0" encoding="UTF-8" standalone="no"?>
<!DOCTYPE svg PUBLIC "-//W3C//DTD SVG 1.1//EN"
 "http://www.w3.org/Graphics/SVG/1.1/DTD/svg11.dtd">
<!-- Generated by graphviz version 2.38.0 (20140413.2041)
 -->
<!-- Title: G Pages: 1 -->
<svg width="430pt" height="236pt"
 viewBox="0.00 0.00 430.00 236.00" xmlns="http://www.w3.org/2000/svg" xmlns:xlink="http://www.w3.org/1999/xlink">
<g id="graph0" class="graph" transform="scale(1 1) rotate(0) translate(4 232)">
<title>G</title>
<polygon fill="white" stroke="none" points="-4,4 -4,-232 426,-232 426,4 -4,4"/>
<!-- c0 -->
<g id="node1" class="node"><title>c0</title>
<g id="a_node1"><a xlink:href="./PieceMontee.html" xlink:title="&lt;TABLE&gt;">
</a>
</g>
<g id="a_node1_0"><a xlink:href="./PieceMontee.html" xlink:title="tp8.PieceMontee">
<polygon fill="none" stroke="black" points="342,-91 342,-110 414,-110 414,-91 342,-91"/>
<text text-anchor="start" x="346" y="-98" font-family="arial" font-size="10.00"> PieceMontee </text>
</a>
</g>
<g><a xlink:href="./PieceMontee.html" xlink:title="&lt;TABLE&gt;">
</a>
</g>
</g>
<!-- c1 -->
<g id="node2" class="node"><title>c1</title>
<g id="a_node2"><a xlink:href="./PieceEnKit.html" xlink:title="&lt;TABLE&gt;">
</a>
</g>
<g id="a_node2_1"><a xlink:href="./PieceEnKit.html" xlink:title="tp8.PieceEnKit">
<polygon fill="none" stroke="black" points="347,-37 347,-56 410,-56 410,-37 347,-37"/>
<text text-anchor="start" x="351" y="-44" font-family="arial" font-size="10.00"> PieceEnKit </text>
</a>
</g>
<g><a xlink:href="./PieceEnKit.html" xlink:title="&lt;TABLE&gt;">
</a>
</g>
</g>
<!-- c2 -->
<g id="node3" class="node"><title>c2</title>
<g id="a_node3"><a xlink:href="./PieceComposite.html" xlink:title="&lt;TABLE&gt;">
</a>
</g>
<g id="a_node3_2"><a xlink:href="./PieceComposite.html" xlink:title="tp8.PieceComposite">
<polygon fill="none" stroke="black" points="204,-58 204,-90 290,-90 290,-58 204,-58"/>
<text text-anchor="start" x="221" y="-78" font-family="arial" font-size="10.00"> «abstract» </text>
<text text-anchor="start" x="208" y="-65" font-family="arial italic" font-size="10.00"> PieceComposite </text>
</a>
</g>
<g><a xlink:href="./PieceComposite.html" xlink:title="&lt;TABLE&gt;">
</a>
</g>
</g>
<!-- c2&#45;&gt;c0 -->
<g id="edge1" class="edge"><title>c2:p&#45;&gt;c0:p</title>
<path fill="none" stroke="black" d="M300.277,-84.9418C314.312,-87.8793 329.148,-90.9845 341.995,-93.6734"/>
<polygon fill="none" stroke="black" points="300.744,-81.4638 290.239,-82.8408 299.31,-88.3153 300.744,-81.4638"/>
</g>
<!-- c2&#45;&gt;c1 -->
<g id="edge2" class="edge"><title>c2:p&#45;&gt;c1:p</title>
<path fill="none" stroke="black" d="M300.285,-63.0567C315.847,-59.7994 332.395,-56.336 346.122,-53.4629"/>
<polygon fill="none" stroke="black" points="299.31,-59.6847 290.239,-65.1592 300.744,-66.5362 299.31,-59.6847"/>
</g>
<!-- c3 -->
<g id="node4" class="node"><title>c3</title>
<g id="a_node4"><a xlink:href="./PieceBasique.html" xlink:title="&lt;TABLE&gt;">
</a>
</g>
<g id="a_node4_3"><a xlink:href="./PieceBasique.html" xlink:title="tp8.PieceBasique">
<polygon fill="none" stroke="black" points="210,-8 210,-27 285,-27 285,-8 210,-8"/>
<text text-anchor="start" x="214" y="-15" font-family="arial" font-size="10.00"> PieceBasique </text>
</a>
</g>
<g><a xlink:href="./PieceBasique.html" xlink:title="&lt;TABLE&gt;">
</a>
</g>
</g>
<!-- c4 -->
<g id="node5" class="node"><title>c4</title>
<g id="a_node5"><a xlink:href="./Piece.html" xlink:title="&lt;TABLE&gt;">
</a>
</g>
<g id="a_node5_4"><a xlink:href="./Piece.html" xlink:title="tp8.Piece">
<polygon fill="none" stroke="black" points="50,-30 50,-62 110,-62 110,-30 50,-30"/>
<text text-anchor="start" x="54" y="-50" font-family="arial" font-size="10.00"> «abstract» </text>
<text text-anchor="start" x="64.5" y="-37" font-family="arial italic" font-size="10.00"> Piece </text>
</a>
</g>
<g><a xlink:href="./Piece.html" xlink:title="&lt;TABLE&gt;">
</a>
</g>
</g>
<!-- c4&#45;&gt;c2 -->
<g id="edge3" class="edge"><title>c4:p&#45;&gt;c2:p</title>
<path fill="none" stroke="black" d="M120.07,-52.6301C145.281,-56.9083 178.06,-62.4708 203.856,-66.8482"/>
<polygon fill="none" stroke="black" points="120.564,-49.1638 110.119,-50.9414 119.392,-56.0652 120.564,-49.1638"/>
</g>
<!-- c4&#45;&gt;c3 -->
<g id="edge4" class="edge"><title>c4:p&#45;&gt;c3:p</title>
<path fill="none" stroke="black" d="M120.022,-39.378C147.076,-34.7871 182.863,-28.7142 209.379,-24.2145"/>
<polygon fill="none" stroke="black" points="119.392,-35.9348 110.119,-41.0586 120.564,-42.8362 119.392,-35.9348"/>
</g>
<!-- c5 -->
<g id="node6" class="node"><title>c5</title>
<g id="a_node6"><a xlink:href="./NoticeMontage.html" xlink:title="&lt;TABLE&gt;">
</a>
</g>
<g id="a_node6_5"><a xlink:href="./NoticeMontage.html" xlink:title="tp8.NoticeMontage">
<polygon fill="none" stroke="black" points="40,-92 40,-111 120,-111 120,-92 40,-92"/>
<text text-anchor="start" x="44" y="-99" font-family="arial" font-size="10.00"> NoticeMontage </text>
</a>
</g>
<g><a xlink:href="./NoticeMontage.html" xlink:title="&lt;TABLE&gt;">
</a>
</g>
</g>
<!-- c6 -->
<g id="node7" class="node"><title>c6</title>
<g id="a_node7"><a xlink:href="./ComparateurGarantie.html" xlink:title="&lt;TABLE&gt;">
</a>
</g>
<g id="a_node7_6"><a xlink:href="./ComparateurGarantie.html" xlink:title="tp8.ComparateurGarantie">
<polygon fill="none" stroke="black" points="27,-146 27,-165 134,-165 134,-146 27,-146"/>
<text text-anchor="start" x="31" y="-153" font-family="arial" font-size="10.00"> ComparateurGarantie </text>
</a>
</g>
<g><a xlink:href="./ComparateurGarantie.html" xlink:title="&lt;TABLE&gt;">
</a>
</g>
</g>
<!-- c7 -->
<g id="node8" class="node"><title>c7</title>
<g id="a_node8"><a xlink:href="./ComparateurDureeFabrication.html" xlink:title="&lt;TABLE&gt;">
</a>
</g>
<g id="a_node8_7"><a xlink:href="./ComparateurDureeFabrication.html" xlink:title="tp8.ComparateurDureeFabrication">
<polygon fill="none" stroke="black" points="8,-200 8,-219 152,-219 152,-200 8,-200"/>
<text text-anchor="start" x="12" y="-207" font-family="arial" font-size="10.00"> ComparateurDureeFabrication </text>
</a>
</g>
<g><a xlink:href="./ComparateurDureeFabrication.html" xlink:title="&lt;TABLE&gt;">
</a>
</g>
</g>
</g>
</svg>
