<?xml version="1.0" encoding="UTF-8" standalone="no"?>
<!DOCTYPE svg PUBLIC "-//W3C//DTD SVG 1.1//EN"
 "http://www.w3.org/Graphics/SVG/1.1/DTD/svg11.dtd">
<!-- Generated by graphviz version 2.38.0 (20140413.2041)
 -->
<!-- Title: G Pages: 1 -->
<svg width="196pt" height="610pt"
 viewBox="0.00 0.00 196.00 610.00" xmlns="http://www.w3.org/2000/svg" xmlns:xlink="http://www.w3.org/1999/xlink">
<g id="graph0" class="graph" transform="scale(1 1) rotate(0) translate(4 606)">
<title>G</title>
<polygon fill="white" stroke="none" points="-4,4 -4,-606 192,-606 192,4 -4,4"/>
<!-- c26 -->
<g id="node1" class="node"><title>c26</title>
<g id="a_node1"><a xlink:href="./ObjetPostal.html" xlink:title="&lt;TABLE&gt;">
</a>
</g>
<g id="a_node1_0"><a xlink:href="./ObjetPostal.html" xlink:title="tp3.ObjetPostal">
<polygon fill="none" stroke="black" points="8,-494 8,-526 180,-526 180,-494 8,-494"/>
<text text-anchor="start" x="68" y="-514" font-family="arial" font-size="10.00"> «abstract» </text>
<text text-anchor="start" x="65" y="-501" font-family="arial italic" font-size="10.00"> ObjetPostal </text>
<polygon fill="none" stroke="black" points="8,-410 8,-494 180,-494 180,-410 8,-410"/>
<text text-anchor="start" x="12" y="-482" font-family="arial" font-size="10.00"> &#160;origine : String </text>
<text text-anchor="start" x="12" y="-469" font-family="arial" font-size="10.00"> &#160;destination : String </text>
<text text-anchor="start" x="12" y="-456" font-family="arial" font-size="10.00"> &#160;codePostal : String </text>
<text text-anchor="start" x="12" y="-443" font-family="arial" font-size="10.00"> &#160;poids : double </text>
<text text-anchor="start" x="12" y="-430" font-family="arial" font-size="10.00"> &#160;volume : double </text>
<text text-anchor="start" x="12" y="-417" font-family="arial" font-size="10.00"> &#160;tauxRec : TauxRecom </text>
<polygon fill="none" stroke="black" points="8,-170 8,-410 180,-410 180,-170 8,-170"/>
<text text-anchor="start" x="12" y="-398" font-family="arial" font-size="10.00"> &#160;getOrigine() : String </text>
<text text-anchor="start" x="12" y="-385" font-family="arial" font-size="10.00"> &#160;setOrigine(origine : String) </text>
<text text-anchor="start" x="12" y="-372" font-family="arial" font-size="10.00"> &#160;getDestination() : String </text>
<text text-anchor="start" x="12" y="-359" font-family="arial" font-size="10.00"> &#160;setDestination(destination : String) </text>
<text text-anchor="start" x="12" y="-346" font-family="arial" font-size="10.00"> &#160;getCodePostal() : String </text>
<text text-anchor="start" x="12" y="-333" font-family="arial" font-size="10.00"> &#160;setCodePostal(codePostal : String) </text>
<text text-anchor="start" x="12" y="-320" font-family="arial" font-size="10.00"> &#160;getPoids() : double </text>
<text text-anchor="start" x="12" y="-307" font-family="arial" font-size="10.00"> &#160;setPoids(poids : double) </text>
<text text-anchor="start" x="12" y="-294" font-family="arial" font-size="10.00"> &#160;getVolume() : double </text>
<text text-anchor="start" x="12" y="-281" font-family="arial" font-size="10.00"> &#160;setVolume(volume : double) </text>
<text text-anchor="start" x="12" y="-268" font-family="arial" font-size="10.00"> &#160;getTauxRec() : TauxRecom </text>
<text text-anchor="start" x="12" y="-255" font-family="arial" font-size="10.00"> &#160;setTauxRec(tauxRec : TauxRecom) </text>
<text text-anchor="start" x="12" y="-242" font-family="arial italic" font-size="10.00"> &#160;getTarifBase() : double </text>
<text text-anchor="start" x="12" y="-229" font-family="arial" font-size="10.00"> &#160;tarifAff() : double </text>
<text text-anchor="start" x="12" y="-216" font-family="arial italic" font-size="10.00"> &#160;tarifRemb() : double </text>
<text text-anchor="start" x="12" y="-203" font-family="arial italic" font-size="10.00"> &#160;getTypeObjet() : String </text>
<text text-anchor="start" x="12" y="-190" font-family="arial" font-size="10.00"> &#160;toString() : String </text>
<text text-anchor="start" x="12" y="-177" font-family="arial" font-size="10.00"> &#160;affiche() </text>
</a>
</g>
<g><a xlink:href="./ObjetPostal.html" xlink:title="&lt;TABLE&gt;">
</a>
</g>
</g>
<!-- c27 -->
<g id="node3" class="node"><title>c27</title>
<g id="a_node3"><a xlink:href="./Lettre.html" xlink:title="&lt;TABLE&gt;">
</a>
</g>
<g id="a_node3_1"><a xlink:href="./Lettre.html" xlink:title="tp3.Lettre">
<polygon fill="lemonChiffon" stroke="none" points="36,-4 36,-126 152,-126 152,-4 36,-4"/>
<polygon fill="none" stroke="black" points="36,-107 36,-126 152,-126 152,-107 36,-107"/>
<text text-anchor="start" x="78.5" y="-114" font-family="arial" font-size="10.00"> Lettre </text>
<polygon fill="none" stroke="black" points="36,-75 36,-107 152,-107 152,-75 36,-75"/>
<text text-anchor="start" x="40" y="-95" font-family="arial" font-size="10.00"> &#160;urgente : boolean </text>
<text text-anchor="start" x="40" y="-82" font-family="arial" font-size="10.00"> &#160;tarifBase : double </text>
<polygon fill="none" stroke="black" points="36,-4 36,-75 152,-75 152,-4 36,-4"/>
<text text-anchor="start" x="40" y="-63" font-family="arial" font-size="10.00"> &#160;getTarifBase() : double </text>
<text text-anchor="start" x="40" y="-50" font-family="arial" font-size="10.00"> &#160;tarifAff() : double </text>
<text text-anchor="start" x="40" y="-37" font-family="arial" font-size="10.00"> &#160;tarifRemb() : double </text>
<text text-anchor="start" x="40" y="-24" font-family="arial" font-size="10.00"> &#160;getTypeObjet() : String </text>
<text text-anchor="start" x="40" y="-11" font-family="arial" font-size="10.00"> &#160;toString() : String </text>
</a>
</g>
<g><a xlink:href="./Lettre.html" xlink:title="&lt;TABLE&gt;">
</a>
</g>
</g>
<!-- c26&#45;&gt;c27 -->
<g id="edge2" class="edge"><title>c26:p&#45;&gt;c27:p</title>
<path fill="none" stroke="black" d="M94,-159.795C94,-147.97 94,-136.644 94,-126.207"/>
<polygon fill="none" stroke="black" points="90.5001,-159.836 94,-169.836 97.5001,-159.836 90.5001,-159.836"/>
</g>
<!-- n0cc26 -->
<g id="node2" class="node"><title>n0cc26</title>
<polygon fill="none" stroke="black" points="137.5,-602 44.5,-602 44.5,-566 143.5,-566 143.5,-596 137.5,-602"/>
<polyline fill="none" stroke="black" points="137.5,-602 137.5,-596 "/>
<polyline fill="none" stroke="black" points="143.5,-596 137.5,-596 "/>
<g id="a_node2_2"><a xlink:href="./ObjetPostal.html" xlink:title="tp3.ObjetPostal">
<text text-anchor="start" x="56" y="-581" font-family="arial" font-size="10.00"> Classe abstraite </text>
</a>
</g>
</g>
<!-- n0cc26&#45;&gt;c26 -->
<g id="edge1" class="edge"><title>n0cc26&#45;&gt;c26:p</title>
<path fill="none" stroke="black" d="M94,-565.793C94,-555.767 94,-541.997 94,-526.219"/>
</g>
</g>
</svg>
