<?xml version="1.0" encoding="UTF-8" standalone="no"?>
<!DOCTYPE svg PUBLIC "-//W3C//DTD SVG 1.1//EN"
 "http://www.w3.org/Graphics/SVG/1.1/DTD/svg11.dtd">
<!-- Generated by graphviz version 2.38.0 (20140413.2041)
 -->
<!-- Title: G Pages: 1 -->
<svg width="409pt" height="190pt"
 viewBox="0.00 0.00 409.00 190.00" xmlns="http://www.w3.org/2000/svg" xmlns:xlink="http://www.w3.org/1999/xlink">
<g id="graph0" class="graph" transform="scale(1 1) rotate(0) translate(4 186)">
<title>G</title>
<polygon fill="white" stroke="none" points="-4,4 -4,-186 405,-186 405,4 -4,4"/>
<!-- c30 -->
<g id="node1" class="node"><title>c30</title>
<g id="a_node1"><a xlink:href="./Personne.html" xlink:title="&lt;TABLE&gt;">
</a>
</g>
<g id="a_node1_0"><a xlink:href="./Personne.html" xlink:title="tp6.Personne">
<polygon fill="lemonChiffon" stroke="none" points="8,-4 8,-178 393,-178 393,-4 8,-4"/>
<polygon fill="none" stroke="black" points="8.5,-159 8.5,-178 393.5,-178 393.5,-159 8.5,-159"/>
<text text-anchor="start" x="177" y="-166" font-family="arial" font-size="10.00"> Personne </text>
<polygon fill="none" stroke="black" points="8.5,-101 8.5,-159 393.5,-159 393.5,-101 8.5,-101"/>
<text text-anchor="start" x="12.5" y="-147" font-family="arial" font-size="10.00"> &#45; nom : String </text>
<text text-anchor="start" x="12.5" y="-134" font-family="arial" font-size="10.00"> &#45; prenom : String </text>
<text text-anchor="start" x="12.5" y="-121" font-family="arial" font-size="10.00"> &#45; contratsArchives : ArrayList&lt;ContratVieCommune&gt; </text>
<text text-anchor="start" x="12.5" y="-108" font-family="arial" font-size="10.00"> &#45; contratCourant : ContratVieCommune </text>
<polygon fill="none" stroke="black" points="8.5,-4 8.5,-101 393.5,-101 393.5,-4 8.5,-4"/>
<text text-anchor="start" x="12.5" y="-89" font-family="arial" font-size="10.00"> + Personne(nom : String, prenom : String) </text>
<text text-anchor="start" x="12.5" y="-76" font-family="arial" font-size="10.00"> + resilier(c : ContratVieCommune) </text>
<text text-anchor="start" x="12.5" y="-63" font-family="arial" font-size="10.00"> &#45; verifierDateContrats(contrat1 : ContratVieCommune, contrat2 : ContratVieCommune) </text>
<text text-anchor="start" x="12.5" y="-50" font-family="arial" font-size="10.00"> + verifierDateContrat() </text>
<text text-anchor="start" x="12.5" y="-37" font-family="arial" font-size="10.00"> + archiver(c : ContratVieCommune) </text>
<text text-anchor="start" x="12.5" y="-24" font-family="arial" font-size="10.00"> + getContratsArchives() : ArrayList&lt;ContratVieCommune&gt; </text>
<text text-anchor="start" x="12.5" y="-11" font-family="arial" font-size="10.00"> + getContratCourant() : ContratVieCommune </text>
</a>
</g>
<g><a xlink:href="./Personne.html" xlink:title="&lt;TABLE&gt;">
</a>
</g>
</g>
</g>
</svg>
