<?xml version="1.0" encoding="UTF-8" standalone="no"?>
<!DOCTYPE svg PUBLIC "-//W3C//DTD SVG 1.1//EN"
 "http://www.w3.org/Graphics/SVG/1.1/DTD/svg11.dtd">
<!-- Generated by graphviz version 2.38.0 (20140413.2041)
 -->
<!-- Title: G Pages: 1 -->
<svg width="483pt" height="268pt"
 viewBox="0.00 0.00 483.00 268.00" xmlns="http://www.w3.org/2000/svg" xmlns:xlink="http://www.w3.org/1999/xlink">
<g id="graph0" class="graph" transform="scale(1 1) rotate(0) translate(4 264)">
<title>G</title>
<polygon fill="white" stroke="none" points="-4,4 -4,-264 479,-264 479,4 -4,4"/>
<!-- c68 -->
<g id="node1" class="node"><title>c68</title>
<g id="a_node1"><a xlink:href="./PieceEnKit.html" xlink:title="&lt;TABLE&gt;">
</a>
</g>
<g id="a_node1_0"><a xlink:href="./PieceEnKit.html" xlink:title="tp8.PieceEnKit">
<polygon fill="lemonChiffon" stroke="none" points="296,-62.5 296,-197.5 467,-197.5 467,-62.5 296,-62.5"/>
<polygon fill="none" stroke="black" points="296.5,-178 296.5,-197 467.5,-197 467.5,-178 296.5,-178"/>
<text text-anchor="start" x="354.5" y="-185" font-family="arial" font-size="10.00"> PieceEnKit </text>
<polygon fill="none" stroke="black" points="296.5,-159 296.5,-178 467.5,-178 467.5,-159 296.5,-159"/>
<text text-anchor="start" x="300.5" y="-166" font-family="arial" font-size="10.00"> &#45; notice : NoticeMontage </text>
<polygon fill="none" stroke="black" points="296.5,-62 296.5,-159 467.5,-159 467.5,-62 296.5,-62"/>
<text text-anchor="start" x="300.5" y="-147" font-family="arial" font-size="10.00"> + getNotice() : NoticeMontage </text>
<text text-anchor="start" x="300.5" y="-134" font-family="arial" font-size="10.00"> + setNotice(notice : NoticeMontage) </text>
<text text-anchor="start" x="300.5" y="-121" font-family="arial" font-size="10.00"> + dureeGarantie() : int </text>
<text text-anchor="start" x="300.5" y="-108" font-family="arial" font-size="10.00"> + dureeFabrication() : int </text>
<text text-anchor="start" x="300.5" y="-95" font-family="arial" font-size="10.00"> + afficheInfoSupplementaires() </text>
<text text-anchor="start" x="300.5" y="-82" font-family="arial" font-size="10.00"> &#45; dureeMontage() : String </text>
<text text-anchor="start" x="300.5" y="-69" font-family="arial" font-size="10.00"> # getPrefixe() : String </text>
</a>
</g>
<g><a xlink:href="./PieceEnKit.html" xlink:title="&lt;TABLE&gt;">
</a>
</g>
</g>
<!-- c69 -->
<g id="node2" class="node"><title>c69</title>
<g id="a_node2"><a xlink:href="./PieceComposite.html" xlink:title="&lt;TABLE&gt;">
</a>
</g>
<g id="a_node2_1"><a xlink:href="./PieceComposite.html" xlink:title="tp8.PieceComposite">
<polygon fill="none" stroke="black" points="8,-224 8,-256 244,-256 244,-224 8,-224"/>
<text text-anchor="start" x="100" y="-244" font-family="arial" font-size="10.00"> «abstract» </text>
<text text-anchor="start" x="87" y="-231" font-family="arial italic" font-size="10.00"> PieceComposite </text>
<polygon fill="none" stroke="black" points="8,-192 8,-224 244,-224 244,-192 8,-192"/>
<text text-anchor="start" x="12" y="-212" font-family="arial" font-size="10.00"> &#45; composants : ArrayList&lt;Piece&gt; </text>
<text text-anchor="start" x="12" y="-199" font-family="arial" font-size="10.00"> &#45; dureeMontage : int </text>
<polygon fill="none" stroke="black" points="8,-4 8,-192 244,-192 244,-4 8,-4"/>
<text text-anchor="start" x="12" y="-180" font-family="arial" font-size="10.00"> + getComposants() : ArrayList&lt;Piece&gt; </text>
<text text-anchor="start" x="12" y="-167" font-family="arial" font-size="10.00"> + setComposants(composants : ArrayList&lt;Piece&gt;) </text>
<text text-anchor="start" x="12" y="-154" font-family="arial" font-size="10.00"> + getDureeMontage() : int </text>
<text text-anchor="start" x="12" y="-141" font-family="arial" font-size="10.00"> + setDureeMontage(dureeMontage : int) </text>
<text text-anchor="start" x="12" y="-128" font-family="arial" font-size="10.00"> + ajoute(p : Piece) </text>
<text text-anchor="start" x="12" y="-115" font-family="arial" font-size="10.00"> + toString(i : int) : String </text>
<text text-anchor="start" x="12" y="-102" font-family="arial" font-size="10.00"> + toString() : String </text>
<text text-anchor="start" x="12" y="-89" font-family="arial" font-size="10.00"> «abstract» </text>
<text text-anchor="start" x="12" y="-76" font-family="arial italic" font-size="10.00"> + afficheInfoSupplementaires() </text>
<text text-anchor="start" x="12" y="-63" font-family="arial" font-size="10.00"> # plusFaibleGarantie() : Piece </text>
<text text-anchor="start" x="12" y="-50" font-family="arial" font-size="10.00"> # plusGrandeDureeFabrication() : Piece </text>
<text text-anchor="start" x="12" y="-37" font-family="arial" font-size="10.00"> + affiche() </text>
<text text-anchor="start" x="12" y="-24" font-family="arial" font-size="10.00"> + prix() : int </text>
<text text-anchor="start" x="12" y="-11" font-family="arial" font-size="10.00"> + main(args : String[]) </text>
</a>
</g>
<g><a xlink:href="./PieceComposite.html" xlink:title="&lt;TABLE&gt;">
</a>
</g>
</g>
<!-- c69&#45;&gt;c68 -->
<g id="edge1" class="edge"><title>c69:p&#45;&gt;c68:p</title>
<path fill="none" stroke="black" d="M254.307,-130C268.332,-130 282.347,-130 295.667,-130"/>
<polygon fill="none" stroke="black" points="254.104,-126.5 244.104,-130 254.103,-133.5 254.104,-126.5"/>
</g>
</g>
</svg>
