<?xml version="1.0" encoding="UTF-8" standalone="no"?>
<!DOCTYPE svg PUBLIC "-//W3C//DTD SVG 1.1//EN"
 "http://www.w3.org/Graphics/SVG/1.1/DTD/svg11.dtd">
<!-- Generated by graphviz version 2.38.0 (20140413.2041)
 -->
<!-- Title: G Pages: 1 -->
<svg width="473pt" height="494pt"
 viewBox="0.00 0.00 473.00 494.00" xmlns="http://www.w3.org/2000/svg" xmlns:xlink="http://www.w3.org/1999/xlink">
<g id="graph0" class="graph" transform="scale(1 1) rotate(0) translate(4 490)">
<title>G</title>
<polygon fill="white" stroke="none" points="-4,4 -4,-490 469,-490 469,4 -4,4"/>
<!-- c45 -->
<g id="node1" class="node"><title>c45</title>
<g id="a_node1"><a xlink:href="./PieceComposite.html" xlink:title="&lt;TABLE&gt;">
</a>
</g>
<g id="a_node1_0"><a xlink:href="./PieceComposite.html" xlink:title="tp8.PieceComposite">
<polygon fill="none" stroke="black" points="221,-450 221,-482 457,-482 457,-450 221,-450"/>
<text text-anchor="start" x="313" y="-470" font-family="arial" font-size="10.00"> «abstract» </text>
<text text-anchor="start" x="300" y="-457" font-family="arial italic" font-size="10.00"> PieceComposite </text>
<polygon fill="none" stroke="black" points="221,-418 221,-450 457,-450 457,-418 221,-418"/>
<text text-anchor="start" x="225" y="-438" font-family="arial" font-size="10.00"> &#45; composants : ArrayList&lt;Piece&gt; </text>
<text text-anchor="start" x="225" y="-425" font-family="arial" font-size="10.00"> &#45; dureeMontage : int </text>
<polygon fill="none" stroke="black" points="221,-230 221,-418 457,-418 457,-230 221,-230"/>
<text text-anchor="start" x="225" y="-406" font-family="arial" font-size="10.00"> + getComposants() : ArrayList&lt;Piece&gt; </text>
<text text-anchor="start" x="225" y="-393" font-family="arial" font-size="10.00"> + setComposants(composants : ArrayList&lt;Piece&gt;) </text>
<text text-anchor="start" x="225" y="-380" font-family="arial" font-size="10.00"> + getDureeMontage() : int </text>
<text text-anchor="start" x="225" y="-367" font-family="arial" font-size="10.00"> + setDureeMontage(dureeMontage : int) </text>
<text text-anchor="start" x="225" y="-354" font-family="arial" font-size="10.00"> + ajoute(p : Piece) </text>
<text text-anchor="start" x="225" y="-341" font-family="arial" font-size="10.00"> + toString(i : int) : String </text>
<text text-anchor="start" x="225" y="-328" font-family="arial" font-size="10.00"> + toString() : String </text>
<text text-anchor="start" x="225" y="-315" font-family="arial" font-size="10.00"> «abstract» </text>
<text text-anchor="start" x="225" y="-302" font-family="arial italic" font-size="10.00"> + afficheInfoSupplementaires() </text>
<text text-anchor="start" x="225" y="-289" font-family="arial" font-size="10.00"> # plusFaibleGarantie() : Piece </text>
<text text-anchor="start" x="225" y="-276" font-family="arial" font-size="10.00"> # plusGrandeDureeFabrication() : Piece </text>
<text text-anchor="start" x="225" y="-263" font-family="arial" font-size="10.00"> + affiche() </text>
<text text-anchor="start" x="225" y="-250" font-family="arial" font-size="10.00"> + prix() : int </text>
<text text-anchor="start" x="225" y="-237" font-family="arial" font-size="10.00"> + main(args : String[]) </text>
</a>
</g>
<g><a xlink:href="./PieceComposite.html" xlink:title="&lt;TABLE&gt;">
</a>
</g>
</g>
<!-- c46 -->
<g id="node2" class="node"><title>c46</title>
<g id="a_node2"><a xlink:href="./PieceBasique.html" xlink:title="&lt;TABLE&gt;">
</a>
</g>
<g id="a_node2_1"><a xlink:href="./PieceBasique.html" xlink:title="tp8.PieceBasique">
<polygon fill="none" stroke="black" points="235,-185 235,-204 443,-204 443,-185 235,-185"/>
<text text-anchor="start" x="305.5" y="-192" font-family="arial" font-size="10.00"> PieceBasique </text>
<polygon fill="none" stroke="black" points="235,-140 235,-185 443,-185 443,-140 235,-140"/>
<text text-anchor="start" x="239" y="-173" font-family="arial" font-size="10.00"> &#45; dureeGarantie : int </text>
<text text-anchor="start" x="239" y="-160" font-family="arial" font-size="10.00"> &#45; prix : int </text>
<text text-anchor="start" x="239" y="-147" font-family="arial" font-size="10.00"> &#45; dureeFabrication : int </text>
<polygon fill="none" stroke="black" points="235,-4 235,-140 443,-140 443,-4 235,-4"/>
<text text-anchor="start" x="239" y="-128" font-family="arial" font-size="10.00"> + dureeFabrication() : int </text>
<text text-anchor="start" x="239" y="-115" font-family="arial" font-size="10.00"> + getPrix() : int </text>
<text text-anchor="start" x="239" y="-102" font-family="arial" font-size="10.00"> + setPrix(prix : int) </text>
<text text-anchor="start" x="239" y="-89" font-family="arial" font-size="10.00"> + dureeGarantie() : int </text>
<text text-anchor="start" x="239" y="-76" font-family="arial" font-size="10.00"> + prix() : int </text>
<text text-anchor="start" x="239" y="-63" font-family="arial" font-size="10.00"> # getPrefixe() : String </text>
<text text-anchor="start" x="239" y="-50" font-family="arial" font-size="10.00"> + getDureeGarantie() : int </text>
<text text-anchor="start" x="239" y="-37" font-family="arial" font-size="10.00"> + setDureeGarantie(dureeGarantie : int) </text>
<text text-anchor="start" x="239" y="-24" font-family="arial" font-size="10.00"> + getDureeFabrication() : int </text>
<text text-anchor="start" x="239" y="-11" font-family="arial" font-size="10.00"> + setDureeFabrication(dureeFabrication : int) </text>
</a>
</g>
<g><a xlink:href="./PieceBasique.html" xlink:title="&lt;TABLE&gt;">
</a>
</g>
</g>
<!-- c47 -->
<g id="node3" class="node"><title>c47</title>
<g id="a_node3"><a xlink:href="./Piece.html" xlink:title="&lt;TABLE&gt;">
</a>
</g>
<g id="a_node3_2"><a xlink:href="./Piece.html" xlink:title="tp8.Piece">
<polygon fill="lemonChiffon" stroke="none" points="8,-84.5 8,-375.5 169,-375.5 169,-84.5 8,-84.5"/>
<polygon fill="none" stroke="black" points="8.5,-343 8.5,-375 169.5,-375 169.5,-343 8.5,-343"/>
<text text-anchor="start" x="63" y="-363" font-family="arial" font-size="10.00"> «abstract» </text>
<text text-anchor="start" x="73.5" y="-350" font-family="arial italic" font-size="10.00"> Piece </text>
<polygon fill="none" stroke="black" points="8.5,-311 8.5,-343 169.5,-343 169.5,-311 8.5,-311"/>
<text text-anchor="start" x="12.5" y="-331" font-family="arial" font-size="10.00"> &#45; nom : String </text>
<text text-anchor="start" x="12.5" y="-318" font-family="arial" font-size="10.00"> &#45; reference : String </text>
<polygon fill="none" stroke="black" points="8.5,-84 8.5,-311 169.5,-311 169.5,-84 8.5,-84"/>
<text text-anchor="start" x="12.5" y="-299" font-family="arial" font-size="10.00"> «abstract» </text>
<text text-anchor="start" x="12.5" y="-286" font-family="arial italic" font-size="10.00"> + prix() : int </text>
<text text-anchor="start" x="12.5" y="-273" font-family="arial" font-size="10.00"> «abstract» </text>
<text text-anchor="start" x="12.5" y="-260" font-family="arial italic" font-size="10.00"> + dureeGarantie() : int </text>
<text text-anchor="start" x="12.5" y="-247" font-family="arial" font-size="10.00"> «abstract» </text>
<text text-anchor="start" x="12.5" y="-234" font-family="arial italic" font-size="10.00"> + dureeFabrication() : int </text>
<text text-anchor="start" x="12.5" y="-221" font-family="arial" font-size="10.00"> «abstract» </text>
<text text-anchor="start" x="12.5" y="-208" font-family="arial italic" font-size="10.00"> # getPrefixe() : String </text>
<text text-anchor="start" x="12.5" y="-195" font-family="arial" font-size="10.00"> + affiche() </text>
<text text-anchor="start" x="12.5" y="-182" font-family="arial" font-size="10.00"> + toString(i : int) : String </text>
<text text-anchor="start" x="12.5" y="-169" font-family="arial" font-size="10.00"> + toString() : String </text>
<text text-anchor="start" x="12.5" y="-156" font-family="arial" font-size="10.00"> # indentation(i : int) : String </text>
<text text-anchor="start" x="12.5" y="-143" font-family="arial" font-size="10.00"> + nouvelleReference() : String </text>
<text text-anchor="start" x="12.5" y="-130" font-family="arial" font-size="10.00"> + getReference() : String </text>
<text text-anchor="start" x="12.5" y="-117" font-family="arial" font-size="10.00"> + setReference(reference : String) </text>
<text text-anchor="start" x="12.5" y="-104" font-family="arial" font-size="10.00"> + getNom() : String </text>
<text text-anchor="start" x="12.5" y="-91" font-family="arial" font-size="10.00"> + setNom(nom : String) </text>
</a>
</g>
<g><a xlink:href="./Piece.html" xlink:title="&lt;TABLE&gt;">
</a>
</g>
</g>
<!-- c47&#45;&gt;c45 -->
<g id="edge1" class="edge"><title>c47:p&#45;&gt;c45:p</title>
<path fill="none" stroke="black" d="M178.138,-274.943C191.965,-281.954 206.435,-289.291 220.78,-296.564"/>
<polygon fill="none" stroke="black" points="179.654,-271.788 169.152,-270.387 176.489,-278.031 179.654,-271.788"/>
</g>
<!-- c47&#45;&gt;c46 -->
<g id="edge2" class="edge"><title>c47:p&#45;&gt;c46:p</title>
<path fill="none" stroke="black" d="M178.314,-184.968C196.594,-175.699 215.991,-165.864 234.732,-156.361"/>
<polygon fill="none" stroke="black" points="176.489,-181.969 169.152,-189.613 179.654,-188.212 176.489,-181.969"/>
</g>
</g>
</svg>
