<?xml version="1.0" encoding="UTF-8" standalone="no"?>
<!DOCTYPE svg PUBLIC "-//W3C//DTD SVG 1.1//EN"
 "http://www.w3.org/Graphics/SVG/1.1/DTD/svg11.dtd">
<!-- Generated by graphviz version 2.38.0 (20140413.2041)
 -->
<!-- Title: G Pages: 1 -->
<svg width="712pt" height="352pt"
 viewBox="0.00 0.00 712.00 351.50" xmlns="http://www.w3.org/2000/svg" xmlns:xlink="http://www.w3.org/1999/xlink">
<g id="graph0" class="graph" transform="scale(1 1) rotate(0) translate(4 347.5)">
<title>G</title>
<polygon fill="white" stroke="none" points="-4,4 -4,-347.5 708,-347.5 708,4 -4,4"/>
<!-- c59 -->
<g id="node1" class="node"><title>c59</title>
<g id="a_node1"><a xlink:href="./PieceMontee.html" xlink:title="&lt;TABLE&gt;">
</a>
</g>
<g id="a_node1_0"><a xlink:href="./PieceMontee.html" xlink:title="tp8.PieceMontee">
<polygon fill="none" stroke="black" points="509.5,-320.5 509.5,-339.5 696.5,-339.5 696.5,-320.5 509.5,-320.5"/>
<text text-anchor="start" x="571" y="-327.5" font-family="arial" font-size="10.00"> PieceMontee </text>
<polygon fill="none" stroke="black" points="509.5,-288.5 509.5,-320.5 696.5,-320.5 696.5,-288.5 509.5,-288.5"/>
<text text-anchor="start" x="513.5" y="-308.5" font-family="arial" font-size="10.00"> &#45; prixMontage : int </text>
<text text-anchor="start" x="513.5" y="-295.5" font-family="arial" font-size="10.00"> &#45; dureeMontage : int </text>
<polygon fill="none" stroke="black" points="509.5,-165.5 509.5,-288.5 696.5,-288.5 696.5,-165.5 509.5,-165.5"/>
<text text-anchor="start" x="513.5" y="-276.5" font-family="arial" font-size="10.00"> + getDureeMontage() : int </text>
<text text-anchor="start" x="513.5" y="-263.5" font-family="arial" font-size="10.00"> + setDureeMontage(dureeMontage : int) </text>
<text text-anchor="start" x="513.5" y="-250.5" font-family="arial" font-size="10.00"> + dureeGarantie() : int </text>
<text text-anchor="start" x="513.5" y="-237.5" font-family="arial" font-size="10.00"> + dureeFabrication() : int </text>
<text text-anchor="start" x="513.5" y="-224.5" font-family="arial" font-size="10.00"> + prix() : int </text>
<text text-anchor="start" x="513.5" y="-211.5" font-family="arial" font-size="10.00"> + afficheInfoSupplementaires() </text>
<text text-anchor="start" x="513.5" y="-198.5" font-family="arial" font-size="10.00"> # getPrefixe() : String </text>
<text text-anchor="start" x="513.5" y="-185.5" font-family="arial" font-size="10.00"> + getPrixMontage() : int </text>
<text text-anchor="start" x="513.5" y="-172.5" font-family="arial" font-size="10.00"> + setPrixMontage(prixMontage : int) </text>
</a>
</g>
<g><a xlink:href="./PieceMontee.html" xlink:title="&lt;TABLE&gt;">
</a>
</g>
</g>
<!-- c60 -->
<g id="node2" class="node"><title>c60</title>
<g id="a_node2"><a xlink:href="./PieceEnKit.html" xlink:title="&lt;TABLE&gt;">
</a>
</g>
<g id="a_node2_1"><a xlink:href="./PieceEnKit.html" xlink:title="tp8.PieceEnKit">
<polygon fill="none" stroke="black" points="517.5,-119.5 517.5,-138.5 688.5,-138.5 688.5,-119.5 517.5,-119.5"/>
<text text-anchor="start" x="575.5" y="-126.5" font-family="arial" font-size="10.00"> PieceEnKit </text>
<polygon fill="none" stroke="black" points="517.5,-100.5 517.5,-119.5 688.5,-119.5 688.5,-100.5 517.5,-100.5"/>
<text text-anchor="start" x="521.5" y="-107.5" font-family="arial" font-size="10.00"> &#45; notice : NoticeMontage </text>
<polygon fill="none" stroke="black" points="517.5,-3.5 517.5,-100.5 688.5,-100.5 688.5,-3.5 517.5,-3.5"/>
<text text-anchor="start" x="521.5" y="-88.5" font-family="arial" font-size="10.00"> + getNotice() : NoticeMontage </text>
<text text-anchor="start" x="521.5" y="-75.5" font-family="arial" font-size="10.00"> + setNotice(notice : NoticeMontage) </text>
<text text-anchor="start" x="521.5" y="-62.5" font-family="arial" font-size="10.00"> + dureeGarantie() : int </text>
<text text-anchor="start" x="521.5" y="-49.5" font-family="arial" font-size="10.00"> + dureeFabrication() : int </text>
<text text-anchor="start" x="521.5" y="-36.5" font-family="arial" font-size="10.00"> + afficheInfoSupplementaires() </text>
<text text-anchor="start" x="521.5" y="-23.5" font-family="arial" font-size="10.00"> &#45; dureeMontage() : String </text>
<text text-anchor="start" x="521.5" y="-10.5" font-family="arial" font-size="10.00"> # getPrefixe() : String </text>
</a>
</g>
<g><a xlink:href="./PieceEnKit.html" xlink:title="&lt;TABLE&gt;">
</a>
</g>
</g>
<!-- c61 -->
<g id="node3" class="node"><title>c61</title>
<g id="a_node3"><a xlink:href="./PieceComposite.html" xlink:title="&lt;TABLE&gt;">
</a>
</g>
<g id="a_node3_2"><a xlink:href="./PieceComposite.html" xlink:title="tp8.PieceComposite">
<polygon fill="lemonChiffon" stroke="none" points="221,-35.5 221,-287.5 457,-287.5 457,-35.5 221,-35.5"/>
<polygon fill="none" stroke="black" points="221,-255.5 221,-287.5 457,-287.5 457,-255.5 221,-255.5"/>
<text text-anchor="start" x="313" y="-275.5" font-family="arial" font-size="10.00"> «abstract» </text>
<text text-anchor="start" x="300" y="-262.5" font-family="arial italic" font-size="10.00"> PieceComposite </text>
<polygon fill="none" stroke="black" points="221,-223.5 221,-255.5 457,-255.5 457,-223.5 221,-223.5"/>
<text text-anchor="start" x="225" y="-243.5" font-family="arial" font-size="10.00"> &#45; composants : ArrayList&lt;Piece&gt; </text>
<text text-anchor="start" x="225" y="-230.5" font-family="arial" font-size="10.00"> &#45; dureeMontage : int </text>
<polygon fill="none" stroke="black" points="221,-35.5 221,-223.5 457,-223.5 457,-35.5 221,-35.5"/>
<text text-anchor="start" x="225" y="-211.5" font-family="arial" font-size="10.00"> + getComposants() : ArrayList&lt;Piece&gt; </text>
<text text-anchor="start" x="225" y="-198.5" font-family="arial" font-size="10.00"> + setComposants(composants : ArrayList&lt;Piece&gt;) </text>
<text text-anchor="start" x="225" y="-185.5" font-family="arial" font-size="10.00"> + getDureeMontage() : int </text>
<text text-anchor="start" x="225" y="-172.5" font-family="arial" font-size="10.00"> + setDureeMontage(dureeMontage : int) </text>
<text text-anchor="start" x="225" y="-159.5" font-family="arial" font-size="10.00"> + ajoute(p : Piece) </text>
<text text-anchor="start" x="225" y="-146.5" font-family="arial" font-size="10.00"> + toString(i : int) : String </text>
<text text-anchor="start" x="225" y="-133.5" font-family="arial" font-size="10.00"> + toString() : String </text>
<text text-anchor="start" x="225" y="-120.5" font-family="arial" font-size="10.00"> «abstract» </text>
<text text-anchor="start" x="225" y="-107.5" font-family="arial italic" font-size="10.00"> + afficheInfoSupplementaires() </text>
<text text-anchor="start" x="225" y="-94.5" font-family="arial" font-size="10.00"> # plusFaibleGarantie() : Piece </text>
<text text-anchor="start" x="225" y="-81.5" font-family="arial" font-size="10.00"> # plusGrandeDureeFabrication() : Piece </text>
<text text-anchor="start" x="225" y="-68.5" font-family="arial" font-size="10.00"> + affiche() </text>
<text text-anchor="start" x="225" y="-55.5" font-family="arial" font-size="10.00"> + prix() : int </text>
<text text-anchor="start" x="225" y="-42.5" font-family="arial" font-size="10.00"> + main(args : String[]) </text>
</a>
</g>
<g><a xlink:href="./PieceComposite.html" xlink:title="&lt;TABLE&gt;">
</a>
</g>
</g>
<!-- c61&#45;&gt;c59 -->
<g id="edge1" class="edge"><title>c61:p&#45;&gt;c59:p</title>
<path fill="none" stroke="black" d="M467.089,-205.726C481.16,-210.623 495.288,-215.539 508.82,-220.248"/>
<polygon fill="none" stroke="black" points="467.959,-202.323 457.364,-202.342 465.658,-208.934 467.959,-202.323"/>
</g>
<!-- c61&#45;&gt;c60 -->
<g id="edge2" class="edge"><title>c61:p&#45;&gt;c60:p</title>
<path fill="none" stroke="black" d="M467.213,-117.717C483.971,-111.95 500.806,-106.156 516.616,-100.714"/>
<polygon fill="none" stroke="black" points="465.681,-114.543 457.364,-121.107 467.959,-121.162 465.681,-114.543"/>
</g>
<!-- c63 -->
<g id="node4" class="node"><title>c63</title>
<g id="a_node4"><a xlink:href="./Piece.html" xlink:title="&lt;TABLE&gt;">
</a>
</g>
<g id="a_node4_3"><a xlink:href="./Piece.html" xlink:title="tp8.Piece">
<polygon fill="none" stroke="black" points="8.5,-274.5 8.5,-306.5 169.5,-306.5 169.5,-274.5 8.5,-274.5"/>
<text text-anchor="start" x="63" y="-294.5" font-family="arial" font-size="10.00"> «abstract» </text>
<text text-anchor="start" x="73.5" y="-281.5" font-family="arial italic" font-size="10.00"> Piece </text>
<polygon fill="none" stroke="black" points="8.5,-242.5 8.5,-274.5 169.5,-274.5 169.5,-242.5 8.5,-242.5"/>
<text text-anchor="start" x="12.5" y="-262.5" font-family="arial" font-size="10.00"> &#45; nom : String </text>
<text text-anchor="start" x="12.5" y="-249.5" font-family="arial" font-size="10.00"> &#45; reference : String </text>
<polygon fill="none" stroke="black" points="8.5,-15.5 8.5,-242.5 169.5,-242.5 169.5,-15.5 8.5,-15.5"/>
<text text-anchor="start" x="12.5" y="-230.5" font-family="arial" font-size="10.00"> «abstract» </text>
<text text-anchor="start" x="12.5" y="-217.5" font-family="arial italic" font-size="10.00"> + prix() : int </text>
<text text-anchor="start" x="12.5" y="-204.5" font-family="arial" font-size="10.00"> «abstract» </text>
<text text-anchor="start" x="12.5" y="-191.5" font-family="arial italic" font-size="10.00"> + dureeGarantie() : int </text>
<text text-anchor="start" x="12.5" y="-178.5" font-family="arial" font-size="10.00"> «abstract» </text>
<text text-anchor="start" x="12.5" y="-165.5" font-family="arial italic" font-size="10.00"> + dureeFabrication() : int </text>
<text text-anchor="start" x="12.5" y="-152.5" font-family="arial" font-size="10.00"> «abstract» </text>
<text text-anchor="start" x="12.5" y="-139.5" font-family="arial italic" font-size="10.00"> # getPrefixe() : String </text>
<text text-anchor="start" x="12.5" y="-126.5" font-family="arial" font-size="10.00"> + affiche() </text>
<text text-anchor="start" x="12.5" y="-113.5" font-family="arial" font-size="10.00"> + toString(i : int) : String </text>
<text text-anchor="start" x="12.5" y="-100.5" font-family="arial" font-size="10.00"> + toString() : String </text>
<text text-anchor="start" x="12.5" y="-87.5" font-family="arial" font-size="10.00"> # indentation(i : int) : String </text>
<text text-anchor="start" x="12.5" y="-74.5" font-family="arial" font-size="10.00"> + nouvelleReference() : String </text>
<text text-anchor="start" x="12.5" y="-61.5" font-family="arial" font-size="10.00"> + getReference() : String </text>
<text text-anchor="start" x="12.5" y="-48.5" font-family="arial" font-size="10.00"> + setReference(reference : String) </text>
<text text-anchor="start" x="12.5" y="-35.5" font-family="arial" font-size="10.00"> + getNom() : String </text>
<text text-anchor="start" x="12.5" y="-22.5" font-family="arial" font-size="10.00"> + setNom(nom : String) </text>
</a>
</g>
<g><a xlink:href="./Piece.html" xlink:title="&lt;TABLE&gt;">
</a>
</g>
</g>
<!-- c63&#45;&gt;c61 -->
<g id="edge3" class="edge"><title>c63:p&#45;&gt;c61:p</title>
<path fill="none" stroke="black" d="M179.325,-161.5C192.792,-161.5 206.845,-161.5 220.78,-161.5"/>
<polygon fill="none" stroke="black" points="179.152,-158 169.152,-161.5 179.152,-165 179.152,-158"/>
</g>
</g>
</svg>
