<?xml version="1.0" encoding="UTF-8" standalone="no"?>
<!DOCTYPE svg PUBLIC "-//W3C//DTD SVG 1.1//EN"
 "http://www.w3.org/Graphics/SVG/1.1/DTD/svg11.dtd">
<!-- Generated by graphviz version 2.38.0 (20140413.2041)
 -->
<!-- Title: G Pages: 1 -->
<svg width="473pt" height="456pt"
 viewBox="0.00 0.00 473.00 455.50" xmlns="http://www.w3.org/2000/svg" xmlns:xlink="http://www.w3.org/1999/xlink">
<g id="graph0" class="graph" transform="scale(1 1) rotate(0) translate(4 451.5)">
<title>G</title>
<polygon fill="white" stroke="none" points="-4,4 -4,-451.5 469,-451.5 469,4 -4,4"/>
<!-- c45 -->
<g id="node1" class="node"><title>c45</title>
<g id="a_node1"><a xlink:href="./PieceComposite.html" xlink:title="&lt;TABLE&gt;">
</a>
</g>
<g id="a_node1_0"><a xlink:href="./PieceComposite.html" xlink:title="tp8.PieceComposite">
<polygon fill="none" stroke="black" points="221,-411 221,-443 457,-443 457,-411 221,-411"/>
<text text-anchor="start" x="313" y="-431" font-family="arial" font-size="10.00"> «abstract» </text>
<text text-anchor="start" x="300" y="-418" font-family="arial italic" font-size="10.00"> PieceComposite </text>
<polygon fill="none" stroke="black" points="221,-392 221,-411 457,-411 457,-392 221,-392"/>
<text text-anchor="start" x="225" y="-399" font-family="arial" font-size="10.00"> &#160;</text>
<polygon fill="none" stroke="black" points="221,-204 221,-392 457,-392 457,-204 221,-204"/>
<text text-anchor="start" x="225" y="-380" font-family="arial" font-size="10.00"> + getComposants() : ArrayList&lt;Piece&gt; </text>
<text text-anchor="start" x="225" y="-367" font-family="arial" font-size="10.00"> + setComposants(composants : ArrayList&lt;Piece&gt;) </text>
<text text-anchor="start" x="225" y="-354" font-family="arial" font-size="10.00"> + getDureeMontage() : int </text>
<text text-anchor="start" x="225" y="-341" font-family="arial" font-size="10.00"> + setDureeMontage(dureeMontage : int) </text>
<text text-anchor="start" x="225" y="-328" font-family="arial" font-size="10.00"> + ajoute(p : Piece) </text>
<text text-anchor="start" x="225" y="-315" font-family="arial" font-size="10.00"> + toString(i : int) : String </text>
<text text-anchor="start" x="225" y="-302" font-family="arial" font-size="10.00"> + toString() : String </text>
<text text-anchor="start" x="225" y="-289" font-family="arial" font-size="10.00"> «abstract» </text>
<text text-anchor="start" x="225" y="-276" font-family="arial italic" font-size="10.00"> + afficheInfoSupplementaires() </text>
<text text-anchor="start" x="225" y="-263" font-family="arial" font-size="10.00"> # plusFaibleGarantie() : Piece </text>
<text text-anchor="start" x="225" y="-250" font-family="arial" font-size="10.00"> # plusGrandeDureeFabrication() : Piece </text>
<text text-anchor="start" x="225" y="-237" font-family="arial" font-size="10.00"> + affiche() </text>
<text text-anchor="start" x="225" y="-224" font-family="arial" font-size="10.00"> + prix() : int </text>
<text text-anchor="start" x="225" y="-211" font-family="arial" font-size="10.00"> + main(args : String[]) </text>
</a>
</g>
<g><a xlink:href="./PieceComposite.html" xlink:title="&lt;TABLE&gt;">
</a>
</g>
</g>
<!-- c46 -->
<g id="node2" class="node"><title>c46</title>
<g id="a_node2"><a xlink:href="./PieceBasique.html" xlink:title="&lt;TABLE&gt;">
</a>
</g>
<g id="a_node2_1"><a xlink:href="./PieceBasique.html" xlink:title="tp8.PieceBasique">
<polygon fill="none" stroke="black" points="235,-159 235,-178 443,-178 443,-159 235,-159"/>
<text text-anchor="start" x="305.5" y="-166" font-family="arial" font-size="10.00"> PieceBasique </text>
<polygon fill="none" stroke="black" points="235,-140 235,-159 443,-159 443,-140 235,-140"/>
<text text-anchor="start" x="239" y="-147" font-family="arial" font-size="10.00"> &#160;</text>
<polygon fill="none" stroke="black" points="235,-4 235,-140 443,-140 443,-4 235,-4"/>
<text text-anchor="start" x="239" y="-128" font-family="arial" font-size="10.00"> + dureeFabrication() : int </text>
<text text-anchor="start" x="239" y="-115" font-family="arial" font-size="10.00"> + getPrix() : int </text>
<text text-anchor="start" x="239" y="-102" font-family="arial" font-size="10.00"> + setPrix(prix : int) </text>
<text text-anchor="start" x="239" y="-89" font-family="arial" font-size="10.00"> + dureeGarantie() : int </text>
<text text-anchor="start" x="239" y="-76" font-family="arial" font-size="10.00"> + prix() : int </text>
<text text-anchor="start" x="239" y="-63" font-family="arial" font-size="10.00"> # getPrefixe() : String </text>
<text text-anchor="start" x="239" y="-50" font-family="arial" font-size="10.00"> + getDureeGarantie() : int </text>
<text text-anchor="start" x="239" y="-37" font-family="arial" font-size="10.00"> + setDureeGarantie(dureeGarantie : int) </text>
<text text-anchor="start" x="239" y="-24" font-family="arial" font-size="10.00"> + getDureeFabrication() : int </text>
<text text-anchor="start" x="239" y="-11" font-family="arial" font-size="10.00"> + setDureeFabrication(dureeFabrication : int) </text>
</a>
</g>
<g><a xlink:href="./PieceBasique.html" xlink:title="&lt;TABLE&gt;">
</a>
</g>
</g>
<!-- c47 -->
<g id="node3" class="node"><title>c47</title>
<g id="a_node3"><a xlink:href="./Piece.html" xlink:title="&lt;TABLE&gt;">
</a>
</g>
<g id="a_node3_2"><a xlink:href="./Piece.html" xlink:title="tp8.Piece">
<polygon fill="lemonChiffon" stroke="none" points="8,-68 8,-346 169,-346 169,-68 8,-68"/>
<polygon fill="none" stroke="black" points="8.5,-314 8.5,-346 169.5,-346 169.5,-314 8.5,-314"/>
<text text-anchor="start" x="63" y="-334" font-family="arial" font-size="10.00"> «abstract» </text>
<text text-anchor="start" x="73.5" y="-321" font-family="arial italic" font-size="10.00"> Piece </text>
<polygon fill="none" stroke="black" points="8.5,-295 8.5,-314 169.5,-314 169.5,-295 8.5,-295"/>
<text text-anchor="start" x="12.5" y="-302" font-family="arial" font-size="10.00"> &#160;</text>
<polygon fill="none" stroke="black" points="8.5,-68 8.5,-295 169.5,-295 169.5,-68 8.5,-68"/>
<text text-anchor="start" x="12.5" y="-283" font-family="arial" font-size="10.00"> «abstract» </text>
<text text-anchor="start" x="12.5" y="-270" font-family="arial italic" font-size="10.00"> + prix() : int </text>
<text text-anchor="start" x="12.5" y="-257" font-family="arial" font-size="10.00"> «abstract» </text>
<text text-anchor="start" x="12.5" y="-244" font-family="arial italic" font-size="10.00"> + dureeGarantie() : int </text>
<text text-anchor="start" x="12.5" y="-231" font-family="arial" font-size="10.00"> «abstract» </text>
<text text-anchor="start" x="12.5" y="-218" font-family="arial italic" font-size="10.00"> + dureeFabrication() : int </text>
<text text-anchor="start" x="12.5" y="-205" font-family="arial" font-size="10.00"> «abstract» </text>
<text text-anchor="start" x="12.5" y="-192" font-family="arial italic" font-size="10.00"> # getPrefixe() : String </text>
<text text-anchor="start" x="12.5" y="-179" font-family="arial" font-size="10.00"> + affiche() </text>
<text text-anchor="start" x="12.5" y="-166" font-family="arial" font-size="10.00"> + toString(i : int) : String </text>
<text text-anchor="start" x="12.5" y="-153" font-family="arial" font-size="10.00"> + toString() : String </text>
<text text-anchor="start" x="12.5" y="-140" font-family="arial" font-size="10.00"> # indentation(i : int) : String </text>
<text text-anchor="start" x="12.5" y="-127" font-family="arial" font-size="10.00"> + nouvelleReference() : String </text>
<text text-anchor="start" x="12.5" y="-114" font-family="arial" font-size="10.00"> + getReference() : String </text>
<text text-anchor="start" x="12.5" y="-101" font-family="arial" font-size="10.00"> + setReference(reference : String) </text>
<text text-anchor="start" x="12.5" y="-88" font-family="arial" font-size="10.00"> + getNom() : String </text>
<text text-anchor="start" x="12.5" y="-75" font-family="arial" font-size="10.00"> + setNom(nom : String) </text>
</a>
</g>
<g><a xlink:href="./Piece.html" xlink:title="&lt;TABLE&gt;">
</a>
</g>
</g>
<!-- c47&#45;&gt;c45 -->
<g id="edge1" class="edge"><title>c47:p&#45;&gt;c45:p</title>
<path fill="none" stroke="black" d="M178.533,-248.919C192.241,-255.373 206.572,-262.12 220.78,-268.81"/>
<polygon fill="none" stroke="black" points="179.691,-245.596 169.152,-244.502 176.709,-251.929 179.691,-245.596"/>
</g>
<!-- c47&#45;&gt;c46 -->
<g id="edge2" class="edge"><title>c47:p&#45;&gt;c46:p</title>
<path fill="none" stroke="black" d="M178.314,-165.542C196.594,-157.008 215.991,-147.954 234.732,-139.205"/>
<polygon fill="none" stroke="black" points="176.733,-162.417 169.152,-169.818 179.694,-168.76 176.733,-162.417"/>
</g>
</g>
</svg>
