<?xml version="1.0" encoding="UTF-8" standalone="no"?>
<!DOCTYPE svg PUBLIC "-//W3C//DTD SVG 1.1//EN"
 "http://www.w3.org/Graphics/SVG/1.1/DTD/svg11.dtd">
<!-- Generated by graphviz version 2.38.0 (20140413.2041)
 -->
<!-- Title: G Pages: 1 -->
<svg width="878pt" height="707pt"
 viewBox="0.00 0.00 878.00 707.00" xmlns="http://www.w3.org/2000/svg" xmlns:xlink="http://www.w3.org/1999/xlink">
<g id="graph0" class="graph" transform="scale(1 1) rotate(0) translate(4 703)">
<title>G</title>
<polygon fill="white" stroke="none" points="-4,4 -4,-703 874,-703 874,4 -4,4"/>
<!-- c100 -->
<g id="node1" class="node"><title>c100</title>
<g id="a_node1"><a xlink:href="./PieceMontee.html" xlink:title="&lt;TABLE&gt;">
</a>
</g>
<g id="a_node1_0"><a xlink:href="./PieceMontee.html" xlink:title="tp8.PieceMontee">
<polygon fill="none" stroke="black" points="8,-262.5 8,-281.5 394,-281.5 394,-262.5 8,-262.5"/>
<text text-anchor="start" x="169" y="-269.5" font-family="arial" font-size="10.00"> PieceMontee </text>
<polygon fill="none" stroke="black" points="8,-243.5 8,-262.5 394,-262.5 394,-243.5 8,-243.5"/>
<text text-anchor="start" x="12" y="-250.5" font-family="arial" font-size="10.00"> &#160;</text>
<polygon fill="none" stroke="black" points="8,-68.5 8,-243.5 394,-243.5 394,-68.5 8,-68.5"/>
<text text-anchor="start" x="12" y="-231.5" font-family="arial" font-size="10.00"> «create» </text>
<text text-anchor="start" x="12" y="-218.5" font-family="arial" font-size="10.00"> + PieceMontee(nom : String) </text>
<text text-anchor="start" x="12" y="-205.5" font-family="arial" font-size="10.00"> «create» </text>
<text text-anchor="start" x="12" y="-192.5" font-family="arial" font-size="10.00"> + PieceMontee(nom : String, reference : String) </text>
<text text-anchor="start" x="12" y="-179.5" font-family="arial" font-size="10.00"> «create» </text>
<text text-anchor="start" x="12" y="-166.5" font-family="arial" font-size="10.00"> + PieceMontee(nom : String, reference : String, prixMontage : int, dureeMontage : int) </text>
<text text-anchor="start" x="12" y="-153.5" font-family="arial" font-size="10.00"> + dureeGarantie() : int </text>
<text text-anchor="start" x="12" y="-140.5" font-family="arial" font-size="10.00"> + dureeFabrication() : int </text>
<text text-anchor="start" x="12" y="-127.5" font-family="arial" font-size="10.00"> + prix() : int </text>
<text text-anchor="start" x="12" y="-114.5" font-family="arial" font-size="10.00"> + afficheInfoSupplementaires() </text>
<text text-anchor="start" x="12" y="-101.5" font-family="arial" font-size="10.00"> + getPrefixe() : String </text>
<text text-anchor="start" x="12" y="-88.5" font-family="arial" font-size="10.00"> + getPrixMontage() : int </text>
<text text-anchor="start" x="12" y="-75.5" font-family="arial" font-size="10.00"> + setPrixMontage(prixMontage : int) </text>
</a>
</g>
<g><a xlink:href="./PieceMontee.html" xlink:title="&lt;TABLE&gt;">
</a>
</g>
</g>
<!-- c101 -->
<g id="node2" class="node"><title>c101</title>
<g id="a_node2"><a xlink:href="./PieceEnKit.html" xlink:title="&lt;TABLE&gt;">
</a>
</g>
<g id="a_node2_1"><a xlink:href="./PieceEnKit.html" xlink:title="tp8.PieceEnKit">
<polygon fill="none" stroke="black" points="428,-243.5 428,-262.5 640,-262.5 640,-243.5 428,-243.5"/>
<text text-anchor="start" x="506.5" y="-250.5" font-family="arial" font-size="10.00"> PieceEnKit </text>
<polygon fill="none" stroke="black" points="428,-224.5 428,-243.5 640,-243.5 640,-224.5 428,-224.5"/>
<text text-anchor="start" x="432" y="-231.5" font-family="arial" font-size="10.00"> &#160;</text>
<polygon fill="none" stroke="black" points="428,-88.5 428,-224.5 640,-224.5 640,-88.5 428,-88.5"/>
<text text-anchor="start" x="432" y="-212.5" font-family="arial" font-size="10.00"> «create» </text>
<text text-anchor="start" x="432" y="-199.5" font-family="arial" font-size="10.00"> + PieceEnKit(nom : String) </text>
<text text-anchor="start" x="432" y="-186.5" font-family="arial" font-size="10.00"> + PieceEnKit(nom : String, reference : String) </text>
<text text-anchor="start" x="432" y="-173.5" font-family="arial" font-size="10.00"> + getNotice() : NoticeMontage </text>
<text text-anchor="start" x="432" y="-160.5" font-family="arial" font-size="10.00"> + setNotice(notice : NoticeMontage) </text>
<text text-anchor="start" x="432" y="-147.5" font-family="arial" font-size="10.00"> + dureeGarantie() : int </text>
<text text-anchor="start" x="432" y="-134.5" font-family="arial" font-size="10.00"> + dureeFabrication() : int </text>
<text text-anchor="start" x="432" y="-121.5" font-family="arial" font-size="10.00"> + afficheInfoSupplementaires() </text>
<text text-anchor="start" x="432" y="-108.5" font-family="arial" font-size="10.00"> &#45; dureeMontage() : String </text>
<text text-anchor="start" x="432" y="-95.5" font-family="arial" font-size="10.00"> + getPrefixe() : String </text>
</a>
</g>
<g><a xlink:href="./PieceEnKit.html" xlink:title="&lt;TABLE&gt;">
</a>
</g>
</g>
<!-- c102 -->
<g id="node3" class="node"><title>c102</title>
<g id="a_node3"><a xlink:href="./PieceComposite.html" xlink:title="&lt;TABLE&gt;">
</a>
</g>
<g id="a_node3_2"><a xlink:href="./PieceComposite.html" xlink:title="tp8.PieceComposite">
<polygon fill="lemonChiffon" stroke="none" points="490.5,-391 490.5,-695 811.5,-695 811.5,-391 490.5,-391"/>
<polygon fill="none" stroke="black" points="491,-663 491,-695 812,-695 812,-663 491,-663"/>
<text text-anchor="start" x="625.5" y="-683" font-family="arial" font-size="10.00"> «abstract» </text>
<text text-anchor="start" x="612.5" y="-670" font-family="arial italic" font-size="10.00"> PieceComposite </text>
<polygon fill="none" stroke="black" points="491,-644 491,-663 812,-663 812,-644 491,-644"/>
<text text-anchor="start" x="495" y="-651" font-family="arial" font-size="10.00"> &#160;</text>
<polygon fill="none" stroke="black" points="491,-391 491,-644 812,-644 812,-391 491,-391"/>
<text text-anchor="start" x="495" y="-632" font-family="arial" font-size="10.00"> «create» </text>
<text text-anchor="start" x="495" y="-619" font-family="arial" font-size="10.00"> + PieceComposite(nom : String) </text>
<text text-anchor="start" x="495" y="-606" font-family="arial" font-size="10.00"> «create» </text>
<text text-anchor="start" x="495" y="-593" font-family="arial" font-size="10.00"> + PieceComposite(nom : String, reference : String) </text>
<text text-anchor="start" x="495" y="-580" font-family="arial" font-size="10.00"> «create» </text>
<text text-anchor="start" x="495" y="-567" font-family="arial" font-size="10.00"> + PieceComposite(nom : String, reference : String, dureeMontage : int) </text>
<text text-anchor="start" x="495" y="-554" font-family="arial" font-size="10.00"> + getComposants() : ArrayList&lt;Piece&gt; </text>
<text text-anchor="start" x="495" y="-541" font-family="arial" font-size="10.00"> + setComposants(composants : ArrayList&lt;Piece&gt;) </text>
<text text-anchor="start" x="495" y="-528" font-family="arial" font-size="10.00"> + getDureeMontage() : int </text>
<text text-anchor="start" x="495" y="-515" font-family="arial" font-size="10.00"> + setDureeMontage(dureeMontage : int) </text>
<text text-anchor="start" x="495" y="-502" font-family="arial" font-size="10.00"> + ajoute(p : Piece) </text>
<text text-anchor="start" x="495" y="-489" font-family="arial" font-size="10.00"> + toString(i : int) : String </text>
<text text-anchor="start" x="495" y="-476" font-family="arial" font-size="10.00"> + toString() : String </text>
<text text-anchor="start" x="495" y="-463" font-family="arial" font-size="10.00"> «abstract» </text>
<text text-anchor="start" x="495" y="-450" font-family="arial italic" font-size="10.00"> + afficheInfoSupplementaires() </text>
<text text-anchor="start" x="495" y="-437" font-family="arial" font-size="10.00"> # plusFaibleGarantie() : Piece </text>
<text text-anchor="start" x="495" y="-424" font-family="arial" font-size="10.00"> # plusGrandeDureeFabrication() : Piece </text>
<text text-anchor="start" x="495" y="-411" font-family="arial" font-size="10.00"> + affiche() </text>
<text text-anchor="start" x="495" y="-398" font-family="arial" font-size="10.00"> + prix() : int </text>
</a>
</g>
<g><a xlink:href="./PieceComposite.html" xlink:title="&lt;TABLE&gt;">
</a>
</g>
</g>
<!-- c102&#45;&gt;c100 -->
<g id="edge1" class="edge"><title>c102:p&#45;&gt;c100:p</title>
<path fill="none" stroke="black" d="M482.117,-408.331C458.178,-389.171 433.92,-369.64 411,-351 383.785,-328.868 354.757,-304.95 327.238,-282.129"/>
<polygon fill="none" stroke="black" points="480.225,-411.3 490.22,-414.813 484.597,-405.834 480.225,-411.3"/>
</g>
<!-- c102&#45;&gt;c101 -->
<g id="edge2" class="edge"><title>c102:p&#45;&gt;c101:p</title>
<path fill="none" stroke="black" d="M599.523,-381.19C586.472,-340.42 572.949,-298.173 561.6,-262.722"/>
<polygon fill="none" stroke="black" points="596.269,-382.506 602.652,-390.963 602.936,-380.372 596.269,-382.506"/>
</g>
<!-- c104 -->
<g id="node4" class="node"><title>c104</title>
<g id="a_node4"><a xlink:href="./Piece.html" xlink:title="&lt;TABLE&gt;">
</a>
</g>
<g id="a_node4_3"><a xlink:href="./Piece.html" xlink:title="tp8.Piece">
<polygon fill="none" stroke="black" points="674,-314.5 674,-346.5 862,-346.5 862,-314.5 674,-314.5"/>
<text text-anchor="start" x="742" y="-334.5" font-family="arial" font-size="10.00"> «abstract» </text>
<text text-anchor="start" x="752.5" y="-321.5" font-family="arial italic" font-size="10.00"> Piece </text>
<polygon fill="none" stroke="black" points="674,-295.5 674,-314.5 862,-314.5 862,-295.5 674,-295.5"/>
<text text-anchor="start" x="678" y="-302.5" font-family="arial" font-size="10.00"> &#160;</text>
<polygon fill="none" stroke="black" points="674,-3.5 674,-295.5 862,-295.5 862,-3.5 674,-3.5"/>
<text text-anchor="start" x="678" y="-283.5" font-family="arial" font-size="10.00"> «create» </text>
<text text-anchor="start" x="678" y="-270.5" font-family="arial" font-size="10.00"> + Piece(nom : String, reference : String) </text>
<text text-anchor="start" x="678" y="-257.5" font-family="arial" font-size="10.00"> «create» </text>
<text text-anchor="start" x="678" y="-244.5" font-family="arial" font-size="10.00"> + Piece(nom : String) </text>
<text text-anchor="start" x="678" y="-231.5" font-family="arial" font-size="10.00"> «abstract» </text>
<text text-anchor="start" x="678" y="-218.5" font-family="arial italic" font-size="10.00"> + prix() : int </text>
<text text-anchor="start" x="678" y="-205.5" font-family="arial" font-size="10.00"> «abstract» </text>
<text text-anchor="start" x="678" y="-192.5" font-family="arial italic" font-size="10.00"> + dureeGarantie() : int </text>
<text text-anchor="start" x="678" y="-179.5" font-family="arial" font-size="10.00"> «abstract» </text>
<text text-anchor="start" x="678" y="-166.5" font-family="arial italic" font-size="10.00"> + dureeFabrication() : int </text>
<text text-anchor="start" x="678" y="-153.5" font-family="arial" font-size="10.00"> «abstract» </text>
<text text-anchor="start" x="678" y="-140.5" font-family="arial italic" font-size="10.00"> + getPrefixe() : String </text>
<text text-anchor="start" x="678" y="-127.5" font-family="arial" font-size="10.00"> + affiche() </text>
<text text-anchor="start" x="678" y="-114.5" font-family="arial" font-size="10.00"> + toString(i : int) : String </text>
<text text-anchor="start" x="678" y="-101.5" font-family="arial" font-size="10.00"> + toString() : String </text>
<text text-anchor="start" x="678" y="-88.5" font-family="arial" font-size="10.00"> # indentation(i : int) : String </text>
<text text-anchor="start" x="678" y="-75.5" font-family="arial" font-size="10.00"> + nouvelleReference() : String </text>
<text text-anchor="start" x="678" y="-62.5" font-family="arial" font-size="10.00"> + getReference() : String </text>
<text text-anchor="start" x="678" y="-49.5" font-family="arial" font-size="10.00"> + setReference(reference : String) </text>
<text text-anchor="start" x="678" y="-36.5" font-family="arial" font-size="10.00"> + getNom() : String </text>
<text text-anchor="start" x="678" y="-23.5" font-family="arial" font-size="10.00"> + setNom(nom : String) </text>
<text text-anchor="start" x="678" y="-10.5" font-family="arial" font-size="10.00"> + compareTo(p : Piece) : int </text>
</a>
</g>
<g><a xlink:href="./Piece.html" xlink:title="&lt;TABLE&gt;">
</a>
</g>
</g>
<!-- c102&#45;&gt;c104 -->
<g id="edge4" class="edge"><title>c102:p&#45;&gt;c104:p</title>
<path fill="none" stroke="black" d="M696.336,-379.402C699.72,-368.708 703.165,-357.921 706.624,-347.189"/>
<polygon fill="black" stroke="black" points="696.299,-379.519 698.309,-386.444 692.69,-390.963 690.68,-384.038 696.299,-379.519"/>
<text text-anchor="middle" x="698.624" y="-350.189" font-family="arial" font-size="10.00">1..*</text>
<text text-anchor="middle" x="689.69" y="-382.963" font-family="arial" font-size="10.00">1</text>
</g>
<!-- c104&#45;&gt;c102 -->
<g id="edge3" class="edge"><title>c104:p&#45;&gt;c102:p</title>
<path fill="none" stroke="black" d="M717.037,-356.79C713.381,-368.228 709.685,-379.679 706.007,-390.963"/>
<polygon fill="none" stroke="black" points="720.395,-357.78 720.098,-347.189 713.726,-355.653 720.395,-357.78"/>
</g>
</g>
</svg>
