<?xml version="1.0" encoding="UTF-8" standalone="no"?>
<!DOCTYPE svg PUBLIC "-//W3C//DTD SVG 1.1//EN"
 "http://www.w3.org/Graphics/SVG/1.1/DTD/svg11.dtd">
<!-- Generated by graphviz version 2.38.0 (20140413.2041)
 -->
<!-- Title: G Pages: 1 -->
<svg width="499pt" height="255pt"
 viewBox="0.00 0.00 499.00 255.00" xmlns="http://www.w3.org/2000/svg" xmlns:xlink="http://www.w3.org/1999/xlink">
<g id="graph0" class="graph" transform="scale(1 1) rotate(0) translate(4 251)">
<title>G</title>
<polygon fill="white" stroke="none" points="-4,4 -4,-251 495,-251 495,4 -4,4"/>
<!-- c75 -->
<g id="node1" class="node"><title>c75</title>
<g id="a_node1"><a xlink:href="./PieceMontee.html" xlink:title="&lt;TABLE&gt;">
</a>
</g>
<g id="a_node1_0"><a xlink:href="./PieceMontee.html" xlink:title="tp8.PieceMontee">
<polygon fill="lemonChiffon" stroke="none" points="296,-43 296,-204 483,-204 483,-43 296,-43"/>
<polygon fill="none" stroke="black" points="296.5,-184.5 296.5,-203.5 483.5,-203.5 483.5,-184.5 296.5,-184.5"/>
<text text-anchor="start" x="358" y="-191.5" font-family="arial" font-size="10.00"> PieceMontee </text>
<polygon fill="none" stroke="black" points="296.5,-165.5 296.5,-184.5 483.5,-184.5 483.5,-165.5 296.5,-165.5"/>
<text text-anchor="start" x="300.5" y="-172.5" font-family="arial" font-size="10.00"> &#160;</text>
<polygon fill="none" stroke="black" points="296.5,-42.5 296.5,-165.5 483.5,-165.5 483.5,-42.5 296.5,-42.5"/>
<text text-anchor="start" x="300.5" y="-153.5" font-family="arial" font-size="10.00"> + getDureeMontage() : int </text>
<text text-anchor="start" x="300.5" y="-140.5" font-family="arial" font-size="10.00"> + setDureeMontage(dureeMontage : int) </text>
<text text-anchor="start" x="300.5" y="-127.5" font-family="arial" font-size="10.00"> + dureeGarantie() : int </text>
<text text-anchor="start" x="300.5" y="-114.5" font-family="arial" font-size="10.00"> + dureeFabrication() : int </text>
<text text-anchor="start" x="300.5" y="-101.5" font-family="arial" font-size="10.00"> + prix() : int </text>
<text text-anchor="start" x="300.5" y="-88.5" font-family="arial" font-size="10.00"> + afficheInfoSupplementaires() </text>
<text text-anchor="start" x="300.5" y="-75.5" font-family="arial" font-size="10.00"> # getPrefixe() : String </text>
<text text-anchor="start" x="300.5" y="-62.5" font-family="arial" font-size="10.00"> + getPrixMontage() : int </text>
<text text-anchor="start" x="300.5" y="-49.5" font-family="arial" font-size="10.00"> + setPrixMontage(prixMontage : int) </text>
</a>
</g>
<g><a xlink:href="./PieceMontee.html" xlink:title="&lt;TABLE&gt;">
</a>
</g>
</g>
<!-- c77 -->
<g id="node2" class="node"><title>c77</title>
<g id="a_node2"><a xlink:href="./PieceComposite.html" xlink:title="&lt;TABLE&gt;">
</a>
</g>
<g id="a_node2_1"><a xlink:href="./PieceComposite.html" xlink:title="tp8.PieceComposite">
<polygon fill="none" stroke="black" points="8,-210.5 8,-242.5 244,-242.5 244,-210.5 8,-210.5"/>
<text text-anchor="start" x="100" y="-230.5" font-family="arial" font-size="10.00"> «abstract» </text>
<text text-anchor="start" x="87" y="-217.5" font-family="arial italic" font-size="10.00"> PieceComposite </text>
<polygon fill="none" stroke="black" points="8,-191.5 8,-210.5 244,-210.5 244,-191.5 8,-191.5"/>
<text text-anchor="start" x="12" y="-198.5" font-family="arial" font-size="10.00"> &#160;</text>
<polygon fill="none" stroke="black" points="8,-3.5 8,-191.5 244,-191.5 244,-3.5 8,-3.5"/>
<text text-anchor="start" x="12" y="-179.5" font-family="arial" font-size="10.00"> + getComposants() : ArrayList&lt;Piece&gt; </text>
<text text-anchor="start" x="12" y="-166.5" font-family="arial" font-size="10.00"> + setComposants(composants : ArrayList&lt;Piece&gt;) </text>
<text text-anchor="start" x="12" y="-153.5" font-family="arial" font-size="10.00"> + getDureeMontage() : int </text>
<text text-anchor="start" x="12" y="-140.5" font-family="arial" font-size="10.00"> + setDureeMontage(dureeMontage : int) </text>
<text text-anchor="start" x="12" y="-127.5" font-family="arial" font-size="10.00"> + ajoute(p : Piece) </text>
<text text-anchor="start" x="12" y="-114.5" font-family="arial" font-size="10.00"> + toString(i : int) : String </text>
<text text-anchor="start" x="12" y="-101.5" font-family="arial" font-size="10.00"> + toString() : String </text>
<text text-anchor="start" x="12" y="-88.5" font-family="arial" font-size="10.00"> «abstract» </text>
<text text-anchor="start" x="12" y="-75.5" font-family="arial italic" font-size="10.00"> + afficheInfoSupplementaires() </text>
<text text-anchor="start" x="12" y="-62.5" font-family="arial" font-size="10.00"> # plusFaibleGarantie() : Piece </text>
<text text-anchor="start" x="12" y="-49.5" font-family="arial" font-size="10.00"> # plusGrandeDureeFabrication() : Piece </text>
<text text-anchor="start" x="12" y="-36.5" font-family="arial" font-size="10.00"> + affiche() </text>
<text text-anchor="start" x="12" y="-23.5" font-family="arial" font-size="10.00"> + prix() : int </text>
<text text-anchor="start" x="12" y="-10.5" font-family="arial" font-size="10.00"> + main(args : String[]) </text>
</a>
</g>
<g><a xlink:href="./PieceComposite.html" xlink:title="&lt;TABLE&gt;">
</a>
</g>
</g>
<!-- c77&#45;&gt;c75 -->
<g id="edge1" class="edge"><title>c77:p&#45;&gt;c75:p</title>
<path fill="none" stroke="black" d="M254.494,-123.5C268.431,-123.5 282.418,-123.5 295.82,-123.5"/>
<polygon fill="none" stroke="black" points="254.364,-120 244.364,-123.5 254.364,-127 254.364,-120"/>
</g>
</g>
</svg>
