<?xml version="1.0" encoding="UTF-8" standalone="no"?>
<!DOCTYPE svg PUBLIC "-//W3C//DTD SVG 1.1//EN"
 "http://www.w3.org/Graphics/SVG/1.1/DTD/svg11.dtd">
<!-- Generated by graphviz version 2.38.0 (20140413.2041)
 -->
<!-- Title: G Pages: 1 -->
<svg width="282pt" height="177pt"
 viewBox="0.00 0.00 282.00 177.00" xmlns="http://www.w3.org/2000/svg" xmlns:xlink="http://www.w3.org/1999/xlink">
<g id="graph0" class="graph" transform="scale(1 1) rotate(0) translate(4 173)">
<title>G</title>
<polygon fill="white" stroke="none" points="-4,4 -4,-173 278,-173 278,4 -4,4"/>
<!-- c76 -->
<g id="node1" class="node"><title>c76</title>
<g id="a_node1"><a xlink:href="./Panier.html" xlink:title="&lt;TABLE&gt;">
</a>
</g>
<g id="a_node1_0"><a xlink:href="./Panier.html" xlink:title="tp8.Panier">
<polygon fill="lemonChiffon" stroke="none" points="8,-4 8,-165 266,-165 266,-4 8,-4"/>
<polygon fill="none" stroke="black" points="8,-145.5 8,-164.5 266,-164.5 266,-145.5 8,-145.5"/>
<text text-anchor="start" x="120" y="-152.5" font-family="arial" font-size="10.00"> Panier </text>
<polygon fill="none" stroke="black" points="8,-126.5 8,-145.5 266,-145.5 266,-126.5 8,-126.5"/>
<text text-anchor="start" x="12" y="-133.5" font-family="arial" font-size="10.00"> &#45; nbPieceParReference : HashMap&lt;String, Integer&gt; </text>
<polygon fill="none" stroke="black" points="8,-3.5 8,-126.5 266,-126.5 266,-3.5 8,-3.5"/>
<text text-anchor="start" x="12" y="-114.5" font-family="arial" font-size="10.00"> «create» </text>
<text text-anchor="start" x="12" y="-101.5" font-family="arial" font-size="10.00"> + Panier() </text>
<text text-anchor="start" x="12" y="-88.5" font-family="arial" font-size="10.00"> + ajouterPiece(p : Piece) </text>
<text text-anchor="start" x="12" y="-75.5" font-family="arial" font-size="10.00"> + ajouterPiece(p : Piece, nb : Integer) </text>
<text text-anchor="start" x="12" y="-62.5" font-family="arial" font-size="10.00"> + retirerPiece(p : Piece) </text>
<text text-anchor="start" x="12" y="-49.5" font-family="arial" font-size="10.00"> + retirerPiece(p : Piece, nb : Integer) </text>
<text text-anchor="start" x="12" y="-36.5" font-family="arial" font-size="10.00"> + afficher() </text>
<text text-anchor="start" x="12" y="-23.5" font-family="arial" font-size="10.00"> + trierParPrixDecroissant(listePiece : ArrayList&lt;Piece&gt;) </text>
<text text-anchor="start" x="12" y="-10.5" font-family="arial" font-size="10.00"> + trierParPrixCroissant(listePiece : ArrayList&lt;Piece&gt;) </text>
</a>
</g>
<g><a xlink:href="./Panier.html" xlink:title="&lt;TABLE&gt;">
</a>
</g>
</g>
</g>
</svg>
