<?xml version="1.0" encoding="UTF-8" standalone="no"?>
<!DOCTYPE svg PUBLIC "-//W3C//DTD SVG 1.1//EN"
 "http://www.w3.org/Graphics/SVG/1.1/DTD/svg11.dtd">
<!-- Generated by graphviz version 2.38.0 (20140413.2041)
 -->
<!-- Title: G Pages: 1 -->
<svg width="288pt" height="124pt"
 viewBox="0.00 0.00 288.00 124.00" xmlns="http://www.w3.org/2000/svg" xmlns:xlink="http://www.w3.org/1999/xlink">
<g id="graph0" class="graph" transform="scale(1 1) rotate(0) translate(4 120)">
<title>G</title>
<polygon fill="white" stroke="none" points="-4,4 -4,-120 284,-120 284,4 -4,4"/>
<!-- c104 -->
<g id="node1" class="node"><title>c104</title>
<g id="a_node1"><a xlink:href="./PieceMontee.html" xlink:title="&lt;TABLE&gt;">
</a>
</g>
<g id="a_node1_0"><a xlink:href="./PieceMontee.html" xlink:title="tp8.PieceMontee">
<polygon fill="none" stroke="black" points="8,-10 8,-29 80,-29 80,-10 8,-10"/>
<text text-anchor="start" x="12" y="-17" font-family="arial" font-size="10.00"> PieceMontee </text>
</a>
</g>
<g><a xlink:href="./PieceMontee.html" xlink:title="&lt;TABLE&gt;">
</a>
</g>
</g>
<!-- c105 -->
<g id="node2" class="node"><title>c105</title>
<g id="a_node2"><a xlink:href="./PieceEnKit.html" xlink:title="&lt;TABLE&gt;">
</a>
</g>
<g id="a_node2_1"><a xlink:href="./PieceEnKit.html" xlink:title="tp8.PieceEnKit">
<polygon fill="none" stroke="black" points="115,-10 115,-29 178,-29 178,-10 115,-10"/>
<text text-anchor="start" x="119" y="-17" font-family="arial" font-size="10.00"> PieceEnKit </text>
</a>
</g>
<g><a xlink:href="./PieceEnKit.html" xlink:title="&lt;TABLE&gt;">
</a>
</g>
</g>
<!-- c106 -->
<g id="node3" class="node"><title>c106</title>
<g id="a_node3"><a xlink:href="./PieceComposite.html" xlink:title="&lt;TABLE&gt;">
</a>
</g>
<g id="a_node3_2"><a xlink:href="./PieceComposite.html" xlink:title="tp8.PieceComposite">
<polygon fill="lemonChiffon" stroke="none" points="151,-80 151,-112 237,-112 237,-80 151,-80"/>
<polygon fill="none" stroke="black" points="151,-80 151,-112 237,-112 237,-80 151,-80"/>
<text text-anchor="start" x="168" y="-100" font-family="arial" font-size="10.00"> «abstract» </text>
<text text-anchor="start" x="155" y="-87" font-family="arial italic" font-size="10.00"> PieceComposite </text>
</a>
</g>
<g><a xlink:href="./PieceComposite.html" xlink:title="&lt;TABLE&gt;">
</a>
</g>
</g>
<!-- c106&#45;&gt;c104 -->
<g id="edge1" class="edge"><title>c106:p&#45;&gt;c104:p</title>
<path fill="none" stroke="black" d="M154.277,-75.4033C124.142,-60.5367 84.1668,-40.8156 61.5546,-29.6603"/>
<polygon fill="none" stroke="black" points="152.767,-78.561 163.283,-79.8464 155.864,-72.2833 152.767,-78.561"/>
</g>
<!-- c106&#45;&gt;c105 -->
<g id="edge2" class="edge"><title>c106:p&#45;&gt;c105:p</title>
<path fill="none" stroke="black" d="M178.386,-70.9277C169.252,-56.8475 158.266,-39.9104 151.723,-29.8228"/>
<polygon fill="none" stroke="black" points="175.676,-73.1822 184.054,-79.6672 181.549,-69.3728 175.676,-73.1822"/>
</g>
<!-- c108 -->
<g id="node4" class="node"><title>c108</title>
<g id="a_node4"><a xlink:href="./Piece.html" xlink:title="&lt;TABLE&gt;">
</a>
</g>
<g id="a_node4_3"><a xlink:href="./Piece.html" xlink:title="tp8.Piece">
<polygon fill="none" stroke="black" points="212,-4 212,-36 272,-36 272,-4 212,-4"/>
<text text-anchor="start" x="216" y="-24" font-family="arial" font-size="10.00"> «abstract» </text>
<text text-anchor="start" x="226.5" y="-11" font-family="arial italic" font-size="10.00"> Piece </text>
</a>
</g>
<g><a xlink:href="./Piece.html" xlink:title="&lt;TABLE&gt;">
</a>
</g>
</g>
<!-- c106&#45;&gt;c108 -->
<g id="edge4" class="edge"><title>c106:p&#45;&gt;c108:p</title>
<path fill="none" stroke="black" d="M204.447,-68.9002C211.027,-57.9016 219.384,-45.492 226.672,-36.06"/>
<polygon fill="black" stroke="black" points="204.264,-69.2239 204.789,-76.4158 198.353,-79.6672 197.827,-72.4752 204.264,-69.2239"/>
<text text-anchor="middle" x="199.672" y="-50.06" font-family="arial" font-size="10.00">*</text>
<text text-anchor="middle" x="199.672" y="-39.06" font-family="arial" font-size="10.00">composants</text>
<text text-anchor="end" x="198.353" y="-71.6672" font-family="arial" font-size="10.00">1</text>
</g>
<!-- c108&#45;&gt;c106 -->
<g id="edge3" class="edge"><title>c108:p&#45;&gt;c106:p</title>
<path fill="none" stroke="black" d="M232.76,-45.0635C226.079,-56.4382 217.231,-69.679 209.538,-79.6672"/>
<polygon fill="none" stroke="black" points="235.969,-46.497 237.791,-36.06 229.858,-43.0828 235.969,-46.497"/>
</g>
</g>
</svg>
