<?xml version="1.0" encoding="UTF-8" standalone="no"?>
<!DOCTYPE svg PUBLIC "-//W3C//DTD SVG 1.1//EN"
 "http://www.w3.org/Graphics/SVG/1.1/DTD/svg11.dtd">
<!-- Generated by graphviz version 2.38.0 (20140413.2041)
 -->
<!-- Title: G Pages: 1 -->
<svg width="1085pt" height="359pt"
 viewBox="0.00 0.00 1085.00 359.00" xmlns="http://www.w3.org/2000/svg" xmlns:xlink="http://www.w3.org/1999/xlink">
<g id="graph0" class="graph" transform="scale(1 1) rotate(0) translate(4 355)">
<title>G</title>
<polygon fill="white" stroke="none" points="-4,4 -4,-355 1081,-355 1081,4 -4,4"/>
<!-- c80 -->
<g id="node1" class="node"><title>c80</title>
<g id="a_node1"><a xlink:href="./PieceComposite.html" xlink:title="&lt;TABLE&gt;">
</a>
</g>
<g id="a_node1_0"><a xlink:href="./PieceComposite.html" xlink:title="tp8.PieceComposite">
<polygon fill="none" stroke="black" points="8.5,-295.5 8.5,-327.5 329.5,-327.5 329.5,-295.5 8.5,-295.5"/>
<text text-anchor="start" x="143" y="-315.5" font-family="arial" font-size="10.00"> «abstract» </text>
<text text-anchor="start" x="130" y="-302.5" font-family="arial italic" font-size="10.00"> PieceComposite </text>
<polygon fill="none" stroke="black" points="8.5,-276.5 8.5,-295.5 329.5,-295.5 329.5,-276.5 8.5,-276.5"/>
<text text-anchor="start" x="12.5" y="-283.5" font-family="arial" font-size="10.00"> &#160;</text>
<polygon fill="none" stroke="black" points="8.5,-23.5 8.5,-276.5 329.5,-276.5 329.5,-23.5 8.5,-23.5"/>
<text text-anchor="start" x="12.5" y="-264.5" font-family="arial" font-size="10.00"> «create» </text>
<text text-anchor="start" x="12.5" y="-251.5" font-family="arial" font-size="10.00"> + PieceComposite(nom : String) </text>
<text text-anchor="start" x="12.5" y="-238.5" font-family="arial" font-size="10.00"> «create» </text>
<text text-anchor="start" x="12.5" y="-225.5" font-family="arial" font-size="10.00"> + PieceComposite(nom : String, reference : String) </text>
<text text-anchor="start" x="12.5" y="-212.5" font-family="arial" font-size="10.00"> «create» </text>
<text text-anchor="start" x="12.5" y="-199.5" font-family="arial" font-size="10.00"> + PieceComposite(nom : String, reference : String, dureeMontage : int) </text>
<text text-anchor="start" x="12.5" y="-186.5" font-family="arial" font-size="10.00"> + getComposants() : ArrayList&lt;Piece&gt; </text>
<text text-anchor="start" x="12.5" y="-173.5" font-family="arial" font-size="10.00"> + setComposants(composants : ArrayList&lt;Piece&gt;) </text>
<text text-anchor="start" x="12.5" y="-160.5" font-family="arial" font-size="10.00"> + getDureeMontage() : int </text>
<text text-anchor="start" x="12.5" y="-147.5" font-family="arial" font-size="10.00"> + setDureeMontage(dureeMontage : int) </text>
<text text-anchor="start" x="12.5" y="-134.5" font-family="arial" font-size="10.00"> + ajoute(p : Piece) </text>
<text text-anchor="start" x="12.5" y="-121.5" font-family="arial" font-size="10.00"> + toString(i : int) : String </text>
<text text-anchor="start" x="12.5" y="-108.5" font-family="arial" font-size="10.00"> + toString() : String </text>
<text text-anchor="start" x="12.5" y="-95.5" font-family="arial" font-size="10.00"> «abstract» </text>
<text text-anchor="start" x="12.5" y="-82.5" font-family="arial italic" font-size="10.00"> + afficheInfoSupplementaires() </text>
<text text-anchor="start" x="12.5" y="-69.5" font-family="arial" font-size="10.00"> # plusFaibleGarantie() : Piece </text>
<text text-anchor="start" x="12.5" y="-56.5" font-family="arial" font-size="10.00"> # plusGrandeDureeFabrication() : Piece </text>
<text text-anchor="start" x="12.5" y="-43.5" font-family="arial" font-size="10.00"> + affiche() </text>
<text text-anchor="start" x="12.5" y="-30.5" font-family="arial" font-size="10.00"> + prix() : int </text>
</a>
</g>
<g><a xlink:href="./PieceComposite.html" xlink:title="&lt;TABLE&gt;">
</a>
</g>
</g>
<!-- c82 -->
<g id="node3" class="node"><title>c82</title>
<g id="a_node3"><a xlink:href="./Piece.html" xlink:title="&lt;TABLE&gt;">
</a>
</g>
<g id="a_node3_1"><a xlink:href="./Piece.html" xlink:title="tp8.Piece">
<polygon fill="lemonChiffon" stroke="none" points="381,-4 381,-347 569,-347 569,-4 381,-4"/>
<polygon fill="none" stroke="black" points="381,-314.5 381,-346.5 569,-346.5 569,-314.5 381,-314.5"/>
<text text-anchor="start" x="449" y="-334.5" font-family="arial" font-size="10.00"> «abstract» </text>
<text text-anchor="start" x="459.5" y="-321.5" font-family="arial italic" font-size="10.00"> Piece </text>
<polygon fill="none" stroke="black" points="381,-295.5 381,-314.5 569,-314.5 569,-295.5 381,-295.5"/>
<text text-anchor="start" x="385" y="-302.5" font-family="arial" font-size="10.00"> &#160;</text>
<polygon fill="none" stroke="black" points="381,-3.5 381,-295.5 569,-295.5 569,-3.5 381,-3.5"/>
<text text-anchor="start" x="385" y="-283.5" font-family="arial" font-size="10.00"> «create» </text>
<text text-anchor="start" x="385" y="-270.5" font-family="arial" font-size="10.00"> + Piece(nom : String, reference : String) </text>
<text text-anchor="start" x="385" y="-257.5" font-family="arial" font-size="10.00"> «create» </text>
<text text-anchor="start" x="385" y="-244.5" font-family="arial" font-size="10.00"> + Piece(nom : String) </text>
<text text-anchor="start" x="385" y="-231.5" font-family="arial" font-size="10.00"> «abstract» </text>
<text text-anchor="start" x="385" y="-218.5" font-family="arial italic" font-size="10.00"> + prix() : int </text>
<text text-anchor="start" x="385" y="-205.5" font-family="arial" font-size="10.00"> «abstract» </text>
<text text-anchor="start" x="385" y="-192.5" font-family="arial italic" font-size="10.00"> + dureeGarantie() : int </text>
<text text-anchor="start" x="385" y="-179.5" font-family="arial" font-size="10.00"> «abstract» </text>
<text text-anchor="start" x="385" y="-166.5" font-family="arial italic" font-size="10.00"> + dureeFabrication() : int </text>
<text text-anchor="start" x="385" y="-153.5" font-family="arial" font-size="10.00"> «abstract» </text>
<text text-anchor="start" x="385" y="-140.5" font-family="arial italic" font-size="10.00"> + getPrefixe() : String </text>
<text text-anchor="start" x="385" y="-127.5" font-family="arial" font-size="10.00"> + affiche() </text>
<text text-anchor="start" x="385" y="-114.5" font-family="arial" font-size="10.00"> + toString(i : int) : String </text>
<text text-anchor="start" x="385" y="-101.5" font-family="arial" font-size="10.00"> + toString() : String </text>
<text text-anchor="start" x="385" y="-88.5" font-family="arial" font-size="10.00"> # indentation(i : int) : String </text>
<text text-anchor="start" x="385" y="-75.5" font-family="arial" font-size="10.00"> + nouvelleReference() : String </text>
<text text-anchor="start" x="385" y="-62.5" font-family="arial" font-size="10.00"> + getReference() : String </text>
<text text-anchor="start" x="385" y="-49.5" font-family="arial" font-size="10.00"> + setReference(reference : String) </text>
<text text-anchor="start" x="385" y="-36.5" font-family="arial" font-size="10.00"> + getNom() : String </text>
<text text-anchor="start" x="385" y="-23.5" font-family="arial" font-size="10.00"> + setNom(nom : String) </text>
<text text-anchor="start" x="385" y="-10.5" font-family="arial" font-size="10.00"> + compareTo(p : Piece) : int </text>
</a>
</g>
<g><a xlink:href="./Piece.html" xlink:title="&lt;TABLE&gt;">
</a>
</g>
</g>
<!-- c80&#45;&gt;c82 -->
<g id="edge2" class="edge"><title>c80:p&#45;&gt;c82:p</title>
<path fill="none" stroke="black" d="M341.713,-168.802C355.146,-168.872 368.368,-169.013 380.951,-169.226"/>
<polygon fill="black" stroke="black" points="341.33,-168.801 335.316,-172.779 329.33,-168.757 335.344,-164.779 341.33,-168.801"/>
<text text-anchor="middle" x="372.951" y="-172.226" font-family="arial" font-size="10.00">1..*</text>
<text text-anchor="middle" x="326.33" y="-171.757" font-family="arial" font-size="10.00">1</text>
</g>
<!-- c81 -->
<g id="node2" class="node"><title>c81</title>
<g id="a_node2"><a xlink:href="./PieceBasique.html" xlink:title="&lt;TABLE&gt;">
</a>
</g>
<g id="a_node2_2"><a xlink:href="./PieceBasique.html" xlink:title="tp8.PieceBasique">
<polygon fill="none" stroke="black" points="621,-269.5 621,-288.5 1069,-288.5 1069,-269.5 621,-269.5"/>
<text text-anchor="start" x="811.5" y="-276.5" font-family="arial" font-size="10.00"> PieceBasique </text>
<polygon fill="none" stroke="black" points="621,-250.5 621,-269.5 1069,-269.5 1069,-250.5 621,-250.5"/>
<text text-anchor="start" x="625" y="-257.5" font-family="arial" font-size="10.00"> &#160;</text>
<polygon fill="none" stroke="black" points="621,-62.5 621,-250.5 1069,-250.5 1069,-62.5 621,-62.5"/>
<text text-anchor="start" x="625" y="-238.5" font-family="arial" font-size="10.00"> «create» </text>
<text text-anchor="start" x="625" y="-225.5" font-family="arial" font-size="10.00"> + PieceBasique(nom : String, reference : String, prix : int, dureeFabrication : int, dureeGarantie : int) </text>
<text text-anchor="start" x="625" y="-212.5" font-family="arial" font-size="10.00"> «create» </text>
<text text-anchor="start" x="625" y="-199.5" font-family="arial" font-size="10.00"> + PieceBasique(nom : String) </text>
<text text-anchor="start" x="625" y="-186.5" font-family="arial" font-size="10.00"> + dureeFabrication() : int </text>
<text text-anchor="start" x="625" y="-173.5" font-family="arial" font-size="10.00"> + getPrix() : int </text>
<text text-anchor="start" x="625" y="-160.5" font-family="arial" font-size="10.00"> + setPrix(prix : int) </text>
<text text-anchor="start" x="625" y="-147.5" font-family="arial" font-size="10.00"> + dureeGarantie() : int </text>
<text text-anchor="start" x="625" y="-134.5" font-family="arial" font-size="10.00"> + prix() : int </text>
<text text-anchor="start" x="625" y="-121.5" font-family="arial" font-size="10.00"> + getPrefixe() : String </text>
<text text-anchor="start" x="625" y="-108.5" font-family="arial" font-size="10.00"> + getDureeGarantie() : int </text>
<text text-anchor="start" x="625" y="-95.5" font-family="arial" font-size="10.00"> + setDureeGarantie(dureeGarantie : int) </text>
<text text-anchor="start" x="625" y="-82.5" font-family="arial" font-size="10.00"> + getDureeFabrication() : int </text>
<text text-anchor="start" x="625" y="-69.5" font-family="arial" font-size="10.00"> + setDureeFabrication(dureeFabrication : int) </text>
</a>
</g>
<g><a xlink:href="./PieceBasique.html" xlink:title="&lt;TABLE&gt;">
</a>
</g>
</g>
<!-- c82&#45;&gt;c80 -->
<g id="edge1" class="edge"><title>c82:p&#45;&gt;c80:p</title>
<path fill="none" stroke="black" d="M370.809,-181.928C357.391,-182.11 343.404,-182.215 329.33,-182.243"/>
<polygon fill="none" stroke="black" points="371.005,-185.426 380.951,-181.774 370.899,-178.427 371.005,-185.426"/>
</g>
<!-- c82&#45;&gt;c81 -->
<g id="edge3" class="edge"><title>c82:p&#45;&gt;c81:p</title>
<path fill="none" stroke="black" d="M579.348,-175.5C592.624,-175.5 606.598,-175.5 620.903,-175.5"/>
<polygon fill="none" stroke="black" points="579.338,-172 569.338,-175.5 579.338,-179 579.338,-172"/>
</g>
</g>
</svg>
