<?xml version="1.0" encoding="UTF-8" standalone="no"?>
<!DOCTYPE svg PUBLIC "-//W3C//DTD SVG 1.1//EN"
 "http://www.w3.org/Graphics/SVG/1.1/DTD/svg11.dtd">
<!-- Generated by graphviz version 2.38.0 (20140413.2041)
 -->
<!-- Title: G Pages: 1 -->
<svg width="712pt" height="312pt"
 viewBox="0.00 0.00 712.00 312.00" xmlns="http://www.w3.org/2000/svg" xmlns:xlink="http://www.w3.org/1999/xlink">
<g id="graph0" class="graph" transform="scale(1 1) rotate(0) translate(4 308)">
<title>G</title>
<polygon fill="white" stroke="none" points="-4,4 -4,-308 708,-308 708,4 -4,4"/>
<!-- c84 -->
<g id="node1" class="node"><title>c84</title>
<g id="a_node1"><a xlink:href="./PieceComposite.html" xlink:title="&lt;TABLE&gt;">
</a>
</g>
<g id="a_node1_0"><a xlink:href="./PieceComposite.html" xlink:title="tp8.PieceComposite">
<polygon fill="none" stroke="black" points="312,-268 312,-300 633,-300 633,-268 312,-268"/>
<text text-anchor="start" x="446.5" y="-288" font-family="arial" font-size="10.00"> «abstract» </text>
<text text-anchor="start" x="433.5" y="-275" font-family="arial italic" font-size="10.00"> PieceComposite </text>
<polygon fill="none" stroke="black" points="312,-236 312,-268 633,-268 633,-236 312,-236"/>
<text text-anchor="start" x="316" y="-256" font-family="arial" font-size="10.00"> &#45; composants : ArrayList&lt;Piece&gt; </text>
<text text-anchor="start" x="316" y="-243" font-family="arial" font-size="10.00"> &#45; dureeMontage : int </text>
<polygon fill="none" stroke="black" points="312,-152 312,-236 633,-236 633,-152 312,-152"/>
<text text-anchor="start" x="316" y="-224" font-family="arial" font-size="10.00"> «create» </text>
<text text-anchor="start" x="316" y="-211" font-family="arial" font-size="10.00"> + PieceComposite(nom : String, reference : String, dureeMontage : int) </text>
<text text-anchor="start" x="316" y="-198" font-family="arial" font-size="10.00"> + ajoute(p : Piece) </text>
<text text-anchor="start" x="316" y="-185" font-family="arial" font-size="10.00"> + toString() : String </text>
<text text-anchor="start" x="316" y="-172" font-family="arial" font-size="10.00"> + affiche() </text>
<text text-anchor="start" x="316" y="-159" font-family="arial" font-size="10.00"> + prix() : int </text>
</a>
</g>
<g><a xlink:href="./PieceComposite.html" xlink:title="&lt;TABLE&gt;">
</a>
</g>
</g>
<!-- c85 -->
<g id="node2" class="node"><title>c85</title>
<g id="a_node2"><a xlink:href="./PieceBasique.html" xlink:title="&lt;TABLE&gt;">
</a>
</g>
<g id="a_node2_1"><a xlink:href="./PieceBasique.html" xlink:title="tp8.PieceBasique">
<polygon fill="none" stroke="black" points="248,-107 248,-126 696,-126 696,-107 248,-107"/>
<text text-anchor="start" x="438.5" y="-114" font-family="arial" font-size="10.00"> PieceBasique </text>
<polygon fill="none" stroke="black" points="248,-62 248,-107 696,-107 696,-62 248,-62"/>
<text text-anchor="start" x="252" y="-95" font-family="arial" font-size="10.00"> &#45; dureeGarantie : int </text>
<text text-anchor="start" x="252" y="-82" font-family="arial" font-size="10.00"> &#45; prix : int </text>
<text text-anchor="start" x="252" y="-69" font-family="arial" font-size="10.00"> &#45; dureeFabrication : int </text>
<polygon fill="none" stroke="black" points="248,-4 248,-62 696,-62 696,-4 248,-4"/>
<text text-anchor="start" x="252" y="-50" font-family="arial" font-size="10.00"> «create» </text>
<text text-anchor="start" x="252" y="-37" font-family="arial" font-size="10.00"> + PieceBasique(nom : String, reference : String, prix : int, dureeFabrication : int, dureeGarantie : int) </text>
<text text-anchor="start" x="252" y="-24" font-family="arial" font-size="10.00"> + dureeFabrication() : int </text>
<text text-anchor="start" x="252" y="-11" font-family="arial" font-size="10.00"> + dureeGarantie() : int </text>
</a>
</g>
<g><a xlink:href="./PieceBasique.html" xlink:title="&lt;TABLE&gt;">
</a>
</g>
</g>
<!-- c86 -->
<g id="node3" class="node"><title>c86</title>
<g id="a_node3"><a xlink:href="./Piece.html" xlink:title="&lt;TABLE&gt;">
</a>
</g>
<g id="a_node3_2"><a xlink:href="./Piece.html" xlink:title="tp8.Piece">
<polygon fill="lemonChiffon" stroke="none" points="8,-32 8,-258 196,-258 196,-32 8,-32"/>
<polygon fill="none" stroke="black" points="8,-226 8,-258 196,-258 196,-226 8,-226"/>
<text text-anchor="start" x="76" y="-246" font-family="arial" font-size="10.00"> «abstract» </text>
<text text-anchor="start" x="86.5" y="-233" font-family="arial italic" font-size="10.00"> Piece </text>
<polygon fill="none" stroke="black" points="8,-194 8,-226 196,-226 196,-194 8,-194"/>
<text text-anchor="start" x="12" y="-214" font-family="arial" font-size="10.00"> &#45; nom : String </text>
<text text-anchor="start" x="12" y="-201" font-family="arial" font-size="10.00"> &#45; reference : String </text>
<polygon fill="none" stroke="black" points="8,-32 8,-194 196,-194 196,-32 8,-32"/>
<text text-anchor="start" x="12" y="-182" font-family="arial" font-size="10.00"> «create» </text>
<text text-anchor="start" x="12" y="-169" font-family="arial" font-size="10.00"> + Piece(nom : String, reference : String) </text>
<text text-anchor="start" x="12" y="-156" font-family="arial" font-size="10.00"> «abstract» </text>
<text text-anchor="start" x="12" y="-143" font-family="arial italic" font-size="10.00"> + prix() : int </text>
<text text-anchor="start" x="12" y="-130" font-family="arial" font-size="10.00"> «abstract» </text>
<text text-anchor="start" x="12" y="-117" font-family="arial italic" font-size="10.00"> + dureeGarantie() : int </text>
<text text-anchor="start" x="12" y="-104" font-family="arial" font-size="10.00"> «abstract» </text>
<text text-anchor="start" x="12" y="-91" font-family="arial italic" font-size="10.00"> + dureeFabrication() : int </text>
<text text-anchor="start" x="12" y="-78" font-family="arial" font-size="10.00"> «abstract» </text>
<text text-anchor="start" x="12" y="-65" font-family="arial italic" font-size="10.00"> + getPrefixe() : String </text>
<text text-anchor="start" x="12" y="-52" font-family="arial" font-size="10.00"> + affiche() </text>
<text text-anchor="start" x="12" y="-39" font-family="arial" font-size="10.00"> + toString() : String </text>
</a>
</g>
<g><a xlink:href="./Piece.html" xlink:title="&lt;TABLE&gt;">
</a>
</g>
</g>
<!-- c86&#45;&gt;c84 -->
<g id="edge1" class="edge"><title>c86:p&#45;&gt;c84:p</title>
<path fill="none" stroke="black" d="M206.307,-167.739C238.883,-174.909 275.668,-183.006 311.225,-190.832"/>
<polygon fill="none" stroke="black" points="206.856,-164.276 196.338,-165.544 205.351,-171.112 206.856,-164.276"/>
</g>
<!-- c86&#45;&gt;c85 -->
<g id="edge2" class="edge"><title>c86:p&#45;&gt;c85:p</title>
<path fill="none" stroke="black" d="M206.348,-122.533C219.624,-119.647 233.598,-116.609 247.903,-113.499"/>
<polygon fill="none" stroke="black" points="205.366,-119.165 196.338,-124.709 206.853,-126.005 205.366,-119.165"/>
</g>
</g>
</svg>
