<?xml version="1.0" encoding="UTF-8" standalone="no"?>
<!DOCTYPE svg PUBLIC "-//W3C//DTD SVG 1.1//EN"
 "http://www.w3.org/Graphics/SVG/1.1/DTD/svg11.dtd">
<!-- Generated by graphviz version 2.38.0 (20140413.2041)
 -->
<!-- Title: G Pages: 1 -->
<svg width="1023pt" height="378pt"
 viewBox="0.00 0.00 1023.00 377.50" xmlns="http://www.w3.org/2000/svg" xmlns:xlink="http://www.w3.org/1999/xlink">
<g id="graph0" class="graph" transform="scale(1 1) rotate(0) translate(4 373.5)">
<title>G</title>
<polygon fill="white" stroke="none" points="-4,4 -4,-373.5 1019,-373.5 1019,4 -4,4"/>
<!-- c104 -->
<g id="node1" class="node"><title>c104</title>
<g id="a_node1"><a xlink:href="./PieceMontee.html" xlink:title="&lt;TABLE&gt;">
</a>
</g>
<g id="a_node1_0"><a xlink:href="./PieceMontee.html" xlink:title="tp8.PieceMontee">
<polygon fill="none" stroke="black" points="621,-346 621,-365 1007,-365 1007,-346 621,-346"/>
<text text-anchor="start" x="782" y="-353" font-family="arial" font-size="10.00"> PieceMontee </text>
<polygon fill="none" stroke="black" points="621,-314 621,-346 1007,-346 1007,-314 621,-314"/>
<text text-anchor="start" x="625" y="-334" font-family="arial" font-size="10.00"> &#45; prixMontage : int </text>
<text text-anchor="start" x="625" y="-321" font-family="arial" font-size="10.00"> &#45; dureeMontage : int </text>
<polygon fill="none" stroke="black" points="621,-204 621,-314 1007,-314 1007,-204 621,-204"/>
<text text-anchor="start" x="625" y="-302" font-family="arial" font-size="10.00"> «create» </text>
<text text-anchor="start" x="625" y="-289" font-family="arial" font-size="10.00"> + PieceMontee(nom : String, reference : String, prixMontage : int, dureeMontage : int) </text>
<text text-anchor="start" x="625" y="-276" font-family="arial" font-size="10.00"> + getDureeMontage() : int </text>
<text text-anchor="start" x="625" y="-263" font-family="arial" font-size="10.00"> + dureeGarantie() : int </text>
<text text-anchor="start" x="625" y="-250" font-family="arial" font-size="10.00"> + dureeFabrication() : int </text>
<text text-anchor="start" x="625" y="-237" font-family="arial" font-size="10.00"> + prix() : int </text>
<text text-anchor="start" x="625" y="-224" font-family="arial" font-size="10.00"> + afficheInfoSupplementaires() </text>
<text text-anchor="start" x="625" y="-211" font-family="arial" font-size="10.00"> + getPrefixe() : String </text>
</a>
</g>
<g><a xlink:href="./PieceMontee.html" xlink:title="&lt;TABLE&gt;">
</a>
</g>
</g>
<!-- c105 -->
<g id="node2" class="node"><title>c105</title>
<g id="a_node2"><a xlink:href="./PieceEnKit.html" xlink:title="&lt;TABLE&gt;">
</a>
</g>
<g id="a_node2_1"><a xlink:href="./PieceEnKit.html" xlink:title="tp8.PieceEnKit">
<polygon fill="none" stroke="black" points="708,-159 708,-178 920,-178 920,-159 708,-159"/>
<text text-anchor="start" x="786.5" y="-166" font-family="arial" font-size="10.00"> PieceEnKit </text>
<polygon fill="none" stroke="black" points="708,-140 708,-159 920,-159 920,-140 708,-140"/>
<text text-anchor="start" x="712" y="-147" font-family="arial" font-size="10.00"> &#45; notice : NoticeMontage </text>
<polygon fill="none" stroke="black" points="708,-4 708,-140 920,-140 920,-4 708,-4"/>
<text text-anchor="start" x="712" y="-128" font-family="arial" font-size="10.00"> «create» </text>
<text text-anchor="start" x="712" y="-115" font-family="arial" font-size="10.00"> + PieceEnKit(nom : String) </text>
<text text-anchor="start" x="712" y="-102" font-family="arial" font-size="10.00"> + PieceEnKit(nom : String, reference : String) </text>
<text text-anchor="start" x="712" y="-89" font-family="arial" font-size="10.00"> + getNotice() : NoticeMontage </text>
<text text-anchor="start" x="712" y="-76" font-family="arial" font-size="10.00"> + setNotice(notice : NoticeMontage) </text>
<text text-anchor="start" x="712" y="-63" font-family="arial" font-size="10.00"> + dureeGarantie() : int </text>
<text text-anchor="start" x="712" y="-50" font-family="arial" font-size="10.00"> + dureeFabrication() : int </text>
<text text-anchor="start" x="712" y="-37" font-family="arial" font-size="10.00"> + afficheInfoSupplementaires() </text>
<text text-anchor="start" x="712" y="-24" font-family="arial" font-size="10.00"> &#45; dureeMontage() : String </text>
<text text-anchor="start" x="712" y="-11" font-family="arial" font-size="10.00"> + getPrefixe() : String </text>
</a>
</g>
<g><a xlink:href="./PieceEnKit.html" xlink:title="&lt;TABLE&gt;">
</a>
</g>
</g>
<!-- c106 -->
<g id="node3" class="node"><title>c106</title>
<g id="a_node3"><a xlink:href="./PieceComposite.html" xlink:title="&lt;TABLE&gt;">
</a>
</g>
<g id="a_node3_2"><a xlink:href="./PieceComposite.html" xlink:title="tp8.PieceComposite">
<polygon fill="lemonChiffon" stroke="none" points="248,-114 248,-262 569,-262 569,-114 248,-114"/>
<polygon fill="none" stroke="black" points="248.5,-230 248.5,-262 569.5,-262 569.5,-230 248.5,-230"/>
<text text-anchor="start" x="383" y="-250" font-family="arial" font-size="10.00"> «abstract» </text>
<text text-anchor="start" x="370" y="-237" font-family="arial italic" font-size="10.00"> PieceComposite </text>
<polygon fill="none" stroke="black" points="248.5,-198 248.5,-230 569.5,-230 569.5,-198 248.5,-198"/>
<text text-anchor="start" x="252.5" y="-218" font-family="arial" font-size="10.00"> &#45; composants : ArrayList&lt;Piece&gt; </text>
<text text-anchor="start" x="252.5" y="-205" font-family="arial" font-size="10.00"> &#45; dureeMontage : int </text>
<polygon fill="none" stroke="black" points="248.5,-114 248.5,-198 569.5,-198 569.5,-114 248.5,-114"/>
<text text-anchor="start" x="252.5" y="-186" font-family="arial" font-size="10.00"> «create» </text>
<text text-anchor="start" x="252.5" y="-173" font-family="arial" font-size="10.00"> + PieceComposite(nom : String, reference : String, dureeMontage : int) </text>
<text text-anchor="start" x="252.5" y="-160" font-family="arial" font-size="10.00"> + ajoute(p : Piece) </text>
<text text-anchor="start" x="252.5" y="-147" font-family="arial" font-size="10.00"> + toString() : String </text>
<text text-anchor="start" x="252.5" y="-134" font-family="arial" font-size="10.00"> + affiche() </text>
<text text-anchor="start" x="252.5" y="-121" font-family="arial" font-size="10.00"> + prix() : int </text>
</a>
</g>
<g><a xlink:href="./PieceComposite.html" xlink:title="&lt;TABLE&gt;">
</a>
</g>
</g>
<!-- c106&#45;&gt;c104 -->
<g id="edge1" class="edge"><title>c106:p&#45;&gt;c104:p</title>
<path fill="none" stroke="black" d="M579.24,-228.805C592.996,-232.112 606.955,-235.467 620.853,-238.809"/>
<polygon fill="none" stroke="black" points="579.805,-225.341 569.264,-226.407 578.169,-232.147 579.805,-225.341"/>
</g>
<!-- c106&#45;&gt;c105 -->
<g id="edge2" class="edge"><title>c106:p&#45;&gt;c105:p</title>
<path fill="none" stroke="black" d="M579.128,-147.222C622.777,-136.729 668.485,-125.741 707.794,-116.291"/>
<polygon fill="none" stroke="black" points="578.169,-143.853 569.264,-149.593 579.805,-150.659 578.169,-143.853"/>
</g>
<!-- c108 -->
<g id="node4" class="node"><title>c108</title>
<g id="a_node4"><a xlink:href="./Piece.html" xlink:title="&lt;TABLE&gt;">
</a>
</g>
<g id="a_node4_3"><a xlink:href="./Piece.html" xlink:title="tp8.Piece">
<polygon fill="none" stroke="black" points="8,-269 8,-301 196,-301 196,-269 8,-269"/>
<text text-anchor="start" x="76" y="-289" font-family="arial" font-size="10.00"> «abstract» </text>
<text text-anchor="start" x="86.5" y="-276" font-family="arial italic" font-size="10.00"> Piece </text>
<polygon fill="none" stroke="black" points="8,-237 8,-269 196,-269 196,-237 8,-237"/>
<text text-anchor="start" x="12" y="-257" font-family="arial" font-size="10.00"> &#45; nom : String </text>
<text text-anchor="start" x="12" y="-244" font-family="arial" font-size="10.00"> &#45; reference : String </text>
<polygon fill="none" stroke="black" points="8,-75 8,-237 196,-237 196,-75 8,-75"/>
<text text-anchor="start" x="12" y="-225" font-family="arial" font-size="10.00"> «create» </text>
<text text-anchor="start" x="12" y="-212" font-family="arial" font-size="10.00"> + Piece(nom : String, reference : String) </text>
<text text-anchor="start" x="12" y="-199" font-family="arial" font-size="10.00"> «abstract» </text>
<text text-anchor="start" x="12" y="-186" font-family="arial italic" font-size="10.00"> + prix() : int </text>
<text text-anchor="start" x="12" y="-173" font-family="arial" font-size="10.00"> «abstract» </text>
<text text-anchor="start" x="12" y="-160" font-family="arial italic" font-size="10.00"> + dureeGarantie() : int </text>
<text text-anchor="start" x="12" y="-147" font-family="arial" font-size="10.00"> «abstract» </text>
<text text-anchor="start" x="12" y="-134" font-family="arial italic" font-size="10.00"> + dureeFabrication() : int </text>
<text text-anchor="start" x="12" y="-121" font-family="arial" font-size="10.00"> «abstract» </text>
<text text-anchor="start" x="12" y="-108" font-family="arial italic" font-size="10.00"> + getPrefixe() : String </text>
<text text-anchor="start" x="12" y="-95" font-family="arial" font-size="10.00"> + affiche() </text>
<text text-anchor="start" x="12" y="-82" font-family="arial" font-size="10.00"> + toString() : String </text>
</a>
</g>
<g><a xlink:href="./Piece.html" xlink:title="&lt;TABLE&gt;">
</a>
</g>
</g>
<!-- c108&#45;&gt;c106 -->
<g id="edge3" class="edge"><title>c108:p&#45;&gt;c106:p</title>
<path fill="none" stroke="black" d="M206.215,-188C219.711,-188 233.782,-188 247.938,-188"/>
<polygon fill="none" stroke="black" points="206.015,-184.5 196.015,-188 206.015,-191.5 206.015,-184.5"/>
</g>
</g>
</svg>
