<?xml version="1.0" encoding="UTF-8" standalone="no"?>
<!DOCTYPE svg PUBLIC "-//W3C//DTD SVG 1.1//EN"
 "http://www.w3.org/Graphics/SVG/1.1/DTD/svg11.dtd">
<!-- Generated by graphviz version 2.38.0 (20140413.2041)
 -->
<!-- Title: G Pages: 1 -->
<svg width="518pt" height="896pt"
 viewBox="0.00 0.00 518.00 896.00" xmlns="http://www.w3.org/2000/svg" xmlns:xlink="http://www.w3.org/1999/xlink">
<g id="graph0" class="graph" transform="scale(1 1) rotate(0) translate(4 892)">
<title>G</title>
<polygon fill="white" stroke="none" points="-4,4 -4,-892 514,-892 514,4 -4,4"/>
<!-- c0 -->
<g id="node1" class="node"><title>c0</title>
<g id="a_node1"><a xlink:href="./TauxRecom.html" xlink:title="&lt;TABLE&gt;">
</a>
</g>
<g id="a_node1_0"><a xlink:href="./TauxRecom.html" xlink:title="tp3.TauxRecom">
<polygon fill="none" stroke="black" points="8,-839.5 8,-871.5 86,-871.5 86,-839.5 8,-839.5"/>
<text text-anchor="start" x="12" y="-859.5" font-family="arial" font-size="10.00"> «enumeration» </text>
<text text-anchor="start" x="18" y="-846.5" font-family="arial" font-size="10.00"> TauxRecom </text>
</a>
</g>
<g><a xlink:href="./TauxRecom.html" xlink:title="&lt;TABLE&gt;">
</a>
</g>
</g>
<!-- c1 -->
<g id="node2" class="node"><title>c1</title>
<g id="a_node2"><a xlink:href="./ProgrammePoste.html" xlink:title="&lt;TABLE&gt;">
</a>
</g>
<g id="a_node2_1"><a xlink:href="./ProgrammePoste.html" xlink:title="tp3.ProgrammePoste">
<polygon fill="none" stroke="black" points="120,-864.5 120,-883.5 228,-883.5 228,-864.5 120,-864.5"/>
<text text-anchor="start" x="133" y="-871.5" font-family="arial" font-size="10.00"> ProgrammePoste </text>
<polygon fill="none" stroke="black" points="120,-845.5 120,-864.5 228,-864.5 228,-845.5 120,-845.5"/>
<text text-anchor="start" x="124" y="-852.5" font-family="arial" font-size="10.00"> &#160;</text>
<polygon fill="none" stroke="black" points="120,-826.5 120,-845.5 228,-845.5 228,-826.5 120,-826.5"/>
<text text-anchor="start" x="124" y="-833.5" font-family="arial" font-size="10.00"> + main(argv : String[]) </text>
</a>
</g>
<g><a xlink:href="./ProgrammePoste.html" xlink:title="&lt;TABLE&gt;">
</a>
</g>
</g>
<!-- c2 -->
<g id="node3" class="node"><title>c2</title>
<g id="a_node3"><a xlink:href="./ObjetPostal.html" xlink:title="&lt;TABLE&gt;">
</a>
</g>
<g id="a_node3_2"><a xlink:href="./ObjetPostal.html" xlink:title="tp3.ObjetPostal">
<polygon fill="none" stroke="black" points="215,-750.5 215,-782.5 393,-782.5 393,-750.5 215,-750.5"/>
<text text-anchor="start" x="278" y="-770.5" font-family="arial" font-size="10.00"> «abstract» </text>
<text text-anchor="start" x="275" y="-757.5" font-family="arial italic" font-size="10.00"> ObjetPostal </text>
<polygon fill="none" stroke="black" points="215,-731.5 215,-750.5 393,-750.5 393,-731.5 215,-731.5"/>
<text text-anchor="start" x="219" y="-738.5" font-family="arial" font-size="10.00"> &#160;</text>
<polygon fill="none" stroke="black" points="215,-491.5 215,-731.5 393,-731.5 393,-491.5 215,-491.5"/>
<text text-anchor="start" x="219" y="-719.5" font-family="arial" font-size="10.00"> + getOrigine() : String </text>
<text text-anchor="start" x="219" y="-706.5" font-family="arial" font-size="10.00"> + setOrigine(origine : String) </text>
<text text-anchor="start" x="219" y="-693.5" font-family="arial" font-size="10.00"> + getDestination() : String </text>
<text text-anchor="start" x="219" y="-680.5" font-family="arial" font-size="10.00"> + setDestination(destination : String) </text>
<text text-anchor="start" x="219" y="-667.5" font-family="arial" font-size="10.00"> + getCodePostal() : String </text>
<text text-anchor="start" x="219" y="-654.5" font-family="arial" font-size="10.00"> + setCodePostal(codePostal : String) </text>
<text text-anchor="start" x="219" y="-641.5" font-family="arial" font-size="10.00"> + getPoids() : double </text>
<text text-anchor="start" x="219" y="-628.5" font-family="arial" font-size="10.00"> + setPoids(poids : double) </text>
<text text-anchor="start" x="219" y="-615.5" font-family="arial" font-size="10.00"> + getVolume() : double </text>
<text text-anchor="start" x="219" y="-602.5" font-family="arial" font-size="10.00"> + setVolume(volume : double) </text>
<text text-anchor="start" x="219" y="-589.5" font-family="arial" font-size="10.00"> + getTauxRec() : TauxRecom </text>
<text text-anchor="start" x="219" y="-576.5" font-family="arial" font-size="10.00"> + setTauxRec(tauxRec : TauxRecom) </text>
<text text-anchor="start" x="219" y="-563.5" font-family="arial italic" font-size="10.00"> + getTarifBase() : double </text>
<text text-anchor="start" x="219" y="-550.5" font-family="arial" font-size="10.00"> + tarifAff() : double </text>
<text text-anchor="start" x="219" y="-537.5" font-family="arial italic" font-size="10.00"> + tarifRemb() : double </text>
<text text-anchor="start" x="219" y="-524.5" font-family="arial italic" font-size="10.00"> + getTypeObjet() : String </text>
<text text-anchor="start" x="219" y="-511.5" font-family="arial" font-size="10.00"> + toString() : String </text>
<text text-anchor="start" x="219" y="-498.5" font-family="arial" font-size="10.00"> + affiche() </text>
</a>
</g>
<g><a xlink:href="./ObjetPostal.html" xlink:title="&lt;TABLE&gt;">
</a>
</g>
</g>
<!-- c3 -->
<g id="node5" class="node"><title>c3</title>
<g id="a_node5"><a xlink:href="./Lettre.html" xlink:title="&lt;TABLE&gt;">
</a>
</g>
<g id="a_node5_3"><a xlink:href="./Lettre.html" xlink:title="tp3.Lettre">
<polygon fill="none" stroke="black" points="149,-396 149,-415 271,-415 271,-396 149,-396"/>
<text text-anchor="start" x="194.5" y="-403" font-family="arial" font-size="10.00"> Lettre </text>
<polygon fill="none" stroke="black" points="149,-377 149,-396 271,-396 271,-377 149,-377"/>
<text text-anchor="start" x="153" y="-384" font-family="arial" font-size="10.00"> &#160;</text>
<polygon fill="none" stroke="black" points="149,-306 149,-377 271,-377 271,-306 149,-306"/>
<text text-anchor="start" x="153" y="-365" font-family="arial" font-size="10.00"> + getTarifBase() : double </text>
<text text-anchor="start" x="153" y="-352" font-family="arial" font-size="10.00"> + tarifAff() : double </text>
<text text-anchor="start" x="153" y="-339" font-family="arial" font-size="10.00"> + tarifRemb() : double </text>
<text text-anchor="start" x="153" y="-326" font-family="arial" font-size="10.00"> + getTypeObjet() : String </text>
<text text-anchor="start" x="153" y="-313" font-family="arial" font-size="10.00"> + toString() : String </text>
</a>
</g>
<g><a xlink:href="./Lettre.html" xlink:title="&lt;TABLE&gt;">
</a>
</g>
</g>
<!-- c2&#45;&gt;c3 -->
<g id="edge2" class="edge"><title>c2:p&#45;&gt;c3:p</title>
<path fill="none" stroke="black" d="M251.119,-482.077C242.944,-458.204 235.011,-435.036 228.328,-415.523"/>
<polygon fill="none" stroke="black" points="247.834,-483.287 254.385,-491.614 254.456,-481.019 247.834,-483.287"/>
</g>
<!-- c5 -->
<g id="node7" class="node"><title>c5</title>
<g id="a_node7"><a xlink:href="./Colis.html" xlink:title="&lt;TABLE&gt;">
</a>
</g>
<g id="a_node7_4"><a xlink:href="./Colis.html" xlink:title="tp3.Colis">
<polygon fill="none" stroke="black" points="306,-429 306,-448 493,-448 493,-429 306,-429"/>
<text text-anchor="start" x="385.5" y="-436" font-family="arial" font-size="10.00"> Colis </text>
<polygon fill="none" stroke="black" points="306,-410 306,-429 493,-429 493,-410 306,-410"/>
<text text-anchor="start" x="310" y="-417" font-family="arial" font-size="10.00"> &#160;</text>
<polygon fill="none" stroke="black" points="306,-274 306,-410 493,-410 493,-274 306,-274"/>
<text text-anchor="start" x="310" y="-398" font-family="arial" font-size="10.00"> + getDeclContenu() : String </text>
<text text-anchor="start" x="310" y="-385" font-family="arial" font-size="10.00"> + setDeclContenu(declContenu : String) </text>
<text text-anchor="start" x="310" y="-372" font-family="arial" font-size="10.00"> + getValeurDecl() : double </text>
<text text-anchor="start" x="310" y="-359" font-family="arial" font-size="10.00"> + setValeurDecl(valeurDecl : double) </text>
<text text-anchor="start" x="310" y="-346" font-family="arial" font-size="10.00"> + setTarifBase(tarifBase : double) </text>
<text text-anchor="start" x="310" y="-333" font-family="arial" font-size="10.00"> + getTarifBase() : double </text>
<text text-anchor="start" x="310" y="-320" font-family="arial" font-size="10.00"> + tarifAff() : double </text>
<text text-anchor="start" x="310" y="-307" font-family="arial" font-size="10.00"> + tarifRemb() : double </text>
<text text-anchor="start" x="310" y="-294" font-family="arial" font-size="10.00"> + getTypeObjet() : String </text>
<text text-anchor="start" x="310" y="-281" font-family="arial" font-size="10.00"> + toString() : String </text>
</a>
</g>
<g><a xlink:href="./Colis.html" xlink:title="&lt;TABLE&gt;">
</a>
</g>
</g>
<!-- c2&#45;&gt;c5 -->
<g id="edge4" class="edge"><title>c2:p&#45;&gt;c5:p</title>
<path fill="none" stroke="black" d="M357.501,-481.911C361.485,-470.399 365.412,-459.052 369.167,-448.201"/>
<polygon fill="none" stroke="black" points="354.106,-481.019 354.143,-491.614 360.721,-483.308 354.106,-481.019"/>
</g>
<!-- n0cc2 -->
<g id="node4" class="node"><title>n0cc2</title>
<polygon fill="none" stroke="black" points="347.5,-873.5 254.5,-873.5 254.5,-837.5 353.5,-837.5 353.5,-867.5 347.5,-873.5"/>
<polyline fill="none" stroke="black" points="347.5,-873.5 347.5,-867.5 "/>
<polyline fill="none" stroke="black" points="353.5,-867.5 347.5,-867.5 "/>
<g id="a_node4_5"><a xlink:href="./ObjetPostal.html" xlink:title="tp3.ObjetPostal">
<text text-anchor="start" x="266" y="-852.5" font-family="arial" font-size="10.00"> Classe abstraite </text>
</a>
</g>
</g>
<!-- n0cc2&#45;&gt;c2 -->
<g id="edge1" class="edge"><title>n0cc2&#45;&gt;c2:p</title>
<path fill="none" stroke="black" d="M304,-837.189C304,-824.075 304,-804.664 304,-783.038"/>
</g>
<!-- c4 -->
<g id="node6" class="node"><title>c4</title>
<g id="a_node6"><a xlink:href="./ColisExpress.html" xlink:title="&lt;TABLE&gt;">
</a>
</g>
<g id="a_node6_6"><a xlink:href="./ColisExpress.html" xlink:title="tp3.ColisExpress">
<polygon fill="none" stroke="black" points="296,-211 296,-230 502,-230 502,-211 296,-211"/>
<text text-anchor="start" x="367" y="-218" font-family="arial" font-size="10.00"> ColisExpress </text>
<polygon fill="none" stroke="black" points="296,-192 296,-211 502,-211 502,-192 296,-192"/>
<text text-anchor="start" x="300" y="-199" font-family="arial" font-size="10.00"> &#160;</text>
<polygon fill="none" stroke="black" points="296,-4 296,-192 502,-192 502,-4 296,-4"/>
<text text-anchor="start" x="300" y="-180" font-family="arial" font-size="10.00"> + getDateEnvoi() : Date </text>
<text text-anchor="start" x="300" y="-167" font-family="arial" font-size="10.00"> + setDateEnvoi(dateEnvoi : Date) </text>
<text text-anchor="start" x="300" y="-154" font-family="arial" font-size="10.00"> + getNumeroSuivi() : int </text>
<text text-anchor="start" x="300" y="-141" font-family="arial" font-size="10.00"> + isEmballage() : boolean </text>
<text text-anchor="start" x="300" y="-128" font-family="arial" font-size="10.00"> + setEmballage(emballage : boolean) </text>
<text text-anchor="start" x="300" y="-115" font-family="arial" font-size="10.00"> + getNumeroCourant() : int </text>
<text text-anchor="start" x="300" y="-102" font-family="arial" font-size="10.00"> + setNumeroCourant(numeroCourant : int) </text>
<text text-anchor="start" x="300" y="-89" font-family="arial" font-size="10.00"> + getTarifEmballage() : double </text>
<text text-anchor="start" x="300" y="-76" font-family="arial" font-size="10.00"> + setTarifEmballage(tarifEmballage : double) </text>
<text text-anchor="start" x="300" y="-63" font-family="arial" font-size="10.00"> + getTarifBase() : double </text>
<text text-anchor="start" x="300" y="-50" font-family="arial" font-size="10.00"> + tarifAff() : double </text>
<text text-anchor="start" x="300" y="-37" font-family="arial" font-size="10.00"> + getTypeObjet() : String </text>
<text text-anchor="start" x="300" y="-24" font-family="arial" font-size="10.00"> + toString() : String </text>
<text text-anchor="start" x="300" y="-11" font-family="arial" font-size="10.00"> + setPoids(poids : double) </text>
</a>
</g>
<g><a xlink:href="./ColisExpress.html" xlink:title="&lt;TABLE&gt;">
</a>
</g>
</g>
<!-- c5&#45;&gt;c4 -->
<g id="edge3" class="edge"><title>c5:p&#45;&gt;c4:p</title>
<path fill="none" stroke="black" d="M399,-263.96C399,-252.929 399,-241.609 399,-230.388"/>
<polygon fill="none" stroke="black" points="395.5,-263.998 399,-273.998 402.5,-263.998 395.5,-263.998"/>
</g>
</g>
</svg>
