<?xml version="1.0" encoding="UTF-8" standalone="no"?>
<!DOCTYPE svg PUBLIC "-//W3C//DTD SVG 1.1//EN"
 "http://www.w3.org/Graphics/SVG/1.1/DTD/svg11.dtd">
<!-- Generated by graphviz version 2.38.0 (20140413.2041)
 -->
<!-- Title: G Pages: 1 -->
<svg width="314pt" height="119pt"
 viewBox="0.00 0.00 314.00 119.00" xmlns="http://www.w3.org/2000/svg" xmlns:xlink="http://www.w3.org/1999/xlink">
<g id="graph0" class="graph" transform="scale(1 1) rotate(0) translate(4 115)">
<title>G</title>
<polygon fill="white" stroke="none" points="-4,4 -4,-115 310,-115 310,4 -4,4"/>
<!-- c15 -->
<g id="node1" class="node"><title>c15</title>
<g id="a_node1"><a xlink:href="./Etudiant.html" xlink:title="&lt;TABLE&gt;">
</a>
</g>
<g id="a_node1_0"><a xlink:href="./Etudiant.html" xlink:title="tp2.Etudiant">
<polygon fill="lemonChiffon" stroke="none" points="184,-4 184,-107 298,-107 298,-4 184,-4"/>
<polygon fill="none" stroke="black" points="184,-87.5 184,-106.5 298,-106.5 298,-87.5 184,-87.5"/>
<text text-anchor="start" x="219.5" y="-94.5" font-family="arial" font-size="10.00"> Etudiant </text>
<polygon fill="none" stroke="black" points="184,-3.5 184,-87.5 298,-87.5 298,-3.5 184,-3.5"/>
<text text-anchor="start" x="188" y="-75.5" font-family="arial" font-size="10.00"> &#45; nom : String </text>
<text text-anchor="start" x="188" y="-62.5" font-family="arial" font-size="10.00"> &#45; codePays : String </text>
<text text-anchor="start" x="188" y="-49.5" font-family="arial" font-size="10.00"> &#45; age : int </text>
<text text-anchor="start" x="188" y="-36.5" font-family="arial" font-size="10.00"> &#45; dateNaissance : Date </text>
<text text-anchor="start" x="188" y="-23.5" font-family="arial" font-size="10.00"> &#45; codeIns : boolean </text>
<text text-anchor="start" x="188" y="-10.5" font-family="arial" font-size="10.00"> &#45; notes : Note[] </text>
</a>
</g>
<g><a xlink:href="./Etudiant.html" xlink:title="&lt;TABLE&gt;">
</a>
</g>
</g>
<!-- c16 -->
<g id="node2" class="node"><title>c16</title>
<g id="a_node2"><a xlink:href="http://java.sun.com/j2se/1.4.2/docs/api/java/lang/Comparable.html" xlink:title="&lt;TABLE&gt;">
</a>
</g>
<g id="a_node2_1"><a xlink:href="http://java.sun.com/j2se/1.4.2/docs/api/java/lang/Comparable.html" xlink:title="java.lang.Comparable">
<polygon fill="none" stroke="black" points="8,-39.5 8,-71.5 132,-71.5 132,-39.5 8,-39.5"/>
<text text-anchor="start" x="43" y="-59.5" font-family="arial" font-size="10.00"> «interface» </text>
<text text-anchor="start" x="12" y="-46.5" font-family="arial" font-size="10.00"> java.lang.Comparable&lt;T&gt; </text>
</a>
</g>
<g><a xlink:href="http://java.sun.com/j2se/1.4.2/docs/api/java/lang/Comparable.html" xlink:title="&lt;TABLE&gt;">
</a>
</g>
</g>
<!-- c16&#45;&gt;c15 -->
<g id="edge1" class="edge"><title>c16:p&#45;&gt;c15:p</title>
<path fill="none" stroke="black" stroke-dasharray="5,2" d="M142.063,-55.5C156.018,-55.5 170.474,-55.5 183.858,-55.5"/>
<polygon fill="none" stroke="black" points="142.013,-52.0001 132.013,-55.5 142.013,-59.0001 142.013,-52.0001"/>
</g>
</g>
</svg>
