<?xml version="1.0" encoding="UTF-8" standalone="no"?>
<!DOCTYPE svg PUBLIC "-//W3C//DTD SVG 1.1//EN"
 "http://www.w3.org/Graphics/SVG/1.1/DTD/svg11.dtd">
<!-- Generated by graphviz version 2.38.0 (20140413.2041)
 -->
<!-- Title: G Pages: 1 -->
<svg width="148pt" height="112pt"
 viewBox="0.00 0.00 148.00 112.00" xmlns="http://www.w3.org/2000/svg" xmlns:xlink="http://www.w3.org/1999/xlink">
<g id="graph0" class="graph" transform="scale(1 1) rotate(0) translate(4 108)">
<title>G</title>
<polygon fill="white" stroke="none" points="-4,4 -4,-108 144,-108 144,4 -4,4"/>
<!-- c22 -->
<g id="node1" class="node"><title>c22</title>
<g id="a_node1"><a xlink:href="./SommeEtProduit.html" xlink:title="&lt;TABLE&gt;">
</a>
</g>
<g id="a_node1_0"><a xlink:href="./SommeEtProduit.html" xlink:title="tp1.SommeEtProduit">
<polygon fill="lemonChiffon" stroke="none" points="8,-4 8,-100 132,-100 132,-4 8,-4"/>
<polygon fill="none" stroke="black" points="8,-81 8,-100 132,-100 132,-81 8,-81"/>
<text text-anchor="start" x="29.5" y="-88" font-family="arial" font-size="10.00"> SommeEtProduit </text>
<polygon fill="none" stroke="black" points="8,-62 8,-81 132,-81 132,-62 8,-62"/>
<text text-anchor="start" x="12" y="-69" font-family="arial" font-size="10.00"> &#160;</text>
<polygon fill="none" stroke="black" points="8,-4 8,-62 132,-62 132,-4 8,-4"/>
<text text-anchor="start" x="12" y="-50" font-family="arial" font-size="10.00"> + SommeEtProduit() </text>
<text text-anchor="start" x="12" y="-37" font-family="arial" font-size="10.00"> + main(args : String[]) </text>
<text text-anchor="start" x="12" y="-24" font-family="arial" font-size="10.00"> + saisieUtilisateur() </text>
<text text-anchor="start" x="12" y="-11" font-family="arial" font-size="10.00"> &#45; variante1(args : String[]) </text>
</a>
</g>
<g><a xlink:href="./SommeEtProduit.html" xlink:title="&lt;TABLE&gt;">
</a>
</g>
</g>
</g>
</svg>
