<?xml version="1.0" encoding="UTF-8" standalone="no"?>
<!DOCTYPE svg PUBLIC "-//W3C//DTD SVG 1.1//EN"
 "http://www.w3.org/Graphics/SVG/1.1/DTD/svg11.dtd">
<!-- Generated by graphviz version 2.38.0 (20140413.2041)
 -->
<!-- Title: G Pages: 1 -->
<svg width="260pt" height="190pt"
 viewBox="0.00 0.00 260.00 190.00" xmlns="http://www.w3.org/2000/svg" xmlns:xlink="http://www.w3.org/1999/xlink">
<g id="graph0" class="graph" transform="scale(1 1) rotate(0) translate(4 186)">
<title>G</title>
<polygon fill="white" stroke="none" points="-4,4 -4,-186 256,-186 256,4 -4,4"/>
<!-- c30 -->
<g id="node1" class="node"><title>c30</title>
<g id="a_node1"><a xlink:href="./Tortue.html" xlink:title="&lt;TABLE&gt;">
</a>
</g>
<g id="a_node1_0"><a xlink:href="./Tortue.html" xlink:title="tp1.Tortue">
<polygon fill="lemonChiffon" stroke="none" points="8,-4 8,-178 244,-178 244,-4 8,-4"/>
<polygon fill="none" stroke="black" points="8,-159 8,-178 244,-178 244,-159 8,-159"/>
<text text-anchor="start" x="109" y="-166" font-family="arial" font-size="10.00"> Tortue </text>
<polygon fill="none" stroke="black" points="8,-49 8,-159 244,-159 244,-49 8,-49"/>
<text text-anchor="start" x="12" y="-147" font-family="arial" font-size="10.00"> &#45; age : int </text>
<text text-anchor="start" x="12" y="-134" font-family="arial" font-size="10.00"> &#45; esperanceDeVie : int </text>
<text text-anchor="start" x="12" y="-121" font-family="arial" font-size="10.00"> &#45; nom : String </text>
<text text-anchor="start" x="12" y="-108" font-family="arial" font-size="10.00"> &#45; hiberne : boolean </text>
<text text-anchor="start" x="12" y="-95" font-family="arial" font-size="10.00"> &#45; typeNourriture : String </text>
<text text-anchor="start" x="12" y="-82" font-family="arial" font-size="10.00"> &#45; habitat : String </text>
<text text-anchor="start" x="12" y="-69" font-family="arial" font-size="10.00"> &#45; sexe : String </text>
<text text-anchor="start" x="12" y="-56" font-family="arial" font-size="10.00"> &#45; espece : Espece </text>
<polygon fill="none" stroke="black" points="8,-4 8,-49 244,-49 244,-4 8,-4"/>
<text text-anchor="start" x="12" y="-37" font-family="arial" font-size="10.00"> + miseEnHibernation(miseEnHibernation : boolean) </text>
<text text-anchor="start" x="12" y="-24" font-family="arial" font-size="10.00"> + mange() </text>
<text text-anchor="start" x="12" y="-11" font-family="arial" font-size="10.00"> + ponte() : boolean </text>
</a>
</g>
<g><a xlink:href="./Tortue.html" xlink:title="&lt;TABLE&gt;">
</a>
</g>
</g>
</g>
</svg>
