<?xml version="1.0" encoding="UTF-8" standalone="no"?>
<!DOCTYPE svg PUBLIC "-//W3C//DTD SVG 1.1//EN"
 "http://www.w3.org/Graphics/SVG/1.1/DTD/svg11.dtd">
<!-- Generated by graphviz version 2.38.0 (20140413.2041)
 -->
<!-- Title: G Pages: 1 -->
<svg width="138pt" height="374pt"
 viewBox="0.00 0.00 138.00 373.50" xmlns="http://www.w3.org/2000/svg" xmlns:xlink="http://www.w3.org/1999/xlink">
<g id="graph0" class="graph" transform="scale(1 1) rotate(0) translate(4 369.5)">
<title>G</title>
<polygon fill="white" stroke="none" points="-4,4 -4,-369.5 134,-369.5 134,4 -4,4"/>
<!-- c0 -->
<g id="node1" class="node"><title>c0</title>
<g id="a_node1"><a xlink:href="./TestEtudiant.html" xlink:title="&lt;TABLE&gt;">
</a>
</g>
<g id="a_node1_0"><a xlink:href="./TestEtudiant.html" xlink:title="tp2.TestEtudiant">
<polygon fill="none" stroke="black" points="31,-8 31,-27 100,-27 100,-8 31,-8"/>
<text text-anchor="start" x="35" y="-15" font-family="arial" font-size="10.00"> TestEtudiant </text>
</a>
</g>
<g><a xlink:href="./TestEtudiant.html" xlink:title="&lt;TABLE&gt;">
</a>
</g>
</g>
<!-- c1 -->
<g id="node2" class="node"><title>c1</title>
<g id="a_node2"><a xlink:href="./Note.html" xlink:title="&lt;TABLE&gt;">
</a>
</g>
<g id="a_node2_1"><a xlink:href="./Note.html" xlink:title="tp2.Note">
<polygon fill="none" stroke="black" points="19,-90 19,-109 112,-109 112,-90 19,-90"/>
<text text-anchor="start" x="52" y="-97" font-family="arial" font-size="10.00"> Note </text>
<polygon fill="none" stroke="black" points="19,-58 19,-90 112,-90 112,-58 19,-58"/>
<text text-anchor="start" x="23" y="-78" font-family="arial" font-size="10.00"> &#45; valeur : float </text>
<text text-anchor="start" x="23" y="-65" font-family="arial" font-size="10.00"> &#45; module : Module </text>
</a>
</g>
<g><a xlink:href="./Note.html" xlink:title="&lt;TABLE&gt;">
</a>
</g>
</g>
<!-- c2 -->
<g id="node3" class="node"><title>c2</title>
<g id="a_node3"><a xlink:href="./Module.html" xlink:title="&lt;TABLE&gt;">
</a>
</g>
<g id="a_node3_2"><a xlink:href="./Module.html" xlink:title="tp2.Module">
<polygon fill="none" stroke="black" points="28,-155 28,-174 102,-174 102,-155 28,-155"/>
<text text-anchor="start" x="46" y="-162" font-family="arial" font-size="10.00"> Module </text>
<polygon fill="none" stroke="black" points="28,-136 28,-155 102,-155 102,-136 28,-136"/>
<text text-anchor="start" x="32" y="-143" font-family="arial" font-size="10.00"> &#45; nom : String </text>
</a>
</g>
<g><a xlink:href="./Module.html" xlink:title="&lt;TABLE&gt;">
</a>
</g>
</g>
<!-- c3 -->
<g id="node4" class="node"><title>c3</title>
<g id="a_node4"><a xlink:href="./Mention.html" xlink:title="&lt;TABLE&gt;">
</a>
</g>
<g id="a_node4_3"><a xlink:href="./Mention.html" xlink:title="tp2.Mention">
<polygon fill="none" stroke="black" points="26,-200 26,-232 104,-232 104,-200 26,-200"/>
<text text-anchor="start" x="30" y="-220" font-family="arial" font-size="10.00"> «enumeration» </text>
<text text-anchor="start" x="44.5" y="-207" font-family="arial" font-size="10.00"> Mention </text>
</a>
</g>
<g><a xlink:href="./Mention.html" xlink:title="&lt;TABLE&gt;">
</a>
</g>
</g>
<!-- c4 -->
<g id="node5" class="node"><title>c4</title>
<g id="a_node5"><a xlink:href="./Etudiant.html" xlink:title="&lt;TABLE&gt;">
</a>
</g>
<g id="a_node5_4"><a xlink:href="./Etudiant.html" xlink:title="tp2.Etudiant">
<polygon fill="none" stroke="black" points="8,-342 8,-361 122,-361 122,-342 8,-342"/>
<text text-anchor="start" x="43.5" y="-349" font-family="arial" font-size="10.00"> Etudiant </text>
<polygon fill="none" stroke="black" points="8,-258 8,-342 122,-342 122,-258 8,-258"/>
<text text-anchor="start" x="12" y="-330" font-family="arial" font-size="10.00"> &#45; nom : String </text>
<text text-anchor="start" x="12" y="-317" font-family="arial" font-size="10.00"> &#45; codePays : String </text>
<text text-anchor="start" x="12" y="-304" font-family="arial" font-size="10.00"> &#45; age : int </text>
<text text-anchor="start" x="12" y="-291" font-family="arial" font-size="10.00"> &#45; dateNaissance : Date </text>
<text text-anchor="start" x="12" y="-278" font-family="arial" font-size="10.00"> &#45; codeIns : boolean </text>
<text text-anchor="start" x="12" y="-265" font-family="arial" font-size="10.00"> &#45; notes : Note[] </text>
</a>
</g>
<g><a xlink:href="./Etudiant.html" xlink:title="&lt;TABLE&gt;">
</a>
</g>
</g>
</g>
</svg>
