<?xml version="1.0" encoding="UTF-8" standalone="no"?>
<!DOCTYPE svg PUBLIC "-//W3C//DTD SVG 1.1//EN"
 "http://www.w3.org/Graphics/SVG/1.1/DTD/svg11.dtd">
<!-- Generated by graphviz version 2.38.0 (20140413.2041)
 -->
<!-- Title: G Pages: 1 -->
<svg width="834pt" height="307pt"
 viewBox="0.00 0.00 834.00 307.00" xmlns="http://www.w3.org/2000/svg" xmlns:xlink="http://www.w3.org/1999/xlink">
<g id="graph0" class="graph" transform="scale(1 1) rotate(0) translate(4 303)">
<title>G</title>
<polygon fill="white" stroke="none" points="-4,4 -4,-303 830,-303 830,4 -4,4"/>
<!-- c12 -->
<g id="node1" class="node"><title>c12</title>
<g id="a_node1"><a xlink:href="./ObjetPostal.html" xlink:title="&lt;TABLE&gt;">
</a>
</g>
<g id="a_node1_0"><a xlink:href="./ObjetPostal.html" xlink:title="tp3.ObjetPostal">
<polygon fill="none" stroke="black" points="143,-262.5 143,-294.5 321,-294.5 321,-262.5 143,-262.5"/>
<text text-anchor="start" x="206" y="-282.5" font-family="arial" font-size="10.00"> «abstract» </text>
<text text-anchor="start" x="203" y="-269.5" font-family="arial italic" font-size="10.00"> ObjetPostal </text>
<polygon fill="none" stroke="black" points="143,-243.5 143,-262.5 321,-262.5 321,-243.5 143,-243.5"/>
<text text-anchor="start" x="147" y="-250.5" font-family="arial" font-size="10.00"> &#160;</text>
<polygon fill="none" stroke="black" points="143,-3.5 143,-243.5 321,-243.5 321,-3.5 143,-3.5"/>
<text text-anchor="start" x="147" y="-231.5" font-family="arial" font-size="10.00"> + getOrigine() : String </text>
<text text-anchor="start" x="147" y="-218.5" font-family="arial" font-size="10.00"> + setOrigine(origine : String) </text>
<text text-anchor="start" x="147" y="-205.5" font-family="arial" font-size="10.00"> + getDestination() : String </text>
<text text-anchor="start" x="147" y="-192.5" font-family="arial" font-size="10.00"> + setDestination(destination : String) </text>
<text text-anchor="start" x="147" y="-179.5" font-family="arial" font-size="10.00"> + getCodePostal() : String </text>
<text text-anchor="start" x="147" y="-166.5" font-family="arial" font-size="10.00"> + setCodePostal(codePostal : String) </text>
<text text-anchor="start" x="147" y="-153.5" font-family="arial" font-size="10.00"> + getPoids() : double </text>
<text text-anchor="start" x="147" y="-140.5" font-family="arial" font-size="10.00"> + setPoids(poids : double) </text>
<text text-anchor="start" x="147" y="-127.5" font-family="arial" font-size="10.00"> + getVolume() : double </text>
<text text-anchor="start" x="147" y="-114.5" font-family="arial" font-size="10.00"> + setVolume(volume : double) </text>
<text text-anchor="start" x="147" y="-101.5" font-family="arial" font-size="10.00"> + getTauxRec() : TauxRecom </text>
<text text-anchor="start" x="147" y="-88.5" font-family="arial" font-size="10.00"> + setTauxRec(tauxRec : TauxRecom) </text>
<text text-anchor="start" x="147" y="-75.5" font-family="arial italic" font-size="10.00"> + getTarifBase() : double </text>
<text text-anchor="start" x="147" y="-62.5" font-family="arial" font-size="10.00"> + tarifAff() : double </text>
<text text-anchor="start" x="147" y="-49.5" font-family="arial italic" font-size="10.00"> + tarifRemb() : double </text>
<text text-anchor="start" x="147" y="-36.5" font-family="arial italic" font-size="10.00"> + getTypeObjet() : String </text>
<text text-anchor="start" x="147" y="-23.5" font-family="arial" font-size="10.00"> + toString() : String </text>
<text text-anchor="start" x="147" y="-10.5" font-family="arial" font-size="10.00"> + affiche() </text>
</a>
</g>
<g><a xlink:href="./ObjetPostal.html" xlink:title="&lt;TABLE&gt;">
</a>
</g>
</g>
<!-- c17 -->
<g id="node4" class="node"><title>c17</title>
<g id="a_node4"><a xlink:href="./Colis.html" xlink:title="&lt;TABLE&gt;">
</a>
</g>
<g id="a_node4_1"><a xlink:href="./Colis.html" xlink:title="tp3.Colis">
<polygon fill="lemonChiffon" stroke="none" points="373,-62.5 373,-236.5 560,-236.5 560,-62.5 373,-62.5"/>
<polygon fill="none" stroke="black" points="373.5,-217.5 373.5,-236.5 560.5,-236.5 560.5,-217.5 373.5,-217.5"/>
<text text-anchor="start" x="453" y="-224.5" font-family="arial" font-size="10.00"> Colis </text>
<polygon fill="none" stroke="black" points="373.5,-198.5 373.5,-217.5 560.5,-217.5 560.5,-198.5 373.5,-198.5"/>
<text text-anchor="start" x="377.5" y="-205.5" font-family="arial" font-size="10.00"> &#160;</text>
<polygon fill="none" stroke="black" points="373.5,-62.5 373.5,-198.5 560.5,-198.5 560.5,-62.5 373.5,-62.5"/>
<text text-anchor="start" x="377.5" y="-186.5" font-family="arial" font-size="10.00"> + getDeclContenu() : String </text>
<text text-anchor="start" x="377.5" y="-173.5" font-family="arial" font-size="10.00"> + setDeclContenu(declContenu : String) </text>
<text text-anchor="start" x="377.5" y="-160.5" font-family="arial" font-size="10.00"> + getValeurDecl() : double </text>
<text text-anchor="start" x="377.5" y="-147.5" font-family="arial" font-size="10.00"> + setValeurDecl(valeurDecl : double) </text>
<text text-anchor="start" x="377.5" y="-134.5" font-family="arial" font-size="10.00"> + setTarifBase(tarifBase : double) </text>
<text text-anchor="start" x="377.5" y="-121.5" font-family="arial" font-size="10.00"> + getTarifBase() : double </text>
<text text-anchor="start" x="377.5" y="-108.5" font-family="arial" font-size="10.00"> + tarifAff() : double </text>
<text text-anchor="start" x="377.5" y="-95.5" font-family="arial" font-size="10.00"> + tarifRemb() : double </text>
<text text-anchor="start" x="377.5" y="-82.5" font-family="arial" font-size="10.00"> + getTypeObjet() : String </text>
<text text-anchor="start" x="377.5" y="-69.5" font-family="arial" font-size="10.00"> + toString() : String </text>
</a>
</g>
<g><a xlink:href="./Colis.html" xlink:title="&lt;TABLE&gt;">
</a>
</g>
</g>
<!-- c12&#45;&gt;c17 -->
<g id="edge3" class="edge"><title>c12:p&#45;&gt;c17:p</title>
<path fill="none" stroke="black" d="M331.575,-149.5C345.205,-149.5 359.166,-149.5 372.687,-149.5"/>
<polygon fill="none" stroke="black" points="331.23,-146 321.23,-149.5 331.23,-153 331.23,-146"/>
</g>
<!-- n0cc12 -->
<g id="node2" class="node"><title>n0cc12</title>
<polygon fill="none" stroke="black" points="93,-167.5 0,-167.5 0,-131.5 99,-131.5 99,-161.5 93,-167.5"/>
<polyline fill="none" stroke="black" points="93,-167.5 93,-161.5 "/>
<polyline fill="none" stroke="black" points="99,-161.5 93,-161.5 "/>
<g id="a_node2_2"><a xlink:href="./ObjetPostal.html" xlink:title="tp3.ObjetPostal">
<text text-anchor="start" x="11.5" y="-146.5" font-family="arial" font-size="10.00"> Classe abstraite </text>
</a>
</g>
</g>
<!-- n0cc12&#45;&gt;c12 -->
<g id="edge1" class="edge"><title>n0cc12&#45;&gt;c12:p</title>
<path fill="none" stroke="black" d="M99.3459,-149.5C112.814,-149.5 127.853,-149.5 142.817,-149.5"/>
</g>
<!-- c16 -->
<g id="node3" class="node"><title>c16</title>
<g id="a_node3"><a xlink:href="./ColisExpress.html" xlink:title="&lt;TABLE&gt;">
</a>
</g>
<g id="a_node3_3"><a xlink:href="./ColisExpress.html" xlink:title="tp3.ColisExpress">
<polygon fill="none" stroke="black" points="612,-243.5 612,-262.5 818,-262.5 818,-243.5 612,-243.5"/>
<text text-anchor="start" x="683" y="-250.5" font-family="arial" font-size="10.00"> ColisExpress </text>
<polygon fill="none" stroke="black" points="612,-224.5 612,-243.5 818,-243.5 818,-224.5 612,-224.5"/>
<text text-anchor="start" x="616" y="-231.5" font-family="arial" font-size="10.00"> &#160;</text>
<polygon fill="none" stroke="black" points="612,-36.5 612,-224.5 818,-224.5 818,-36.5 612,-36.5"/>
<text text-anchor="start" x="616" y="-212.5" font-family="arial" font-size="10.00"> + getDateEnvoi() : Date </text>
<text text-anchor="start" x="616" y="-199.5" font-family="arial" font-size="10.00"> + setDateEnvoi(dateEnvoi : Date) </text>
<text text-anchor="start" x="616" y="-186.5" font-family="arial" font-size="10.00"> + getNumeroSuivi() : int </text>
<text text-anchor="start" x="616" y="-173.5" font-family="arial" font-size="10.00"> + isEmballage() : boolean </text>
<text text-anchor="start" x="616" y="-160.5" font-family="arial" font-size="10.00"> + setEmballage(emballage : boolean) </text>
<text text-anchor="start" x="616" y="-147.5" font-family="arial" font-size="10.00"> + getNumeroCourant() : int </text>
<text text-anchor="start" x="616" y="-134.5" font-family="arial" font-size="10.00"> + setNumeroCourant(numeroCourant : int) </text>
<text text-anchor="start" x="616" y="-121.5" font-family="arial" font-size="10.00"> + getTarifEmballage() : double </text>
<text text-anchor="start" x="616" y="-108.5" font-family="arial" font-size="10.00"> + setTarifEmballage(tarifEmballage : double) </text>
<text text-anchor="start" x="616" y="-95.5" font-family="arial" font-size="10.00"> + getTarifBase() : double </text>
<text text-anchor="start" x="616" y="-82.5" font-family="arial" font-size="10.00"> + tarifAff() : double </text>
<text text-anchor="start" x="616" y="-69.5" font-family="arial" font-size="10.00"> + getTypeObjet() : String </text>
<text text-anchor="start" x="616" y="-56.5" font-family="arial" font-size="10.00"> + toString() : String </text>
<text text-anchor="start" x="616" y="-43.5" font-family="arial" font-size="10.00"> + setPoids(poids : double) </text>
</a>
</g>
<g><a xlink:href="./ColisExpress.html" xlink:title="&lt;TABLE&gt;">
</a>
</g>
</g>
<!-- c17&#45;&gt;c16 -->
<g id="edge2" class="edge"><title>c17:p&#45;&gt;c16:p</title>
<path fill="none" stroke="black" d="M570.657,-149.5C584.249,-149.5 598.176,-149.5 611.753,-149.5"/>
<polygon fill="none" stroke="black" points="570.34,-146 560.34,-149.5 570.34,-153 570.34,-146"/>
</g>
</g>
</svg>
