<?xml version="1.0" encoding="UTF-8" standalone="no"?>
<!DOCTYPE svg PUBLIC "-//W3C//DTD SVG 1.1//EN"
 "http://www.w3.org/Graphics/SVG/1.1/DTD/svg11.dtd">
<!-- Generated by graphviz version 2.38.0 (20140413.2041)
 -->
<!-- Title: G Pages: 1 -->
<svg width="859pt" height="359pt"
 viewBox="0.00 0.00 859.00 358.50" xmlns="http://www.w3.org/2000/svg" xmlns:xlink="http://www.w3.org/1999/xlink">
<g id="graph0" class="graph" transform="scale(1 1) rotate(0) translate(4 354.5)">
<title>G</title>
<polygon fill="white" stroke="none" points="-4,4 -4,-354.5 855,-354.5 855,4 -4,4"/>
<!-- c0 -->
<g id="node1" class="node"><title>c0</title>
<g id="a_node1"><a xlink:href="./TauxRecom.html" xlink:title="&lt;TABLE&gt;">
</a>
</g>
<g id="a_node1_0"><a xlink:href="./TauxRecom.html" xlink:title="tp3.TauxRecom">
<polygon fill="none" stroke="black" points="23,-45 23,-77 101,-77 101,-45 23,-45"/>
<text text-anchor="start" x="27" y="-65" font-family="arial" font-size="10.00"> «enumeration» </text>
<text text-anchor="start" x="33" y="-52" font-family="arial" font-size="10.00"> TauxRecom </text>
</a>
</g>
<g><a xlink:href="./TauxRecom.html" xlink:title="&lt;TABLE&gt;">
</a>
</g>
</g>
<!-- c1 -->
<g id="node2" class="node"><title>c1</title>
<g id="a_node2"><a xlink:href="./ProgrammePoste.html" xlink:title="&lt;TABLE&gt;">
</a>
</g>
<g id="a_node2_1"><a xlink:href="./ProgrammePoste.html" xlink:title="tp3.ProgrammePoste">
<polygon fill="none" stroke="black" points="8,-141 8,-160 116,-160 116,-141 8,-141"/>
<text text-anchor="start" x="21" y="-148" font-family="arial" font-size="10.00"> ProgrammePoste </text>
<polygon fill="none" stroke="black" points="8,-122 8,-141 116,-141 116,-122 8,-122"/>
<text text-anchor="start" x="12" y="-129" font-family="arial" font-size="10.00"> &#160;</text>
<polygon fill="none" stroke="black" points="8,-103 8,-122 116,-122 116,-103 8,-103"/>
<text text-anchor="start" x="12" y="-110" font-family="arial" font-size="10.00"> + main(argv : String[]) </text>
</a>
</g>
<g><a xlink:href="./ProgrammePoste.html" xlink:title="&lt;TABLE&gt;">
</a>
</g>
</g>
<!-- c2 -->
<g id="node3" class="node"><title>c2</title>
<g id="a_node3"><a xlink:href="./ObjetPostal.html" xlink:title="&lt;TABLE&gt;">
</a>
</g>
<g id="a_node3_2"><a xlink:href="./ObjetPostal.html" xlink:title="tp3.ObjetPostal">
<polygon fill="none" stroke="black" points="168,-314 168,-346 346,-346 346,-314 168,-314"/>
<text text-anchor="start" x="231" y="-334" font-family="arial" font-size="10.00"> «abstract» </text>
<text text-anchor="start" x="228" y="-321" font-family="arial italic" font-size="10.00"> ObjetPostal </text>
<polygon fill="none" stroke="black" points="168,-295 168,-314 346,-314 346,-295 168,-295"/>
<text text-anchor="start" x="172" y="-302" font-family="arial" font-size="10.00"> &#160;</text>
<polygon fill="none" stroke="black" points="168,-55 168,-295 346,-295 346,-55 168,-55"/>
<text text-anchor="start" x="172" y="-283" font-family="arial" font-size="10.00"> + getOrigine() : String </text>
<text text-anchor="start" x="172" y="-270" font-family="arial" font-size="10.00"> + setOrigine(origine : String) </text>
<text text-anchor="start" x="172" y="-257" font-family="arial" font-size="10.00"> + getDestination() : String </text>
<text text-anchor="start" x="172" y="-244" font-family="arial" font-size="10.00"> + setDestination(destination : String) </text>
<text text-anchor="start" x="172" y="-231" font-family="arial" font-size="10.00"> + getCodePostal() : String </text>
<text text-anchor="start" x="172" y="-218" font-family="arial" font-size="10.00"> + setCodePostal(codePostal : String) </text>
<text text-anchor="start" x="172" y="-205" font-family="arial" font-size="10.00"> + getPoids() : double </text>
<text text-anchor="start" x="172" y="-192" font-family="arial" font-size="10.00"> + setPoids(poids : double) </text>
<text text-anchor="start" x="172" y="-179" font-family="arial" font-size="10.00"> + getVolume() : double </text>
<text text-anchor="start" x="172" y="-166" font-family="arial" font-size="10.00"> + setVolume(volume : double) </text>
<text text-anchor="start" x="172" y="-153" font-family="arial" font-size="10.00"> + getTauxRec() : TauxRecom </text>
<text text-anchor="start" x="172" y="-140" font-family="arial" font-size="10.00"> + setTauxRec(tauxRec : TauxRecom) </text>
<text text-anchor="start" x="172" y="-127" font-family="arial italic" font-size="10.00"> + getTarifBase() : double </text>
<text text-anchor="start" x="172" y="-114" font-family="arial" font-size="10.00"> + tarifAff() : double </text>
<text text-anchor="start" x="172" y="-101" font-family="arial italic" font-size="10.00"> + tarifRemb() : double </text>
<text text-anchor="start" x="172" y="-88" font-family="arial italic" font-size="10.00"> + getTypeObjet() : String </text>
<text text-anchor="start" x="172" y="-75" font-family="arial" font-size="10.00"> + toString() : String </text>
<text text-anchor="start" x="172" y="-62" font-family="arial" font-size="10.00"> + affiche() </text>
</a>
</g>
<g><a xlink:href="./ObjetPostal.html" xlink:title="&lt;TABLE&gt;">
</a>
</g>
</g>
<!-- c3 -->
<g id="node5" class="node"><title>c3</title>
<g id="a_node5"><a xlink:href="./Lettre.html" xlink:title="&lt;TABLE&gt;">
</a>
</g>
<g id="a_node5_3"><a xlink:href="./Lettre.html" xlink:title="tp3.Lettre">
<polygon fill="none" stroke="black" points="430.5,-320 430.5,-339 552.5,-339 552.5,-320 430.5,-320"/>
<text text-anchor="start" x="476" y="-327" font-family="arial" font-size="10.00"> Lettre </text>
<polygon fill="none" stroke="black" points="430.5,-301 430.5,-320 552.5,-320 552.5,-301 430.5,-301"/>
<text text-anchor="start" x="434.5" y="-308" font-family="arial" font-size="10.00"> &#160;</text>
<polygon fill="none" stroke="black" points="430.5,-230 430.5,-301 552.5,-301 552.5,-230 430.5,-230"/>
<text text-anchor="start" x="434.5" y="-289" font-family="arial" font-size="10.00"> + getTarifBase() : double </text>
<text text-anchor="start" x="434.5" y="-276" font-family="arial" font-size="10.00"> + tarifAff() : double </text>
<text text-anchor="start" x="434.5" y="-263" font-family="arial" font-size="10.00"> + tarifRemb() : double </text>
<text text-anchor="start" x="434.5" y="-250" font-family="arial" font-size="10.00"> + getTypeObjet() : String </text>
<text text-anchor="start" x="434.5" y="-237" font-family="arial" font-size="10.00"> + toString() : String </text>
</a>
</g>
<g><a xlink:href="./Lettre.html" xlink:title="&lt;TABLE&gt;">
</a>
</g>
</g>
<!-- c2&#45;&gt;c3 -->
<g id="edge2" class="edge"><title>c2:p&#45;&gt;c3:p</title>
<path fill="none" stroke="black" d="M355.87,-236.359C381.203,-245.512 407.73,-255.096 430.475,-263.314"/>
<polygon fill="none" stroke="black" points="356.824,-232.983 346.23,-232.877 354.446,-239.566 356.824,-232.983"/>
</g>
<!-- c5 -->
<g id="node7" class="node"><title>c5</title>
<g id="a_node7"><a xlink:href="./Colis.html" xlink:title="&lt;TABLE&gt;">
</a>
</g>
<g id="a_node7_4"><a xlink:href="./Colis.html" xlink:title="tp3.Colis">
<polygon fill="none" stroke="black" points="398.5,-185 398.5,-204 585.5,-204 585.5,-185 398.5,-185"/>
<text text-anchor="start" x="478" y="-192" font-family="arial" font-size="10.00"> Colis </text>
<polygon fill="none" stroke="black" points="398.5,-166 398.5,-185 585.5,-185 585.5,-166 398.5,-166"/>
<text text-anchor="start" x="402.5" y="-173" font-family="arial" font-size="10.00"> &#160;</text>
<polygon fill="none" stroke="black" points="398.5,-30 398.5,-166 585.5,-166 585.5,-30 398.5,-30"/>
<text text-anchor="start" x="402.5" y="-154" font-family="arial" font-size="10.00"> + getDeclContenu() : String </text>
<text text-anchor="start" x="402.5" y="-141" font-family="arial" font-size="10.00"> + setDeclContenu(declContenu : String) </text>
<text text-anchor="start" x="402.5" y="-128" font-family="arial" font-size="10.00"> + getValeurDecl() : double </text>
<text text-anchor="start" x="402.5" y="-115" font-family="arial" font-size="10.00"> + setValeurDecl(valeurDecl : double) </text>
<text text-anchor="start" x="402.5" y="-102" font-family="arial" font-size="10.00"> + setTarifBase(tarifBase : double) </text>
<text text-anchor="start" x="402.5" y="-89" font-family="arial" font-size="10.00"> + getTarifBase() : double </text>
<text text-anchor="start" x="402.5" y="-76" font-family="arial" font-size="10.00"> + tarifAff() : double </text>
<text text-anchor="start" x="402.5" y="-63" font-family="arial" font-size="10.00"> + tarifRemb() : double </text>
<text text-anchor="start" x="402.5" y="-50" font-family="arial" font-size="10.00"> + getTypeObjet() : String </text>
<text text-anchor="start" x="402.5" y="-37" font-family="arial" font-size="10.00"> + toString() : String </text>
</a>
</g>
<g><a xlink:href="./Colis.html" xlink:title="&lt;TABLE&gt;">
</a>
</g>
</g>
<!-- c2&#45;&gt;c5 -->
<g id="edge4" class="edge"><title>c2:p&#45;&gt;c5:p</title>
<path fill="none" stroke="black" d="M355.774,-165.675C369.657,-160.659 383.901,-155.513 397.687,-150.533"/>
<polygon fill="none" stroke="black" points="354.446,-162.434 346.23,-169.123 356.824,-169.017 354.446,-162.434"/>
</g>
<!-- n0cc2 -->
<g id="node4" class="node"><title>n0cc2</title>
<polygon fill="none" stroke="black" points="105.5,-219 12.5,-219 12.5,-183 111.5,-183 111.5,-213 105.5,-219"/>
<polyline fill="none" stroke="black" points="105.5,-219 105.5,-213 "/>
<polyline fill="none" stroke="black" points="111.5,-213 105.5,-213 "/>
<g id="a_node4_5"><a xlink:href="./ObjetPostal.html" xlink:title="tp3.ObjetPostal">
<text text-anchor="start" x="24" y="-198" font-family="arial" font-size="10.00"> Classe abstraite </text>
</a>
</g>
</g>
<!-- n0cc2&#45;&gt;c2 -->
<g id="edge1" class="edge"><title>n0cc2&#45;&gt;c2:p</title>
<path fill="none" stroke="black" d="M111.702,-201C128.787,-201 148.547,-201 167.857,-201"/>
</g>
<!-- c4 -->
<g id="node6" class="node"><title>c4</title>
<g id="a_node6"><a xlink:href="./ColisExpress.html" xlink:title="&lt;TABLE&gt;">
</a>
</g>
<g id="a_node6_6"><a xlink:href="./ColisExpress.html" xlink:title="tp3.ColisExpress">
<polygon fill="none" stroke="black" points="637,-211 637,-230 843,-230 843,-211 637,-211"/>
<text text-anchor="start" x="708" y="-218" font-family="arial" font-size="10.00"> ColisExpress </text>
<polygon fill="none" stroke="black" points="637,-192 637,-211 843,-211 843,-192 637,-192"/>
<text text-anchor="start" x="641" y="-199" font-family="arial" font-size="10.00"> &#160;</text>
<polygon fill="none" stroke="black" points="637,-4 637,-192 843,-192 843,-4 637,-4"/>
<text text-anchor="start" x="641" y="-180" font-family="arial" font-size="10.00"> + getDateEnvoi() : Date </text>
<text text-anchor="start" x="641" y="-167" font-family="arial" font-size="10.00"> + setDateEnvoi(dateEnvoi : Date) </text>
<text text-anchor="start" x="641" y="-154" font-family="arial" font-size="10.00"> + getNumeroSuivi() : int </text>
<text text-anchor="start" x="641" y="-141" font-family="arial" font-size="10.00"> + isEmballage() : boolean </text>
<text text-anchor="start" x="641" y="-128" font-family="arial" font-size="10.00"> + setEmballage(emballage : boolean) </text>
<text text-anchor="start" x="641" y="-115" font-family="arial" font-size="10.00"> + getNumeroCourant() : int </text>
<text text-anchor="start" x="641" y="-102" font-family="arial" font-size="10.00"> + setNumeroCourant(numeroCourant : int) </text>
<text text-anchor="start" x="641" y="-89" font-family="arial" font-size="10.00"> + getTarifEmballage() : double </text>
<text text-anchor="start" x="641" y="-76" font-family="arial" font-size="10.00"> + setTarifEmballage(tarifEmballage : double) </text>
<text text-anchor="start" x="641" y="-63" font-family="arial" font-size="10.00"> + getTarifBase() : double </text>
<text text-anchor="start" x="641" y="-50" font-family="arial" font-size="10.00"> + tarifAff() : double </text>
<text text-anchor="start" x="641" y="-37" font-family="arial" font-size="10.00"> + getTypeObjet() : String </text>
<text text-anchor="start" x="641" y="-24" font-family="arial" font-size="10.00"> + toString() : String </text>
<text text-anchor="start" x="641" y="-11" font-family="arial" font-size="10.00"> + setPoids(poids : double) </text>
</a>
</g>
<g><a xlink:href="./ColisExpress.html" xlink:title="&lt;TABLE&gt;">
</a>
</g>
</g>
<!-- c5&#45;&gt;c4 -->
<g id="edge3" class="edge"><title>c5:p&#45;&gt;c4:p</title>
<path fill="none" stroke="black" d="M595.657,-117C609.249,-117 623.176,-117 636.753,-117"/>
<polygon fill="none" stroke="black" points="595.34,-113.5 585.34,-117 595.34,-120.5 595.34,-113.5"/>
</g>
</g>
</svg>
