<?xml version="1.0" encoding="UTF-8" standalone="no"?>
<!DOCTYPE svg PUBLIC "-//W3C//DTD SVG 1.1//EN"
 "http://www.w3.org/Graphics/SVG/1.1/DTD/svg11.dtd">
<!-- Generated by graphviz version 2.38.0 (20140413.2041)
 -->
<!-- Title: G Pages: 1 -->
<svg width="230pt" height="460pt"
 viewBox="0.00 0.00 230.00 460.00" xmlns="http://www.w3.org/2000/svg" xmlns:xlink="http://www.w3.org/1999/xlink">
<g id="graph0" class="graph" transform="scale(1 1) rotate(0) translate(4 456)">
<title>G</title>
<polygon fill="white" stroke="none" points="-4,4 -4,-456 226,-456 226,4 -4,4"/>
<!-- c22 -->
<g id="node1" class="node"><title>c22</title>
<g id="a_node1"><a xlink:href="./ColisExpress.html" xlink:title="&lt;TABLE&gt;">
</a>
</g>
<g id="a_node1_0"><a xlink:href="./ColisExpress.html" xlink:title="tp3.ColisExpress">
<polygon fill="lemonChiffon" stroke="none" points="8,-4 8,-230 214,-230 214,-4 8,-4"/>
<polygon fill="none" stroke="black" points="8,-211 8,-230 214,-230 214,-211 8,-211"/>
<text text-anchor="start" x="79" y="-218" font-family="arial" font-size="10.00"> ColisExpress </text>
<polygon fill="none" stroke="black" points="8,-192 8,-211 214,-211 214,-192 8,-192"/>
<text text-anchor="start" x="12" y="-199" font-family="arial" font-size="10.00"> &#160;</text>
<polygon fill="none" stroke="black" points="8,-4 8,-192 214,-192 214,-4 8,-4"/>
<text text-anchor="start" x="12" y="-180" font-family="arial" font-size="10.00"> + getDateEnvoi() : Date </text>
<text text-anchor="start" x="12" y="-167" font-family="arial" font-size="10.00"> + setDateEnvoi(dateEnvoi : Date) </text>
<text text-anchor="start" x="12" y="-154" font-family="arial" font-size="10.00"> + getNumeroSuivi() : int </text>
<text text-anchor="start" x="12" y="-141" font-family="arial" font-size="10.00"> + isEmballage() : boolean </text>
<text text-anchor="start" x="12" y="-128" font-family="arial" font-size="10.00"> + setEmballage(emballage : boolean) </text>
<text text-anchor="start" x="12" y="-115" font-family="arial" font-size="10.00"> + getNumeroCourant() : int </text>
<text text-anchor="start" x="12" y="-102" font-family="arial" font-size="10.00"> + setNumeroCourant(numeroCourant : int) </text>
<text text-anchor="start" x="12" y="-89" font-family="arial" font-size="10.00"> + getTarifEmballage() : double </text>
<text text-anchor="start" x="12" y="-76" font-family="arial" font-size="10.00"> + setTarifEmballage(tarifEmballage : double) </text>
<text text-anchor="start" x="12" y="-63" font-family="arial" font-size="10.00"> + getTarifBase() : double </text>
<text text-anchor="start" x="12" y="-50" font-family="arial" font-size="10.00"> + tarifAff() : double </text>
<text text-anchor="start" x="12" y="-37" font-family="arial" font-size="10.00"> + getTypeObjet() : String </text>
<text text-anchor="start" x="12" y="-24" font-family="arial" font-size="10.00"> + toString() : String </text>
<text text-anchor="start" x="12" y="-11" font-family="arial" font-size="10.00"> + setPoids(poids : double) </text>
</a>
</g>
<g><a xlink:href="./ColisExpress.html" xlink:title="&lt;TABLE&gt;">
</a>
</g>
</g>
<!-- c23 -->
<g id="node2" class="node"><title>c23</title>
<g id="a_node2"><a xlink:href="./Colis.html" xlink:title="&lt;TABLE&gt;">
</a>
</g>
<g id="a_node2_1"><a xlink:href="./Colis.html" xlink:title="tp3.Colis">
<polygon fill="none" stroke="black" points="18,-429 18,-448 205,-448 205,-429 18,-429"/>
<text text-anchor="start" x="97.5" y="-436" font-family="arial" font-size="10.00"> Colis </text>
<polygon fill="none" stroke="black" points="18,-410 18,-429 205,-429 205,-410 18,-410"/>
<text text-anchor="start" x="22" y="-417" font-family="arial" font-size="10.00"> &#160;</text>
<polygon fill="none" stroke="black" points="18,-274 18,-410 205,-410 205,-274 18,-274"/>
<text text-anchor="start" x="22" y="-398" font-family="arial" font-size="10.00"> + getDeclContenu() : String </text>
<text text-anchor="start" x="22" y="-385" font-family="arial" font-size="10.00"> + setDeclContenu(declContenu : String) </text>
<text text-anchor="start" x="22" y="-372" font-family="arial" font-size="10.00"> + getValeurDecl() : double </text>
<text text-anchor="start" x="22" y="-359" font-family="arial" font-size="10.00"> + setValeurDecl(valeurDecl : double) </text>
<text text-anchor="start" x="22" y="-346" font-family="arial" font-size="10.00"> + setTarifBase(tarifBase : double) </text>
<text text-anchor="start" x="22" y="-333" font-family="arial" font-size="10.00"> + getTarifBase() : double </text>
<text text-anchor="start" x="22" y="-320" font-family="arial" font-size="10.00"> + tarifAff() : double </text>
<text text-anchor="start" x="22" y="-307" font-family="arial" font-size="10.00"> + tarifRemb() : double </text>
<text text-anchor="start" x="22" y="-294" font-family="arial" font-size="10.00"> + getTypeObjet() : String </text>
<text text-anchor="start" x="22" y="-281" font-family="arial" font-size="10.00"> + toString() : String </text>
</a>
</g>
<g><a xlink:href="./Colis.html" xlink:title="&lt;TABLE&gt;">
</a>
</g>
</g>
<!-- c23&#45;&gt;c22 -->
<g id="edge1" class="edge"><title>c23:p&#45;&gt;c22:p</title>
<path fill="none" stroke="black" d="M111,-263.96C111,-252.929 111,-241.609 111,-230.388"/>
<polygon fill="none" stroke="black" points="107.5,-263.998 111,-273.998 114.5,-263.998 107.5,-263.998"/>
</g>
</g>
</svg>
