<?xml version="1.0" encoding="UTF-8" standalone="no"?>
<!DOCTYPE svg PUBLIC "-//W3C//DTD SVG 1.1//EN"
 "http://www.w3.org/Graphics/SVG/1.1/DTD/svg11.dtd">
<!-- Generated by graphviz version 2.38.0 (20140413.2041)
 -->
<!-- Title: G Pages: 1 -->
<svg width="230pt" height="867pt"
 viewBox="0.00 0.00 230.00 867.00" xmlns="http://www.w3.org/2000/svg" xmlns:xlink="http://www.w3.org/1999/xlink">
<g id="graph0" class="graph" transform="scale(1 1) rotate(0) translate(4 863)">
<title>G</title>
<polygon fill="white" stroke="none" points="-4,4 -4,-863 226,-863 226,4 -4,4"/>
<!-- c12 -->
<g id="node1" class="node"><title>c12</title>
<g id="a_node1"><a xlink:href="./ObjetPostal.html" xlink:title="&lt;TABLE&gt;">
</a>
</g>
<g id="a_node1_0"><a xlink:href="./ObjetPostal.html" xlink:title="tp3.ObjetPostal">
<polygon fill="none" stroke="black" points="22,-750.5 22,-782.5 200,-782.5 200,-750.5 22,-750.5"/>
<text text-anchor="start" x="85" y="-770.5" font-family="arial" font-size="10.00"> «abstract» </text>
<text text-anchor="start" x="82" y="-757.5" font-family="arial italic" font-size="10.00"> ObjetPostal </text>
<polygon fill="none" stroke="black" points="22,-731.5 22,-750.5 200,-750.5 200,-731.5 22,-731.5"/>
<text text-anchor="start" x="26" y="-738.5" font-family="arial" font-size="10.00"> &#160;</text>
<polygon fill="none" stroke="black" points="22,-491.5 22,-731.5 200,-731.5 200,-491.5 22,-491.5"/>
<text text-anchor="start" x="26" y="-719.5" font-family="arial" font-size="10.00"> + getOrigine() : String </text>
<text text-anchor="start" x="26" y="-706.5" font-family="arial" font-size="10.00"> + setOrigine(origine : String) </text>
<text text-anchor="start" x="26" y="-693.5" font-family="arial" font-size="10.00"> + getDestination() : String </text>
<text text-anchor="start" x="26" y="-680.5" font-family="arial" font-size="10.00"> + setDestination(destination : String) </text>
<text text-anchor="start" x="26" y="-667.5" font-family="arial" font-size="10.00"> + getCodePostal() : String </text>
<text text-anchor="start" x="26" y="-654.5" font-family="arial" font-size="10.00"> + setCodePostal(codePostal : String) </text>
<text text-anchor="start" x="26" y="-641.5" font-family="arial" font-size="10.00"> + getPoids() : double </text>
<text text-anchor="start" x="26" y="-628.5" font-family="arial" font-size="10.00"> + setPoids(poids : double) </text>
<text text-anchor="start" x="26" y="-615.5" font-family="arial" font-size="10.00"> + getVolume() : double </text>
<text text-anchor="start" x="26" y="-602.5" font-family="arial" font-size="10.00"> + setVolume(volume : double) </text>
<text text-anchor="start" x="26" y="-589.5" font-family="arial" font-size="10.00"> + getTauxRec() : TauxRecom </text>
<text text-anchor="start" x="26" y="-576.5" font-family="arial" font-size="10.00"> + setTauxRec(tauxRec : TauxRecom) </text>
<text text-anchor="start" x="26" y="-563.5" font-family="arial italic" font-size="10.00"> + getTarifBase() : double </text>
<text text-anchor="start" x="26" y="-550.5" font-family="arial" font-size="10.00"> + tarifAff() : double </text>
<text text-anchor="start" x="26" y="-537.5" font-family="arial italic" font-size="10.00"> + tarifRemb() : double </text>
<text text-anchor="start" x="26" y="-524.5" font-family="arial italic" font-size="10.00"> + getTypeObjet() : String </text>
<text text-anchor="start" x="26" y="-511.5" font-family="arial" font-size="10.00"> + toString() : String </text>
<text text-anchor="start" x="26" y="-498.5" font-family="arial" font-size="10.00"> + affiche() </text>
</a>
</g>
<g><a xlink:href="./ObjetPostal.html" xlink:title="&lt;TABLE&gt;">
</a>
</g>
</g>
<!-- c17 -->
<g id="node4" class="node"><title>c17</title>
<g id="a_node4"><a xlink:href="./Colis.html" xlink:title="&lt;TABLE&gt;">
</a>
</g>
<g id="a_node4_1"><a xlink:href="./Colis.html" xlink:title="tp3.Colis">
<polygon fill="lemonChiffon" stroke="none" points="17.5,-274 17.5,-448 204.5,-448 204.5,-274 17.5,-274"/>
<polygon fill="none" stroke="black" points="18,-429 18,-448 205,-448 205,-429 18,-429"/>
<text text-anchor="start" x="97.5" y="-436" font-family="arial" font-size="10.00"> Colis </text>
<polygon fill="none" stroke="black" points="18,-410 18,-429 205,-429 205,-410 18,-410"/>
<text text-anchor="start" x="22" y="-417" font-family="arial" font-size="10.00"> &#160;</text>
<polygon fill="none" stroke="black" points="18,-274 18,-410 205,-410 205,-274 18,-274"/>
<text text-anchor="start" x="22" y="-398" font-family="arial" font-size="10.00"> + getDeclContenu() : String </text>
<text text-anchor="start" x="22" y="-385" font-family="arial" font-size="10.00"> + setDeclContenu(declContenu : String) </text>
<text text-anchor="start" x="22" y="-372" font-family="arial" font-size="10.00"> + getValeurDecl() : double </text>
<text text-anchor="start" x="22" y="-359" font-family="arial" font-size="10.00"> + setValeurDecl(valeurDecl : double) </text>
<text text-anchor="start" x="22" y="-346" font-family="arial" font-size="10.00"> + setTarifBase(tarifBase : double) </text>
<text text-anchor="start" x="22" y="-333" font-family="arial" font-size="10.00"> + getTarifBase() : double </text>
<text text-anchor="start" x="22" y="-320" font-family="arial" font-size="10.00"> + tarifAff() : double </text>
<text text-anchor="start" x="22" y="-307" font-family="arial" font-size="10.00"> + tarifRemb() : double </text>
<text text-anchor="start" x="22" y="-294" font-family="arial" font-size="10.00"> + getTypeObjet() : String </text>
<text text-anchor="start" x="22" y="-281" font-family="arial" font-size="10.00"> + toString() : String </text>
</a>
</g>
<g><a xlink:href="./Colis.html" xlink:title="&lt;TABLE&gt;">
</a>
</g>
</g>
<!-- c12&#45;&gt;c17 -->
<g id="edge3" class="edge"><title>c12:p&#45;&gt;c17:p</title>
<path fill="none" stroke="black" d="M111,-481.566C111,-470.172 111,-458.943 111,-448.201"/>
<polygon fill="none" stroke="black" points="107.5,-481.614 111,-491.614 114.5,-481.614 107.5,-481.614"/>
</g>
<!-- n0cc12 -->
<g id="node2" class="node"><title>n0cc12</title>
<polygon fill="none" stroke="black" points="154.5,-859 61.5,-859 61.5,-823 160.5,-823 160.5,-853 154.5,-859"/>
<polyline fill="none" stroke="black" points="154.5,-859 154.5,-853 "/>
<polyline fill="none" stroke="black" points="160.5,-853 154.5,-853 "/>
<g id="a_node2_2"><a xlink:href="./ObjetPostal.html" xlink:title="tp3.ObjetPostal">
<text text-anchor="start" x="73" y="-838" font-family="arial" font-size="10.00"> Classe abstraite </text>
</a>
</g>
</g>
<!-- n0cc12&#45;&gt;c12 -->
<g id="edge1" class="edge"><title>n0cc12&#45;&gt;c12:p</title>
<path fill="none" stroke="black" d="M111,-822.82C111,-812.732 111,-798.921 111,-783.36"/>
</g>
<!-- c16 -->
<g id="node3" class="node"><title>c16</title>
<g id="a_node3"><a xlink:href="./ColisExpress.html" xlink:title="&lt;TABLE&gt;">
</a>
</g>
<g id="a_node3_3"><a xlink:href="./ColisExpress.html" xlink:title="tp3.ColisExpress">
<polygon fill="none" stroke="black" points="8,-211 8,-230 214,-230 214,-211 8,-211"/>
<text text-anchor="start" x="79" y="-218" font-family="arial" font-size="10.00"> ColisExpress </text>
<polygon fill="none" stroke="black" points="8,-192 8,-211 214,-211 214,-192 8,-192"/>
<text text-anchor="start" x="12" y="-199" font-family="arial" font-size="10.00"> &#160;</text>
<polygon fill="none" stroke="black" points="8,-4 8,-192 214,-192 214,-4 8,-4"/>
<text text-anchor="start" x="12" y="-180" font-family="arial" font-size="10.00"> + getDateEnvoi() : Date </text>
<text text-anchor="start" x="12" y="-167" font-family="arial" font-size="10.00"> + setDateEnvoi(dateEnvoi : Date) </text>
<text text-anchor="start" x="12" y="-154" font-family="arial" font-size="10.00"> + getNumeroSuivi() : int </text>
<text text-anchor="start" x="12" y="-141" font-family="arial" font-size="10.00"> + isEmballage() : boolean </text>
<text text-anchor="start" x="12" y="-128" font-family="arial" font-size="10.00"> + setEmballage(emballage : boolean) </text>
<text text-anchor="start" x="12" y="-115" font-family="arial" font-size="10.00"> + getNumeroCourant() : int </text>
<text text-anchor="start" x="12" y="-102" font-family="arial" font-size="10.00"> + setNumeroCourant(numeroCourant : int) </text>
<text text-anchor="start" x="12" y="-89" font-family="arial" font-size="10.00"> + getTarifEmballage() : double </text>
<text text-anchor="start" x="12" y="-76" font-family="arial" font-size="10.00"> + setTarifEmballage(tarifEmballage : double) </text>
<text text-anchor="start" x="12" y="-63" font-family="arial" font-size="10.00"> + getTarifBase() : double </text>
<text text-anchor="start" x="12" y="-50" font-family="arial" font-size="10.00"> + tarifAff() : double </text>
<text text-anchor="start" x="12" y="-37" font-family="arial" font-size="10.00"> + getTypeObjet() : String </text>
<text text-anchor="start" x="12" y="-24" font-family="arial" font-size="10.00"> + toString() : String </text>
<text text-anchor="start" x="12" y="-11" font-family="arial" font-size="10.00"> + setPoids(poids : double) </text>
</a>
</g>
<g><a xlink:href="./ColisExpress.html" xlink:title="&lt;TABLE&gt;">
</a>
</g>
</g>
<!-- c17&#45;&gt;c16 -->
<g id="edge2" class="edge"><title>c17:p&#45;&gt;c16:p</title>
<path fill="none" stroke="black" d="M111,-263.96C111,-252.929 111,-241.609 111,-230.388"/>
<polygon fill="none" stroke="black" points="107.5,-263.998 111,-273.998 114.5,-263.998 107.5,-263.998"/>
</g>
</g>
</svg>
