<?xml version="1.0" encoding="UTF-8" standalone="no"?>
<!DOCTYPE svg PUBLIC "-//W3C//DTD SVG 1.1//EN"
 "http://www.w3.org/Graphics/SVG/1.1/DTD/svg11.dtd">
<!-- Generated by graphviz version 2.38.0 (20140413.2041)
 -->
<!-- Title: G Pages: 1 -->
<svg width="202pt" height="532pt"
 viewBox="0.00 0.00 202.00 532.00" xmlns="http://www.w3.org/2000/svg" xmlns:xlink="http://www.w3.org/1999/xlink">
<g id="graph0" class="graph" transform="scale(1 1) rotate(0) translate(4 528)">
<title>G</title>
<polygon fill="white" stroke="none" points="-4,4 -4,-528 198,-528 198,4 -4,4"/>
<!-- c26 -->
<g id="node1" class="node"><title>c26</title>
<g id="a_node1"><a xlink:href="./ObjetPostal.html" xlink:title="&lt;TABLE&gt;">
</a>
</g>
<g id="a_node1_0"><a xlink:href="./ObjetPostal.html" xlink:title="tp3.ObjetPostal">
<polygon fill="none" stroke="black" points="8,-415.5 8,-447.5 186,-447.5 186,-415.5 8,-415.5"/>
<text text-anchor="start" x="71" y="-435.5" font-family="arial" font-size="10.00"> «abstract» </text>
<text text-anchor="start" x="68" y="-422.5" font-family="arial italic" font-size="10.00"> ObjetPostal </text>
<polygon fill="none" stroke="black" points="8,-396.5 8,-415.5 186,-415.5 186,-396.5 8,-396.5"/>
<text text-anchor="start" x="12" y="-403.5" font-family="arial" font-size="10.00"> &#160;</text>
<polygon fill="none" stroke="black" points="8,-156.5 8,-396.5 186,-396.5 186,-156.5 8,-156.5"/>
<text text-anchor="start" x="12" y="-384.5" font-family="arial" font-size="10.00"> + getOrigine() : String </text>
<text text-anchor="start" x="12" y="-371.5" font-family="arial" font-size="10.00"> + setOrigine(origine : String) </text>
<text text-anchor="start" x="12" y="-358.5" font-family="arial" font-size="10.00"> + getDestination() : String </text>
<text text-anchor="start" x="12" y="-345.5" font-family="arial" font-size="10.00"> + setDestination(destination : String) </text>
<text text-anchor="start" x="12" y="-332.5" font-family="arial" font-size="10.00"> + getCodePostal() : String </text>
<text text-anchor="start" x="12" y="-319.5" font-family="arial" font-size="10.00"> + setCodePostal(codePostal : String) </text>
<text text-anchor="start" x="12" y="-306.5" font-family="arial" font-size="10.00"> + getPoids() : double </text>
<text text-anchor="start" x="12" y="-293.5" font-family="arial" font-size="10.00"> + setPoids(poids : double) </text>
<text text-anchor="start" x="12" y="-280.5" font-family="arial" font-size="10.00"> + getVolume() : double </text>
<text text-anchor="start" x="12" y="-267.5" font-family="arial" font-size="10.00"> + setVolume(volume : double) </text>
<text text-anchor="start" x="12" y="-254.5" font-family="arial" font-size="10.00"> + getTauxRec() : TauxRecom </text>
<text text-anchor="start" x="12" y="-241.5" font-family="arial" font-size="10.00"> + setTauxRec(tauxRec : TauxRecom) </text>
<text text-anchor="start" x="12" y="-228.5" font-family="arial italic" font-size="10.00"> + getTarifBase() : double </text>
<text text-anchor="start" x="12" y="-215.5" font-family="arial" font-size="10.00"> + tarifAff() : double </text>
<text text-anchor="start" x="12" y="-202.5" font-family="arial italic" font-size="10.00"> + tarifRemb() : double </text>
<text text-anchor="start" x="12" y="-189.5" font-family="arial italic" font-size="10.00"> + getTypeObjet() : String </text>
<text text-anchor="start" x="12" y="-176.5" font-family="arial" font-size="10.00"> + toString() : String </text>
<text text-anchor="start" x="12" y="-163.5" font-family="arial" font-size="10.00"> + affiche() </text>
</a>
</g>
<g><a xlink:href="./ObjetPostal.html" xlink:title="&lt;TABLE&gt;">
</a>
</g>
</g>
<!-- c27 -->
<g id="node3" class="node"><title>c27</title>
<g id="a_node3"><a xlink:href="./Lettre.html" xlink:title="&lt;TABLE&gt;">
</a>
</g>
<g id="a_node3_1"><a xlink:href="./Lettre.html" xlink:title="tp3.Lettre">
<polygon fill="lemonChiffon" stroke="none" points="36,-4 36,-113 158,-113 158,-4 36,-4"/>
<polygon fill="none" stroke="black" points="36,-93.5 36,-112.5 158,-112.5 158,-93.5 36,-93.5"/>
<text text-anchor="start" x="81.5" y="-100.5" font-family="arial" font-size="10.00"> Lettre </text>
<polygon fill="none" stroke="black" points="36,-74.5 36,-93.5 158,-93.5 158,-74.5 36,-74.5"/>
<text text-anchor="start" x="40" y="-81.5" font-family="arial" font-size="10.00"> &#160;</text>
<polygon fill="none" stroke="black" points="36,-3.5 36,-74.5 158,-74.5 158,-3.5 36,-3.5"/>
<text text-anchor="start" x="40" y="-62.5" font-family="arial" font-size="10.00"> + getTarifBase() : double </text>
<text text-anchor="start" x="40" y="-49.5" font-family="arial" font-size="10.00"> + tarifAff() : double </text>
<text text-anchor="start" x="40" y="-36.5" font-family="arial" font-size="10.00"> + tarifRemb() : double </text>
<text text-anchor="start" x="40" y="-23.5" font-family="arial" font-size="10.00"> + getTypeObjet() : String </text>
<text text-anchor="start" x="40" y="-10.5" font-family="arial" font-size="10.00"> + toString() : String </text>
</a>
</g>
<g><a xlink:href="./Lettre.html" xlink:title="&lt;TABLE&gt;">
</a>
</g>
</g>
<!-- c26&#45;&gt;c27 -->
<g id="edge2" class="edge"><title>c26:p&#45;&gt;c27:p</title>
<path fill="none" stroke="black" d="M97,-146.837C97,-134.993 97,-123.617 97,-113.214"/>
<polygon fill="none" stroke="black" points="93.5001,-146.885 97,-156.885 100.5,-146.885 93.5001,-146.885"/>
</g>
<!-- n0cc26 -->
<g id="node2" class="node"><title>n0cc26</title>
<polygon fill="none" stroke="black" points="140.5,-524 47.5,-524 47.5,-488 146.5,-488 146.5,-518 140.5,-524"/>
<polyline fill="none" stroke="black" points="140.5,-524 140.5,-518 "/>
<polyline fill="none" stroke="black" points="146.5,-518 140.5,-518 "/>
<g id="a_node2_2"><a xlink:href="./ObjetPostal.html" xlink:title="tp3.ObjetPostal">
<text text-anchor="start" x="59" y="-503" font-family="arial" font-size="10.00"> Classe abstraite </text>
</a>
</g>
</g>
<!-- n0cc26&#45;&gt;c26 -->
<g id="edge1" class="edge"><title>n0cc26&#45;&gt;c26:p</title>
<path fill="none" stroke="black" d="M97,-487.82C97,-477.732 97,-463.921 97,-448.36"/>
</g>
</g>
</svg>
