<?xml version="1.0" encoding="UTF-8" standalone="no"?>
<!DOCTYPE svg PUBLIC "-//W3C//DTD SVG 1.1//EN"
 "http://www.w3.org/Graphics/SVG/1.1/DTD/svg11.dtd">
<!-- Generated by graphviz version 2.38.0 (20140413.2041)
 -->
<!-- Title: G Pages: 1 -->
<svg width="107pt" height="264pt"
 viewBox="0.00 0.00 107.00 264.00" xmlns="http://www.w3.org/2000/svg" xmlns:xlink="http://www.w3.org/1999/xlink">
<g id="graph0" class="graph" transform="scale(1 1) rotate(0) translate(4 260)">
<title>G</title>
<polygon fill="white" stroke="none" points="-4,4 -4,-260 103,-260 103,4 -4,4"/>
<!-- c12 -->
<g id="node1" class="node"><title>c12</title>
<g id="a_node1"><a xlink:href="./ObjetPostal.html" xlink:title="&lt;TABLE&gt;">
</a>
</g>
<g id="a_node1_0"><a xlink:href="./ObjetPostal.html" xlink:title="tp3.ObjetPostal">
<polygon fill="none" stroke="black" points="16.5,-148 16.5,-180 82.5,-180 82.5,-148 16.5,-148"/>
<text text-anchor="start" x="23.5" y="-168" font-family="arial" font-size="10.00"> «abstract» </text>
<text text-anchor="start" x="20.5" y="-155" font-family="arial italic" font-size="10.00"> ObjetPostal </text>
</a>
</g>
<g><a xlink:href="./ObjetPostal.html" xlink:title="&lt;TABLE&gt;">
</a>
</g>
</g>
<!-- c17 -->
<g id="node4" class="node"><title>c17</title>
<g id="a_node4"><a xlink:href="./Colis.html" xlink:title="&lt;TABLE&gt;">
</a>
</g>
<g id="a_node4_1"><a xlink:href="./Colis.html" xlink:title="tp3.Colis">
<polygon fill="lemonChiffon" stroke="none" points="31.5,-80.5 31.5,-99.5 67.5,-99.5 67.5,-80.5 31.5,-80.5"/>
<polygon fill="none" stroke="black" points="31.5,-80 31.5,-99 67.5,-99 67.5,-80 31.5,-80"/>
<text text-anchor="start" x="35.5" y="-87" font-family="arial" font-size="10.00"> Colis </text>
</a>
</g>
<g><a xlink:href="./Colis.html" xlink:title="&lt;TABLE&gt;">
</a>
</g>
</g>
<!-- c12&#45;&gt;c17 -->
<g id="edge3" class="edge"><title>c12:p&#45;&gt;c17:p</title>
<path fill="none" stroke="black" d="M49.5,-137.384C49.5,-124.304 49.5,-109.225 49.5,-99.9008"/>
<polygon fill="none" stroke="black" points="46.0001,-137.731 49.5,-147.731 53.0001,-137.731 46.0001,-137.731"/>
</g>
<!-- n0cc12 -->
<g id="node2" class="node"><title>n0cc12</title>
<polygon fill="none" stroke="black" points="93,-256 0,-256 0,-220 99,-220 99,-250 93,-256"/>
<polyline fill="none" stroke="black" points="93,-256 93,-250 "/>
<polyline fill="none" stroke="black" points="99,-250 93,-250 "/>
<g id="a_node2_2"><a xlink:href="./ObjetPostal.html" xlink:title="tp3.ObjetPostal">
<text text-anchor="start" x="11.5" y="-235" font-family="arial" font-size="10.00"> Classe abstraite </text>
</a>
</g>
</g>
<!-- n0cc12&#45;&gt;c12 -->
<g id="edge1" class="edge"><title>n0cc12&#45;&gt;c12:p</title>
<path fill="none" stroke="black" d="M49.5,-219.937C49.5,-207.961 49.5,-192.075 49.5,-180.468"/>
</g>
<!-- c16 -->
<g id="node3" class="node"><title>c16</title>
<g id="a_node3"><a xlink:href="./ColisExpress.html" xlink:title="&lt;TABLE&gt;">
</a>
</g>
<g id="a_node3_3"><a xlink:href="./ColisExpress.html" xlink:title="tp3.ColisExpress">
<polygon fill="none" stroke="black" points="13.5,-8 13.5,-27 85.5,-27 85.5,-8 13.5,-8"/>
<text text-anchor="start" x="17.5" y="-15" font-family="arial" font-size="10.00"> ColisExpress </text>
</a>
</g>
<g><a xlink:href="./ColisExpress.html" xlink:title="&lt;TABLE&gt;">
</a>
</g>
</g>
<!-- c17&#45;&gt;c16 -->
<g id="edge2" class="edge"><title>c17:p&#45;&gt;c16:p</title>
<path fill="none" stroke="black" d="M49.5,-70.0772C49.5,-56.2643 49.5,-38.1833 49.5,-27.6536"/>
<polygon fill="none" stroke="black" points="46.0001,-70.4166 49.5,-80.4166 53.0001,-70.4167 46.0001,-70.4166"/>
</g>
</g>
</svg>
