<?xml version="1.0" encoding="UTF-8" standalone="no"?>
<!DOCTYPE svg PUBLIC "-//W3C//DTD SVG 1.1//EN"
 "http://www.w3.org/Graphics/SVG/1.1/DTD/svg11.dtd">
<!-- Generated by graphviz version 2.38.0 (20140413.2041)
 -->
<!-- Title: G Pages: 1 -->
<svg width="96pt" height="116pt"
 viewBox="0.00 0.00 96.00 116.00" xmlns="http://www.w3.org/2000/svg" xmlns:xlink="http://www.w3.org/1999/xlink">
<g id="graph0" class="graph" transform="scale(1 1) rotate(0) translate(4 112)">
<title>G</title>
<polygon fill="white" stroke="none" points="-4,4 -4,-112 92,-112 92,4 -4,4"/>
<!-- c22 -->
<g id="node1" class="node"><title>c22</title>
<g id="a_node1"><a xlink:href="./ColisExpress.html" xlink:title="&lt;TABLE&gt;">
</a>
</g>
<g id="a_node1_0"><a xlink:href="./ColisExpress.html" xlink:title="tp3.ColisExpress">
<polygon fill="lemonChiffon" stroke="none" points="8,-8.5 8,-27.5 80,-27.5 80,-8.5 8,-8.5"/>
<polygon fill="none" stroke="black" points="8,-8 8,-27 80,-27 80,-8 8,-8"/>
<text text-anchor="start" x="12" y="-15" font-family="arial" font-size="10.00"> ColisExpress </text>
</a>
</g>
<g><a xlink:href="./ColisExpress.html" xlink:title="&lt;TABLE&gt;">
</a>
</g>
</g>
<!-- c23 -->
<g id="node2" class="node"><title>c23</title>
<g id="a_node2"><a xlink:href="./Colis.html" xlink:title="&lt;TABLE&gt;">
</a>
</g>
<g id="a_node2_1"><a xlink:href="./Colis.html" xlink:title="tp3.Colis">
<polygon fill="none" stroke="black" points="26,-80 26,-99 62,-99 62,-80 26,-80"/>
<text text-anchor="start" x="30" y="-87" font-family="arial" font-size="10.00"> Colis </text>
</a>
</g>
<g><a xlink:href="./Colis.html" xlink:title="&lt;TABLE&gt;">
</a>
</g>
</g>
<!-- c23&#45;&gt;c22 -->
<g id="edge1" class="edge"><title>c23:p&#45;&gt;c22:p</title>
<path fill="none" stroke="black" d="M44,-70.0772C44,-56.2643 44,-38.1833 44,-27.6536"/>
<polygon fill="none" stroke="black" points="40.5001,-70.4166 44,-80.4166 47.5001,-70.4167 40.5001,-70.4166"/>
</g>
</g>
</svg>
