<?xml version="1.0" encoding="UTF-8" standalone="no"?>
<!DOCTYPE svg PUBLIC "-//W3C//DTD SVG 1.1//EN"
 "http://www.w3.org/Graphics/SVG/1.1/DTD/svg11.dtd">
<!-- Generated by graphviz version 2.38.0 (20140413.2041)
 -->
<!-- Title: G Pages: 1 -->
<svg width="107pt" height="192pt"
 viewBox="0.00 0.00 107.00 192.00" xmlns="http://www.w3.org/2000/svg" xmlns:xlink="http://www.w3.org/1999/xlink">
<g id="graph0" class="graph" transform="scale(1 1) rotate(0) translate(4 188)">
<title>G</title>
<polygon fill="white" stroke="none" points="-4,4 -4,-188 103,-188 103,4 -4,4"/>
<!-- c26 -->
<g id="node1" class="node"><title>c26</title>
<g id="a_node1"><a xlink:href="./ObjetPostal.html" xlink:title="&lt;TABLE&gt;">
</a>
</g>
<g id="a_node1_0"><a xlink:href="./ObjetPostal.html" xlink:title="tp3.ObjetPostal">
<polygon fill="none" stroke="black" points="16.5,-76 16.5,-108 82.5,-108 82.5,-76 16.5,-76"/>
<text text-anchor="start" x="23.5" y="-96" font-family="arial" font-size="10.00"> «abstract» </text>
<text text-anchor="start" x="20.5" y="-83" font-family="arial italic" font-size="10.00"> ObjetPostal </text>
</a>
</g>
<g><a xlink:href="./ObjetPostal.html" xlink:title="&lt;TABLE&gt;">
</a>
</g>
</g>
<!-- c27 -->
<g id="node3" class="node"><title>c27</title>
<g id="a_node3"><a xlink:href="./Lettre.html" xlink:title="&lt;TABLE&gt;">
</a>
</g>
<g id="a_node3_1"><a xlink:href="./Lettre.html" xlink:title="tp3.Lettre">
<polygon fill="lemonChiffon" stroke="none" points="30,-8.5 30,-27.5 69,-27.5 69,-8.5 30,-8.5"/>
<polygon fill="none" stroke="black" points="30.5,-8 30.5,-27 69.5,-27 69.5,-8 30.5,-8"/>
<text text-anchor="start" x="34.5" y="-15" font-family="arial" font-size="10.00"> Lettre </text>
</a>
</g>
<g><a xlink:href="./Lettre.html" xlink:title="&lt;TABLE&gt;">
</a>
</g>
</g>
<!-- c26&#45;&gt;c27 -->
<g id="edge2" class="edge"><title>c26:p&#45;&gt;c27:p</title>
<path fill="none" stroke="black" d="M49.5,-65.3842C49.5,-52.3044 49.5,-37.2245 49.5,-27.9008"/>
<polygon fill="none" stroke="black" points="46.0001,-65.7306 49.5,-75.7307 53.0001,-65.7307 46.0001,-65.7306"/>
</g>
<!-- n0cc26 -->
<g id="node2" class="node"><title>n0cc26</title>
<polygon fill="none" stroke="black" points="93,-184 0,-184 0,-148 99,-148 99,-178 93,-184"/>
<polyline fill="none" stroke="black" points="93,-184 93,-178 "/>
<polyline fill="none" stroke="black" points="99,-178 93,-178 "/>
<g id="a_node2_2"><a xlink:href="./ObjetPostal.html" xlink:title="tp3.ObjetPostal">
<text text-anchor="start" x="11.5" y="-163" font-family="arial" font-size="10.00"> Classe abstraite </text>
</a>
</g>
</g>
<!-- n0cc26&#45;&gt;c26 -->
<g id="edge1" class="edge"><title>n0cc26&#45;&gt;c26:p</title>
<path fill="none" stroke="black" d="M49.5,-147.937C49.5,-135.961 49.5,-120.075 49.5,-108.468"/>
</g>
</g>
</svg>
