<?xml version="1.0" encoding="UTF-8" standalone="no"?>
<!DOCTYPE svg PUBLIC "-//W3C//DTD SVG 1.1//EN"
 "http://www.w3.org/Graphics/SVG/1.1/DTD/svg11.dtd">
<!-- Generated by graphviz version 2.38.0 (20140413.2041)
 -->
<!-- Title: G Pages: 1 -->
<svg width="136pt" height="192pt"
 viewBox="0.00 0.00 135.50 192.00" xmlns="http://www.w3.org/2000/svg" xmlns:xlink="http://www.w3.org/1999/xlink">
<g id="graph0" class="graph" transform="scale(1 1) rotate(0) translate(4 188)">
<title>G</title>
<polygon fill="white" stroke="none" points="-4,4 -4,-188 131.5,-188 131.5,4 -4,4"/>
<!-- c32 -->
<g id="node1" class="node"><title>c32</title>
<g id="a_node1"><a xlink:href="./ObjetPostal.html" xlink:title="&lt;TABLE&gt;">
</a>
</g>
<g id="a_node1_0"><a xlink:href="./ObjetPostal.html" xlink:title="tp3.ObjetPostal">
<polygon fill="lemonChiffon" stroke="none" points="30.5,-76 30.5,-108 96.5,-108 96.5,-76 30.5,-76"/>
<polygon fill="none" stroke="black" points="30.5,-76 30.5,-108 96.5,-108 96.5,-76 30.5,-76"/>
<text text-anchor="start" x="37.5" y="-96" font-family="arial" font-size="10.00"> «abstract» </text>
<text text-anchor="start" x="34.5" y="-83" font-family="arial italic" font-size="10.00"> ObjetPostal </text>
</a>
</g>
<g><a xlink:href="./ObjetPostal.html" xlink:title="&lt;TABLE&gt;">
</a>
</g>
</g>
<!-- c33 -->
<g id="node3" class="node"><title>c33</title>
<g id="a_node3"><a xlink:href="./Lettre.html" xlink:title="&lt;TABLE&gt;">
</a>
</g>
<g id="a_node3_1"><a xlink:href="./Lettre.html" xlink:title="tp3.Lettre">
<polygon fill="none" stroke="black" points="8.5,-8 8.5,-27 47.5,-27 47.5,-8 8.5,-8"/>
<text text-anchor="start" x="12.5" y="-15" font-family="arial" font-size="10.00"> Lettre </text>
</a>
</g>
<g><a xlink:href="./Lettre.html" xlink:title="&lt;TABLE&gt;">
</a>
</g>
</g>
<!-- c32&#45;&gt;c33 -->
<g id="edge2" class="edge"><title>c32:p&#45;&gt;c33:p</title>
<path fill="none" stroke="black" d="M51.2779,-66.5558C44.6072,-53.2143 36.7521,-37.5042 31.9504,-27.9008"/>
<polygon fill="none" stroke="black" points="48.2626,-68.3516 55.8653,-75.7307 54.5236,-65.2211 48.2626,-68.3516"/>
</g>
<!-- c35 -->
<g id="node4" class="node"><title>c35</title>
<g id="a_node4"><a xlink:href="./Colis.html" xlink:title="&lt;TABLE&gt;">
</a>
</g>
<g id="a_node4_2"><a xlink:href="./Colis.html" xlink:title="tp3.Colis">
<polygon fill="none" stroke="black" points="82.5,-8 82.5,-27 118.5,-27 118.5,-8 82.5,-8"/>
<text text-anchor="start" x="86.5" y="-15" font-family="arial" font-size="10.00"> Colis </text>
</a>
</g>
<g><a xlink:href="./Colis.html" xlink:title="&lt;TABLE&gt;">
</a>
</g>
</g>
<!-- c32&#45;&gt;c35 -->
<g id="edge3" class="edge"><title>c32:p&#45;&gt;c35:p</title>
<path fill="none" stroke="black" d="M76.0616,-66.5558C82.9176,-53.2143 90.9909,-37.5042 95.926,-27.9008"/>
<polygon fill="none" stroke="black" points="72.8045,-65.2366 71.3467,-75.7307 79.0305,-68.4361 72.8045,-65.2366"/>
</g>
<!-- n0cc32 -->
<g id="node2" class="node"><title>n0cc32</title>
<polygon fill="none" stroke="black" points="107,-184 14,-184 14,-148 113,-148 113,-178 107,-184"/>
<polyline fill="none" stroke="black" points="107,-184 107,-178 "/>
<polyline fill="none" stroke="black" points="113,-178 107,-178 "/>
<g id="a_node2_3"><a xlink:href="./ObjetPostal.html" xlink:title="tp3.ObjetPostal">
<text text-anchor="start" x="25.5" y="-163" font-family="arial" font-size="10.00"> Classe abstraite </text>
</a>
</g>
</g>
<!-- n0cc32&#45;&gt;c32 -->
<g id="edge1" class="edge"><title>n0cc32&#45;&gt;c32:p</title>
<path fill="none" stroke="black" d="M63.5,-147.937C63.5,-135.961 63.5,-120.075 63.5,-108.468"/>
</g>
</g>
</svg>
