<?xml version="1.0" encoding="UTF-8" standalone="no"?>
<!DOCTYPE svg PUBLIC "-//W3C//DTD SVG 1.1//EN"
 "http://www.w3.org/Graphics/SVG/1.1/DTD/svg11.dtd">
<!-- Generated by graphviz version 2.38.0 (20140413.2041)
 -->
<!-- Title: G Pages: 1 -->
<svg width="375pt" height="268pt"
 viewBox="0.00 0.00 375.00 268.00" xmlns="http://www.w3.org/2000/svg" xmlns:xlink="http://www.w3.org/1999/xlink">
<g id="graph0" class="graph" transform="scale(1 1) rotate(0) translate(4 264)">
<title>G</title>
<polygon fill="white" stroke="none" points="-4,4 -4,-264 371,-264 371,4 -4,4"/>
<!-- c0 -->
<g id="node1" class="node"><title>c0</title>
<g id="a_node1"><a xlink:href="./TauxRecom.html" xlink:title="&lt;TABLE&gt;">
</a>
</g>
<g id="a_node1_0"><a xlink:href="./TauxRecom.html" xlink:title="tp3.TauxRecom">
<polygon fill="none" stroke="black" points="8,-224 8,-256 86,-256 86,-224 8,-224"/>
<text text-anchor="start" x="12" y="-244" font-family="arial" font-size="10.00"> «enumeration» </text>
<text text-anchor="start" x="18" y="-231" font-family="arial" font-size="10.00"> TauxRecom </text>
</a>
</g>
<g><a xlink:href="./TauxRecom.html" xlink:title="&lt;TABLE&gt;">
</a>
</g>
</g>
<!-- c1 -->
<g id="node2" class="node"><title>c1</title>
<g id="a_node2"><a xlink:href="./ProgrammePoste.html" xlink:title="&lt;TABLE&gt;">
</a>
</g>
<g id="a_node2_1"><a xlink:href="./ProgrammePoste.html" xlink:title="tp3.ProgrammePoste">
<polygon fill="none" stroke="black" points="120,-230 120,-249 210,-249 210,-230 120,-230"/>
<text text-anchor="start" x="124" y="-237" font-family="arial" font-size="10.00"> ProgrammePoste </text>
</a>
</g>
<g><a xlink:href="./ProgrammePoste.html" xlink:title="&lt;TABLE&gt;">
</a>
</g>
</g>
<!-- c2 -->
<g id="node3" class="node"><title>c2</title>
<g id="a_node3"><a xlink:href="./ObjetPostal.html" xlink:title="&lt;TABLE&gt;">
</a>
</g>
<g id="a_node3_2"><a xlink:href="./ObjetPostal.html" xlink:title="tp3.ObjetPostal">
<polygon fill="none" stroke="black" points="253,-148 253,-180 319,-180 319,-148 253,-148"/>
<text text-anchor="start" x="260" y="-168" font-family="arial" font-size="10.00"> «abstract» </text>
<text text-anchor="start" x="257" y="-155" font-family="arial italic" font-size="10.00"> ObjetPostal </text>
</a>
</g>
<g><a xlink:href="./ObjetPostal.html" xlink:title="&lt;TABLE&gt;">
</a>
</g>
</g>
<!-- c3 -->
<g id="node5" class="node"><title>c3</title>
<g id="a_node5"><a xlink:href="./Lettre.html" xlink:title="&lt;TABLE&gt;">
</a>
</g>
<g id="a_node5_3"><a xlink:href="./Lettre.html" xlink:title="tp3.Lettre">
<polygon fill="none" stroke="black" points="231,-80 231,-99 270,-99 270,-80 231,-80"/>
<text text-anchor="start" x="235" y="-87" font-family="arial" font-size="10.00"> Lettre </text>
</a>
</g>
<g><a xlink:href="./Lettre.html" xlink:title="&lt;TABLE&gt;">
</a>
</g>
</g>
<!-- c2&#45;&gt;c3 -->
<g id="edge2" class="edge"><title>c2:p&#45;&gt;c3:p</title>
<path fill="none" stroke="black" d="M273.778,-138.556C267.107,-125.214 259.252,-109.504 254.45,-99.9008"/>
<polygon fill="none" stroke="black" points="270.763,-140.352 278.365,-147.731 277.024,-137.221 270.763,-140.352"/>
</g>
<!-- c5 -->
<g id="node7" class="node"><title>c5</title>
<g id="a_node7"><a xlink:href="./Colis.html" xlink:title="&lt;TABLE&gt;">
</a>
</g>
<g id="a_node7_4"><a xlink:href="./Colis.html" xlink:title="tp3.Colis">
<polygon fill="none" stroke="black" points="305,-80 305,-99 341,-99 341,-80 305,-80"/>
<text text-anchor="start" x="309" y="-87" font-family="arial" font-size="10.00"> Colis </text>
</a>
</g>
<g><a xlink:href="./Colis.html" xlink:title="&lt;TABLE&gt;">
</a>
</g>
</g>
<!-- c2&#45;&gt;c5 -->
<g id="edge4" class="edge"><title>c2:p&#45;&gt;c5:p</title>
<path fill="none" stroke="black" d="M298.562,-138.556C305.418,-125.214 313.491,-109.504 318.426,-99.9008"/>
<polygon fill="none" stroke="black" points="295.304,-137.237 293.847,-147.731 301.531,-140.436 295.304,-137.237"/>
</g>
<!-- n0cc2 -->
<g id="node4" class="node"><title>n0cc2</title>
<polygon fill="none" stroke="black" points="329.5,-258 236.5,-258 236.5,-222 335.5,-222 335.5,-252 329.5,-258"/>
<polyline fill="none" stroke="black" points="329.5,-258 329.5,-252 "/>
<polyline fill="none" stroke="black" points="335.5,-252 329.5,-252 "/>
<g id="a_node4_5"><a xlink:href="./ObjetPostal.html" xlink:title="tp3.ObjetPostal">
<text text-anchor="start" x="248" y="-237" font-family="arial" font-size="10.00"> Classe abstraite </text>
</a>
</g>
</g>
<!-- n0cc2&#45;&gt;c2 -->
<g id="edge1" class="edge"><title>n0cc2&#45;&gt;c2:p</title>
<path fill="none" stroke="black" d="M286,-221.837C286,-209.199 286,-192.177 286,-180.064"/>
</g>
<!-- c4 -->
<g id="node6" class="node"><title>c4</title>
<g id="a_node6"><a xlink:href="./ColisExpress.html" xlink:title="&lt;TABLE&gt;">
</a>
</g>
<g id="a_node6_6"><a xlink:href="./ColisExpress.html" xlink:title="tp3.ColisExpress">
<polygon fill="none" stroke="black" points="287,-8 287,-27 359,-27 359,-8 287,-8"/>
<text text-anchor="start" x="291" y="-15" font-family="arial" font-size="10.00"> ColisExpress </text>
</a>
</g>
<g><a xlink:href="./ColisExpress.html" xlink:title="&lt;TABLE&gt;">
</a>
</g>
</g>
<!-- c5&#45;&gt;c4 -->
<g id="edge3" class="edge"><title>c5:p&#45;&gt;c4:p</title>
<path fill="none" stroke="black" d="M323,-70.0772C323,-56.2643 323,-38.1833 323,-27.6536"/>
<polygon fill="none" stroke="black" points="319.5,-70.4166 323,-80.4166 326.5,-70.4167 319.5,-70.4166"/>
</g>
</g>
</svg>
