<?xml version="1.0" encoding="UTF-8" standalone="no"?>
<!DOCTYPE svg PUBLIC "-//W3C//DTD SVG 1.1//EN"
 "http://www.w3.org/Graphics/SVG/1.1/DTD/svg11.dtd">
<!-- Generated by graphviz version 2.38.0 (20140413.2041)
 -->
<!-- Title: G Pages: 1 -->
<svg width="348pt" height="300pt"
 viewBox="0.00 0.00 348.00 299.50" xmlns="http://www.w3.org/2000/svg" xmlns:xlink="http://www.w3.org/1999/xlink">
<g id="graph0" class="graph" transform="scale(1 1) rotate(0) translate(4 295.5)">
<title>G</title>
<polygon fill="white" stroke="none" points="-4,4 -4,-295.5 344,-295.5 344,4 -4,4"/>
<!-- c12 -->
<g id="node1" class="node"><title>c12</title>
<g id="a_node1"><a xlink:href="./IStat.html" xlink:title="&lt;TABLE&gt;">
</a>
</g>
<g id="a_node1_0"><a xlink:href="./IStat.html" xlink:title="tp7.IStat">
<polygon fill="none" stroke="black" points="44,-255 44,-287 128,-287 128,-255 44,-255"/>
<text text-anchor="start" x="59" y="-275" font-family="arial" font-size="10.00"> «interface» </text>
<text text-anchor="start" x="72.5" y="-262" font-family="arial" font-size="10.00"> IStat </text>
<polygon fill="none" stroke="black" points="44,-236 44,-255 128,-255 128,-236 44,-236"/>
<text text-anchor="start" x="48" y="-243" font-family="arial" font-size="10.00"> &#160;</text>
<polygon fill="none" stroke="black" points="44,-204 44,-236 128,-236 128,-204 44,-204"/>
<text text-anchor="start" x="48" y="-224" font-family="arial italic" font-size="10.00"> + entrants() : int </text>
<text text-anchor="start" x="48" y="-211" font-family="arial italic" font-size="10.00"> + sortants() : int </text>
</a>
</g>
<g><a xlink:href="./IStat.html" xlink:title="&lt;TABLE&gt;">
</a>
</g>
</g>
<!-- c14 -->
<g id="node2" class="node"><title>c14</title>
<g id="a_node2"><a xlink:href="./FileAttenteAvecStat.html" xlink:title="&lt;TABLE&gt;">
</a>
</g>
<g id="a_node2_1"><a xlink:href="./FileAttenteAvecStat.html" xlink:title="tp7.FileAttenteAvecStat">
<polygon fill="lemonChiffon" stroke="none" points="216,-107 216,-229 332,-229 332,-107 216,-107"/>
<polygon fill="none" stroke="black" points="216,-210 216,-229 332,-229 332,-210 216,-210"/>
<text text-anchor="start" x="227.5" y="-217" font-family="arial" font-size="10.00"> FileAttenteAvecStat </text>
<polygon fill="none" stroke="black" points="216,-178 216,-210 332,-210 332,-178 216,-178"/>
<text text-anchor="start" x="220" y="-198" font-family="arial" font-size="10.00"> &#45; compteurEntrant : int </text>
<text text-anchor="start" x="220" y="-185" font-family="arial" font-size="10.00"> &#45; compteurSortant : int </text>
<polygon fill="none" stroke="black" points="216,-107 216,-178 332,-178 332,-107 216,-107"/>
<text text-anchor="start" x="220" y="-166" font-family="arial" font-size="10.00"> + FileAttenteAvecStat() </text>
<text text-anchor="start" x="220" y="-153" font-family="arial" font-size="10.00"> + entre(p : Personne) </text>
<text text-anchor="start" x="220" y="-140" font-family="arial" font-size="10.00"> + sort() : Personne </text>
<text text-anchor="start" x="220" y="-127" font-family="arial" font-size="10.00"> + entrants() : int </text>
<text text-anchor="start" x="220" y="-114" font-family="arial" font-size="10.00"> + sortants() : int </text>
</a>
</g>
<g><a xlink:href="./FileAttenteAvecStat.html" xlink:title="&lt;TABLE&gt;">
</a>
</g>
</g>
<!-- c12&#45;&gt;c14 -->
<g id="edge2" class="edge"><title>c12:p&#45;&gt;c14:p</title>
<path fill="none" stroke="black" stroke-dasharray="5,2" d="M137.647,-224.761C161.87,-214.603 190.967,-202.401 215.965,-191.918"/>
<polygon fill="none" stroke="black" points="136.148,-221.594 128.279,-228.689 138.855,-228.05 136.148,-221.594"/>
</g>
<!-- c15 -->
<g id="node3" class="node"><title>c15</title>
<g id="a_node3"><a xlink:href="./FileAttente.html" xlink:title="&lt;TABLE&gt;">
</a>
</g>
<g id="a_node3_2"><a xlink:href="./FileAttente.html" xlink:title="tp7.FileAttente">
<polygon fill="none" stroke="black" points="8,-159 8,-178 164,-178 164,-159 8,-159"/>
<text text-anchor="start" x="59" y="-166" font-family="arial" font-size="10.00"> FileAttente </text>
<polygon fill="none" stroke="black" points="8,-114 8,-159 164,-159 164,-114 8,-114"/>
<text text-anchor="start" x="12" y="-147" font-family="arial" font-size="10.00"> &#45; nomFile : String </text>
<text text-anchor="start" x="12" y="-134" font-family="arial" font-size="10.00"> &#45; reglementationFile : String </text>
<text text-anchor="start" x="12" y="-121" font-family="arial" font-size="10.00"> &#45; contenu : ArrayList&lt;Personne&gt; </text>
<polygon fill="none" stroke="black" points="8,-4 8,-114 164,-114 164,-4 8,-4"/>
<text text-anchor="start" x="12" y="-102" font-family="arial" font-size="10.00"> + FileAttente() </text>
<text text-anchor="start" x="12" y="-89" font-family="arial" font-size="10.00"> + entre(p : Personne) </text>
<text text-anchor="start" x="12" y="-76" font-family="arial" font-size="10.00"> + sort() : Personne </text>
<text text-anchor="start" x="12" y="-63" font-family="arial" font-size="10.00"> + estVide() : boolean </text>
<text text-anchor="start" x="12" y="-50" font-family="arial" font-size="10.00"> + taille() : int </text>
<text text-anchor="start" x="12" y="-37" font-family="arial" font-size="10.00"> + toString() : String </text>
<text text-anchor="start" x="12" y="-24" font-family="arial" font-size="10.00"> &#45; descriptionContenu() : String </text>
<text text-anchor="start" x="12" y="-11" font-family="arial" font-size="10.00"> + vider() </text>
</a>
</g>
<g><a xlink:href="./FileAttente.html" xlink:title="&lt;TABLE&gt;">
</a>
</g>
</g>
<!-- c15&#45;&gt;c14 -->
<g id="edge1" class="edge"><title>c15:p&#45;&gt;c14:p</title>
<path fill="none" stroke="black" d="M173.631,-126.863C187.95,-132.791 202.471,-138.802 215.828,-144.332"/>
<polygon fill="none" stroke="black" points="174.843,-123.577 164.265,-122.986 172.166,-130.045 174.843,-123.577"/>
</g>
</g>
</svg>
