<?xml version="1.0" encoding="UTF-8" standalone="no"?>
<!DOCTYPE svg PUBLIC "-//W3C//DTD SVG 1.1//EN"
 "http://www.w3.org/Graphics/SVG/1.1/DTD/svg11.dtd">
<!-- Generated by graphviz version 2.38.0 (20140413.2041)
 -->
<!-- Title: G Pages: 1 -->
<svg width="507pt" height="300pt"
 viewBox="0.00 0.00 507.00 299.50" xmlns="http://www.w3.org/2000/svg" xmlns:xlink="http://www.w3.org/1999/xlink">
<g id="graph0" class="graph" transform="scale(1 1) rotate(0) translate(4 295.5)">
<title>G</title>
<polygon fill="white" stroke="none" points="-4,4 -4,-295.5 503,-295.5 503,4 -4,4"/>
<!-- c0 -->
<g id="node1" class="node"><title>c0</title>
<g id="a_node1"><a xlink:href="./IStat.html" xlink:title="&lt;TABLE&gt;">
</a>
</g>
<g id="a_node1_0"><a xlink:href="./IStat.html" xlink:title="tp7.IStat">
<polygon fill="none" stroke="black" points="203,-255 203,-287 287,-287 287,-255 203,-255"/>
<text text-anchor="start" x="218" y="-275" font-family="arial" font-size="10.00"> «interface» </text>
<text text-anchor="start" x="231.5" y="-262" font-family="arial" font-size="10.00"> IStat </text>
<polygon fill="none" stroke="black" points="203,-236 203,-255 287,-255 287,-236 203,-236"/>
<text text-anchor="start" x="207" y="-243" font-family="arial" font-size="10.00"> &#160;</text>
<polygon fill="none" stroke="black" points="203,-204 203,-236 287,-236 287,-204 203,-204"/>
<text text-anchor="start" x="207" y="-224" font-family="arial italic" font-size="10.00"> + entrants() : int </text>
<text text-anchor="start" x="207" y="-211" font-family="arial italic" font-size="10.00"> + sortants() : int </text>
</a>
</g>
<g><a xlink:href="./IStat.html" xlink:title="&lt;TABLE&gt;">
</a>
</g>
</g>
<!-- c2 -->
<g id="node3" class="node"><title>c2</title>
<g id="a_node3"><a xlink:href="./FileAttenteAvecStat.html" xlink:title="&lt;TABLE&gt;">
</a>
</g>
<g id="a_node3_1"><a xlink:href="./FileAttenteAvecStat.html" xlink:title="tp7.FileAttenteAvecStat">
<polygon fill="none" stroke="black" points="375,-210 375,-229 491,-229 491,-210 375,-210"/>
<text text-anchor="start" x="386.5" y="-217" font-family="arial" font-size="10.00"> FileAttenteAvecStat </text>
<polygon fill="none" stroke="black" points="375,-178 375,-210 491,-210 491,-178 375,-178"/>
<text text-anchor="start" x="379" y="-198" font-family="arial" font-size="10.00"> &#45; compteurEntrant : int </text>
<text text-anchor="start" x="379" y="-185" font-family="arial" font-size="10.00"> &#45; compteurSortant : int </text>
<polygon fill="none" stroke="black" points="375,-107 375,-178 491,-178 491,-107 375,-107"/>
<text text-anchor="start" x="379" y="-166" font-family="arial" font-size="10.00"> + FileAttenteAvecStat() </text>
<text text-anchor="start" x="379" y="-153" font-family="arial" font-size="10.00"> + entre(p : Personne) </text>
<text text-anchor="start" x="379" y="-140" font-family="arial" font-size="10.00"> + sort() : Personne </text>
<text text-anchor="start" x="379" y="-127" font-family="arial" font-size="10.00"> + entrants() : int </text>
<text text-anchor="start" x="379" y="-114" font-family="arial" font-size="10.00"> + sortants() : int </text>
</a>
</g>
<g><a xlink:href="./FileAttenteAvecStat.html" xlink:title="&lt;TABLE&gt;">
</a>
</g>
</g>
<!-- c0&#45;&gt;c2 -->
<g id="edge2" class="edge"><title>c0:p&#45;&gt;c2:p</title>
<path fill="none" stroke="black" stroke-dasharray="5,2" d="M296.647,-224.761C320.87,-214.603 349.967,-202.401 374.965,-191.918"/>
<polygon fill="none" stroke="black" points="295.148,-221.594 287.279,-228.689 297.855,-228.05 295.148,-221.594"/>
</g>
<!-- c1 -->
<g id="node2" class="node"><title>c1</title>
<g id="a_node2"><a xlink:href="./IFileAttente.html" xlink:title="&lt;TABLE&gt;">
</a>
</g>
<g id="a_node2_2"><a xlink:href="./IFileAttente.html" xlink:title="tp7.IFileAttente">
<polygon fill="none" stroke="black" points="8.5,-120 8.5,-152 115.5,-152 115.5,-120 8.5,-120"/>
<text text-anchor="start" x="35" y="-140" font-family="arial" font-size="10.00"> «interface» </text>
<text text-anchor="start" x="34" y="-127" font-family="arial" font-size="10.00"> IFileAttente </text>
<polygon fill="none" stroke="black" points="8.5,-101 8.5,-120 115.5,-120 115.5,-101 8.5,-101"/>
<text text-anchor="start" x="12.5" y="-108" font-family="arial" font-size="10.00"> &#160;</text>
<polygon fill="none" stroke="black" points="8.5,-30 8.5,-101 115.5,-101 115.5,-30 8.5,-30"/>
<text text-anchor="start" x="12.5" y="-89" font-family="arial italic" font-size="10.00"> + entre(p : Personne) </text>
<text text-anchor="start" x="12.5" y="-76" font-family="arial italic" font-size="10.00"> + sort() : Personne </text>
<text text-anchor="start" x="12.5" y="-63" font-family="arial italic" font-size="10.00"> + taille() : int </text>
<text text-anchor="start" x="12.5" y="-50" font-family="arial italic" font-size="10.00"> + estVide() : boolean </text>
<text text-anchor="start" x="12.5" y="-37" font-family="arial italic" font-size="10.00"> + vider() </text>
</a>
</g>
<g><a xlink:href="./IFileAttente.html" xlink:title="&lt;TABLE&gt;">
</a>
</g>
</g>
<!-- c3 -->
<g id="node4" class="node"><title>c3</title>
<g id="a_node4"><a xlink:href="./FileAttente.html" xlink:title="&lt;TABLE&gt;">
</a>
</g>
<g id="a_node4_3"><a xlink:href="./FileAttente.html" xlink:title="tp7.FileAttente">
<polygon fill="none" stroke="black" points="167,-159 167,-178 323,-178 323,-159 167,-159"/>
<text text-anchor="start" x="218" y="-166" font-family="arial" font-size="10.00"> FileAttente </text>
<polygon fill="none" stroke="black" points="167,-114 167,-159 323,-159 323,-114 167,-114"/>
<text text-anchor="start" x="171" y="-147" font-family="arial" font-size="10.00"> &#45; nomFile : String </text>
<text text-anchor="start" x="171" y="-134" font-family="arial" font-size="10.00"> &#45; reglementationFile : String </text>
<text text-anchor="start" x="171" y="-121" font-family="arial" font-size="10.00"> &#45; contenu : ArrayList&lt;Personne&gt; </text>
<polygon fill="none" stroke="black" points="167,-4 167,-114 323,-114 323,-4 167,-4"/>
<text text-anchor="start" x="171" y="-102" font-family="arial" font-size="10.00"> + FileAttente() </text>
<text text-anchor="start" x="171" y="-89" font-family="arial" font-size="10.00"> + entre(p : Personne) </text>
<text text-anchor="start" x="171" y="-76" font-family="arial" font-size="10.00"> + sort() : Personne </text>
<text text-anchor="start" x="171" y="-63" font-family="arial" font-size="10.00"> + estVide() : boolean </text>
<text text-anchor="start" x="171" y="-50" font-family="arial" font-size="10.00"> + taille() : int </text>
<text text-anchor="start" x="171" y="-37" font-family="arial" font-size="10.00"> + toString() : String </text>
<text text-anchor="start" x="171" y="-24" font-family="arial" font-size="10.00"> &#45; descriptionContenu() : String </text>
<text text-anchor="start" x="171" y="-11" font-family="arial" font-size="10.00"> + vider() </text>
</a>
</g>
<g><a xlink:href="./FileAttente.html" xlink:title="&lt;TABLE&gt;">
</a>
</g>
</g>
<!-- c1&#45;&gt;c3 -->
<g id="edge3" class="edge"><title>c1:p&#45;&gt;c3:p</title>
<path fill="none" stroke="black" stroke-dasharray="5,2" d="M125.846,-91C139.023,-91 153.051,-91 166.667,-91"/>
<polygon fill="none" stroke="black" points="125.485,-87.5001 115.485,-91 125.485,-94.5001 125.485,-87.5001"/>
</g>
<!-- c3&#45;&gt;c2 -->
<g id="edge1" class="edge"><title>c3:p&#45;&gt;c2:p</title>
<path fill="none" stroke="black" d="M332.631,-126.863C346.95,-132.791 361.471,-138.802 374.828,-144.332"/>
<polygon fill="none" stroke="black" points="333.843,-123.577 323.265,-122.986 331.166,-130.045 333.843,-123.577"/>
</g>
</g>
</svg>
