<?xml version="1.0" encoding="UTF-8" standalone="no"?>
<!DOCTYPE svg PUBLIC "-//W3C//DTD SVG 1.1//EN"
 "http://www.w3.org/Graphics/SVG/1.1/DTD/svg11.dtd">
<!-- Generated by graphviz version 2.38.0 (20140413.2041)
 -->
<!-- Title: G Pages: 1 -->
<svg width="300pt" height="48pt"
 viewBox="0.00 0.00 300.00 48.00" xmlns="http://www.w3.org/2000/svg" xmlns:xlink="http://www.w3.org/1999/xlink">
<g id="graph0" class="graph" transform="scale(1 1) rotate(0) translate(4 44)">
<title>G</title>
<polygon fill="white" stroke="none" points="-4,4 -4,-44 296,-44 296,4 -4,4"/>
<!-- c32 -->
<g id="node1" class="node"><title>c32</title>
<g id="a_node1"><a xlink:href="./ComparateurGarantie.html" xlink:title="&lt;TABLE&gt;">
</a>
</g>
<g id="a_node1_0"><a xlink:href="./ComparateurGarantie.html" xlink:title="tp8.ComparateurGarantie">
<polygon fill="lemonChiffon" stroke="none" points="177,-10.5 177,-29.5 284,-29.5 284,-10.5 177,-10.5"/>
<polygon fill="none" stroke="black" points="177.5,-10 177.5,-29 284.5,-29 284.5,-10 177.5,-10"/>
<text text-anchor="start" x="181.5" y="-17" font-family="arial" font-size="10.00"> ComparateurGarantie </text>
</a>
</g>
<g><a xlink:href="./ComparateurGarantie.html" xlink:title="&lt;TABLE&gt;">
</a>
</g>
</g>
<!-- c34 -->
<g id="node2" class="node"><title>c34</title>
<g id="a_node2"><a xlink:href="http://java.sun.com/j2se/1.4.2/docs/api/java/util/Comparator.html" xlink:title="&lt;TABLE&gt;">
</a>
</g>
<g id="a_node2_1"><a xlink:href="http://java.sun.com/j2se/1.4.2/docs/api/java/util/Comparator.html" xlink:title="java.util.Comparator">
<polygon fill="none" stroke="black" points="8.5,-4 8.5,-36 125.5,-36 125.5,-4 8.5,-4"/>
<text text-anchor="start" x="40" y="-24" font-family="arial" font-size="10.00"> «interface» </text>
<text text-anchor="start" x="12.5" y="-11" font-family="arial" font-size="10.00"> java.util.Comparator&lt;T&gt; </text>
</a>
</g>
<g><a xlink:href="http://java.sun.com/j2se/1.4.2/docs/api/java/util/Comparator.html" xlink:title="&lt;TABLE&gt;">
</a>
</g>
</g>
<!-- c34&#45;&gt;c32 -->
<g id="edge1" class="edge"><title>c34:p&#45;&gt;c32:p</title>
<path fill="none" stroke="black" stroke-dasharray="5,2" d="M135.129,-20C149.108,-20 163.633,-20 176.977,-20"/>
<polygon fill="none" stroke="black" points="135.071,-16.5001 125.071,-20 135.071,-23.5001 135.071,-16.5001"/>
</g>
</g>
</svg>
