<?xml version="1.0" encoding="UTF-8" standalone="no"?>
<!DOCTYPE svg PUBLIC "-//W3C//DTD SVG 1.1//EN"
 "http://www.w3.org/Graphics/SVG/1.1/DTD/svg11.dtd">
<!-- Generated by graphviz version 2.38.0 (20140413.2041)
 -->
<!-- Title: G Pages: 1 -->
<svg width="222pt" height="102pt"
 viewBox="0.00 0.00 222.00 102.00" xmlns="http://www.w3.org/2000/svg" xmlns:xlink="http://www.w3.org/1999/xlink">
<g id="graph0" class="graph" transform="scale(1 1) rotate(0) translate(4 98)">
<title>G</title>
<polygon fill="white" stroke="none" points="-4,4 -4,-98 218,-98 218,4 -4,4"/>
<!-- c45 -->
<g id="node1" class="node"><title>c45</title>
<g id="a_node1"><a xlink:href="./PieceComposite.html" xlink:title="&lt;TABLE&gt;">
</a>
</g>
<g id="a_node1_0"><a xlink:href="./PieceComposite.html" xlink:title="tp8.PieceComposite">
<polygon fill="none" stroke="black" points="120,-58 120,-90 206,-90 206,-58 120,-58"/>
<text text-anchor="start" x="137" y="-78" font-family="arial" font-size="10.00"> «abstract» </text>
<text text-anchor="start" x="124" y="-65" font-family="arial italic" font-size="10.00"> PieceComposite </text>
</a>
</g>
<g><a xlink:href="./PieceComposite.html" xlink:title="&lt;TABLE&gt;">
</a>
</g>
</g>
<!-- c46 -->
<g id="node2" class="node"><title>c46</title>
<g id="a_node2"><a xlink:href="./PieceBasique.html" xlink:title="&lt;TABLE&gt;">
</a>
</g>
<g id="a_node2_1"><a xlink:href="./PieceBasique.html" xlink:title="tp8.PieceBasique">
<polygon fill="none" stroke="black" points="126,-8 126,-27 201,-27 201,-8 126,-8"/>
<text text-anchor="start" x="130" y="-15" font-family="arial" font-size="10.00"> PieceBasique </text>
</a>
</g>
<g><a xlink:href="./PieceBasique.html" xlink:title="&lt;TABLE&gt;">
</a>
</g>
</g>
<!-- c47 -->
<g id="node3" class="node"><title>c47</title>
<g id="a_node3"><a xlink:href="./Piece.html" xlink:title="&lt;TABLE&gt;">
</a>
</g>
<g id="a_node3_2"><a xlink:href="./Piece.html" xlink:title="tp8.Piece">
<polygon fill="lemonChiffon" stroke="none" points="8,-30 8,-62 68,-62 68,-30 8,-30"/>
<polygon fill="none" stroke="black" points="8,-30 8,-62 68,-62 68,-30 8,-30"/>
<text text-anchor="start" x="12" y="-50" font-family="arial" font-size="10.00"> «abstract» </text>
<text text-anchor="start" x="22.5" y="-37" font-family="arial italic" font-size="10.00"> Piece </text>
</a>
</g>
<g><a xlink:href="./Piece.html" xlink:title="&lt;TABLE&gt;">
</a>
</g>
</g>
<!-- c47&#45;&gt;c45 -->
<g id="edge1" class="edge"><title>c47:p&#45;&gt;c45:p</title>
<path fill="none" stroke="black" d="M77.9155,-54.8588C91.1654,-57.875 106.039,-61.261 119.552,-64.337"/>
<polygon fill="none" stroke="black" points="78.6767,-51.4426 68.1493,-52.6356 77.1229,-58.268 78.6767,-51.4426"/>
</g>
<!-- c47&#45;&gt;c46 -->
<g id="edge2" class="edge"><title>c47:p&#45;&gt;c46:p</title>
<path fill="none" stroke="black" d="M78.1755,-37.082C93.2102,-33.6595 110.304,-29.7681 125.117,-26.3962"/>
<polygon fill="none" stroke="black" points="77.1229,-33.732 68.1493,-39.3644 78.6767,-40.5574 77.1229,-33.732"/>
</g>
</g>
</svg>
