<?xml version="1.0" encoding="UTF-8" standalone="no"?>
<!DOCTYPE svg PUBLIC "-//W3C//DTD SVG 1.1//EN"
 "http://www.w3.org/Graphics/SVG/1.1/DTD/svg11.dtd">
<!-- Generated by graphviz version 2.38.0 (20140413.2041)
 -->
<!-- Title: G Pages: 1 -->
<svg width="346pt" height="98pt"
 viewBox="0.00 0.00 346.00 98.00" xmlns="http://www.w3.org/2000/svg" xmlns:xlink="http://www.w3.org/1999/xlink">
<g id="graph0" class="graph" transform="scale(1 1) rotate(0) translate(4 94)">
<title>G</title>
<polygon fill="white" stroke="none" points="-4,4 -4,-94 342,-94 342,4 -4,4"/>
<!-- c59 -->
<g id="node1" class="node"><title>c59</title>
<g id="a_node1"><a xlink:href="./PieceMontee.html" xlink:title="&lt;TABLE&gt;">
</a>
</g>
<g id="a_node1_0"><a xlink:href="./PieceMontee.html" xlink:title="tp8.PieceMontee">
<polygon fill="none" stroke="black" points="258,-62 258,-81 330,-81 330,-62 258,-62"/>
<text text-anchor="start" x="262" y="-69" font-family="arial" font-size="10.00"> PieceMontee </text>
</a>
</g>
<g><a xlink:href="./PieceMontee.html" xlink:title="&lt;TABLE&gt;">
</a>
</g>
</g>
<!-- c60 -->
<g id="node2" class="node"><title>c60</title>
<g id="a_node2"><a xlink:href="./PieceEnKit.html" xlink:title="&lt;TABLE&gt;">
</a>
</g>
<g id="a_node2_1"><a xlink:href="./PieceEnKit.html" xlink:title="tp8.PieceEnKit">
<polygon fill="none" stroke="black" points="263,-8 263,-27 326,-27 326,-8 263,-8"/>
<text text-anchor="start" x="267" y="-15" font-family="arial" font-size="10.00"> PieceEnKit </text>
</a>
</g>
<g><a xlink:href="./PieceEnKit.html" xlink:title="&lt;TABLE&gt;">
</a>
</g>
</g>
<!-- c61 -->
<g id="node3" class="node"><title>c61</title>
<g id="a_node3"><a xlink:href="./PieceComposite.html" xlink:title="&lt;TABLE&gt;">
</a>
</g>
<g id="a_node3_2"><a xlink:href="./PieceComposite.html" xlink:title="tp8.PieceComposite">
<polygon fill="lemonChiffon" stroke="none" points="120,-29 120,-61 206,-61 206,-29 120,-29"/>
<polygon fill="none" stroke="black" points="120,-29 120,-61 206,-61 206,-29 120,-29"/>
<text text-anchor="start" x="137" y="-49" font-family="arial" font-size="10.00"> «abstract» </text>
<text text-anchor="start" x="124" y="-36" font-family="arial italic" font-size="10.00"> PieceComposite </text>
</a>
</g>
<g><a xlink:href="./PieceComposite.html" xlink:title="&lt;TABLE&gt;">
</a>
</g>
</g>
<!-- c61&#45;&gt;c59 -->
<g id="edge1" class="edge"><title>c61:p&#45;&gt;c59:p</title>
<path fill="none" stroke="black" d="M216.277,-55.9418C230.312,-58.8793 245.148,-61.9845 257.995,-64.6734"/>
<polygon fill="none" stroke="black" points="216.744,-52.4638 206.239,-53.8408 215.31,-59.3153 216.744,-52.4638"/>
</g>
<!-- c61&#45;&gt;c60 -->
<g id="edge2" class="edge"><title>c61:p&#45;&gt;c60:p</title>
<path fill="none" stroke="black" d="M216.285,-34.0567C231.847,-30.7994 248.395,-27.336 262.122,-24.4629"/>
<polygon fill="none" stroke="black" points="215.31,-30.6847 206.239,-36.1592 216.744,-37.5362 215.31,-30.6847"/>
</g>
<!-- c63 -->
<g id="node4" class="node"><title>c63</title>
<g id="a_node4"><a xlink:href="./Piece.html" xlink:title="&lt;TABLE&gt;">
</a>
</g>
<g id="a_node4_3"><a xlink:href="./Piece.html" xlink:title="tp8.Piece">
<polygon fill="none" stroke="black" points="8,-29 8,-61 68,-61 68,-29 8,-29"/>
<text text-anchor="start" x="12" y="-49" font-family="arial" font-size="10.00"> «abstract» </text>
<text text-anchor="start" x="22.5" y="-36" font-family="arial italic" font-size="10.00"> Piece </text>
</a>
</g>
<g><a xlink:href="./Piece.html" xlink:title="&lt;TABLE&gt;">
</a>
</g>
</g>
<!-- c63&#45;&gt;c61 -->
<g id="edge3" class="edge"><title>c63:p&#45;&gt;c61:p</title>
<path fill="none" stroke="black" d="M78.3057,-45C91.4569,-45 106.172,-45 119.552,-45"/>
<polygon fill="none" stroke="black" points="78.1493,-41.5001 68.1493,-45 78.1492,-48.5001 78.1493,-41.5001"/>
</g>
</g>
</svg>
