<?xml version="1.0" encoding="UTF-8" standalone="no"?>
<!DOCTYPE svg PUBLIC "-//W3C//DTD SVG 1.1//EN"
 "http://www.w3.org/Graphics/SVG/1.1/DTD/svg11.dtd">
<!-- Generated by graphviz version 2.38.0 (20140413.2041)
 -->
<!-- Title: G Pages: 1 -->
<svg width="337pt" height="48pt"
 viewBox="0.00 0.00 337.00 48.00" xmlns="http://www.w3.org/2000/svg" xmlns:xlink="http://www.w3.org/1999/xlink">
<g id="graph0" class="graph" transform="scale(1 1) rotate(0) translate(4 44)">
<title>G</title>
<polygon fill="white" stroke="none" points="-4,4 -4,-44 333,-44 333,4 -4,4"/>
<!-- c24 -->
<g id="node1" class="node"><title>c24</title>
<g id="a_node1"><a xlink:href="./ComparateurDureeFabrication.html" xlink:title="&lt;TABLE&gt;">
</a>
</g>
<g id="a_node1_0"><a xlink:href="./ComparateurDureeFabrication.html" xlink:title="tp8.ComparateurDureeFabrication">
<polygon fill="lemonChiffon" stroke="none" points="177,-10.5 177,-29.5 321,-29.5 321,-10.5 177,-10.5"/>
<polygon fill="none" stroke="black" points="177,-10 177,-29 321,-29 321,-10 177,-10"/>
<text text-anchor="start" x="181" y="-17" font-family="arial" font-size="10.00"> ComparateurDureeFabrication </text>
</a>
</g>
<g><a xlink:href="./ComparateurDureeFabrication.html" xlink:title="&lt;TABLE&gt;">
</a>
</g>
</g>
<!-- c25 -->
<g id="node2" class="node"><title>c25</title>
<g id="a_node2"><a xlink:href="http://java.sun.com/j2se/1.4.2/docs/api/java/util/Comparator.html" xlink:title="&lt;TABLE&gt;">
</a>
</g>
<g id="a_node2_1"><a xlink:href="http://java.sun.com/j2se/1.4.2/docs/api/java/util/Comparator.html" xlink:title="java.util.Comparator">
<polygon fill="none" stroke="black" points="8.5,-4 8.5,-36 125.5,-36 125.5,-4 8.5,-4"/>
<text text-anchor="start" x="40" y="-24" font-family="arial" font-size="10.00"> «interface» </text>
<text text-anchor="start" x="12.5" y="-11" font-family="arial" font-size="10.00"> java.util.Comparator&lt;T&gt; </text>
</a>
</g>
<g><a xlink:href="http://java.sun.com/j2se/1.4.2/docs/api/java/util/Comparator.html" xlink:title="&lt;TABLE&gt;">
</a>
</g>
</g>
<!-- c25&#45;&gt;c24 -->
<g id="edge1" class="edge"><title>c25:p&#45;&gt;c24:p</title>
<path fill="none" stroke="black" stroke-dasharray="5,2" d="M135.288,-20C148.813,-20 163.056,-20 176.695,-20"/>
<polygon fill="none" stroke="black" points="135.108,-16.5001 125.108,-20 135.108,-23.5001 135.108,-16.5001"/>
</g>
</g>
</svg>
