<?xml version="1.0" encoding="UTF-8" standalone="no"?>
<!DOCTYPE svg PUBLIC "-//W3C//DTD SVG 1.1//EN"
 "http://www.w3.org/Graphics/SVG/1.1/DTD/svg11.dtd">
<!-- Generated by graphviz version 2.38.0 (20140413.2041)
 -->
<!-- Title: G Pages: 1 -->
<svg width="330pt" height="170pt"
 viewBox="0.00 0.00 330.00 170.00" xmlns="http://www.w3.org/2000/svg" xmlns:xlink="http://www.w3.org/1999/xlink">
<g id="graph0" class="graph" transform="scale(1 1) rotate(0) translate(4 166)">
<title>G</title>
<polygon fill="white" stroke="none" points="-4,4 -4,-166 326,-166 326,4 -4,4"/>
<!-- c45 -->
<g id="node1" class="node"><title>c45</title>
<g id="a_node1"><a xlink:href="./PieceComposite.html" xlink:title="&lt;TABLE&gt;">
</a>
</g>
<g id="a_node1_0"><a xlink:href="./PieceComposite.html" xlink:title="tp8.PieceComposite">
<polygon fill="none" stroke="black" points="155.5,-126 155.5,-158 314.5,-158 314.5,-126 155.5,-126"/>
<text text-anchor="start" x="209" y="-146" font-family="arial" font-size="10.00"> «abstract» </text>
<text text-anchor="start" x="196" y="-133" font-family="arial italic" font-size="10.00"> PieceComposite </text>
<polygon fill="none" stroke="black" points="155.5,-94 155.5,-126 314.5,-126 314.5,-94 155.5,-94"/>
<text text-anchor="start" x="159.5" y="-114" font-family="arial" font-size="10.00"> &#45; composants : ArrayList&lt;Piece&gt; </text>
<text text-anchor="start" x="159.5" y="-101" font-family="arial" font-size="10.00"> &#45; dureeMontage : int </text>
</a>
</g>
<g><a xlink:href="./PieceComposite.html" xlink:title="&lt;TABLE&gt;">
</a>
</g>
</g>
<!-- c46 -->
<g id="node2" class="node"><title>c46</title>
<g id="a_node2"><a xlink:href="./PieceBasique.html" xlink:title="&lt;TABLE&gt;">
</a>
</g>
<g id="a_node2_1"><a xlink:href="./PieceBasique.html" xlink:title="tp8.PieceBasique">
<polygon fill="none" stroke="black" points="178.5,-49 178.5,-68 290.5,-68 290.5,-49 178.5,-49"/>
<text text-anchor="start" x="201" y="-56" font-family="arial" font-size="10.00"> PieceBasique </text>
<polygon fill="none" stroke="black" points="178.5,-4 178.5,-49 290.5,-49 290.5,-4 178.5,-4"/>
<text text-anchor="start" x="182.5" y="-37" font-family="arial" font-size="10.00"> &#45; dureeGarantie : int </text>
<text text-anchor="start" x="182.5" y="-24" font-family="arial" font-size="10.00"> &#45; prix : int </text>
<text text-anchor="start" x="182.5" y="-11" font-family="arial" font-size="10.00"> &#45; dureeFabrication : int </text>
</a>
</g>
<g><a xlink:href="./PieceBasique.html" xlink:title="&lt;TABLE&gt;">
</a>
</g>
</g>
<!-- c47 -->
<g id="node3" class="node"><title>c47</title>
<g id="a_node3"><a xlink:href="./Piece.html" xlink:title="&lt;TABLE&gt;">
</a>
</g>
<g id="a_node3_2"><a xlink:href="./Piece.html" xlink:title="tp8.Piece">
<polygon fill="lemonChiffon" stroke="none" points="8,-49 8,-113 103,-113 103,-49 8,-49"/>
<polygon fill="none" stroke="black" points="8.5,-81 8.5,-113 103.5,-113 103.5,-81 8.5,-81"/>
<text text-anchor="start" x="30" y="-101" font-family="arial" font-size="10.00"> «abstract» </text>
<text text-anchor="start" x="40.5" y="-88" font-family="arial italic" font-size="10.00"> Piece </text>
<polygon fill="none" stroke="black" points="8.5,-49 8.5,-81 103.5,-81 103.5,-49 8.5,-49"/>
<text text-anchor="start" x="12.5" y="-69" font-family="arial" font-size="10.00"> &#45; nom : String </text>
<text text-anchor="start" x="12.5" y="-56" font-family="arial" font-size="10.00"> &#45; reference : String </text>
</a>
</g>
<g><a xlink:href="./Piece.html" xlink:title="&lt;TABLE&gt;">
</a>
</g>
</g>
<!-- c47&#45;&gt;c45 -->
<g id="edge1" class="edge"><title>c47:p&#45;&gt;c45:p</title>
<path fill="none" stroke="black" d="M112.946,-95.3506C126.262,-98.7361 140.698,-102.406 154.798,-105.991"/>
<polygon fill="none" stroke="black" points="113.559,-91.8952 103.005,-92.8232 111.834,-98.6794 113.559,-91.8952"/>
</g>
<!-- c47&#45;&gt;c46 -->
<g id="edge2" class="edge"><title>c47:p&#45;&gt;c46:p</title>
<path fill="none" stroke="black" d="M112.712,-66.7088C133.633,-61.39 157.343,-55.362 178.183,-50.0638"/>
<polygon fill="none" stroke="black" points="111.834,-63.3206 103.005,-69.1768 113.559,-70.1048 111.834,-63.3206"/>
</g>
</g>
</svg>
