<?xml version="1.0" encoding="UTF-8" standalone="no"?>
<!DOCTYPE svg PUBLIC "-//W3C//DTD SVG 1.1//EN"
 "http://www.w3.org/Graphics/SVG/1.1/DTD/svg11.dtd">
<!-- Generated by graphviz version 2.38.0 (20140413.2041)
 -->
<!-- Title: G Pages: 1 -->
<svg width="503pt" height="132pt"
 viewBox="0.00 0.00 503.00 131.50" xmlns="http://www.w3.org/2000/svg" xmlns:xlink="http://www.w3.org/1999/xlink">
<g id="graph0" class="graph" transform="scale(1 1) rotate(0) translate(4 127.5)">
<title>G</title>
<polygon fill="white" stroke="none" points="-4,4 -4,-127.5 499,-127.5 499,4 -4,4"/>
<!-- c59 -->
<g id="node1" class="node"><title>c59</title>
<g id="a_node1"><a xlink:href="./PieceMontee.html" xlink:title="&lt;TABLE&gt;">
</a>
</g>
<g id="a_node1_0"><a xlink:href="./PieceMontee.html" xlink:title="tp8.PieceMontee">
<polygon fill="none" stroke="black" points="375.5,-100 375.5,-119 477.5,-119 477.5,-100 375.5,-100"/>
<text text-anchor="start" x="394.5" y="-107" font-family="arial" font-size="10.00"> PieceMontee </text>
<polygon fill="none" stroke="black" points="375.5,-68 375.5,-100 477.5,-100 477.5,-68 375.5,-68"/>
<text text-anchor="start" x="379.5" y="-88" font-family="arial" font-size="10.00"> &#45; prixMontage : int </text>
<text text-anchor="start" x="379.5" y="-75" font-family="arial" font-size="10.00"> &#45; dureeMontage : int </text>
</a>
</g>
<g><a xlink:href="./PieceMontee.html" xlink:title="&lt;TABLE&gt;">
</a>
</g>
</g>
<!-- c60 -->
<g id="node2" class="node"><title>c60</title>
<g id="a_node2"><a xlink:href="./PieceEnKit.html" xlink:title="&lt;TABLE&gt;">
</a>
</g>
<g id="a_node2_1"><a xlink:href="./PieceEnKit.html" xlink:title="tp8.PieceEnKit">
<polygon fill="none" stroke="black" points="366.5,-23 366.5,-42 487.5,-42 487.5,-23 366.5,-23"/>
<text text-anchor="start" x="399.5" y="-30" font-family="arial" font-size="10.00"> PieceEnKit </text>
<polygon fill="none" stroke="black" points="366.5,-4 366.5,-23 487.5,-23 487.5,-4 366.5,-4"/>
<text text-anchor="start" x="370.5" y="-11" font-family="arial" font-size="10.00"> &#45; notice : NoticeMontage </text>
</a>
</g>
<g><a xlink:href="./PieceEnKit.html" xlink:title="&lt;TABLE&gt;">
</a>
</g>
</g>
<!-- c61 -->
<g id="node3" class="node"><title>c61</title>
<g id="a_node3"><a xlink:href="./PieceComposite.html" xlink:title="&lt;TABLE&gt;">
</a>
</g>
<g id="a_node3_2"><a xlink:href="./PieceComposite.html" xlink:title="tp8.PieceComposite">
<polygon fill="lemonChiffon" stroke="none" points="155,-26 155,-90 314,-90 314,-26 155,-26"/>
<polygon fill="none" stroke="black" points="155.5,-58 155.5,-90 314.5,-90 314.5,-58 155.5,-58"/>
<text text-anchor="start" x="209" y="-78" font-family="arial" font-size="10.00"> «abstract» </text>
<text text-anchor="start" x="196" y="-65" font-family="arial italic" font-size="10.00"> PieceComposite </text>
<polygon fill="none" stroke="black" points="155.5,-26 155.5,-58 314.5,-58 314.5,-26 155.5,-26"/>
<text text-anchor="start" x="159.5" y="-46" font-family="arial" font-size="10.00"> &#45; composants : ArrayList&lt;Piece&gt; </text>
<text text-anchor="start" x="159.5" y="-33" font-family="arial" font-size="10.00"> &#45; dureeMontage : int </text>
</a>
</g>
<g><a xlink:href="./PieceComposite.html" xlink:title="&lt;TABLE&gt;">
</a>
</g>
</g>
<!-- c61&#45;&gt;c59 -->
<g id="edge1" class="edge"><title>c61:p&#45;&gt;c59:p</title>
<path fill="none" stroke="black" d="M324.42,-74.8481C341.946,-78.1687 359.748,-81.5418 375.429,-84.5128"/>
<polygon fill="none" stroke="black" points="324.629,-71.3253 314.152,-72.9024 323.325,-78.203 324.629,-71.3253"/>
</g>
<!-- c61&#45;&gt;c60 -->
<g id="edge2" class="edge"><title>c61:p&#45;&gt;c60:p</title>
<path fill="none" stroke="black" d="M324.328,-41.6369C338.372,-39.0499 352.597,-36.4295 365.767,-34.0034"/>
<polygon fill="none" stroke="black" points="323.352,-38.2577 314.152,-43.5115 324.62,-45.1419 323.352,-38.2577"/>
</g>
<!-- c63 -->
<g id="node4" class="node"><title>c63</title>
<g id="a_node4"><a xlink:href="./Piece.html" xlink:title="&lt;TABLE&gt;">
</a>
</g>
<g id="a_node4_3"><a xlink:href="./Piece.html" xlink:title="tp8.Piece">
<polygon fill="none" stroke="black" points="8.5,-58 8.5,-90 103.5,-90 103.5,-58 8.5,-58"/>
<text text-anchor="start" x="30" y="-78" font-family="arial" font-size="10.00"> «abstract» </text>
<text text-anchor="start" x="40.5" y="-65" font-family="arial italic" font-size="10.00"> Piece </text>
<polygon fill="none" stroke="black" points="8.5,-26 8.5,-58 103.5,-58 103.5,-26 8.5,-26"/>
<text text-anchor="start" x="12.5" y="-46" font-family="arial" font-size="10.00"> &#45; nom : String </text>
<text text-anchor="start" x="12.5" y="-33" font-family="arial" font-size="10.00"> &#45; reference : String </text>
</a>
</g>
<g><a xlink:href="./Piece.html" xlink:title="&lt;TABLE&gt;">
</a>
</g>
</g>
<!-- c63&#45;&gt;c61 -->
<g id="edge3" class="edge"><title>c63:p&#45;&gt;c61:p</title>
<path fill="none" stroke="black" d="M113.338,-58C126.545,-58 140.836,-58 154.798,-58"/>
<polygon fill="none" stroke="black" points="113.005,-54.5001 103.005,-58 113.005,-61.5001 113.005,-54.5001"/>
</g>
</g>
</svg>
