<?xml version="1.0" encoding="UTF-8" standalone="no"?>
<!DOCTYPE svg PUBLIC "-//W3C//DTD SVG 1.1//EN"
 "http://www.w3.org/Graphics/SVG/1.1/DTD/svg11.dtd">
<!-- Generated by graphviz version 2.38.0 (20140413.2041)
 -->
<!-- Title: G Pages: 1 -->
<svg width="552pt" height="297pt"
 viewBox="0.00 0.00 552.00 297.00" xmlns="http://www.w3.org/2000/svg" xmlns:xlink="http://www.w3.org/1999/xlink">
<g id="graph0" class="graph" transform="scale(1 1) rotate(0) translate(4 293)">
<title>G</title>
<polygon fill="white" stroke="none" points="-4,4 -4,-293 548,-293 548,4 -4,4"/>
<!-- c0 -->
<g id="node1" class="node"><title>c0</title>
<g id="a_node1"><a xlink:href="./PieceMontee.html" xlink:title="&lt;TABLE&gt;">
</a>
</g>
<g id="a_node1_0"><a xlink:href="./PieceMontee.html" xlink:title="tp8.PieceMontee">
<polygon fill="none" stroke="black" points="424.5,-168 424.5,-187 526.5,-187 526.5,-168 424.5,-168"/>
<text text-anchor="start" x="443.5" y="-175" font-family="arial" font-size="10.00"> PieceMontee </text>
<polygon fill="none" stroke="black" points="424.5,-136 424.5,-168 526.5,-168 526.5,-136 424.5,-136"/>
<text text-anchor="start" x="428.5" y="-156" font-family="arial" font-size="10.00"> &#45; prixMontage : int </text>
<text text-anchor="start" x="428.5" y="-143" font-family="arial" font-size="10.00"> &#45; dureeMontage : int </text>
</a>
</g>
<g><a xlink:href="./PieceMontee.html" xlink:title="&lt;TABLE&gt;">
</a>
</g>
</g>
<!-- c1 -->
<g id="node2" class="node"><title>c1</title>
<g id="a_node2"><a xlink:href="./PieceEnKit.html" xlink:title="&lt;TABLE&gt;">
</a>
</g>
<g id="a_node2_1"><a xlink:href="./PieceEnKit.html" xlink:title="tp8.PieceEnKit">
<polygon fill="none" stroke="black" points="415.5,-91 415.5,-110 536.5,-110 536.5,-91 415.5,-91"/>
<text text-anchor="start" x="448.5" y="-98" font-family="arial" font-size="10.00"> PieceEnKit </text>
<polygon fill="none" stroke="black" points="415.5,-72 415.5,-91 536.5,-91 536.5,-72 415.5,-72"/>
<text text-anchor="start" x="419.5" y="-79" font-family="arial" font-size="10.00"> &#45; notice : NoticeMontage </text>
</a>
</g>
<g><a xlink:href="./PieceEnKit.html" xlink:title="&lt;TABLE&gt;">
</a>
</g>
</g>
<!-- c2 -->
<g id="node3" class="node"><title>c2</title>
<g id="a_node3"><a xlink:href="./PieceComposite.html" xlink:title="&lt;TABLE&gt;">
</a>
</g>
<g id="a_node3_2"><a xlink:href="./PieceComposite.html" xlink:title="tp8.PieceComposite">
<polygon fill="none" stroke="black" points="204.5,-126 204.5,-158 363.5,-158 363.5,-126 204.5,-126"/>
<text text-anchor="start" x="258" y="-146" font-family="arial" font-size="10.00"> «abstract» </text>
<text text-anchor="start" x="245" y="-133" font-family="arial italic" font-size="10.00"> PieceComposite </text>
<polygon fill="none" stroke="black" points="204.5,-94 204.5,-126 363.5,-126 363.5,-94 204.5,-94"/>
<text text-anchor="start" x="208.5" y="-114" font-family="arial" font-size="10.00"> &#45; composants : ArrayList&lt;Piece&gt; </text>
<text text-anchor="start" x="208.5" y="-101" font-family="arial" font-size="10.00"> &#45; dureeMontage : int </text>
</a>
</g>
<g><a xlink:href="./PieceComposite.html" xlink:title="&lt;TABLE&gt;">
</a>
</g>
</g>
<!-- c2&#45;&gt;c0 -->
<g id="edge1" class="edge"><title>c2:p&#45;&gt;c0:p</title>
<path fill="none" stroke="black" d="M373.42,-142.848C390.946,-146.169 408.748,-149.542 424.429,-152.513"/>
<polygon fill="none" stroke="black" points="373.629,-139.325 363.152,-140.902 372.325,-146.203 373.629,-139.325"/>
</g>
<!-- c2&#45;&gt;c1 -->
<g id="edge2" class="edge"><title>c2:p&#45;&gt;c1:p</title>
<path fill="none" stroke="black" d="M373.328,-109.637C387.372,-107.05 401.597,-104.43 414.767,-102.003"/>
<polygon fill="none" stroke="black" points="372.352,-106.258 363.152,-111.512 373.62,-113.142 372.352,-106.258"/>
</g>
<!-- c3 -->
<g id="node4" class="node"><title>c3</title>
<g id="a_node4"><a xlink:href="./PieceBasique.html" xlink:title="&lt;TABLE&gt;">
</a>
</g>
<g id="a_node4_3"><a xlink:href="./PieceBasique.html" xlink:title="tp8.PieceBasique">
<polygon fill="none" stroke="black" points="227.5,-49 227.5,-68 339.5,-68 339.5,-49 227.5,-49"/>
<text text-anchor="start" x="250" y="-56" font-family="arial" font-size="10.00"> PieceBasique </text>
<polygon fill="none" stroke="black" points="227.5,-4 227.5,-49 339.5,-49 339.5,-4 227.5,-4"/>
<text text-anchor="start" x="231.5" y="-37" font-family="arial" font-size="10.00"> &#45; dureeGarantie : int </text>
<text text-anchor="start" x="231.5" y="-24" font-family="arial" font-size="10.00"> &#45; prix : int </text>
<text text-anchor="start" x="231.5" y="-11" font-family="arial" font-size="10.00"> &#45; dureeFabrication : int </text>
</a>
</g>
<g><a xlink:href="./PieceBasique.html" xlink:title="&lt;TABLE&gt;">
</a>
</g>
</g>
<!-- c4 -->
<g id="node5" class="node"><title>c4</title>
<g id="a_node5"><a xlink:href="./Piece.html" xlink:title="&lt;TABLE&gt;">
</a>
</g>
<g id="a_node5_4"><a xlink:href="./Piece.html" xlink:title="tp8.Piece">
<polygon fill="none" stroke="black" points="33,-81 33,-113 128,-113 128,-81 33,-81"/>
<text text-anchor="start" x="54.5" y="-101" font-family="arial" font-size="10.00"> «abstract» </text>
<text text-anchor="start" x="65" y="-88" font-family="arial italic" font-size="10.00"> Piece </text>
<polygon fill="none" stroke="black" points="33,-49 33,-81 128,-81 128,-49 33,-49"/>
<text text-anchor="start" x="37" y="-69" font-family="arial" font-size="10.00"> &#45; nom : String </text>
<text text-anchor="start" x="37" y="-56" font-family="arial" font-size="10.00"> &#45; reference : String </text>
</a>
</g>
<g><a xlink:href="./Piece.html" xlink:title="&lt;TABLE&gt;">
</a>
</g>
</g>
<!-- c4&#45;&gt;c2 -->
<g id="edge3" class="edge"><title>c4:p&#45;&gt;c2:p</title>
<path fill="none" stroke="black" d="M137.534,-93.6255C158.035,-98.2039 181.583,-103.463 203.657,-108.392"/>
<polygon fill="none" stroke="black" points="138.257,-90.2008 127.735,-91.437 136.731,-97.0325 138.257,-90.2008"/>
</g>
<!-- c4&#45;&gt;c3 -->
<g id="edge4" class="edge"><title>c4:p&#45;&gt;c3:p</title>
<path fill="none" stroke="black" d="M137.799,-68.3153C165.872,-62.046 199.607,-54.5122 227.439,-48.2964"/>
<polygon fill="none" stroke="black" points="136.731,-64.9675 127.735,-70.563 138.257,-71.7992 136.731,-64.9675"/>
</g>
<!-- c5 -->
<g id="node6" class="node"><title>c5</title>
<g id="a_node6"><a xlink:href="./NoticeMontage.html" xlink:title="&lt;TABLE&gt;">
</a>
</g>
<g id="a_node6_5"><a xlink:href="./NoticeMontage.html" xlink:title="tp8.NoticeMontage">
<polygon fill="none" stroke="black" points="26,-158 26,-177 134,-177 134,-158 26,-158"/>
<text text-anchor="start" x="44" y="-165" font-family="arial" font-size="10.00"> NoticeMontage </text>
<polygon fill="none" stroke="black" points="26,-139 26,-158 134,-158 134,-139 26,-139"/>
<text text-anchor="start" x="30" y="-146" font-family="arial" font-size="10.00"> ~ instructions : String </text>
</a>
</g>
<g><a xlink:href="./NoticeMontage.html" xlink:title="&lt;TABLE&gt;">
</a>
</g>
</g>
<!-- c6 -->
<g id="node7" class="node"><title>c6</title>
<g id="a_node7"><a xlink:href="./ComparateurGarantie.html" xlink:title="&lt;TABLE&gt;">
</a>
</g>
<g id="a_node7_6"><a xlink:href="./ComparateurGarantie.html" xlink:title="tp8.ComparateurGarantie">
<polygon fill="none" stroke="black" points="27,-207 27,-226 134,-226 134,-207 27,-207"/>
<text text-anchor="start" x="31" y="-214" font-family="arial" font-size="10.00"> ComparateurGarantie </text>
</a>
</g>
<g><a xlink:href="./ComparateurGarantie.html" xlink:title="&lt;TABLE&gt;">
</a>
</g>
</g>
<!-- c7 -->
<g id="node8" class="node"><title>c7</title>
<g id="a_node8"><a xlink:href="./ComparateurDureeFabrication.html" xlink:title="&lt;TABLE&gt;">
</a>
</g>
<g id="a_node8_7"><a xlink:href="./ComparateurDureeFabrication.html" xlink:title="tp8.ComparateurDureeFabrication">
<polygon fill="none" stroke="black" points="8,-261 8,-280 152,-280 152,-261 8,-261"/>
<text text-anchor="start" x="12" y="-268" font-family="arial" font-size="10.00"> ComparateurDureeFabrication </text>
</a>
</g>
<g><a xlink:href="./ComparateurDureeFabrication.html" xlink:title="&lt;TABLE&gt;">
</a>
</g>
</g>
</g>
</svg>
