<?xml version="1.0" encoding="UTF-8" standalone="no"?>
<!DOCTYPE svg PUBLIC "-//W3C//DTD SVG 1.1//EN"
 "http://www.w3.org/Graphics/SVG/1.1/DTD/svg11.dtd">
<!-- Generated by graphviz version 2.38.0 (20140413.2041)
 -->
<!-- Title: G Pages: 1 -->
<svg width="712pt" height="359pt"
 viewBox="0.00 0.00 712.00 359.00" xmlns="http://www.w3.org/2000/svg" xmlns:xlink="http://www.w3.org/1999/xlink">
<g id="graph0" class="graph" transform="scale(1 1) rotate(0) translate(4 355)">
<title>G</title>
<polygon fill="white" stroke="none" points="-4,4 -4,-355 708,-355 708,4 -4,4"/>
<!-- c54 -->
<g id="node1" class="node"><title>c54</title>
<g id="a_node1"><a xlink:href="./PieceBasique.html" xlink:title="&lt;TABLE&gt;">
</a>
</g>
<g id="a_node1_0"><a xlink:href="./PieceBasique.html" xlink:title="tp8.PieceBasique">
<polygon fill="lemonChiffon" stroke="none" points="248,-49.5 248,-301.5 696,-301.5 696,-49.5 248,-49.5"/>
<polygon fill="none" stroke="black" points="248,-282.5 248,-301.5 696,-301.5 696,-282.5 248,-282.5"/>
<text text-anchor="start" x="438.5" y="-289.5" font-family="arial" font-size="10.00"> PieceBasique </text>
<polygon fill="none" stroke="black" points="248,-237.5 248,-282.5 696,-282.5 696,-237.5 248,-237.5"/>
<text text-anchor="start" x="252" y="-270.5" font-family="arial" font-size="10.00"> &#45; dureeGarantie : int </text>
<text text-anchor="start" x="252" y="-257.5" font-family="arial" font-size="10.00"> &#45; prix : int </text>
<text text-anchor="start" x="252" y="-244.5" font-family="arial" font-size="10.00"> &#45; dureeFabrication : int </text>
<polygon fill="none" stroke="black" points="248,-49.5 248,-237.5 696,-237.5 696,-49.5 248,-49.5"/>
<text text-anchor="start" x="252" y="-225.5" font-family="arial" font-size="10.00"> «create» </text>
<text text-anchor="start" x="252" y="-212.5" font-family="arial" font-size="10.00"> + PieceBasique(nom : String, reference : String, prix : int, dureeFabrication : int, dureeGarantie : int) </text>
<text text-anchor="start" x="252" y="-199.5" font-family="arial" font-size="10.00"> «create» </text>
<text text-anchor="start" x="252" y="-186.5" font-family="arial" font-size="10.00"> + PieceBasique(nom : String) </text>
<text text-anchor="start" x="252" y="-173.5" font-family="arial" font-size="10.00"> + dureeFabrication() : int </text>
<text text-anchor="start" x="252" y="-160.5" font-family="arial" font-size="10.00"> + getPrix() : int </text>
<text text-anchor="start" x="252" y="-147.5" font-family="arial" font-size="10.00"> + setPrix(prix : int) </text>
<text text-anchor="start" x="252" y="-134.5" font-family="arial" font-size="10.00"> + dureeGarantie() : int </text>
<text text-anchor="start" x="252" y="-121.5" font-family="arial" font-size="10.00"> + prix() : int </text>
<text text-anchor="start" x="252" y="-108.5" font-family="arial" font-size="10.00"> # getPrefixe() : String </text>
<text text-anchor="start" x="252" y="-95.5" font-family="arial" font-size="10.00"> + getDureeGarantie() : int </text>
<text text-anchor="start" x="252" y="-82.5" font-family="arial" font-size="10.00"> + setDureeGarantie(dureeGarantie : int) </text>
<text text-anchor="start" x="252" y="-69.5" font-family="arial" font-size="10.00"> + getDureeFabrication() : int </text>
<text text-anchor="start" x="252" y="-56.5" font-family="arial" font-size="10.00"> + setDureeFabrication(dureeFabrication : int) </text>
</a>
</g>
<g><a xlink:href="./PieceBasique.html" xlink:title="&lt;TABLE&gt;">
</a>
</g>
</g>
<!-- c55 -->
<g id="node2" class="node"><title>c55</title>
<g id="a_node2"><a xlink:href="./Piece.html" xlink:title="&lt;TABLE&gt;">
</a>
</g>
<g id="a_node2_1"><a xlink:href="./Piece.html" xlink:title="tp8.Piece">
<polygon fill="none" stroke="black" points="8,-314.5 8,-346.5 196,-346.5 196,-314.5 8,-314.5"/>
<text text-anchor="start" x="76" y="-334.5" font-family="arial" font-size="10.00"> «abstract» </text>
<text text-anchor="start" x="86.5" y="-321.5" font-family="arial italic" font-size="10.00"> Piece </text>
<polygon fill="none" stroke="black" points="8,-282.5 8,-314.5 196,-314.5 196,-282.5 8,-282.5"/>
<text text-anchor="start" x="12" y="-302.5" font-family="arial" font-size="10.00"> &#45; nom : String </text>
<text text-anchor="start" x="12" y="-289.5" font-family="arial" font-size="10.00"> &#45; reference : String </text>
<polygon fill="none" stroke="black" points="8,-3.5 8,-282.5 196,-282.5 196,-3.5 8,-3.5"/>
<text text-anchor="start" x="12" y="-270.5" font-family="arial" font-size="10.00"> «create» </text>
<text text-anchor="start" x="12" y="-257.5" font-family="arial" font-size="10.00"> + Piece(nom : String, reference : String) </text>
<text text-anchor="start" x="12" y="-244.5" font-family="arial" font-size="10.00"> «create» </text>
<text text-anchor="start" x="12" y="-231.5" font-family="arial" font-size="10.00"> + Piece(nom : String) </text>
<text text-anchor="start" x="12" y="-218.5" font-family="arial" font-size="10.00"> «abstract» </text>
<text text-anchor="start" x="12" y="-205.5" font-family="arial italic" font-size="10.00"> + prix() : int </text>
<text text-anchor="start" x="12" y="-192.5" font-family="arial" font-size="10.00"> «abstract» </text>
<text text-anchor="start" x="12" y="-179.5" font-family="arial italic" font-size="10.00"> + dureeGarantie() : int </text>
<text text-anchor="start" x="12" y="-166.5" font-family="arial" font-size="10.00"> «abstract» </text>
<text text-anchor="start" x="12" y="-153.5" font-family="arial italic" font-size="10.00"> + dureeFabrication() : int </text>
<text text-anchor="start" x="12" y="-140.5" font-family="arial" font-size="10.00"> «abstract» </text>
<text text-anchor="start" x="12" y="-127.5" font-family="arial italic" font-size="10.00"> # getPrefixe() : String </text>
<text text-anchor="start" x="12" y="-114.5" font-family="arial" font-size="10.00"> + affiche() </text>
<text text-anchor="start" x="12" y="-101.5" font-family="arial" font-size="10.00"> + toString(i : int) : String </text>
<text text-anchor="start" x="12" y="-88.5" font-family="arial" font-size="10.00"> + toString() : String </text>
<text text-anchor="start" x="12" y="-75.5" font-family="arial" font-size="10.00"> # indentation(i : int) : String </text>
<text text-anchor="start" x="12" y="-62.5" font-family="arial" font-size="10.00"> + nouvelleReference() : String </text>
<text text-anchor="start" x="12" y="-49.5" font-family="arial" font-size="10.00"> + getReference() : String </text>
<text text-anchor="start" x="12" y="-36.5" font-family="arial" font-size="10.00"> + setReference(reference : String) </text>
<text text-anchor="start" x="12" y="-23.5" font-family="arial" font-size="10.00"> + getNom() : String </text>
<text text-anchor="start" x="12" y="-10.5" font-family="arial" font-size="10.00"> + setNom(nom : String) </text>
</a>
</g>
<g><a xlink:href="./Piece.html" xlink:title="&lt;TABLE&gt;">
</a>
</g>
</g>
<!-- c55&#45;&gt;c54 -->
<g id="edge1" class="edge"><title>c55:p&#45;&gt;c54:p</title>
<path fill="none" stroke="black" d="M206.348,-175.5C219.624,-175.5 233.598,-175.5 247.903,-175.5"/>
<polygon fill="none" stroke="black" points="206.338,-172 196.338,-175.5 206.338,-179 206.338,-172"/>
</g>
</g>
</svg>
