<?xml version="1.0" encoding="UTF-8" standalone="no"?>
<!DOCTYPE svg PUBLIC "-//W3C//DTD SVG 1.1//EN"
 "http://www.w3.org/Graphics/SVG/1.1/DTD/svg11.dtd">
<!-- Generated by graphviz version 2.38.0 (20140413.2041)
 -->
<!-- Title: G Pages: 1 -->
<svg width="783pt" height="825pt"
 viewBox="0.00 0.00 783.00 825.00" xmlns="http://www.w3.org/2000/svg" xmlns:xlink="http://www.w3.org/1999/xlink">
<g id="graph0" class="graph" transform="scale(1 1) rotate(0) translate(4 821)">
<title>G</title>
<polygon fill="white" stroke="none" points="-4,4 -4,-821 779,-821 779,4 -4,4"/>
<!-- c100 -->
<g id="node1" class="node"><title>c100</title>
<g id="a_node1"><a xlink:href="./PieceMontee.html" xlink:title="&lt;TABLE&gt;">
</a>
</g>
<g id="a_node1_0"><a xlink:href="./PieceMontee.html" xlink:title="tp8.PieceMontee">
<polygon fill="none" stroke="black" points="381,-793.5 381,-812.5 767,-812.5 767,-793.5 381,-793.5"/>
<text text-anchor="start" x="542" y="-800.5" font-family="arial" font-size="10.00"> PieceMontee </text>
<polygon fill="none" stroke="black" points="381,-774.5 381,-793.5 767,-793.5 767,-774.5 381,-774.5"/>
<text text-anchor="start" x="385" y="-781.5" font-family="arial" font-size="10.00"> &#45; prixMontage : int </text>
<polygon fill="none" stroke="black" points="381,-599.5 381,-774.5 767,-774.5 767,-599.5 381,-599.5"/>
<text text-anchor="start" x="385" y="-762.5" font-family="arial" font-size="10.00"> «create» </text>
<text text-anchor="start" x="385" y="-749.5" font-family="arial" font-size="10.00"> + PieceMontee(nom : String) </text>
<text text-anchor="start" x="385" y="-736.5" font-family="arial" font-size="10.00"> «create» </text>
<text text-anchor="start" x="385" y="-723.5" font-family="arial" font-size="10.00"> + PieceMontee(nom : String, reference : String) </text>
<text text-anchor="start" x="385" y="-710.5" font-family="arial" font-size="10.00"> «create» </text>
<text text-anchor="start" x="385" y="-697.5" font-family="arial" font-size="10.00"> + PieceMontee(nom : String, reference : String, prixMontage : int, dureeMontage : int) </text>
<text text-anchor="start" x="385" y="-684.5" font-family="arial" font-size="10.00"> + dureeGarantie() : int </text>
<text text-anchor="start" x="385" y="-671.5" font-family="arial" font-size="10.00"> + dureeFabrication() : int </text>
<text text-anchor="start" x="385" y="-658.5" font-family="arial" font-size="10.00"> + prix() : int </text>
<text text-anchor="start" x="385" y="-645.5" font-family="arial" font-size="10.00"> + afficheInfoSupplementaires() </text>
<text text-anchor="start" x="385" y="-632.5" font-family="arial" font-size="10.00"> + getPrefixe() : String </text>
<text text-anchor="start" x="385" y="-619.5" font-family="arial" font-size="10.00"> + getPrixMontage() : int </text>
<text text-anchor="start" x="385" y="-606.5" font-family="arial" font-size="10.00"> + setPrixMontage(prixMontage : int) </text>
</a>
</g>
<g><a xlink:href="./PieceMontee.html" xlink:title="&lt;TABLE&gt;">
</a>
</g>
</g>
<!-- c101 -->
<g id="node2" class="node"><title>c101</title>
<g id="a_node2"><a xlink:href="./PieceEnKit.html" xlink:title="&lt;TABLE&gt;">
</a>
</g>
<g id="a_node2_1"><a xlink:href="./PieceEnKit.html" xlink:title="tp8.PieceEnKit">
<polygon fill="none" stroke="black" points="468,-554.5 468,-573.5 680,-573.5 680,-554.5 468,-554.5"/>
<text text-anchor="start" x="546.5" y="-561.5" font-family="arial" font-size="10.00"> PieceEnKit </text>
<polygon fill="none" stroke="black" points="468,-535.5 468,-554.5 680,-554.5 680,-535.5 468,-535.5"/>
<text text-anchor="start" x="472" y="-542.5" font-family="arial" font-size="10.00"> &#45; notice : NoticeMontage </text>
<polygon fill="none" stroke="black" points="468,-399.5 468,-535.5 680,-535.5 680,-399.5 468,-399.5"/>
<text text-anchor="start" x="472" y="-523.5" font-family="arial" font-size="10.00"> «create» </text>
<text text-anchor="start" x="472" y="-510.5" font-family="arial" font-size="10.00"> + PieceEnKit(nom : String) </text>
<text text-anchor="start" x="472" y="-497.5" font-family="arial" font-size="10.00"> + PieceEnKit(nom : String, reference : String) </text>
<text text-anchor="start" x="472" y="-484.5" font-family="arial" font-size="10.00"> + getNotice() : NoticeMontage </text>
<text text-anchor="start" x="472" y="-471.5" font-family="arial" font-size="10.00"> + setNotice(notice : NoticeMontage) </text>
<text text-anchor="start" x="472" y="-458.5" font-family="arial" font-size="10.00"> + dureeGarantie() : int </text>
<text text-anchor="start" x="472" y="-445.5" font-family="arial" font-size="10.00"> + dureeFabrication() : int </text>
<text text-anchor="start" x="472" y="-432.5" font-family="arial" font-size="10.00"> + afficheInfoSupplementaires() </text>
<text text-anchor="start" x="472" y="-419.5" font-family="arial" font-size="10.00"> &#45; dureeMontage() : String </text>
<text text-anchor="start" x="472" y="-406.5" font-family="arial" font-size="10.00"> + getPrefixe() : String </text>
</a>
</g>
<g><a xlink:href="./PieceEnKit.html" xlink:title="&lt;TABLE&gt;">
</a>
</g>
</g>
<!-- c102 -->
<g id="node3" class="node"><title>c102</title>
<g id="a_node3"><a xlink:href="./PieceComposite.html" xlink:title="&lt;TABLE&gt;">
</a>
</g>
<g id="a_node3_2"><a xlink:href="./PieceComposite.html" xlink:title="tp8.PieceComposite">
<polygon fill="lemonChiffon" stroke="none" points="8,-185.5 8,-489.5 329,-489.5 329,-185.5 8,-185.5"/>
<polygon fill="none" stroke="black" points="8.5,-457.5 8.5,-489.5 329.5,-489.5 329.5,-457.5 8.5,-457.5"/>
<text text-anchor="start" x="143" y="-477.5" font-family="arial" font-size="10.00"> «abstract» </text>
<text text-anchor="start" x="130" y="-464.5" font-family="arial italic" font-size="10.00"> PieceComposite </text>
<polygon fill="none" stroke="black" points="8.5,-438.5 8.5,-457.5 329.5,-457.5 329.5,-438.5 8.5,-438.5"/>
<text text-anchor="start" x="12.5" y="-445.5" font-family="arial" font-size="10.00"> &#45; dureeMontage : int </text>
<polygon fill="none" stroke="black" points="8.5,-185.5 8.5,-438.5 329.5,-438.5 329.5,-185.5 8.5,-185.5"/>
<text text-anchor="start" x="12.5" y="-426.5" font-family="arial" font-size="10.00"> «create» </text>
<text text-anchor="start" x="12.5" y="-413.5" font-family="arial" font-size="10.00"> + PieceComposite(nom : String) </text>
<text text-anchor="start" x="12.5" y="-400.5" font-family="arial" font-size="10.00"> «create» </text>
<text text-anchor="start" x="12.5" y="-387.5" font-family="arial" font-size="10.00"> + PieceComposite(nom : String, reference : String) </text>
<text text-anchor="start" x="12.5" y="-374.5" font-family="arial" font-size="10.00"> «create» </text>
<text text-anchor="start" x="12.5" y="-361.5" font-family="arial" font-size="10.00"> + PieceComposite(nom : String, reference : String, dureeMontage : int) </text>
<text text-anchor="start" x="12.5" y="-348.5" font-family="arial" font-size="10.00"> + getComposants() : ArrayList&lt;Piece&gt; </text>
<text text-anchor="start" x="12.5" y="-335.5" font-family="arial" font-size="10.00"> + setComposants(composants : ArrayList&lt;Piece&gt;) </text>
<text text-anchor="start" x="12.5" y="-322.5" font-family="arial" font-size="10.00"> + getDureeMontage() : int </text>
<text text-anchor="start" x="12.5" y="-309.5" font-family="arial" font-size="10.00"> + setDureeMontage(dureeMontage : int) </text>
<text text-anchor="start" x="12.5" y="-296.5" font-family="arial" font-size="10.00"> + ajoute(p : Piece) </text>
<text text-anchor="start" x="12.5" y="-283.5" font-family="arial" font-size="10.00"> + toString(i : int) : String </text>
<text text-anchor="start" x="12.5" y="-270.5" font-family="arial" font-size="10.00"> + toString() : String </text>
<text text-anchor="start" x="12.5" y="-257.5" font-family="arial" font-size="10.00"> «abstract» </text>
<text text-anchor="start" x="12.5" y="-244.5" font-family="arial italic" font-size="10.00"> + afficheInfoSupplementaires() </text>
<text text-anchor="start" x="12.5" y="-231.5" font-family="arial" font-size="10.00"> # plusFaibleGarantie() : Piece </text>
<text text-anchor="start" x="12.5" y="-218.5" font-family="arial" font-size="10.00"> # plusGrandeDureeFabrication() : Piece </text>
<text text-anchor="start" x="12.5" y="-205.5" font-family="arial" font-size="10.00"> + affiche() </text>
<text text-anchor="start" x="12.5" y="-192.5" font-family="arial" font-size="10.00"> + prix() : int </text>
</a>
</g>
<g><a xlink:href="./PieceComposite.html" xlink:title="&lt;TABLE&gt;">
</a>
</g>
</g>
<!-- c102&#45;&gt;c100 -->
<g id="edge1" class="edge"><title>c102:p&#45;&gt;c100:p</title>
<path fill="none" stroke="black" d="M286.49,-497.562C313.084,-528.888 342.537,-560.156 373,-586.5 378.207,-591.003 383.604,-595.437 389.143,-599.791"/>
<polygon fill="none" stroke="black" points="288.908,-494.999 279.792,-489.599 283.551,-499.505 288.908,-494.999"/>
</g>
<!-- c102&#45;&gt;c101 -->
<g id="edge2" class="edge"><title>c102:p&#45;&gt;c101:p</title>
<path fill="none" stroke="black" d="M338.853,-400.037C382.585,-416.186 428.402,-433.105 467.794,-447.651"/>
<polygon fill="none" stroke="black" points="339.857,-396.677 329.264,-396.496 337.432,-403.243 339.857,-396.677"/>
</g>
<!-- c104 -->
<g id="node4" class="node"><title>c104</title>
<g id="a_node4"><a xlink:href="./Piece.html" xlink:title="&lt;TABLE&gt;">
</a>
</g>
<g id="a_node4_3"><a xlink:href="./Piece.html" xlink:title="tp8.Piece">
<polygon fill="none" stroke="black" points="480,-340.5 480,-372.5 668,-372.5 668,-340.5 480,-340.5"/>
<text text-anchor="start" x="548" y="-360.5" font-family="arial" font-size="10.00"> «abstract» </text>
<text text-anchor="start" x="558.5" y="-347.5" font-family="arial italic" font-size="10.00"> Piece </text>
<polygon fill="none" stroke="black" points="480,-295.5 480,-340.5 668,-340.5 668,-295.5 480,-295.5"/>
<text text-anchor="start" x="484" y="-328.5" font-family="arial" font-size="10.00"> &#45; compteurReference : int </text>
<text text-anchor="start" x="484" y="-315.5" font-family="arial" font-size="10.00"> &#45; nom : String </text>
<text text-anchor="start" x="484" y="-302.5" font-family="arial" font-size="10.00"> &#45; reference : String </text>
<polygon fill="none" stroke="black" points="480,-3.5 480,-295.5 668,-295.5 668,-3.5 480,-3.5"/>
<text text-anchor="start" x="484" y="-283.5" font-family="arial" font-size="10.00"> «create» </text>
<text text-anchor="start" x="484" y="-270.5" font-family="arial" font-size="10.00"> + Piece(nom : String, reference : String) </text>
<text text-anchor="start" x="484" y="-257.5" font-family="arial" font-size="10.00"> «create» </text>
<text text-anchor="start" x="484" y="-244.5" font-family="arial" font-size="10.00"> + Piece(nom : String) </text>
<text text-anchor="start" x="484" y="-231.5" font-family="arial" font-size="10.00"> «abstract» </text>
<text text-anchor="start" x="484" y="-218.5" font-family="arial italic" font-size="10.00"> + prix() : int </text>
<text text-anchor="start" x="484" y="-205.5" font-family="arial" font-size="10.00"> «abstract» </text>
<text text-anchor="start" x="484" y="-192.5" font-family="arial italic" font-size="10.00"> + dureeGarantie() : int </text>
<text text-anchor="start" x="484" y="-179.5" font-family="arial" font-size="10.00"> «abstract» </text>
<text text-anchor="start" x="484" y="-166.5" font-family="arial italic" font-size="10.00"> + dureeFabrication() : int </text>
<text text-anchor="start" x="484" y="-153.5" font-family="arial" font-size="10.00"> «abstract» </text>
<text text-anchor="start" x="484" y="-140.5" font-family="arial italic" font-size="10.00"> + getPrefixe() : String </text>
<text text-anchor="start" x="484" y="-127.5" font-family="arial" font-size="10.00"> + affiche() </text>
<text text-anchor="start" x="484" y="-114.5" font-family="arial" font-size="10.00"> + toString(i : int) : String </text>
<text text-anchor="start" x="484" y="-101.5" font-family="arial" font-size="10.00"> + toString() : String </text>
<text text-anchor="start" x="484" y="-88.5" font-family="arial" font-size="10.00"> # indentation(i : int) : String </text>
<text text-anchor="start" x="484" y="-75.5" font-family="arial" font-size="10.00"> + nouvelleReference() : String </text>
<text text-anchor="start" x="484" y="-62.5" font-family="arial" font-size="10.00"> + getReference() : String </text>
<text text-anchor="start" x="484" y="-49.5" font-family="arial" font-size="10.00"> + setReference(reference : String) </text>
<text text-anchor="start" x="484" y="-36.5" font-family="arial" font-size="10.00"> + getNom() : String </text>
<text text-anchor="start" x="484" y="-23.5" font-family="arial" font-size="10.00"> + setNom(nom : String) </text>
<text text-anchor="start" x="484" y="-10.5" font-family="arial" font-size="10.00"> + compareTo(p : Piece) : int </text>
</a>
</g>
<g><a xlink:href="./Piece.html" xlink:title="&lt;TABLE&gt;">
</a>
</g>
</g>
<!-- c102&#45;&gt;c104 -->
<g id="edge4" class="edge"><title>c102:p&#45;&gt;c104:p</title>
<path fill="none" stroke="black" d="M340.692,-267.603C388.423,-249.76 438.49,-231.568 479.871,-217.098"/>
<polygon fill="black" stroke="black" points="340.501,-267.675 336.286,-273.526 329.264,-271.886 333.478,-266.035 340.501,-267.675"/>
<text text-anchor="middle" x="471.871" y="-209.098" font-family="arial" font-size="10.00">1..*</text>
<text text-anchor="middle" x="326.264" y="-263.886" font-family="arial" font-size="10.00">1</text>
</g>
<!-- c104&#45;&gt;c102 -->
<g id="edge3" class="edge"><title>c104:p&#45;&gt;c102:p</title>
<path fill="none" stroke="black" d="M470.297,-232.393C427.481,-248.939 376.749,-267.89 329.264,-285.123"/>
<polygon fill="none" stroke="black" points="471.812,-235.559 479.871,-228.682 469.282,-229.033 471.812,-235.559"/>
</g>
</g>
</svg>
