<?xml version="1.0" encoding="UTF-8" standalone="no"?>
<!DOCTYPE svg PUBLIC "-//W3C//DTD SVG 1.1//EN"
 "http://www.w3.org/Graphics/SVG/1.1/DTD/svg11.dtd">
<!-- Generated by graphviz version 2.38.0 (20140413.2041)
 -->
<!-- Title: G Pages: 1 -->
<svg width="712pt" height="624pt"
 viewBox="0.00 0.00 712.00 624.00" xmlns="http://www.w3.org/2000/svg" xmlns:xlink="http://www.w3.org/1999/xlink">
<g id="graph0" class="graph" transform="scale(1 1) rotate(0) translate(4 620)">
<title>G</title>
<polygon fill="white" stroke="none" points="-4,4 -4,-620 708,-620 708,4 -4,4"/>
<!-- c45 -->
<g id="node1" class="node"><title>c45</title>
<g id="a_node1"><a xlink:href="./PieceComposite.html" xlink:title="&lt;TABLE&gt;">
</a>
</g>
<g id="a_node1_0"><a xlink:href="./PieceComposite.html" xlink:title="tp8.PieceComposite">
<polygon fill="none" stroke="black" points="312,-580 312,-612 633,-612 633,-580 312,-580"/>
<text text-anchor="start" x="446.5" y="-600" font-family="arial" font-size="10.00"> «abstract» </text>
<text text-anchor="start" x="433.5" y="-587" font-family="arial italic" font-size="10.00"> PieceComposite </text>
<polygon fill="none" stroke="black" points="312,-548 312,-580 633,-580 633,-548 312,-548"/>
<text text-anchor="start" x="316" y="-568" font-family="arial" font-size="10.00"> &#45; composants : ArrayList&lt;Piece&gt; </text>
<text text-anchor="start" x="316" y="-555" font-family="arial" font-size="10.00"> &#45; dureeMontage : int </text>
<polygon fill="none" stroke="black" points="312,-282 312,-548 633,-548 633,-282 312,-282"/>
<text text-anchor="start" x="316" y="-536" font-family="arial" font-size="10.00"> «create» </text>
<text text-anchor="start" x="316" y="-523" font-family="arial" font-size="10.00"> + PieceComposite(nom : String) </text>
<text text-anchor="start" x="316" y="-510" font-family="arial" font-size="10.00"> «create» </text>
<text text-anchor="start" x="316" y="-497" font-family="arial" font-size="10.00"> + PieceComposite(nom : String, reference : String) </text>
<text text-anchor="start" x="316" y="-484" font-family="arial" font-size="10.00"> «create» </text>
<text text-anchor="start" x="316" y="-471" font-family="arial" font-size="10.00"> + PieceComposite(nom : String, reference : String, dureeMontage : int) </text>
<text text-anchor="start" x="316" y="-458" font-family="arial" font-size="10.00"> + getComposants() : ArrayList&lt;Piece&gt; </text>
<text text-anchor="start" x="316" y="-445" font-family="arial" font-size="10.00"> + setComposants(composants : ArrayList&lt;Piece&gt;) </text>
<text text-anchor="start" x="316" y="-432" font-family="arial" font-size="10.00"> + getDureeMontage() : int </text>
<text text-anchor="start" x="316" y="-419" font-family="arial" font-size="10.00"> + setDureeMontage(dureeMontage : int) </text>
<text text-anchor="start" x="316" y="-406" font-family="arial" font-size="10.00"> + ajoute(p : Piece) </text>
<text text-anchor="start" x="316" y="-393" font-family="arial" font-size="10.00"> + toString(i : int) : String </text>
<text text-anchor="start" x="316" y="-380" font-family="arial" font-size="10.00"> + toString() : String </text>
<text text-anchor="start" x="316" y="-367" font-family="arial" font-size="10.00"> «abstract» </text>
<text text-anchor="start" x="316" y="-354" font-family="arial italic" font-size="10.00"> + afficheInfoSupplementaires() </text>
<text text-anchor="start" x="316" y="-341" font-family="arial" font-size="10.00"> # plusFaibleGarantie() : Piece </text>
<text text-anchor="start" x="316" y="-328" font-family="arial" font-size="10.00"> # plusGrandeDureeFabrication() : Piece </text>
<text text-anchor="start" x="316" y="-315" font-family="arial" font-size="10.00"> + affiche() </text>
<text text-anchor="start" x="316" y="-302" font-family="arial" font-size="10.00"> + prix() : int </text>
<text text-anchor="start" x="316" y="-289" font-family="arial" font-size="10.00"> + main(args : String[]) </text>
</a>
</g>
<g><a xlink:href="./PieceComposite.html" xlink:title="&lt;TABLE&gt;">
</a>
</g>
</g>
<!-- c46 -->
<g id="node2" class="node"><title>c46</title>
<g id="a_node2"><a xlink:href="./PieceBasique.html" xlink:title="&lt;TABLE&gt;">
</a>
</g>
<g id="a_node2_1"><a xlink:href="./PieceBasique.html" xlink:title="tp8.PieceBasique">
<polygon fill="none" stroke="black" points="248,-237 248,-256 696,-256 696,-237 248,-237"/>
<text text-anchor="start" x="438.5" y="-244" font-family="arial" font-size="10.00"> PieceBasique </text>
<polygon fill="none" stroke="black" points="248,-192 248,-237 696,-237 696,-192 248,-192"/>
<text text-anchor="start" x="252" y="-225" font-family="arial" font-size="10.00"> &#45; dureeGarantie : int </text>
<text text-anchor="start" x="252" y="-212" font-family="arial" font-size="10.00"> &#45; prix : int </text>
<text text-anchor="start" x="252" y="-199" font-family="arial" font-size="10.00"> &#45; dureeFabrication : int </text>
<polygon fill="none" stroke="black" points="248,-4 248,-192 696,-192 696,-4 248,-4"/>
<text text-anchor="start" x="252" y="-180" font-family="arial" font-size="10.00"> «create» </text>
<text text-anchor="start" x="252" y="-167" font-family="arial" font-size="10.00"> + PieceBasique(nom : String, reference : String, prix : int, dureeFabrication : int, dureeGarantie : int) </text>
<text text-anchor="start" x="252" y="-154" font-family="arial" font-size="10.00"> «create» </text>
<text text-anchor="start" x="252" y="-141" font-family="arial" font-size="10.00"> + PieceBasique(nom : String) </text>
<text text-anchor="start" x="252" y="-128" font-family="arial" font-size="10.00"> + dureeFabrication() : int </text>
<text text-anchor="start" x="252" y="-115" font-family="arial" font-size="10.00"> + getPrix() : int </text>
<text text-anchor="start" x="252" y="-102" font-family="arial" font-size="10.00"> + setPrix(prix : int) </text>
<text text-anchor="start" x="252" y="-89" font-family="arial" font-size="10.00"> + dureeGarantie() : int </text>
<text text-anchor="start" x="252" y="-76" font-family="arial" font-size="10.00"> + prix() : int </text>
<text text-anchor="start" x="252" y="-63" font-family="arial" font-size="10.00"> # getPrefixe() : String </text>
<text text-anchor="start" x="252" y="-50" font-family="arial" font-size="10.00"> + getDureeGarantie() : int </text>
<text text-anchor="start" x="252" y="-37" font-family="arial" font-size="10.00"> + setDureeGarantie(dureeGarantie : int) </text>
<text text-anchor="start" x="252" y="-24" font-family="arial" font-size="10.00"> + getDureeFabrication() : int </text>
<text text-anchor="start" x="252" y="-11" font-family="arial" font-size="10.00"> + setDureeFabrication(dureeFabrication : int) </text>
</a>
</g>
<g><a xlink:href="./PieceBasique.html" xlink:title="&lt;TABLE&gt;">
</a>
</g>
</g>
<!-- c47 -->
<g id="node3" class="node"><title>c47</title>
<g id="a_node3"><a xlink:href="./Piece.html" xlink:title="&lt;TABLE&gt;">
</a>
</g>
<g id="a_node3_2"><a xlink:href="./Piece.html" xlink:title="tp8.Piece">
<polygon fill="lemonChiffon" stroke="none" points="8,-116.5 8,-459.5 196,-459.5 196,-116.5 8,-116.5"/>
<polygon fill="none" stroke="black" points="8,-427 8,-459 196,-459 196,-427 8,-427"/>
<text text-anchor="start" x="76" y="-447" font-family="arial" font-size="10.00"> «abstract» </text>
<text text-anchor="start" x="86.5" y="-434" font-family="arial italic" font-size="10.00"> Piece </text>
<polygon fill="none" stroke="black" points="8,-395 8,-427 196,-427 196,-395 8,-395"/>
<text text-anchor="start" x="12" y="-415" font-family="arial" font-size="10.00"> &#45; nom : String </text>
<text text-anchor="start" x="12" y="-402" font-family="arial" font-size="10.00"> &#45; reference : String </text>
<polygon fill="none" stroke="black" points="8,-116 8,-395 196,-395 196,-116 8,-116"/>
<text text-anchor="start" x="12" y="-383" font-family="arial" font-size="10.00"> «create» </text>
<text text-anchor="start" x="12" y="-370" font-family="arial" font-size="10.00"> + Piece(nom : String, reference : String) </text>
<text text-anchor="start" x="12" y="-357" font-family="arial" font-size="10.00"> «create» </text>
<text text-anchor="start" x="12" y="-344" font-family="arial" font-size="10.00"> + Piece(nom : String) </text>
<text text-anchor="start" x="12" y="-331" font-family="arial" font-size="10.00"> «abstract» </text>
<text text-anchor="start" x="12" y="-318" font-family="arial italic" font-size="10.00"> + prix() : int </text>
<text text-anchor="start" x="12" y="-305" font-family="arial" font-size="10.00"> «abstract» </text>
<text text-anchor="start" x="12" y="-292" font-family="arial italic" font-size="10.00"> + dureeGarantie() : int </text>
<text text-anchor="start" x="12" y="-279" font-family="arial" font-size="10.00"> «abstract» </text>
<text text-anchor="start" x="12" y="-266" font-family="arial italic" font-size="10.00"> + dureeFabrication() : int </text>
<text text-anchor="start" x="12" y="-253" font-family="arial" font-size="10.00"> «abstract» </text>
<text text-anchor="start" x="12" y="-240" font-family="arial italic" font-size="10.00"> # getPrefixe() : String </text>
<text text-anchor="start" x="12" y="-227" font-family="arial" font-size="10.00"> + affiche() </text>
<text text-anchor="start" x="12" y="-214" font-family="arial" font-size="10.00"> + toString(i : int) : String </text>
<text text-anchor="start" x="12" y="-201" font-family="arial" font-size="10.00"> + toString() : String </text>
<text text-anchor="start" x="12" y="-188" font-family="arial" font-size="10.00"> # indentation(i : int) : String </text>
<text text-anchor="start" x="12" y="-175" font-family="arial" font-size="10.00"> + nouvelleReference() : String </text>
<text text-anchor="start" x="12" y="-162" font-family="arial" font-size="10.00"> + getReference() : String </text>
<text text-anchor="start" x="12" y="-149" font-family="arial" font-size="10.00"> + setReference(reference : String) </text>
<text text-anchor="start" x="12" y="-136" font-family="arial" font-size="10.00"> + getNom() : String </text>
<text text-anchor="start" x="12" y="-123" font-family="arial" font-size="10.00"> + setNom(nom : String) </text>
</a>
</g>
<g><a xlink:href="./Piece.html" xlink:title="&lt;TABLE&gt;">
</a>
</g>
</g>
<!-- c47&#45;&gt;c45 -->
<g id="edge1" class="edge"><title>c47:p&#45;&gt;c45:p</title>
<path fill="none" stroke="black" d="M205.886,-332.453C238.566,-346.573 275.515,-362.538 311.225,-377.967"/>
<polygon fill="none" stroke="black" points="206.906,-329.081 196.338,-328.328 204.129,-335.507 206.906,-329.081"/>
</g>
<!-- c47&#45;&gt;c46 -->
<g id="edge2" class="edge"><title>c47:p&#45;&gt;c46:p</title>
<path fill="none" stroke="black" d="M205.567,-243.963C219.076,-238.163 233.317,-232.049 247.903,-225.786"/>
<polygon fill="none" stroke="black" points="204.146,-240.764 196.338,-247.926 206.907,-247.197 204.146,-240.764"/>
</g>
</g>
</svg>
